<?xml version="1.0" standalone="no"?>
<!DOCTYPE svg PUBLIC "-//W3C//DTD SVG 1.1//EN" "http://www.w3.org/Graphics/SVG/1.1/DTD/svg11.dtd" >
<svg xmlns="http://www.w3.org/2000/svg" xmlns:xlink="http://www.w3.org/1999/xlink" version="1.1">
<metadata></metadata>
<defs>
<font id="gorditaregular_italic" horiz-adv-x="1823" >
<font-face units-per-em="2048" ascent="1638" descent="-410" />
<missing-glyph horiz-adv-x="572" />
<glyph unicode="&#xfb01;" horiz-adv-x="1247" d="M118 0l251 955h-211l36 138h212l66 250q46 175 141.5 252.5t241.5 77.5q102 0 146 -31l-35 -136q-52 26 -117 26q-91 0 -143 -51q-55 -53 -86 -173l-56 -215h651l-288 -1093h-160l251 955h-490l-251 -955h-159zM1118 1472q0 55 38 94t93 39q47 0 77.5 -30t30.5 -77 q0 -56 -38.5 -94.5t-93.5 -38.5q-47 0 -77 30t-30 77z" />
<glyph unicode="&#xfb02;" horiz-adv-x="1248" d="M118 0l251 955h-211l36 138h212l66 250q46 175 141.5 252.5t241.5 77.5q102 0 146 -31l-35 -136q-52 26 -117 26q-91 0 -143 -51q-55 -53 -86 -173l-56 -215h489l152 576h160l-439 -1669h-161l252 955h-489l-251 -955h-159z" />
<glyph unicode="&#xfb03;" horiz-adv-x="1872" d="M118 0l251 955h-211l36 138h212l66 250q46 175 141.5 252.5t241.5 77.5q102 0 146 -31l-35 -136q-52 26 -117 26q-91 0 -143 -51q-55 -53 -86 -173l-56 -215h489l66 250q46 175 141.5 252.5t241.5 77.5q101 0 147 -31l-36 -136q-50 26 -116 26q-90 0 -144 -51 q-54 -52 -85 -173l-56 -215h648l-288 -1093h-160l252 955h-489l-251 -955h-159l252 955h-489l-251 -955h-159zM1763 1472q0 55 38 94t93 39q47 0 78 -30t31 -77q0 -55 -38.5 -94t-93.5 -39q-47 0 -77.5 30t-30.5 77z" />
<glyph unicode="&#xfb04;" horiz-adv-x="1896" d="M118 0l251 955h-211l36 138h212l66 250q46 175 141.5 252.5t241.5 77.5q102 0 146 -31l-35 -136q-52 26 -117 26q-91 0 -143 -51q-55 -53 -86 -173l-56 -215h489l66 250q46 175 142 252.5t242 77.5q102 0 146 -31l-36 -136q-50 26 -116 26q-90 0 -144 -51 q-54 -54 -85 -173l-56 -215h488l152 576h160l-439 -1669h-160l251 955h-489l-251 -955h-158l251 955h-489l-251 -955h-159z" />
<glyph horiz-adv-x="0" />
<glyph horiz-adv-x="682" />
<glyph horiz-adv-x="0" />
<glyph horiz-adv-x="0" />
<glyph unicode="&#xd;" horiz-adv-x="572" />
<glyph unicode=" "  horiz-adv-x="572" />
<glyph unicode="&#x09;" horiz-adv-x="572" />
<glyph unicode="&#xa0;" horiz-adv-x="572" />
<glyph unicode="!" horiz-adv-x="591" d="M62 89q0 -48 30 -77.5t78 -29.5q55 0 93.5 39t38.5 94q0 47 -31 77t-78 30q-55 0 -93 -39t-38 -94zM206 465l289 1139h170l-315 -1139h-144z" />
<glyph unicode="&#x22;" horiz-adv-x="838" d="M290 950l72 453q4 29 10.5 57t20 60.5t36 52.5t52.5 20q43 0 64.5 -26.5t21.5 -69.5q0 -60 -57 -188l-152 -359h-68zM669 950l72 453q4 29 10.5 57t20 60.5t36 52.5t52.5 20q43 0 64.5 -26.5t21.5 -69.5q0 -64 -58 -188l-151 -359h-68z" />
<glyph unicode="#" horiz-adv-x="1618" d="M86 444l35 134h288l169 482h-297l35 135h310l144 409h150l-144 -409h487l145 409h149l-144 -409h275l-36 -135h-287l-169 -482h298l-37 -134h-309l-156 -444h-149l156 444h-487l-156 -444h-151l156 444h-275zM558 578h490l169 482h-490z" />
<glyph unicode="$" horiz-adv-x="1314" d="M104 505q0 17 1 26l161 27q-1 -10 -1 -29q0 -131 63.5 -227t174.5 -136l153 582l-52 23q-128 56 -210 155t-82 227q0 106 44.5 195t119.5 147t171.5 90t201.5 32q6 0 17.5 -0.5t16.5 -0.5l55 209h140l-60 -231q85 -24 151 -74t102 -108.5t54 -114.5t18 -105l-157 -30 q0 28 -9.5 63.5t-30.5 79t-65 82t-104 58.5l-154 -585l47 -20q150 -65 231.5 -166t81.5 -232q0 -90 -35.5 -171.5t-101.5 -144.5t-171 -100.5t-234 -37.5q-16 0 -46 2l-52 -199h-140l59 225q-160 52 -259 184.5t-99 304.5zM481 1165q0 -74 44.5 -134.5t129.5 -97.5l44 -19 l145 552h-5q-92 0 -171.5 -32t-133 -102t-53.5 -167zM634 141h18q149 0 254.5 79t105.5 215q0 158 -199 245l-33 14z" />
<glyph unicode="%" horiz-adv-x="1889" d="M235 0l1390 1604h179l-1392 -1604h-177zM279 1218q0 167 113 284t278 117q141 0 232 -90t91 -232q0 -167 -114 -284t-280 -117q-141 0 -230.5 90t-89.5 232zM414 1219q0 -84 54 -137t139 -53q109 0 179.5 81t70.5 189q0 82 -54 135t-139 53q-110 0 -180 -81t-70 -187z M1045 310q0 166 113 283.5t278 117.5q141 0 232 -90.5t91 -232.5q0 -167 -114 -283.5t-279 -116.5q-142 0 -231.5 90t-89.5 232zM1181 310q0 -84 53.5 -137t138.5 -53q109 0 180 81t71 189q0 82 -54.5 135.5t-138.5 53.5q-110 0 -180 -81t-70 -188z" />
<glyph unicode="&#x26;" horiz-adv-x="1456" d="M79 371q0 88 36 165.5t98.5 136t134 101.5t154.5 75l66 25l-45 72q-85 133 -85 279q0 111 59 202t156.5 142t210.5 51q164 0 278.5 -103t114.5 -266q0 -249 -335 -378l-147 -57l268 -422q129 140 225 315l122 -60q-113 -209 -271 -367l180 -282h-173l-117 184 q-115 -92 -245.5 -145t-255.5 -53q-185 0 -307 106.5t-122 278.5zM244 394q0 -125 78 -194.5t206 -69.5q101 0 207 45.5t200 121.5l-297 466l-20 -8q-374 -142 -374 -361zM595 1223q0 -119 83 -247l31 -50l183 71q86 33 147 97t61 145q0 105 -68 174t-171 69 q-113 0 -189.5 -74.5t-76.5 -184.5z" />
<glyph unicode="'" horiz-adv-x="458" d="M290 950l72 453q4 29 10.5 57t20 60.5t36 52.5t52.5 20q43 0 64.5 -26.5t21.5 -69.5q0 -60 -57 -188l-152 -359h-68z" />
<glyph unicode="(" horiz-adv-x="902" d="M158 590q0 182 59 354t174.5 328t297.5 289.5t418 228.5l54 -114q-213 -93 -376 -217t-263 -265t-150.5 -291.5t-50.5 -308.5q0 -106 20 -202t49.5 -168t79.5 -147t94 -127t109 -120l-93 -97q-192 166 -307 381.5t-115 475.5z" />
<glyph unicode=")" horiz-adv-x="903" d="M-132 -149q171 74 310.5 170t237.5 201.5t164.5 224.5t97.5 240t31 246q0 106 -20 202t-49.5 168t-79.5 147.5t-94 127t-109 120.5l93 97q192 -168 307 -383t115 -475q0 -182 -59 -354t-174.5 -327.5t-297.5 -289t-418 -228.5z" />
<glyph unicode="*" horiz-adv-x="1067" d="M323 1365l66 99l281 -183l89 330l118 -31l-89 -331l335 17l8 -119l-332 -20l116 -312l-112 -44l-123 315l-262 -210l-74 93l258 211z" />
<glyph unicode="+" horiz-adv-x="1197" d="M143 698l39 148h426l109 422h153l-109 -422h425l-37 -148h-427l-113 -426h-151l111 426h-426z" />
<glyph unicode="," horiz-adv-x="591" d="M-13 -299l23 81q93 16 155 80.5t70 136.5q-27 -15 -64 -15q-52 0 -85 33.5t-33 86.5q0 62 46.5 106.5t109.5 44.5q71 0 107 -45.5t36 -117.5q0 -156 -106 -269t-259 -122z" />
<glyph unicode="-" horiz-adv-x="902" d="M164 556l44 169h587l-44 -169h-587z" />
<glyph unicode="." horiz-adv-x="572" d="M54 113q0 67 47 115t114 48q57 0 95 -37t38 -95q0 -68 -47 -115t-115 -47q-57 0 -94.5 36.5t-37.5 94.5z" />
<glyph unicode="/" horiz-adv-x="1095" d="M-41 -10l1154 1678h188l-1155 -1678h-187z" />
<glyph unicode="0" horiz-adv-x="1573" d="M179 593q0 150 38 299t111 279.5t171 231t227 159t269 58.5q256 0 401.5 -168.5t145.5 -440.5q0 -150 -38 -299t-111 -279.5t-171 -231.5t-227 -159.5t-269 -58.5q-258 0 -402.5 168t-144.5 442zM351 593q0 -132 43 -234t131.5 -162t211.5 -60q103 0 201 50.5t175 137 t136 197.5t90.5 238t31.5 251q0 202 -102.5 328.5t-286.5 126.5q-102 0 -200 -50t-174.5 -137t-135 -197.5t-90 -237.5t-31.5 -251z" />
<glyph unicode="1" horiz-adv-x="896" d="M228 1312l572 292h155l-428 -1604h-167l374 1400l-453 -229z" />
<glyph unicode="2" horiz-adv-x="1303" d="M-4 0q43 226 172.5 377t349.5 258l314 154q74 36 130 73t104 85t73.5 108t25.5 129q0 131 -82.5 206.5t-235.5 75.5q-90 0 -164.5 -35t-121 -91.5t-72 -124.5t-25.5 -138v-12l-165 19v9q0 143 73 264t202.5 192.5t287.5 71.5q115 0 206.5 -33t150 -91.5t89.5 -136 t31 -168.5q0 -329 -435 -540l-303 -149q-132 -64 -233 -155t-135 -194h867l-42 -154h-1062z" />
<glyph unicode="3" horiz-adv-x="1325" d="M82 463l163 30q-3 -50 5.5 -97.5t32.5 -95t62 -83t100 -57.5t141 -22q177 0 302.5 107t125.5 282q0 123 -94.5 196.5t-224.5 73.5q-65 0 -140 -24l-57 140l662 538h-805l41 153h1032l-44 -161l-617 -503q94 -3 170 -34q118 -49 185.5 -148.5t67.5 -222.5 q0 -171 -85.5 -298t-223 -190t-305.5 -63q-113 0 -203.5 33.5t-144.5 85t-89.5 117t-47.5 126.5t-9 117z" />
<glyph unicode="4" horiz-adv-x="1401" d="M26 380l47 185l1053 1039h224l-289 -1080h270l-39 -144h-269l-102 -380h-162l101 380h-834zM232 524h667l235 890z" />
<glyph unicode="5" horiz-adv-x="1307" d="M82 449l163 35q-4 -154 95 -251.5t251 -97.5q192 0 315 127.5t123 314.5q0 117 -88 210.5t-232 93.5q-96 0 -190 -42t-169 -112l-145 70l349 807h840l-42 -157h-701l-222 -515h2q143 96 328 96q125 0 227 -61t158.5 -162.5t56.5 -218.5q0 -134 -50 -248.5t-134 -191 t-195.5 -119.5t-234.5 -43q-143 0 -259.5 59.5t-182.5 166.5t-63 239z" />
<glyph unicode="6" horiz-adv-x="1423" d="M179 594q0 218 77 419t218 344q262 265 630 265q240 0 374 -100l-83 -146q-121 85 -301 85q-267 0 -479 -202q-89 -85 -158 -203.5t-88 -224.5h4q81 102 205 163t250 61q138 0 250.5 -57t179.5 -165t67 -247q0 -127 -49 -239.5t-132.5 -191.5t-197.5 -124.5t-240 -45.5 q-139 0 -249 55t-178 156q-53 78 -76.5 166t-23.5 232zM349 497q0 -156 103.5 -256.5t257.5 -100.5q119 0 221.5 54.5t164 152.5t61.5 216q0 154 -107.5 249.5t-262.5 95.5q-116 0 -216 -52.5t-161 -147.5t-61 -211z" />
<glyph unicode="7" horiz-adv-x="1200" d="M106 0l1083 1449h-902l41 155h1092l-44 -156l-1074 -1448h-196z" />
<glyph unicode="8" horiz-adv-x="1394" d="M115 409q0 92 36 169t100 131t146 90t178 53q-107 41 -175 125t-68 207q0 119 71.5 219.5t197 159t276.5 58.5q216 0 361.5 -116.5t145.5 -295.5q0 -84 -33.5 -155t-91.5 -121t-129 -84t-152 -51q111 -40 188.5 -131t77.5 -222q0 -129 -77 -235t-212.5 -166.5 t-300.5 -60.5q-147 0 -271 56.5t-196 154.5t-72 215zM296 427q0 -128 106 -211t264 -83q169 0 283 90.5t114 230.5q0 121 -104 210t-262 89q-175 0 -288 -95.5t-113 -230.5zM496 1168q0 -116 99.5 -196.5t241.5 -80.5q170 0 277 90.5t107 209.5q0 120 -99 200t-249 80 q-158 0 -267.5 -88t-109.5 -215z" />
<glyph unicode="9" horiz-adv-x="1428" d="M94 98l83 146q67 -47 150 -72.5t164 -25.5q267 0 476 199q88 84 153.5 200t85.5 224h-4q-81 -102 -207.5 -163.5t-252.5 -61.5q-211 0 -353.5 131.5t-142.5 341.5q0 170 84.5 309.5t226.5 217.5t311 78q135 0 246.5 -54.5t178.5 -154.5q52 -77 76.5 -171.5t24.5 -240.5 q0 -213 -73.5 -413.5t-211.5 -340.5q-259 -262 -620 -262q-243 0 -395 113zM415 1040q0 -154 109.5 -252t264.5 -98q115 0 215 54.5t160 152t60 213.5q0 157 -102.5 258t-255.5 101q-119 0 -222.5 -56t-166 -155.5t-62.5 -217.5z" />
<glyph unicode=":" horiz-adv-x="609" d="M51 113q0 67 47 115t114 48q57 0 95 -37t38 -95q0 -68 -47.5 -115t-114.5 -47q-58 0 -95 36.5t-37 94.5zM274 947q0 68 47 115.5t114 47.5q57 0 95 -37t38 -94q0 -68 -47.5 -115.5t-114.5 -47.5q-57 0 -94.5 37t-37.5 94z" />
<glyph unicode=";" horiz-adv-x="649" d="M-3 -299l23 81q93 16 155 80.5t70 136.5q-27 -15 -64 -15q-52 0 -85 33.5t-33 86.5q0 62 46.5 106.5t109.5 44.5q71 0 107 -45.5t36 -117.5q0 -156 -106 -269t-259 -122zM286 947q0 68 46.5 115.5t113.5 47.5q57 0 95 -37t38 -94q0 -68 -47.5 -115.5t-114.5 -47.5 q-57 0 -94 36.5t-37 94.5z" />
<glyph unicode="&#x3c;" horiz-adv-x="1316" d="M132 702l38 147l1194 503l-46 -174l-995 -419l776 -415l-39 -147z" />
<glyph unicode="=" horiz-adv-x="1280" d="M147 462l42 157h949l-42 -157h-949zM269 924l42 159h949l-42 -159h-949z" />
<glyph unicode="&#x3e;" horiz-adv-x="1315" d="M86 197l45 174l996 419l-776 415l39 147l928 -505l-39 -147z" />
<glyph unicode="?" horiz-adv-x="1158" d="M258 1124q3 142 76.5 256t197 177.5t272.5 63.5q116 0 214.5 -47t157.5 -132t59 -189q0 -86 -27.5 -156t-74 -118.5t-103 -91t-117.5 -84.5t-115.5 -86.5t-99 -109t-65.5 -142.5h-150q13 76 41.5 141.5t65 113t80 88.5t88.5 73t89 62.5t82 61.5t67.5 64.5t46.5 77.5 t17 95q0 70 -42.5 122.5t-102.5 76t-126 23.5q-78 0 -141.5 -22.5t-105 -59.5t-70 -85t-40.5 -96.5t-12 -97.5zM340 89q0 55 38 94t93 39q47 0 77.5 -30t30.5 -77q0 -56 -38.5 -94.5t-93.5 -38.5q-47 0 -77 29.5t-30 77.5z" />
<glyph unicode="@" horiz-adv-x="1791" d="M156 543q0 185 72.5 356.5t194.5 297t290 200.5t350 75q134 0 260.5 -45.5t224 -125t156.5 -198t59 -255.5q0 -149 -58.5 -285.5t-166 -224t-236.5 -87.5q-169 0 -194 148q-134 -147 -298 -147q-126 0 -206 92.5t-80 216.5t64.5 237t173.5 182t231 69q78 0 141 -39 t88 -110l43 143h150l-155 -513q-10 -33 -10 -62q0 -82 80 -82q78 0 141.5 47.5t100.5 120t56.5 149t19.5 143.5q0 110 -48.5 207t-129 163.5t-188 105t-223.5 38.5q-157 0 -302.5 -66t-251.5 -176t-169.5 -258.5t-63.5 -307.5q0 -269 172.5 -436.5t444.5 -167.5 q115 0 235 39t220 105l46 -94q-99 -74 -242 -118.5t-269 -44.5q-205 0 -370.5 91t-259 253t-93.5 364zM671 577q0 -84 49 -140t131 -56q83 0 157.5 51t118 132t43.5 166q0 87 -52 139t-133 52q-121 0 -217.5 -108t-96.5 -236z" />
<glyph unicode="A" horiz-adv-x="1601" d="M-130 0l1139 1604h195l249 -1604h-170l-61 411h-875l-290 -411h-187zM454 563h745l-129 869z" />
<glyph unicode="B" horiz-adv-x="1509" d="M89 0l428 1604h479q236 0 367 -102t131 -272q0 -164 -113.5 -275t-289.5 -147q126 -38 205 -121.5t79 -211.5q0 -209 -181.5 -342t-492.5 -133h-612zM296 153h419q224 0 356.5 89.5t132.5 243.5q0 123 -104.5 189t-278.5 66h-368zM493 890h353q217 0 346.5 88.5 t129.5 235.5q0 114 -86.5 175.5t-245.5 61.5h-348z" />
<glyph unicode="C" horiz-adv-x="1728" d="M183 685q0 144 45 283t129 256t195.5 206t254.5 139.5t296 50.5q122 0 228 -33t179 -86t129 -122.5t86.5 -138t44.5 -137.5l-163 -50q-6 47 -27 98.5t-63.5 108t-100 101.5t-144.5 74t-189 29q-150 0 -286 -65.5t-231 -173.5t-151 -250t-56 -291q0 -237 146 -389.5 t385 -152.5q105 0 199.5 30.5t159 74.5t119 103t84.5 107.5t51 95.5l156 -62q-27 -68 -70.5 -134t-113.5 -135t-155 -120.5t-203 -84.5t-249 -33q-144 0 -271 53t-218 145t-143.5 223t-52.5 280z" />
<glyph unicode="D" horiz-adv-x="1681" d="M89 0l428 1604h329q240 0 418.5 -75t280.5 -228.5t102 -369.5q0 -167 -53.5 -314t-151 -259t-230.5 -193t-296.5 -123t-344.5 -42h-482zM299 157h297q180 0 340.5 55t279.5 153t188 242.5t69 314.5q0 133 -47.5 234.5t-133 164.5t-199 94.5t-252.5 31.5h-197z" />
<glyph unicode="E" horiz-adv-x="1356" d="M89 0l428 1604h996l-41 -155h-828l-149 -556h757l-41 -155h-757l-156 -583h836l-41 -155h-1004z" />
<glyph unicode="F" horiz-adv-x="1313" d="M89 0l428 1604h993l-41 -157h-826l-154 -578h755l-42 -155h-754l-191 -714h-168z" />
<glyph unicode="G" horiz-adv-x="1785" d="M181 673q0 116 31 232.5t87.5 221.5t139.5 195.5t183.5 156.5t224 104t255.5 38q117 0 221 -31.5t178.5 -82t132 -115.5t89.5 -131t43 -129l-164 -50q-10 42 -26.5 83.5t-56 99t-92 99.5t-140 72.5t-194.5 30.5q-159 0 -299 -70.5t-234.5 -183t-149 -254t-54.5 -283.5 q0 -111 35 -207.5t100 -170t166 -115.5t226 -42q243 0 422 129.5t244 351.5h-681l37 155h854q-19 -179 -97 -328.5t-196.5 -250.5t-271.5 -157t-322 -56q-158 0 -289.5 55t-218.5 149t-135 219t-48 265z" />
<glyph unicode="H" horiz-adv-x="1701" d="M89 0l428 1604h168l-190 -710h906l190 710h169l-428 -1604h-169l196 734h-906l-196 -734h-168z" />
<glyph unicode="I" horiz-adv-x="626" d="M89 0l428 1604h168l-428 -1604h-168z" />
<glyph unicode="J" horiz-adv-x="1251" d="M59 388q0 84 33 218l14 56l164 5l-31 -133q-18 -74 -18 -124q0 -126 79.5 -197.5t194.5 -71.5q274 0 358 316l307 1147h168l-311 -1164q-122 -456 -528 -456q-193 0 -311.5 107.5t-118.5 296.5z" />
<glyph unicode="K" horiz-adv-x="1386" d="M89 0l428 1604h168l-187 -705h11l891 705h249l-998 -789l608 -815h-209l-573 776h-12l-208 -776h-168z" />
<glyph unicode="L" horiz-adv-x="1184" d="M89 0l428 1604h168l-386 -1447h761l-42 -157h-929z" />
<glyph unicode="M" horiz-adv-x="2131" d="M89 0l428 1604h230l230 -1375l964 1375h250l-429 -1604h-166l362 1361h-1l-955 -1361h-145l-234 1377h-2l-367 -1377h-165z" />
<glyph unicode="N" horiz-adv-x="1758" d="M89 0l428 1604h197l573 -1365l364 1365h166l-428 -1604h-184l-580 1381l-370 -1381h-166z" />
<glyph unicode="O" d="M179 670q0 181 71.5 353.5t192.5 304t293.5 212t362.5 80.5q150 0 280 -53t220 -144.5t141.5 -217.5t51.5 -269q0 -181 -71.5 -354.5t-192.5 -305t-293.5 -212t-362.5 -80.5q-201 0 -360 91t-246 247t-87 348zM354 674q0 -151 64 -272t185 -191.5t279 -70.5 q154 0 292.5 68t234.5 178.5t152.5 254t56.5 291.5q0 151 -63.5 271t-184 190.5t-278.5 70.5q-123 0 -238 -43.5t-204.5 -120.5t-157 -176t-103 -215.5t-35.5 -234.5z" />
<glyph unicode="P" horiz-adv-x="1420" d="M89 0l428 1604h445q287 0 428 -137q110 -107 110 -283q0 -262 -203 -408.5t-540 -146.5h-332l-168 -629h-168zM466 782h303q265 0 411.5 102.5t146.5 289.5q0 138 -101.5 205.5t-268.5 67.5h-314z" />
<glyph unicode="Q" horiz-adv-x="1828" d="M179 670q0 181 71.5 353.5t192.5 304t293.5 212t362.5 80.5q150 0 280 -53t220 -144.5t141.5 -217.5t51.5 -269q0 -200 -83.5 -385.5t-231.5 -321.5l157 -181l-129 -96l-150 184q-226 -152 -483 -152q-201 0 -360 91t-246 247t-87 348zM354 674q0 -151 64 -272 t185 -191.5t279 -70.5q201 0 377 118l-254 301l130 99l242 -302q113 114 177 265.5t64 310.5q0 151 -63.5 271t-184 190.5t-278.5 70.5q-123 0 -238 -43.5t-204.5 -120.5t-157 -176t-103 -215.5t-35.5 -234.5z" />
<glyph unicode="R" horiz-adv-x="1486" d="M89 0l428 1604h471q261 0 401 -109.5t140 -303.5q0 -233 -182 -377q-158 -124 -427 -150l327 -664h-193l-317 649h-307l-173 -649h-168zM471 801h336q308 0 454 146q93 95 93 230q0 134 -99.5 202t-276.5 68h-335z" />
<glyph unicode="S" horiz-adv-x="1311" d="M99 503q0 18 1 26l161 27v-28q0 -174 107.5 -282.5t280.5 -108.5q150 0 256 79.5t106 216.5q0 159 -200 247l-209 91q-128 56 -211 155.5t-83 228.5q0 141 77 249t198.5 162.5t263.5 54.5q106 0 194 -30.5t142.5 -77.5t92 -105.5t53 -112.5t15.5 -101l-157 -30 q0 22 -6 50t-19.5 63.5t-40 68.5t-63 61t-94 45t-126.5 17q-68 0 -131.5 -19t-115 -55t-82.5 -95t-31 -133t44.5 -135t130.5 -98l216 -94q150 -65 232 -166.5t82 -233.5q0 -91 -35.5 -172.5t-102 -145t-172 -101t-235.5 -37.5q-149 0 -272.5 67.5t-195 187t-71.5 264.5z" />
<glyph unicode="T" horiz-adv-x="1323" d="M284 1447l43 157l1241 1l-43 -158h-536l-386 -1447h-169l386 1447h-536z" />
<glyph unicode="U" horiz-adv-x="1612" d="M215 447q0 105 32 227l246 930h169l-259 -973q-21 -82 -21 -163q0 -151 95.5 -239.5t281.5 -88.5q191 0 321 129q120 119 182 352q174 654 262 983h169l-270 -1011q-76 -277 -228 -429q-180 -180 -451 -180q-253 0 -391 126.5t-138 336.5z" />
<glyph unicode="V" horiz-adv-x="1577" d="M332 1604h176l176 -1413l928 1413h193l-1068 -1604h-189z" />
<glyph unicode="W" horiz-adv-x="2347" d="M333 1604h170l71 -1370h4l772 1370h191l56 -1372h4l791 1372h177l-932 -1604h-183l-58 1378l-788 -1378h-179z" />
<glyph unicode="X" horiz-adv-x="1459" d="M-108 0l816 835l-392 769h186l329 -657l641 657h221l-786 -795l408 -809h-186l-344 697l-667 -697h-226z" />
<glyph unicode="Y" horiz-adv-x="1512" d="M333 1604h186l296 -775l711 775h214l-881 -948l-175 -656h-169l183 685z" />
<glyph unicode="Z" horiz-adv-x="1309" d="M-66 0l40 155l1276 1296h-899l43 153h1112l-42 -155l-1281 -1295h947l-41 -154h-1155z" />
<glyph unicode="[" horiz-adv-x="850" d="M13 -248l530 2013h561l-36 -137h-405l-458 -1738h406l-37 -138h-561z" />
<glyph unicode="\" horiz-adv-x="1036" d="M370 1668h158l297 -1678h-157z" />
<glyph unicode="]" horiz-adv-x="849" d="M-130 -248l36 138h406l457 1738h-405l36 137h561l-530 -2013h-561z" />
<glyph unicode="^" horiz-adv-x="1199" d="M224 923l602 681h137l245 -681h-175l-169 520l-442 -520h-198z" />
<glyph unicode="_" horiz-adv-x="1093" d="M-225 -313l36 134h1093l-36 -134h-1093z" />
<glyph unicode="`" horiz-adv-x="339" d="M245 1632h184l128 -352h-138z" />
<glyph unicode="a" horiz-adv-x="1380" d="M104 442q0 141 51 267.5t135 214t195 138.5t228 51q292 0 408 -265l63 245h159l-235 -893q-22 -79 -27 -162q-2 -10 0 -38h-163v25q0 54 31 166q-191 -209 -415 -209q-188 0 -309 127t-121 333zM271 455q0 -151 85 -241.5t224 -90.5q120 0 232.5 72t183 191.5t70.5 249.5 q0 144 -94.5 240.5t-243.5 96.5q-127 0 -232.5 -71.5t-165 -190t-59.5 -256.5z" />
<glyph unicode="b" horiz-adv-x="1377" d="M45 0l439 1668h159l-201 -763q91 99 189.5 153.5t222.5 54.5q186 0 308 -127t122 -332q0 -142 -51 -268t-135 -214t-195 -139t-228 -51q-156 0 -256.5 73.5t-152.5 193.5l-65 -249h-156zM322 461q0 -144 94.5 -241t243.5 -97q127 0 232.5 71t164.5 189.5t59 256.5 q0 151 -84.5 241.5t-223.5 90.5q-119 0 -232 -71.5t-183.5 -191t-70.5 -248.5z" />
<glyph unicode="c" horiz-adv-x="1267" d="M104 468q0 167 86.5 316t234.5 239t317 90q108 0 196.5 -34t143.5 -88.5t88 -114t44 -119.5l-148 -51q-8 50 -30 95t-60.5 85t-101 63.5t-142.5 23.5q-123 0 -232.5 -72.5t-172.5 -188.5t-63 -241q0 -158 95.5 -252.5t258.5 -94.5q73 0 141 25t116.5 65t82 81t52.5 81 l139 -61q-32 -62 -82.5 -119t-118 -106t-156.5 -78.5t-184 -29.5q-220 0 -362 133.5t-142 352.5z" />
<glyph unicode="d" horiz-adv-x="1379" d="M104 442q0 141 51 267.5t135 214t195 138.5t228 51q289 0 407 -262l216 818h159l-388 -1469q-22 -87 -27 -162v-38h-162q0 4 -0.5 12.5t-0.5 12.5q0 56 33 169q-92 -101 -191.5 -156.5t-224.5 -55.5q-188 0 -309 127t-121 333zM272 455q0 -151 84.5 -241.5t223.5 -90.5 q120 0 232.5 72t183 191.5t70.5 249.5q0 144 -94.5 240.5t-243.5 96.5q-127 0 -232.5 -71.5t-164.5 -190t-59 -256.5z" />
<glyph unicode="e" horiz-adv-x="1252" d="M106 474q0 120 48 236.5t128.5 205t193.5 143t235 54.5q215 0 334 -124.5t119 -340.5q0 -84 -21 -151h-878q-1 -10 -1 -29q0 -160 93 -253t242 -93q72 0 138 21.5t112.5 56.5t79 71.5t52.5 73.5l129 -73q-65 -123 -203 -207t-312 -84q-216 0 -352.5 136t-136.5 357z M283 633h722q1 11 1 33q0 141 -80 224t-221 83t-265.5 -101t-156.5 -239z" />
<glyph unicode="f" horiz-adv-x="721" d="M118 0l251 955h-211l36 138h212l66 250q46 175 141.5 252.5t241.5 77.5q102 0 146 -31l-35 -136q-52 26 -117 26q-91 0 -143 -51q-55 -53 -86 -173l-56 -215h279l-36 -138h-279l-251 -955h-159z" />
<glyph unicode="g" horiz-adv-x="1382" d="M-67 -109l152 33q0 -37 9 -77.5t33.5 -87t61.5 -82.5t101 -60t144 -24q96 0 175.5 30t135 84t93 122.5t59.5 152.5l59 226q-175 -191 -410 -191q-118 0 -217.5 56t-160 159.5t-60.5 232.5q0 136 53.5 259t139 207t195 133t220.5 49q300 0 411 -261l64 241h157l-294 -1117 q-66 -249 -223 -386t-403 -137q-100 0 -184.5 28t-140.5 73t-95.5 103.5t-57 117.5t-17.5 116zM276 479q0 -142 91 -232t225 -90q86 0 171 39.5t151 104.5t107.5 156.5t41.5 188.5q0 145 -90 236.5t-242 91.5q-120 0 -225 -67.5t-167.5 -182t-62.5 -245.5z" />
<glyph unicode="h" horiz-adv-x="1293" d="M45 0l439 1668h160l-198 -752q85 96 173.5 146.5t204.5 50.5q158 0 253 -91.5t96 -245.5q0 -69 -27 -168l-160 -608h-159l163 618q17 61 17 123q-1 108 -67.5 168.5t-180.5 60.5q-128 0 -240.5 -100t-153.5 -255l-161 -615h-159z" />
<glyph unicode="i" horiz-adv-x="528" d="M46 0l287 1093h160l-287 -1093h-160zM397 1472q0 55 38 94t93 39q47 0 77.5 -30t30.5 -77q0 -56 -38.5 -94.5t-93.5 -38.5q-47 0 -77 30t-30 77z" />
<glyph unicode="j" horiz-adv-x="542" d="M-329 -522l34 131q40 -14 85 -14q79 0 133 43.5t76 124.5l350 1330h159l-361 -1372q-70 -267 -351 -267q-83 0 -125 24zM412 1472q0 55 38 94t93 39q47 0 78 -30t31 -77q0 -55 -38.5 -94t-93.5 -39q-47 0 -77.5 30t-30.5 77z" />
<glyph unicode="k" horiz-adv-x="1112" d="M45 0l440 1669h159l-269 -1020h3l614 444h247l-724 -510l464 -583h-198l-426 547h-7l-144 -547h-159z" />
<glyph unicode="l" horiz-adv-x="527" d="M45 0l439 1669h160l-439 -1669h-160z" />
<glyph unicode="m" horiz-adv-x="1994" d="M45 0l288 1093h156l-46 -181q84 100 165.5 150.5t193.5 50.5q68 0 124 -22t92.5 -59.5t59 -81.5t31.5 -93q74 120 185 188t255 68q143 0 236 -94t93 -243q0 -47 -31 -169l-160 -607h-159l163 617q17 65 17 124q0 108 -63 168.5t-162 60.5q-118 0 -227 -102t-149 -254 l-162 -614h-158l162 618q17 61 17 123q0 103 -60 166t-166 63q-117 0 -225.5 -102t-148.5 -254l-162 -614h-159z" />
<glyph unicode="n" horiz-adv-x="1293" d="M45 0l288 1093h156l-46 -181q86 98 175 149.5t206 51.5q158 0 253 -91.5t96 -245.5q0 -69 -27 -168l-160 -608h-158l162 618q17 61 17 123q0 108 -67 168.5t-181 60.5q-127 0 -239.5 -100t-153.5 -255l-162 -615h-159z" />
<glyph unicode="o" horiz-adv-x="1328" d="M104 468q0 166 86.5 315t234 239.5t316.5 90.5q222 0 358.5 -135.5t136.5 -348.5q0 -170 -88.5 -319.5t-236 -238.5t-314.5 -89q-221 0 -357 136.5t-136 349.5zM264 472q0 -163 94 -255.5t249 -92.5q119 0 227.5 70t173.5 186t65 243q0 164 -94 257t-248 93 q-122 0 -231 -72.5t-172.5 -188t-63.5 -240.5z" />
<glyph unicode="p" horiz-adv-x="1378" d="M-97 -539l430 1632h156l-51 -192q97 103 194.5 157.5t221.5 54.5q187 0 309 -127t122 -332q0 -142 -51 -268t-135.5 -214t-195 -139t-228.5 -51q-155 0 -255 72.5t-151 189.5l-207 -783h-159zM322 461q0 -144 94.5 -241t243.5 -97q127 0 232.5 71t165 189.5t59.5 256.5 q0 151 -85 241.5t-224 90.5q-119 0 -232 -71.5t-183.5 -191t-70.5 -248.5z" />
<glyph unicode="q" horiz-adv-x="1377" d="M104 442q0 141 51 267.5t135.5 214t195 138.5t228.5 51q293 0 408 -267l65 247h156l-430 -1632h-159l192 729q-91 -99 -189 -153.5t-222 -54.5q-188 0 -309.5 127t-121.5 333zM272 455q0 -151 84.5 -241.5t224.5 -90.5q120 0 232.5 72t183 191.5t70.5 249.5 q0 144 -95 240.5t-243 96.5q-127 0 -232.5 -71.5t-165 -190t-59.5 -256.5z" />
<glyph unicode="r" horiz-adv-x="780" d="M45 0l288 1093h156l-50 -189h2q87 116 183 158.5t207 42.5q39 0 61 -10l-45 -167q-35 7 -73 7q-68 0 -130 -24t-109 -63t-85.5 -92t-64 -108.5t-41.5 -113.5l-140 -534h-159z" />
<glyph unicode="s" horiz-adv-x="995" d="M43 346l149 35q-1 -104 69 -182.5t195 -78.5q99 0 159.5 48.5t60.5 127.5q0 106 -136 166l-135 59q-213 93 -213 263q0 137 106.5 233t274.5 96q77 0 141.5 -21t105.5 -53.5t70.5 -75t43.5 -81.5t18 -76l-146 -38q-5 28 -13 52.5t-26.5 54.5t-44 51t-67.5 35t-94 14 q-86 0 -148 -47.5t-62 -131.5q0 -86 109 -134l146 -63q96 -42 163 -120t67 -175q0 -137 -105.5 -230t-282.5 -93q-103 0 -184.5 35t-127.5 90.5t-69.5 117t-23.5 122.5z" />
<glyph unicode="t" horiz-adv-x="767" d="M159 952l37 141h201l83 316h158l-83 -316h273l-38 -141h-272l-172 -652q-7 -32 -7 -56q0 -34 11.5 -57t33.5 -34.5t46 -16t56 -4.5q37 0 94 11l-37 -136q-44 -16 -102 -16q-120 0 -191 59.5t-71 167.5q0 47 13 98l167 636h-200z" />
<glyph unicode="u" horiz-adv-x="1295" d="M131 317q0 64 27 168l160 608h159l-165 -618q-14 -55 -14 -123q0 -110 67 -169.5t179 -59.5q136 0 246.5 108t146.5 248l162 614h159l-235 -893q-23 -84 -28 -162v-38h-160q0 4 -0.5 12.5t-0.5 12.5q0 50 29 156q-86 -98 -177 -149.5t-207 -51.5q-155 0 -251.5 91 t-96.5 246z" />
<glyph unicode="v" horiz-adv-x="1183" d="M193 1093h167l133 -916l608 916h184l-746 -1093h-169z" />
<glyph unicode="w" horiz-adv-x="1770" d="M199 1093h161l55 -899l529 899h165l61 -900l534 900h165l-656 -1093h-178l-61 884l-524 -884h-173z" />
<glyph unicode="x" horiz-adv-x="1126" d="M-102 0l587 566l-280 527h177l216 -419l413 419h209l-557 -543l290 -550h-177l-224 443l-446 -443h-208z" />
<glyph unicode="y" horiz-adv-x="1224" d="M10 -539l388 548l-207 1084h165l165 -917l629 917h184l-1145 -1632h-179z" />
<glyph unicode="z" horiz-adv-x="1044" d="M-56 0l36 137l878 819h-646l36 137h853l-39 -135l-884 -821h678l-36 -137h-876z" />
<glyph unicode="{" horiz-adv-x="859" d="M85 689l37 141q60 1 112.5 15t102.5 44t83.5 87t42.5 135l27 231q15 127 55 210.5t110 130t158 65t215 18.5h83l-36 -138h-67q-88 0 -149.5 -14t-101 -38t-64 -68.5t-36.5 -93.5t-20 -125l-21 -194q-4 -32 -13.5 -66.5t-33 -79.5t-56.5 -82t-88.5 -67t-124.5 -41l-1 -2 q61 -12 100.5 -43t55 -69t16 -85.5t-9.5 -90t-28 -84.5l-66 -156q-23 -54 -36 -91.5t-21 -75.5t-4 -63t18.5 -47.5t44 -35t74.5 -19.5t108 -7h67l-37 -138h-77q-118 0 -197 26.5t-120.5 83t-37.5 149t56 219.5l76 186q107 265 -196 273z" />
<glyph unicode="|" horiz-adv-x="587" d="M15 -238l544 2063h156l-543 -2063h-157z" />
<glyph unicode="}" horiz-adv-x="857" d="M-128 -248l36 138h67q88 0 149.5 14t101 38.5t64 69t36.5 93.5t20 124l21 194q3 32 13 67t33.5 80t56.5 81.5t88.5 66.5t124.5 41l1 2q-61 12 -100.5 43t-55 69t-16 85.5t9.5 90t28 84.5l66 157q23 54 36 91t21 75.5t4 63t-18.5 47t-44 35t-74.5 19.5t-108 7h-67l37 138 h77q118 0 197 -26.5t120.5 -83t37.5 -149t-56 -219.5l-76 -186q-108 -266 196 -272l-37 -141q-48 -1 -90.5 -9.5t-86 -28.5t-76 -51t-56.5 -80.5t-32 -112.5l-27 -230q-15 -127 -55 -211t-110 -130.5t-158 -65t-215 -18.5h-83z" />
<glyph unicode="~" horiz-adv-x="1319" d="M196 657q50 71 121.5 113.5t153.5 42.5q55 0 109.5 -18.5t98.5 -45.5t84.5 -54t82.5 -45.5t79 -18.5q48 0 85 24t80 70l94 -94q-46 -74 -118.5 -116.5t-156.5 -42.5q-60 0 -126.5 28.5t-115 62.5t-107 62.5t-105.5 28.5q-48 0 -84.5 -23t-77.5 -68z" />
<glyph unicode="&#xa1;" horiz-adv-x="545" d="M-87 -509h170l289 1139h-144zM276 980q0 55 38.5 94t93.5 39q48 0 78 -29.5t30 -77.5q0 -55 -38 -94t-93 -39q-47 0 -78 30t-31 77z" />
<glyph unicode="&#xa2;" horiz-adv-x="1297" d="M121 469q0 165 85.5 312.5t231 236.5t312.5 89l32 124h133l-36 -137q146 -33 232.5 -131.5t107.5 -207.5l-147 -51q-14 88 -71 159.5t-161 95.5l-219 -831h9q72 0 139 25t115 64.5t81.5 80t51.5 79.5l138 -60q-31 -61 -81 -117.5t-117 -105t-155.5 -77.5t-182.5 -29h-31 l-34 -129h-133l40 150q-156 44 -248 165.5t-92 294.5zM279 472q0 -122 58.5 -207.5t163.5 -118.5l216 822q-117 -7 -219 -80t-160.5 -184.5t-58.5 -231.5z" />
<glyph unicode="&#xa3;" horiz-adv-x="1334" d="M-3 0l45 168q170 78 275.5 226.5t106.5 329.5h-234l41 153h178q-22 145 -22 198q0 237 140 391t374 154q184 0 301.5 -105t117.5 -249q0 -22 -3 -45l-160 -26q0 3 0.5 11t0.5 11q0 109 -76.5 179t-186.5 70q-86 0 -151.5 -31.5t-105 -87.5t-59.5 -126.5t-20 -152.5 q0 -52 22 -191h441l-41 -153h-384q-1 -178 -89.5 -326t-243.5 -243h472q125 0 208.5 70.5t104.5 188.5l158 -29q-16 -111 -82 -200t-161 -137t-199 -48h-768z" />
<glyph unicode="&#xa4;" horiz-adv-x="1513" d="M204 89l174 174q-103 127 -103 290q0 162 102 291l-173 173l100 100l177 -177q125 87 281 87t283 -86l177 176l99 -100l-172 -172q106 -128 106 -292q0 -163 -106 -291l172 -173l-99 -100l-178 178q-127 -84 -282 -84q-156 0 -280 85l-178 -179zM425 553 q0 -144 95.5 -235.5t241.5 -91.5q147 0 244.5 91.5t97.5 235.5q0 145 -98 239t-244 94t-241.5 -94t-95.5 -239z" />
<glyph unicode="&#xa5;" horiz-adv-x="1531" d="M111 293l36 135h496l51 190h-497l37 135h452l-319 851h184l278 -775l694 775h211l-773 -851h434l-37 -135h-495l-51 -190h496l-36 -135h-496l-78 -293h-169l78 293h-496z" />
<glyph unicode="&#xa6;" horiz-adv-x="581" d="M12 -238l211 800h156l-210 -800h-157zM345 1026l211 799h156l-210 -799h-157z" />
<glyph unicode="&#xa7;" horiz-adv-x="1363" d="M132 361l146 38q9 -52 35.5 -100.5t70 -91t113 -68t154.5 -25.5q105 0 177 47.5t72 116.5q0 59 -59 104.5t-193 92.5l-132 46q-177 62 -252 129t-75 169q0 126 111.5 204t296.5 87q-151 82 -151 211q0 134 123.5 217t308.5 83q87 0 163.5 -23t130.5 -60t94.5 -83.5 t62 -93t26.5 -89.5l-146 -38q-7 44 -31 85.5t-64.5 78.5t-105.5 59.5t-144 22.5q-106 0 -177.5 -47.5t-71.5 -116.5q0 -58 57 -103t185 -90l143 -50q174 -61 250.5 -128.5t76.5 -169.5q0 -125 -112 -203.5t-297 -87.5q151 -79 151 -211q0 -134 -123.5 -216.5t-306.5 -82.5 q-113 0 -208.5 37t-156 95.5t-96.5 124t-46 130.5zM353 832q0 -57 53 -99.5t174 -84.5l77 -27q106 -37 224 -37t199.5 52t81.5 126q0 56 -50 99t-162 81l-91 31q-110 37 -224 37q-119 0 -200.5 -52t-81.5 -126z" />
<glyph unicode="&#xa8;" horiz-adv-x="691" d="M230 1386q0 56 39.5 96.5t95.5 40.5q48 0 79.5 -31t31.5 -79q0 -57 -39.5 -96.5t-95.5 -39.5q-48 0 -79.5 30.5t-31.5 78.5zM624 1386q0 57 39 97t95 40q48 0 80 -31t32 -79q0 -57 -40 -96.5t-96 -39.5q-48 0 -79 30.5t-31 78.5z" />
<glyph unicode="&#xa9;" horiz-adv-x="1900" d="M213 801q0 167 64 318.5t173 261.5t259 175t315 65t315 -65t258.5 -175t172.5 -261.5t64 -318.5q0 -166 -64 -317.5t-172.5 -261t-258.5 -174t-315 -64.5t-315 64.5t-259 174t-173 261t-64 317.5zM319 801q0 -147 55 -280t148.5 -229t224.5 -153t277 -57q145 0 276 57 t225 153t149 229t55 280q0 196 -93 362t-255.5 263t-356.5 97t-356.5 -97t-255.5 -263t-93 -362zM527 799q0 146 68.5 263.5t184.5 182.5t254 65q164 0 291 -90.5t159 -222.5l-142 -46q-10 34 -32.5 69t-59.5 71t-95 58.5t-126 22.5q-149 0 -246.5 -106t-97.5 -259 q0 -155 94 -263.5t250 -108.5q72 0 130.5 23.5t95 62t57 71.5t34.5 70l144 -48q-38 -127 -162.5 -222.5t-299.5 -95.5q-215 0 -358 142.5t-143 360.5z" />
<glyph unicode="&#xaa;" horiz-adv-x="1214" d="M293 429v135h777v-135h-777zM313 1172q0 74 27.5 145t75 126.5t118 89.5t150.5 34q87 0 156 -41t107 -105h5v133h146v-765h-146v131h-5q-34 -64 -105 -102.5t-158 -38.5q-163 0 -267 116.5t-104 276.5zM463 1170q0 -107 70.5 -182.5t175.5 -75.5t174.5 77.5t69.5 184.5 q0 103 -71 180.5t-173 77.5q-109 0 -177.5 -74.5t-68.5 -187.5z" />
<glyph unicode="&#xab;" horiz-adv-x="1175" d="M125 617l467 370l82 -109l-351 -277l191 -256l-115 -91zM579 617l466 370l83 -109l-352 -277l192 -256l-116 -91z" />
<glyph unicode="&#xac;" horiz-adv-x="1335" d="M213 921l39 149h1052l-139 -530h-153l100 381h-899z" />
<glyph unicode="&#xad;" horiz-adv-x="902" d="M164 556l44 169h587l-44 -169h-587z" />
<glyph unicode="&#xae;" horiz-adv-x="1284" d="M266 1091q0 108 41 205.5t111 168t166 112.5t202 42q142 0 262 -71t190 -192.5t70 -264.5q0 -144 -70 -265.5t-190 -192.5t-262 -71q-141 0 -261 71t-189.5 192.5t-69.5 265.5zM350 1091q0 -122 58.5 -226t159 -164.5t218.5 -60.5t219 60.5t160 164.5t59 226 q0 186 -128.5 318t-309.5 132q-180 0 -308 -132t-128 -318zM578 773v636h215q111 0 170 -55t59 -139q0 -73 -42 -120t-107 -64l176 -258h-122l-165 241h-82v-241h-102zM680 1111l108 1q68 1 99.5 30.5t31.5 70.5t-30 69t-100 28h-109v-199z" />
<glyph unicode="&#xb0;" horiz-adv-x="939" d="M299 1210q0 162 121.5 285t285.5 123q141 0 228.5 -86t87.5 -220q0 -164 -122.5 -287t-285.5 -123q-141 0 -228 87t-87 221zM437 1219q0 -86 50.5 -134t138.5 -48q104 0 181.5 80t77.5 183q0 86 -51.5 134.5t-140.5 48.5q-106 0 -181 -80.5t-75 -183.5z" />
<glyph unicode="&#xb1;" horiz-adv-x="1334" d="M16 20h1036l39 148h-1037zM187 686l39 149h445l98 371h155l-97 -371h444l-40 -149h-444l-97 -376h-157l99 376h-445z" />
<glyph unicode="&#xb2;" horiz-adv-x="953" d="M239 872q44 248 318 380l201 97q35 17 60 33t49.5 40t37.5 56.5t13 72.5q0 61 -42 101t-122 40q-95 0 -147.5 -59t-52.5 -144l-139 13q0 51 21.5 105t62 103.5t109.5 81.5t153 32q77 0 137 -26t94 -67.5t51 -86.5t17 -89q0 -108 -61.5 -183t-185.5 -136l-189 -93 q-145 -70 -174 -141h494l-34 -130h-671z" />
<glyph unicode="&#xb3;" horiz-adv-x="924" d="M277 1161l139 19q-1 -36 7.5 -68.5t28 -63.5t58 -49.5t91.5 -18.5q91 0 153 53t62 142q0 61 -45 99.5t-111 38.5q-52 0 -100 -21l-52 113l383 271h-471l35 129h656l-41 -152l-323 -228q74 -14 128 -57q40 -31 64 -80t24 -108q0 -99 -52.5 -176t-135 -115.5t-178.5 -38.5 q-145 0 -233 85.5t-87 225.5z" />
<glyph unicode="&#xb4;" horiz-adv-x="552" d="M248 1280l297 352h207l-336 -352h-168z" />
<glyph unicode="&#xb5;" horiz-adv-x="1358" d="M-20 -336l376 1429h159l-166 -624q-15 -59 -15 -123q0 -100 64.5 -161.5t183.5 -61.5q136 0 247 108t147 248l161 614h159l-235 -893q-27 -104 -27 -162q-2 -10 0 -38h-161v25q0 54 28 156q-86 -98 -176 -149t-204 -51q-179 0 -261 149l-123 -466h-157z" />
<glyph unicode="&#xb6;" horiz-adv-x="1040" d="M255 1117q0 226 163.5 356.5t460.5 130.5h206l-428 -1604h-163l203 761q-96 4 -174.5 26t-139.5 63.5t-94.5 109t-33.5 157.5z" />
<glyph unicode="&#xb7;" horiz-adv-x="605" d="M184 648q0 61 43 104t104 43t104 -43t43 -104t-43 -104t-104 -43t-104 43t-43 104z" />
<glyph unicode="&#xb9;" horiz-adv-x="694" d="M330 1622l387 183h131l-224 -934h-145l185 770l-289 -134z" />
<glyph unicode="&#xba;" horiz-adv-x="1241" d="M312 1170q0 169 115 283t285 114q167 0 282 -113.5t115 -277.5q0 -169 -115 -283t-285 -114q-166 0 -281.5 113.5t-115.5 277.5zM322 429v135h777v-135h-777zM463 1176q0 -109 70.5 -186t178.5 -77q106 0 176.5 75t70.5 182q0 109 -71 186t-179 77q-107 0 -176.5 -74.5 t-69.5 -182.5z" />
<glyph unicode="&#xbb;" horiz-adv-x="1173" d="M96 363l352 277l-192 256l116 91l273 -363l-466 -370zM550 363l351 277l-191 256l115 91l274 -363l-467 -370z" />
<glyph unicode="&#xbc;" horiz-adv-x="1914" d="M240 0l1390 1604h179l-1392 -1604h-177zM307 1421l386 183h132l-225 -933h-144l185 770l-289 -134zM917 204l38 157l614 574h176l-145 -602h168l-31 -129h-169l-48 -204h-141l48 204h-510zM1096 333h362l106 439z" />
<glyph unicode="&#xbd;" horiz-adv-x="1999" d="M241 0l1390 1604h179l-1392 -1604h-177zM308 1421l386 183h132l-225 -933h-144l185 770l-289 -134zM1084 0h671l35 130h-494q28 71 174 141l189 93q123 60 185 136t62 183q0 44 -17 89t-51 86.5t-94.5 67.5t-137.5 26q-68 0 -126.5 -21t-97.5 -55t-67 -77t-41 -85.5 t-13 -82.5l138 -14q0 85 52.5 144t148.5 59q80 0 122 -40t42 -101q0 -40 -13 -72t-38 -56t-49.5 -39.5t-60.5 -33.5l-200 -98q-275 -135 -319 -380z" />
<glyph unicode="&#xbe;" horiz-adv-x="2035" d="M211 960l139 19q-1 -28 4 -54.5t18 -53.5t33 -47.5t53.5 -33t76.5 -12.5q92 0 153.5 53t61.5 143q0 61 -45 99.5t-110 38.5q-52 0 -101 -21l-52 113l384 271h-472l35 130h658l-42 -152l-324 -230q73 -12 128 -56q40 -31 64.5 -80.5t24.5 -107.5q0 -149 -109 -240 t-257 -91q-146 0 -234 86t-87 226zM375 0l1390 1604h179l-1392 -1604h-177zM1050 204l38 157l614 574h176l-145 -602h168l-31 -129h-169l-48 -204h-141l48 204h-510zM1229 333h362l106 439z" />
<glyph unicode="&#xbf;" horiz-adv-x="1129" d="M-85 -158q0 86 27.5 156t74 118.5t103 91t117.5 84.5t115.5 86.5t99 109t65.5 142.5h150q-13 -76 -41.5 -141.5t-65 -113t-80 -88.5t-88.5 -73t-89 -62.5t-82 -61.5t-67.5 -64.5t-46.5 -77.5t-17 -95q0 -70 42.5 -122.5t102.5 -76t126 -23.5q78 0 141.5 22.5t105 59.5 t70 85t40.5 96.5t12 97.5l162 -21q-3 -142 -76.5 -256t-197 -177.5t-272.5 -63.5q-116 0 -214.5 47t-157.5 132t-59 189zM571 980q0 56 38.5 94.5t93.5 38.5q47 0 77 -29.5t30 -77.5q0 -55 -38 -94t-93 -39q-47 0 -77.5 30t-30.5 77z" />
<glyph unicode="&#xc0;" horiz-adv-x="1601" d="M-130 0l1139 1604h195l249 -1604h-170l-61 411h-875l-290 -411h-187zM454 563h745l-129 869zM882 2103h184l128 -352h-138z" />
<glyph unicode="&#xc1;" horiz-adv-x="1601" d="M-130 0h187l290 411h875l61 -411h170l-249 1604h-195zM454 563l616 869l129 -869h-745zM1040 1751l297 352h207l-336 -352h-168z" />
<glyph unicode="&#xc2;" horiz-adv-x="1601" d="M-130 0l1139 1604h195l249 -1604h-170l-61 411h-875l-290 -411h-187zM454 563h745l-129 869zM776 1749l365 353h160l189 -353h-160l-123 242h-4l-247 -242h-180z" />
<glyph unicode="&#xc3;" horiz-adv-x="1601" d="M-130 0h187l290 411h875l61 -411h170l-249 1604h-195zM454 563l616 869l129 -869h-745zM808 1794q28 103 92.5 169t163.5 66q35 0 68.5 -15t56 -33.5t55 -33.5t66.5 -15q38 0 68 27t49 66h101q-29 -103 -91 -168t-160 -65q-39 0 -71.5 16t-51 34.5t-49.5 34.5t-68 16 q-72 0 -114 -99h-115z" />
<glyph unicode="&#xc4;" horiz-adv-x="1601" d="M-130 0l1139 1604h195l249 -1604h-170l-61 411h-875l-290 -411h-187zM454 563h745l-129 869zM838 1866q0 57 39.5 97t95.5 40q48 0 79.5 -31t31.5 -79q0 -56 -40 -96t-96 -40q-48 0 -79 30.5t-31 78.5zM1245 1866q0 57 39.5 97t95.5 40q48 0 79.5 -31t31.5 -79 q0 -56 -39.5 -96t-95.5 -40q-48 0 -79.5 30.5t-31.5 78.5z" />
<glyph unicode="&#xc5;" horiz-adv-x="1603" d="M-130 0l1074 1513q-88 66 -88 188q0 123 92 217.5t218 94.5q108 0 174.5 -66t66.5 -168q0 -91 -52 -168.5t-134 -115.5l232 -1495h-170l-61 411h-875l-290 -411h-187zM454 563h745l-129 869zM975 1710q0 -62 36 -97t96 -35q70 0 125 58t55 132q0 63 -36 98.5t-96 35.5 q-71 0 -125.5 -59t-54.5 -133z" />
<glyph unicode="&#xc6;" horiz-adv-x="2170" d="M-146 0l1348 1604h1124l-42 -155h-824l-149 -556h757l-39 -155h-759l-156 -583h834l-39 -155h-1005l110 411h-616l-342 -411h-202zM524 563h530l237 893h-25z" />
<glyph unicode="&#xc7;" horiz-adv-x="1728" d="M183 685q0 144 45 283t129 256t195.5 206t254.5 139.5t296 50.5q122 0 228 -33t179 -86t129 -122.5t86.5 -138t44.5 -137.5l-163 -50q-6 47 -27 98.5t-63.5 108t-100 101.5t-144.5 74t-189 29q-150 0 -286 -65.5t-231 -173.5t-151 -250t-56 -291q0 -237 146 -389.5 t385 -152.5q105 0 199.5 30.5t159 74.5t119 103t84.5 107.5t51 95.5l156 -62q-32 -79 -87 -156t-137.5 -151.5t-203 -127t-260.5 -67.5q32 -54 32 -122q0 -95 -50 -176.5t-131 -129.5q-100 -60 -227 -60q-101 0 -165 23l33 125q62 -17 135 -17q108 0 184.5 69t76.5 178 q0 59 -32 106q-183 10 -330 102t-230.5 249t-83.5 349z" />
<glyph unicode="&#xc8;" horiz-adv-x="1356" d="M89 0l428 1604h996l-41 -155h-828l-149 -556h757l-41 -155h-757l-156 -583h836l-41 -155h-1004zM806 2103h184l128 -352h-138z" />
<glyph unicode="&#xc9;" horiz-adv-x="1356" d="M89 0h1004l41 155h-836l156 583h757l41 155h-757l149 556h828l41 155h-996zM951 1751l297 352h207l-336 -352h-168z" />
<glyph unicode="&#xca;" horiz-adv-x="1356" d="M89 0l428 1604h996l-41 -155h-828l-149 -556h757l-41 -155h-757l-156 -583h836l-41 -155h-1004zM680 1749l365 353h160l189 -353h-160l-123 242h-4l-247 -242h-180z" />
<glyph unicode="&#xcb;" horiz-adv-x="1356" d="M89 0l428 1604h996l-41 -155h-828l-149 -556h757l-41 -155h-757l-156 -583h836l-41 -155h-1004zM743 1866q0 57 39 97t95 40q48 0 80 -31t32 -79q0 -56 -40 -96t-96 -40q-48 0 -79 30.5t-31 78.5zM1150 1866q0 57 39.5 97t95.5 40q48 0 79.5 -31t31.5 -79 q0 -56 -39.5 -96t-95.5 -40q-48 0 -79.5 30.5t-31.5 78.5z" />
<glyph unicode="&#xcc;" horiz-adv-x="626" d="M89 0l428 1604h168l-428 -1604h-168zM379 2103h184l128 -352h-138z" />
<glyph unicode="&#xcd;" horiz-adv-x="626" d="M89 0h168l428 1604h-168zM550 1751l297 352h207l-336 -352h-168z" />
<glyph unicode="&#xce;" horiz-adv-x="626" d="M89 0l428 1604h168l-428 -1604h-168zM265 1749l365 353h160l189 -353h-160l-123 242h-4l-247 -242h-180z" />
<glyph unicode="&#xcf;" horiz-adv-x="626" d="M89 0l428 1604h168l-428 -1604h-168zM345 1866q0 57 39.5 97t95.5 40q48 0 79.5 -31t31.5 -79q0 -56 -39.5 -96t-95.5 -40q-48 0 -79.5 30.5t-31.5 78.5zM729 1866q0 57 39 97t95 40q48 0 79.5 -31t31.5 -79q0 -56 -39.5 -96t-95.5 -40q-48 0 -79 30.5t-31 78.5z" />
<glyph unicode="&#xd0;" horiz-adv-x="1737" d="M119 737l41 156h223l190 711h329q240 0 418.5 -75t280.5 -228.5t102 -369.5q0 -167 -53.5 -314t-151 -259t-230.5 -193t-296.5 -123t-344.5 -42h-482l196 737h-222zM355 157h297q180 0 340.5 55t279.5 153t188 242.5t69 314.5q0 133 -47.5 234.5t-133 164.5t-199 94.5 t-252.5 31.5h-197l-148 -554h385l-41 -156h-386z" />
<glyph unicode="&#xd1;" horiz-adv-x="1758" d="M89 0l428 1604h197l573 -1365l364 1365h166l-428 -1604h-184l-580 1381l-370 -1381h-166zM884 1794q28 103 92.5 169t163.5 66q35 0 68.5 -15t56 -33.5t55 -33.5t66.5 -15q38 0 68 27t49 66h101q-29 -103 -91 -168t-160 -65q-39 0 -71.5 16t-51 34.5t-49.5 34.5t-68 16 q-72 0 -114 -99h-115z" />
<glyph unicode="&#xd2;" d="M179 670q0 181 71.5 353.5t192.5 304t293.5 212t362.5 80.5q150 0 280 -53t220 -144.5t141.5 -217.5t51.5 -269q0 -181 -71.5 -354.5t-192.5 -305t-293.5 -212t-362.5 -80.5q-201 0 -360 91t-246 247t-87 348zM354 674q0 -151 64 -272t185 -191.5t279 -70.5 q154 0 292.5 68t234.5 178.5t152.5 254t56.5 291.5q0 151 -63.5 271t-184 190.5t-278.5 70.5q-123 0 -238 -43.5t-204.5 -120.5t-157 -176t-103 -215.5t-35.5 -234.5zM878 2103h184l128 -352h-138z" />
<glyph unicode="&#xd3;" d="M179 670q0 -192 87 -348t246 -247t360 -91q190 0 362.5 80.5t293.5 212t192.5 305t71.5 354.5q0 143 -51.5 269t-141.5 217.5t-220 144.5t-280 53q-190 0 -362.5 -80.5t-293.5 -212t-192.5 -304t-71.5 -353.5zM354 674q0 118 35.5 234.5t103 215.5t157 176t204.5 120.5 t238 43.5q158 0 278.5 -70.5t184 -190.5t63.5 -271q0 -148 -56.5 -291.5t-152.5 -254t-234.5 -178.5t-292.5 -68q-158 0 -279 70.5t-185 191.5t-64 272zM1033 1751l297 352h207l-336 -352h-168z" />
<glyph unicode="&#xd4;" d="M179 670q0 181 71.5 353.5t192.5 304t293.5 212t362.5 80.5q150 0 280 -53t220 -144.5t141.5 -217.5t51.5 -269q0 -181 -71.5 -354.5t-192.5 -305t-293.5 -212t-362.5 -80.5q-201 0 -360 91t-246 247t-87 348zM354 674q0 -151 64 -272t185 -191.5t279 -70.5 q154 0 292.5 68t234.5 178.5t152.5 254t56.5 291.5q0 151 -63.5 271t-184 190.5t-278.5 70.5q-123 0 -238 -43.5t-204.5 -120.5t-157 -176t-103 -215.5t-35.5 -234.5zM794 1749l365 353h160l189 -353h-160l-123 242h-4l-247 -242h-180z" />
<glyph unicode="&#xd5;" d="M179 670q0 -192 87 -348t246 -247t360 -91q190 0 362.5 80.5t293.5 212t192.5 305t71.5 354.5q0 143 -51.5 269t-141.5 217.5t-220 144.5t-280 53q-190 0 -362.5 -80.5t-293.5 -212t-192.5 -304t-71.5 -353.5zM354 674q0 118 35.5 234.5t103 215.5t157 176t204.5 120.5 t238 43.5q158 0 278.5 -70.5t184 -190.5t63.5 -271q0 -148 -56.5 -291.5t-152.5 -254t-234.5 -178.5t-292.5 -68q-158 0 -279 70.5t-185 191.5t-64 272zM833 1794q28 103 92.5 169t163.5 66q35 0 68.5 -15t56 -33.5t55 -33.5t66.5 -15q38 0 68 27t49 66h101 q-29 -103 -91 -168t-160 -65q-39 0 -71.5 16t-51 34.5t-49.5 34.5t-68 16q-72 0 -114 -99h-115z" />
<glyph unicode="&#xd6;" d="M179 670q0 181 71.5 353.5t192.5 304t293.5 212t362.5 80.5q150 0 280 -53t220 -144.5t141.5 -217.5t51.5 -269q0 -181 -71.5 -354.5t-192.5 -305t-293.5 -212t-362.5 -80.5q-201 0 -360 91t-246 247t-87 348zM354 674q0 -151 64 -272t185 -191.5t279 -70.5 q154 0 292.5 68t234.5 178.5t152.5 254t56.5 291.5q0 151 -63.5 271t-184 190.5t-278.5 70.5q-123 0 -238 -43.5t-204.5 -120.5t-157 -176t-103 -215.5t-35.5 -234.5zM851 1866q0 57 39 97t95 40q48 0 80 -31t32 -79q0 -56 -40 -96t-96 -40q-48 0 -79 30.5t-31 78.5z M1258 1866q0 57 39.5 97t95.5 40q48 0 79.5 -31t31.5 -79q0 -56 -39.5 -96t-96.5 -40q-48 0 -79 30.5t-31 78.5z" />
<glyph unicode="&#xd7;" horiz-adv-x="1192" d="M93 363l459 376l-292 394l111 84l288 -389l475 389l87 -109l-479 -393l279 -376l-111 -84l-275 372l-455 -373z" />
<glyph unicode="&#xd8;" d="M127 74l185 181q-133 181 -133 415q0 181 71.5 353.5t192.5 304t293.5 212t362.5 80.5q268 0 456 -159l189 185l100 -103l-188 -187q136 -180 136 -420q0 -181 -71.5 -354.5t-192.5 -305t-293.5 -212t-362.5 -80.5q-269 0 -461 165l-182 -178zM352 673q0 -166 68 -280 l13 -22l1006 979q-139 117 -348 117q-124 0 -239 -44t-204.5 -121t-157 -177t-103 -216.5t-35.5 -235.5zM529 262q141 -125 354 -125q154 0 293 68.5t235.5 179t153 254t56.5 291.5q0 178 -86 312z" />
<glyph unicode="&#xd9;" horiz-adv-x="1612" d="M215 447q0 105 32 227l246 930h169l-259 -973q-21 -82 -21 -163q0 -151 95.5 -239.5t281.5 -88.5q191 0 321 129q120 119 182 352l262 983h169l-270 -1011q-73 -275 -228 -429q-180 -180 -451 -180q-253 0 -391 126.5t-138 336.5zM893 2103h184l128 -352h-138z" />
<glyph unicode="&#xda;" horiz-adv-x="1612" d="M215 447q0 -210 138 -336.5t391 -126.5q271 0 451 180q155 155 228 429l270 1011h-169l-262 -983q-62 -233 -182 -352q-130 -129 -321 -129q-186 0 -281.5 88.5t-95.5 239.5q0 81 21 163l259 973h-169l-246 -930q-32 -122 -32 -227zM1018 1751l297 352h207l-336 -352 h-168z" />
<glyph unicode="&#xdb;" horiz-adv-x="1612" d="M215 447q0 105 32 227l246 930h169l-259 -973q-21 -82 -21 -163q0 -151 95.5 -239.5t281.5 -88.5q191 0 321 129q120 119 182 352l262 983h169l-270 -1011q-73 -275 -228 -429q-180 -180 -451 -180q-253 0 -391 126.5t-138 336.5zM758 1749l365 353h160l189 -353h-160 l-123 242h-4l-247 -242h-180z" />
<glyph unicode="&#xdc;" horiz-adv-x="1612" d="M215 447q0 105 32 227l246 930h169l-259 -973q-21 -82 -21 -163q0 -151 95.5 -239.5t281.5 -88.5q191 0 321 129q120 119 182 352l262 983h169l-270 -1011q-73 -275 -228 -429q-180 -180 -451 -180q-253 0 -391 126.5t-138 336.5zM834 1866q0 57 39 97t95 40 q48 0 79.5 -31t31.5 -79q0 -56 -39.5 -96t-95.5 -40q-48 0 -79 30.5t-31 78.5zM1241 1866q0 57 39.5 97t95.5 40q48 0 79.5 -31t31.5 -79q0 -56 -40 -96t-96 -40q-48 0 -79 30.5t-31 78.5z" />
<glyph unicode="&#xdd;" horiz-adv-x="1512" d="M333 1604l365 -919l-183 -685h169l175 656l881 948h-214l-711 -775l-296 775h-186zM961 1751l297 352h207l-336 -352h-168z" />
<glyph unicode="&#xde;" horiz-adv-x="1412" d="M89 0l429 1604h167l-80 -307h276q284 0 428 -138q110 -105 110 -284q0 -175 -94.5 -301.5t-261 -190t-387.5 -63.5h-331l-87 -320h-169zM386 475h302q265 0 412 102t147 288q0 91 -50 154.5t-131.5 92t-189.5 28.5h-313z" />
<glyph unicode="&#xdf;" horiz-adv-x="1336" d="M45 0l318 1206q60 229 194 348t365 119q193 0 307.5 -109t114.5 -267q0 -247 -274 -369l-94 -42q-22 -10 -36.5 -18.5t-33.5 -24t-28.5 -38t-9.5 -51.5q0 -67 87 -128l66 -46q182 -127 182 -272q0 -42 -11 -84.5t-39 -86.5t-69.5 -78t-107.5 -55.5t-148 -21.5 t-147.5 24.5t-104 61.5t-63 82.5t-33 86t-5.5 73.5l151 10q-2 -27 7 -58t30 -65t66.5 -56.5t108.5 -22.5q52 0 93 18.5t64 46.5t35 57t12 53q0 41 -15.5 72t-38 51.5t-68.5 53.5l-82 58q-136 97 -136 224q0 94 51 151.5t138 97.5l110 50q180 82 180 242q0 117 -76 178.5 t-195 61.5q-162 0 -256.5 -89.5t-140.5 -265.5l-311 -1178h-157z" />
<glyph unicode="&#xe0;" horiz-adv-x="1380" d="M104 442q0 -206 121 -333t309 -127q224 0 415 209q-31 -112 -31 -166v-25h163q-2 28 0 38q5 83 27 162l235 893h-159l-63 -245q-116 265 -408 265q-117 0 -228 -51t-195 -138.5t-135 -214t-51 -267.5zM271 455q0 138 59.5 256.5t165 190t232.5 71.5q149 0 243.5 -96.5 t94.5 -240.5q0 -130 -70.5 -249.5t-183 -191.5t-232.5 -72q-139 0 -224 90.5t-85 241.5zM570 1632h184l128 -352h-138z" />
<glyph unicode="&#xe1;" horiz-adv-x="1380" d="M104 442q0 -206 121 -333t309 -127q224 0 415 209q-31 -112 -31 -166v-25h163q-2 28 0 38q5 83 27 162l235 893h-159l-63 -245q-116 265 -408 265q-117 0 -228 -51t-195 -138.5t-135 -214t-51 -267.5zM271 455q0 138 59.5 256.5t165 190t232.5 71.5q149 0 243.5 -96.5 t94.5 -240.5q0 -130 -70.5 -249.5t-183 -191.5t-232.5 -72q-139 0 -224 90.5t-85 241.5zM721 1280l297 352h207l-336 -352h-168z" />
<glyph unicode="&#xe2;" horiz-adv-x="1381" d="M104 442q0 -206 121.5 -333t309.5 -127q224 0 415 209q-31 -112 -31 -166v-25h163q-2 28 0 38q3 76 27 162l235 893h-159l-63 -245q-116 265 -408 265q-118 0 -228.5 -51t-195 -138.5t-135.5 -214t-51 -267.5zM272 455q0 138 59.5 256.5t165 190t232.5 71.5 q149 0 243.5 -96.5t94.5 -240.5q0 -130 -70.5 -249.5t-183 -191.5t-232.5 -72q-140 0 -224.5 90.5t-84.5 241.5zM468 1280l365 353h160l189 -353h-160l-123 242h-4l-247 -242h-180z" />
<glyph unicode="&#xe3;" horiz-adv-x="1380" d="M104 442q0 -206 121.5 -333t309.5 -127q222 0 415 209q-32 -115 -32 -166q0 -17 1 -25h162v38q5 75 27 162l235 893h-158l-64 -245q-114 265 -407 265q-118 0 -228.5 -51t-195 -138.5t-135.5 -214t-51 -267.5zM272 455q0 138 59 256.5t164.5 190t232.5 71.5 q149 0 244 -96.5t95 -240.5q0 -130 -70.5 -249.5t-183.5 -191.5t-233 -72q-139 0 -223.5 90.5t-84.5 241.5zM497 1282q28 103 92.5 169t163.5 66q35 0 68.5 -15t56 -33.5t55 -33.5t66.5 -15q38 0 68 27t49 66h101q-29 -103 -91 -168t-160 -65q-39 0 -71.5 16t-51 34.5 t-49.5 34.5t-68 16q-72 0 -114 -99h-115z" />
<glyph unicode="&#xe4;" horiz-adv-x="1380" d="M104 442q0 -206 121.5 -333t309.5 -127q222 0 415 209q-32 -115 -32 -166q0 -17 1 -25h162v38q5 75 27 162l235 893h-158l-64 -245q-114 265 -407 265q-118 0 -228.5 -51t-195 -138.5t-135.5 -214t-51 -267.5zM272 455q0 138 59 256.5t164.5 190t232.5 71.5 q149 0 244 -96.5t95 -240.5q0 -130 -70.5 -249.5t-183.5 -191.5t-233 -72q-139 0 -223.5 90.5t-84.5 241.5zM548 1386q0 56 39.5 96.5t95.5 40.5q48 0 79.5 -31t31.5 -79q0 -57 -40 -96.5t-96 -39.5q-48 0 -79 30.5t-31 78.5zM941 1386q0 56 39.5 96.5t95.5 40.5 q48 0 79.5 -31t31.5 -79q0 -57 -39.5 -96.5t-95.5 -39.5q-48 0 -79.5 30.5t-31.5 78.5z" />
<glyph unicode="&#xe5;" horiz-adv-x="1380" d="M104 442q0 -206 121.5 -333t309.5 -127q222 0 415 209q-32 -115 -32 -166q0 -17 1 -25h162v38q5 75 27 162l235 893h-158l-64 -245q-114 265 -407 265q-118 0 -228.5 -51t-195 -138.5t-135.5 -214t-51 -267.5zM272 455q0 138 59 256.5t164.5 190t232.5 71.5 q149 0 244 -96.5t95 -240.5q0 -130 -70.5 -249.5t-183.5 -191.5t-233 -72q-139 0 -223.5 90.5t-84.5 241.5zM592 1472q0 123 92.5 217t217.5 94q109 0 175.5 -65.5t66.5 -168.5q0 -125 -93.5 -218.5t-217.5 -93.5q-108 0 -174.5 66t-66.5 169zM712 1480q0 -62 36 -97t95 -35 q70 0 125 58.5t55 132.5q0 62 -36 97.5t-95 35.5q-72 0 -126 -59t-54 -133z" />
<glyph unicode="&#xe6;" horiz-adv-x="1983" d="M45 261q0 323 486 352l346 20q29 102 29 150q0 95 -61.5 141.5t-157.5 46.5q-66 0 -122.5 -17t-94 -42.5t-66.5 -59t-44 -62.5t-23 -57l-150 47q11 36 33.5 76.5t65.5 87.5t98 83.5t137.5 61t177.5 24.5q124 0 208 -56.5t119 -141.5q86 92 194 145t227 53q215 0 331 -124 t116 -341q0 -79 -20 -149h-879q0 -5 -0.5 -15.5t-0.5 -15.5q0 -159 96 -252.5t246 -93.5q72 0 136.5 21.5t110.5 57t77 71t51 73.5l130 -73q-66 -123 -201 -207t-308 -84q-167 0 -282 84t-157 233q-91 -159 -227 -237.5t-297 -78.5h-11q-136 0 -224.5 77t-88.5 202zM205 277 q0 -74 56 -114.5t131 -40.5q168 0 297.5 113t153.5 267l-307 -17q-42 -2 -75 -6t-74 -12.5t-71 -23.5t-56.5 -36.5t-40.5 -54.5t-14 -75zM1014 633h723q0 5 0.5 16t0.5 17q0 141 -80.5 224t-221.5 83t-265 -101t-157 -239z" />
<glyph unicode="&#xe7;" horiz-adv-x="1268" d="M105 468q0 167 86.5 316t234.5 239t317 90q108 0 196.5 -34t143.5 -88.5t88 -114t44 -119.5l-148 -51q-8 50 -30 95t-60.5 85t-101 63.5t-142.5 23.5q-123 0 -232.5 -72.5t-172.5 -188.5t-63 -241q0 -158 95.5 -252.5t258.5 -94.5q73 0 141 25t116.5 65t82 81t52.5 81 l139 -61q-62 -120 -186.5 -214.5t-284.5 -114.5q31 -53 31 -119q0 -95 -50 -176.5t-132 -129.5q-100 -60 -226 -60q-101 0 -165 23l33 125q62 -17 135 -17q108 0 184.5 69t76.5 178q0 61 -33 107q-191 24 -309.5 154t-118.5 328z" />
<glyph unicode="&#xe8;" horiz-adv-x="1252" d="M106 474q0 -221 136.5 -357t352.5 -136q174 0 312 84t203 207l-129 73q-20 -37 -52.5 -73.5t-79 -71.5t-112.5 -56.5t-138 -21.5q-149 0 -242 93t-93 253q0 19 1 29h878q21 67 21 151q0 216 -119 340.5t-334 124.5q-122 0 -235 -54.5t-193.5 -143t-128.5 -205t-48 -236.5 zM283 633q32 138 156.5 239t265.5 101t221 -83t80 -224q0 -22 -1 -33h-722zM484 1632h184l128 -352h-138z" />
<glyph unicode="&#xe9;" horiz-adv-x="1252" d="M106 474q0 -221 136.5 -357t352.5 -136q174 0 312 84t203 207l-129 73q-20 -37 -52.5 -73.5t-79 -71.5t-112.5 -56.5t-138 -21.5q-149 0 -242 93t-93 253q0 19 1 29h878q21 67 21 151q0 216 -119 340.5t-334 124.5q-122 0 -235 -54.5t-193.5 -143t-128.5 -205t-48 -236.5 zM283 633q32 138 156.5 239t265.5 101t221 -83t80 -224q0 -22 -1 -33h-722zM655 1280l297 352h207l-336 -352h-168z" />
<glyph unicode="&#xea;" horiz-adv-x="1252" d="M106 474q0 -221 136.5 -357t352.5 -136q174 0 312 84t203 207l-130 73q-19 -37 -51.5 -73.5t-79 -71.5t-112.5 -56.5t-138 -21.5q-149 0 -242 93t-93 253q0 19 1 29h878q21 67 21 151q0 216 -119 340.5t-334 124.5q-122 0 -235 -54.5t-193.5 -143t-128.5 -205t-48 -236.5 zM283 633q32 138 156.5 239t265.5 101t221 -83t80 -224q0 -22 -1 -33h-722zM404 1280l365 353h160l189 -353h-160l-123 242h-4l-247 -242h-180z" />
<glyph unicode="&#xeb;" horiz-adv-x="1252" d="M106 474q0 -221 136.5 -357t352.5 -136q174 0 312 84t203 207l-129 73q-20 -37 -52.5 -73.5t-79 -71.5t-112.5 -56.5t-138 -21.5q-149 0 -242 93t-93 253q0 19 1 29h878q21 67 21 151q0 216 -119 340.5t-334 124.5q-122 0 -235 -54.5t-193.5 -143t-128.5 -205t-48 -236.5 zM283 633q32 138 156.5 239t265.5 101t221 -83t80 -224q0 -22 -1 -33h-722zM476 1386q0 56 39.5 96.5t95.5 40.5q48 0 79.5 -31t31.5 -79q0 -57 -40 -96.5t-96 -39.5q-48 0 -79 30.5t-31 78.5zM869 1386q0 56 39.5 96.5t95.5 40.5q48 0 79.5 -31t31.5 -79q0 -57 -39.5 -96.5 t-95.5 -39.5q-48 0 -79.5 30.5t-31.5 78.5z" />
<glyph unicode="&#xec;" horiz-adv-x="528" d="M46 0l288 1093h160l-288 -1093h-160zM198 1632h184l128 -352h-138z" />
<glyph unicode="&#xed;" horiz-adv-x="528" d="M46 0h160l288 1093h-160zM371 1280l297 352h207l-336 -352h-168z" />
<glyph unicode="&#xee;" horiz-adv-x="528" d="M46 0l288 1093h160l-288 -1093h-160zM92 1280l365 353h160l189 -353h-160l-123 242h-4l-247 -242h-180z" />
<glyph unicode="&#xef;" horiz-adv-x="528" d="M46 0l288 1093h160l-288 -1093h-160zM164 1386q0 56 39.5 96.5t95.5 40.5q48 0 79.5 -31t31.5 -79q0 -57 -39.5 -96.5t-95.5 -39.5q-48 0 -79.5 30.5t-31.5 78.5zM558 1386q0 57 39 97t95 40q48 0 80 -31t32 -79q0 -57 -40 -96.5t-96 -39.5q-48 0 -79 30.5t-31 78.5z" />
<glyph unicode="&#xf0;" horiz-adv-x="1323" d="M98 441q0 165 86.5 307.5t222.5 223.5t282 81q116 0 219 -54.5t166 -164.5l2 1q-33 272 -224 462l-381 -179l-61 111l336 157q-140 102 -340 174l61 128q248 -83 421 -235l241 113l59 -111l-205 -96q149 -170 208 -390q34 -129 34 -299q0 -190 -63 -324 q-75 -161 -229 -262.5t-350 -101.5q-210 0 -347.5 131t-137.5 328zM256 457q0 -148 92 -240.5t243 -92.5q125 0 233 64.5t171 172t63 229.5q0 63 -24.5 122t-69.5 106.5t-115.5 76t-154.5 28.5q-119 0 -221 -66t-159.5 -173t-57.5 -227z" />
<glyph unicode="&#xf1;" horiz-adv-x="1293" d="M45 0l288 1093h156l-46 -181q86 98 175 149.5t206 51.5q158 0 253 -91.5t96 -245.5q0 -69 -27 -168l-160 -608h-158l162 618q17 68 17 123q0 108 -67 168.5t-181 60.5q-127 0 -239.5 -100t-153.5 -255l-162 -615h-159zM513 1282q28 103 92.5 169t163.5 66q35 0 68.5 -15 t56 -33.5t55 -33.5t66.5 -15q38 0 68 27t49 66h101q-29 -103 -91 -168t-160 -65q-39 0 -71.5 16t-51 34.5t-49.5 34.5t-68 16q-72 0 -114 -99h-115z" />
<glyph unicode="&#xf2;" horiz-adv-x="1328" d="M104 468q0 166 86.5 315t234 239.5t316.5 90.5q222 0 358.5 -135.5t136.5 -348.5q0 -170 -88.5 -319.5t-236 -238.5t-314.5 -89q-221 0 -357 136.5t-136 349.5zM264 472q0 -163 94 -255.5t249 -92.5q119 0 227.5 70t173.5 186t65 243q0 164 -94 257t-248 93 q-122 0 -231 -72.5t-172.5 -188t-63.5 -240.5zM526 1632h184l128 -352h-138z" />
<glyph unicode="&#xf3;" horiz-adv-x="1328" d="M104 468q0 -213 136 -349.5t357 -136.5q167 0 314.5 89t236 238.5t88.5 319.5q0 213 -136.5 348.5t-358.5 135.5q-169 0 -316.5 -90.5t-234 -239.5t-86.5 -315zM264 472q0 125 63.5 240.5t172.5 188t231 72.5q154 0 248 -93t94 -257q0 -127 -65 -243t-173.5 -186 t-227.5 -70q-155 0 -249 92.5t-94 255.5zM691 1280l297 352h207l-336 -352h-168z" />
<glyph unicode="&#xf4;" horiz-adv-x="1328" d="M104 468q0 166 86.5 315t234 239.5t316.5 90.5q222 0 358.5 -135.5t136.5 -348.5q0 -170 -88.5 -319.5t-236 -238.5t-314.5 -89q-221 0 -357 136.5t-136 349.5zM264 472q0 -163 94 -255.5t249 -92.5q119 0 227.5 70t173.5 186t65 243q0 164 -94 257t-248 93 q-122 0 -231 -72.5t-172.5 -188t-63.5 -240.5zM423 1280l365 353h160l189 -353h-160l-123 242h-4l-247 -242h-180z" />
<glyph unicode="&#xf5;" horiz-adv-x="1328" d="M104 468q0 -213 136 -349.5t357 -136.5q167 0 314.5 89t236 238.5t88.5 319.5q0 213 -136.5 348.5t-358.5 135.5q-169 0 -316.5 -90.5t-234 -239.5t-86.5 -315zM264 472q0 125 63.5 240.5t172.5 188t231 72.5q154 0 248 -93t94 -257q0 -127 -65 -243t-173.5 -186 t-227.5 -70q-155 0 -249 92.5t-94 255.5zM461 1282q28 103 92.5 169t163.5 66q35 0 68.5 -15t56 -33.5t55 -33.5t66.5 -15q38 0 68 27t49 66h101q-29 -103 -91 -168t-160 -65q-39 0 -71.5 16t-51 34.5t-49.5 34.5t-68 16q-72 0 -114 -99h-115z" />
<glyph unicode="&#xf6;" horiz-adv-x="1328" d="M104 468q0 166 86.5 315t234 239.5t316.5 90.5q222 0 358.5 -135.5t136.5 -348.5q0 -170 -88.5 -319.5t-236 -238.5t-314.5 -89q-221 0 -357 136.5t-136 349.5zM264 472q0 -163 94 -255.5t249 -92.5q119 0 227.5 70t173.5 186t65 243q0 164 -94 257t-248 93 q-122 0 -231 -72.5t-172.5 -188t-63.5 -240.5zM501 1386q0 56 39.5 96.5t95.5 40.5q48 0 79.5 -31t31.5 -79q0 -57 -39.5 -96.5t-95.5 -39.5q-48 0 -79.5 30.5t-31.5 78.5zM895 1386q0 57 39 97t95 40q48 0 80 -31t32 -79q0 -57 -40 -96.5t-96 -39.5q-48 0 -79 30.5 t-31 78.5z" />
<glyph unicode="&#xf7;" horiz-adv-x="1253" d="M187 699h972l42 157h-973zM465 370q0 57 40 98t97 41q49 0 81 -31.5t32 -80.5q0 -57 -40 -97.5t-98 -40.5q-49 0 -80.5 31t-31.5 80zM672 1159q0 57 40 98t97 41q49 0 81 -31.5t32 -80.5q0 -57 -40 -97.5t-98 -40.5q-49 0 -80.5 31t-31.5 80z" />
<glyph unicode="&#xf8;" horiz-adv-x="1328" d="M69 43l127 126q-91 123 -91 299q0 124 51.5 242.5t137 207t203.5 142t245 53.5q181 0 310 -96l131 127l89 -92l-128 -126q92 -126 92 -297q0 -127 -52.5 -246.5t-139 -207t-204.5 -140.5t-243 -53q-182 0 -309 97l-131 -128zM263 471q0 -111 47 -190l637 630 q-84 65 -214 65q-124 0 -233.5 -73t-173 -189.5t-63.5 -242.5zM393 183q83 -63 213 -63q92 0 179 42.5t150.5 111.5t102 161.5t38.5 188.5q0 113 -46 192z" />
<glyph unicode="&#xf9;" horiz-adv-x="1295" d="M131 317q0 -156 95.5 -246.5t252.5 -90.5q116 0 207 51.5t177 149.5q-29 -106 -29 -156q0 -4 0.5 -12.5t0.5 -12.5h160v38q4 70 28 162l235 893h-159l-162 -614q-37 -140 -147 -248t-246 -108q-112 0 -179 59.5t-67 169.5q0 68 14 123l165 618h-159l-160 -608 q-27 -104 -27 -168zM599 1632h184l128 -352h-138z" />
<glyph unicode="&#xfa;" horiz-adv-x="1295" d="M131 317q0 64 27 168l160 608h159l-165 -618q-14 -55 -14 -123q0 -110 67 -169.5t179 -59.5q136 0 246 108t147 248l162 614h159l-235 -893q-24 -92 -28 -162v-38h-160q0 4 -0.5 12.5t-0.5 12.5q0 50 29 156q-86 -98 -177 -149.5t-207 -51.5q-157 0 -252.5 90.5 t-95.5 246.5zM727 1280l297 352h207l-336 -352h-168z" />
<glyph unicode="&#xfb;" horiz-adv-x="1295" d="M131 317q0 -156 95.5 -246.5t252.5 -90.5q116 0 207 51.5t177 149.5q-29 -106 -29 -156q0 -4 0.5 -12.5t0.5 -12.5h160v38q4 70 28 162l235 893h-159l-162 -614q-37 -140 -147 -248t-246 -108q-112 0 -179 59.5t-67 169.5q0 68 14 123l165 618h-159l-160 -608 q-27 -104 -27 -168zM469 1280l365 353h160l189 -353h-160l-123 242h-4l-247 -242h-180z" />
<glyph unicode="&#xfc;" horiz-adv-x="1295" d="M131 317q0 -156 95.5 -246.5t252.5 -90.5q116 0 207 51.5t177 149.5q-29 -106 -29 -156q0 -4 0.5 -12.5t0.5 -12.5h160v38q4 70 28 162l235 893h-159l-162 -614q-37 -140 -147 -248t-246 -108q-112 0 -179 59.5t-67 169.5q0 68 14 123l165 618h-159l-160 -608 q-27 -104 -27 -168zM528 1386q0 57 39 97t95 40q48 0 80 -31t32 -79q0 -57 -40 -96.5t-96 -39.5q-48 0 -79 30.5t-31 78.5zM921 1386q0 56 39.5 96.5t95.5 40.5q48 0 79.5 -31t31.5 -79q0 -57 -40 -96.5t-96 -39.5q-48 0 -79 30.5t-31 78.5z" />
<glyph unicode="&#xfd;" horiz-adv-x="1224" d="M10 -539l388 548l-207 1084h165l165 -917l629 917h184l-1145 -1632h-179zM687 1280l297 352h207l-336 -352h-168z" />
<glyph unicode="&#xfe;" horiz-adv-x="1378" d="M-97 -539l582 2207h158l-199 -760q95 100 191 152.5t219 52.5q187 0 309 -127t122 -332q0 -142 -51 -268t-135.5 -214t-195 -139t-228.5 -51q-155 0 -255 72.5t-151 189.5l-207 -783h-159zM322 461q0 -144 94.5 -241t243.5 -97q127 0 232.5 71t165 189.5t59.5 256.5 q0 151 -85 241.5t-224 90.5q-119 0 -232 -71.5t-183.5 -191t-70.5 -248.5z" />
<glyph unicode="&#xff;" horiz-adv-x="1224" d="M10 -539h179l1145 1632h-184l-629 -917l-165 917h-165l207 -1084zM488 1386q0 57 39 97t95 40q48 0 79.5 -31t31.5 -79q0 -57 -39.5 -96.5t-95.5 -39.5q-48 0 -79 30.5t-31 78.5zM881 1386q0 57 39 97t95 40q48 0 80 -31t32 -79q0 -57 -40 -96.5t-96 -39.5 q-48 0 -79 30.5t-31 78.5z" />
<glyph unicode="&#x152;" horiz-adv-x="2664" d="M179 670q0 181 71.5 353.5t192.5 304t294 212t363 80.5q226 0 387 -112t229 -303h2l107 399h996l-41 -155h-828l-149 -556h757l-41 -155h-757l-156 -583h836l-41 -155h-1004l58 217h-4q-258 -233 -579 -233q-200 0 -359 90.5t-246.5 247t-87.5 348.5zM354 674 q0 -151 64 -272t186 -191.5t280 -70.5q154 0 293 68t235.5 178.5t153 254t56.5 291.5q0 230 -144.5 381t-382.5 151q-154 0 -293.5 -68t-236.5 -178t-154 -253t-57 -291z" />
<glyph unicode="&#x153;" horiz-adv-x="2199" d="M104 468q0 166 86.5 315t234 239.5t316.5 90.5q160 0 273.5 -79t159.5 -216q77 134 204.5 214.5t279.5 80.5q215 0 334 -124.5t119 -340.5q0 -84 -21 -151h-878q-1 -10 -1 -29q0 -160 93 -253t242 -93q72 0 138 21.5t112.5 56.5t79 71.5t52.5 73.5l129 -73 q-65 -123 -203 -207t-312 -84q-163 0 -277.5 81t-159.5 223q-83 -137 -218.5 -220t-289.5 -83q-221 0 -357 136.5t-136 349.5zM264 472q0 -163 94 -255.5t249 -92.5q119 0 227.5 70t173.5 186t65 243q0 164 -94 257t-248 93q-122 0 -231 -72.5t-172.5 -188t-63.5 -240.5z M1230 633h723q0 5 0.5 16t0.5 17q0 141 -80.5 224t-221.5 83t-265 -101t-157 -239z" />
<glyph unicode="&#x178;" horiz-adv-x="1512" d="M333 1604h186l296 -775l711 775h214l-881 -948l-175 -656h-169l183 685zM756 1866q0 57 39.5 97t95.5 40q48 0 79.5 -31t31.5 -79q0 -56 -40 -96t-96 -40q-48 0 -79 30.5t-31 78.5zM1163 1866q0 57 39.5 97t95.5 40q48 0 79.5 -31t31.5 -79q0 -56 -39.5 -96t-95.5 -40 q-48 0 -79.5 30.5t-31.5 78.5z" />
<glyph unicode="&#x2000;" horiz-adv-x="1051" />
<glyph unicode="&#x2001;" horiz-adv-x="2103" />
<glyph unicode="&#x2002;" horiz-adv-x="1051" />
<glyph unicode="&#x2003;" horiz-adv-x="2103" />
<glyph unicode="&#x2004;" horiz-adv-x="701" />
<glyph unicode="&#x2005;" horiz-adv-x="525" />
<glyph unicode="&#x2006;" horiz-adv-x="350" />
<glyph unicode="&#x2007;" horiz-adv-x="350" />
<glyph unicode="&#x2008;" horiz-adv-x="262" />
<glyph unicode="&#x2009;" horiz-adv-x="420" />
<glyph unicode="&#x200a;" horiz-adv-x="116" />
<glyph unicode="&#x2010;" horiz-adv-x="902" d="M164 556l44 169h587l-44 -169h-587z" />
<glyph unicode="&#x2011;" horiz-adv-x="902" d="M164 556l44 169h587l-44 -169h-587z" />
<glyph unicode="&#x2012;" horiz-adv-x="902" d="M164 556l44 169h587l-44 -169h-587z" />
<glyph unicode="&#x2013;" horiz-adv-x="1255" d="M165 562l42 159h941l-42 -159h-941z" />
<glyph unicode="&#x2014;" horiz-adv-x="2101" d="M165 562l42 159h1787l-42 -159h-1787z" />
<glyph unicode="&#x2018;" horiz-adv-x="572" d="M321 1228q0 156 106 269t259 122l-23 -81q-93 -16 -155 -80.5t-70 -136.5q27 15 64 15q52 0 85 -33.5t33 -86.5q0 -62 -46.5 -106.5t-109.5 -44.5q-71 0 -107 45.5t-36 117.5z" />
<glyph unicode="&#x2019;" horiz-adv-x="574" d="M319 1061l23 81q93 16 155 80.5t70 136.5q-27 -15 -64 -15q-52 0 -85 33.5t-33 86.5q0 62 46.5 106.5t109.5 44.5q71 0 107 -45.5t36 -117.5q0 -156 -106 -269t-259 -122z" />
<glyph unicode="&#x201a;" horiz-adv-x="594" d="M57 120q0 57 43 96t101 39q74 0 115 -56t41 -133q0 -139 -74.5 -243t-206.5 -122v83q66 13 115 76.5t50 136.5q-22 -13 -53 -13q-58 0 -94.5 39t-36.5 97z" />
<glyph unicode="&#x201c;" horiz-adv-x="966" d="M321 1228q0 156 106 269t259 122l-23 -81q-93 -16 -155 -80.5t-70 -136.5q27 15 64 15q52 0 85 -33.5t33 -86.5q0 -62 -46.5 -106.5t-109.5 -44.5q-71 0 -107 45.5t-36 117.5zM716 1228q0 156 106 269t259 122l-23 -81q-93 -16 -155 -80.5t-70 -136.5q27 15 64 15 q52 0 85 -33.5t33 -86.5q0 -62 -46.5 -106.5t-109.5 -44.5q-71 0 -107 45.5t-36 117.5z" />
<glyph unicode="&#x201d;" horiz-adv-x="969" d="M319 1061l23 81q93 16 155 80.5t70 136.5q-27 -15 -64 -15q-52 0 -85 33.5t-33 86.5q0 62 46.5 106.5t109.5 44.5q71 0 107 -45.5t36 -117.5q0 -156 -106 -269t-259 -122zM714 1061l23 81q93 16 155 80.5t70 136.5q-27 -15 -64 -15q-52 0 -85 33.5t-33 86.5 q0 62 46.5 106.5t109.5 44.5q71 0 107 -45.5t36 -117.5q0 -156 -106 -269t-259 -122z" />
<glyph unicode="&#x201e;" horiz-adv-x="986" d="M-13 -299l23 81q93 16 155 80.5t70 136.5q-27 -15 -64 -15q-52 0 -85 33.5t-33 86.5q0 62 46.5 106.5t109.5 44.5q71 0 107 -45.5t36 -117.5q0 -156 -106 -269t-259 -122zM382 -299l23 81q93 16 155 80.5t70 136.5q-27 -15 -64 -15q-52 0 -85 33.5t-33 86.5 q0 62 46.5 106.5t109.5 44.5q71 0 107 -45.5t36 -117.5q0 -156 -106 -269t-259 -122z" />
<glyph unicode="&#x2022;" horiz-adv-x="1044" d="M219 747q0 147 104.5 254.5t251.5 107.5q146 0 250.5 -107.5t104.5 -254.5q0 -148 -104 -252.5t-251 -104.5q-148 0 -252 104.5t-104 252.5z" />
<glyph unicode="&#x2026;" horiz-adv-x="1753" d="M54 113q0 67 47 115t114 48q57 0 95 -37t38 -95q0 -68 -47 -115t-115 -47q-57 0 -94.5 36.5t-37.5 94.5zM645 113q0 67 47 115t114 48q57 0 95 -37t38 -95q0 -68 -47.5 -115t-114.5 -47q-57 0 -94.5 36.5t-37.5 94.5zM1236 113q0 67 47 115t114 48q57 0 94.5 -37 t37.5 -95q0 -68 -47 -115t-114 -47q-58 0 -95 36.5t-37 94.5z" />
<glyph unicode="&#x202f;" horiz-adv-x="420" />
<glyph unicode="&#x2039;" horiz-adv-x="721" d="M125 617l466 370l83 -109l-352 -277l192 -256l-116 -91z" />
<glyph unicode="&#x203a;" horiz-adv-x="719" d="M96 363l352 277l-192 256l116 91l273 -363l-466 -370z" />
<glyph unicode="&#x205f;" horiz-adv-x="525" />
<glyph unicode="&#x20ac;" horiz-adv-x="1891" d="M112 567l37 140h172q3 99 25 190h-156l37 141h165q105 256 334 419t514 163q122 0 228 -33t179 -85.5t129 -122t86.5 -138.5t44.5 -138l-162 -49q-6 47 -27 98.5t-63.5 108.5t-100 101.5t-145 73.5t-189.5 29q-208 0 -383.5 -121t-260.5 -306h719l-65 -141h-707 q-26 -93 -29 -190h656l-64 -140h-581q31 -188 172.5 -307t349.5 -119q105 0 199.5 30.5t159 74.5t119 103t85 107t51.5 96l155 -62q-27 -68 -70.5 -134t-113.5 -134.5t-155 -120t-203 -84.5t-249 -33q-262 0 -449.5 162.5t-226.5 420.5h-217z" />
<glyph unicode="&#x2122;" horiz-adv-x="2126" d="M336 1481l33 123h691l-33 -123h-276l-214 -802h-138l214 802h-277zM973 679l247 925h195l98 -749l487 749h218l-247 -925h-131l208 780h-7l-509 -780h-113l-104 783h-8l-208 -783h-126z" />
<glyph unicode="&#x25fc;" horiz-adv-x="1095" d="M0 0v1095h1095v-1095h-1095z" />
</font>
</defs>
</svg>
