<?xml version="1.0" standalone="no"?>
<!DOCTYPE svg PUBLIC "-//W3C//DTD SVG 1.1//EN" "http://www.w3.org/Graphics/SVG/1.1/DTD/svg11.dtd" >
<svg xmlns="http://www.w3.org/2000/svg" xmlns:xlink="http://www.w3.org/1999/xlink" version="1.1">
<metadata></metadata>
<defs>
<font id="gorditabold_italic" horiz-adv-x="1634" >
<font-face units-per-em="2048" ascent="1638" descent="-410" />
<missing-glyph horiz-adv-x="515" />
<glyph unicode="&#xfb01;" horiz-adv-x="1514" d="M124 822l72 271h218l47 163q21 73 45.5 129t64.5 112.5t91.5 93.5t127 60t169.5 23q141 0 209 -40l-68 -260q-48 21 -102 21q-178 0 -227 -176l-35 -126h778l-290 -1093h-324l217 822h-451l-216 -822h-324l217 822h-219zM1247 1447q-1 94 66.5 160.5t162.5 66.5 q75 0 125.5 -47.5t50.5 -122.5q1 -96 -66 -162t-163 -66q-75 0 -125.5 48t-50.5 123z" />
<glyph unicode="&#xfb02;" horiz-adv-x="1511" d="M124 822l72 271h218l47 163q21 73 45.5 129t64.5 112.5t91.5 93.5t127 60t169.5 23q141 0 209 -40l-68 -260q-48 21 -102 21q-178 0 -227 -176l-35 -126h451l152 575h324l-440 -1668h-324l217 822h-450l-216 -822h-324l217 822h-219z" />
<glyph unicode="&#xfb03;" horiz-adv-x="2292" d="M124 822l72 271h218l47 163q21 73 45.5 129t64.5 112.5t91.5 93.5t127 60t169.5 23q141 0 209 -40l-68 -260q-48 21 -102 21q-178 0 -227 -176l-35 -126h453l47 163q21 73 45.5 129t64.5 112.5t91.5 93.5t127 60t169.5 23q141 0 209 -40l-68 -260q-48 21 -102 21 q-178 0 -227 -176l-35 -126h782l-291 -1093h-324l217 822h-454l-216 -822h-324l217 822h-452l-216 -822h-324l217 822h-219zM2025 1447q-1 94 66.5 160.5t162.5 66.5q75 0 125.5 -47.5t50.5 -122.5q1 -96 -66 -162t-163 -66q-75 0 -125.5 48t-50.5 123z" />
<glyph unicode="&#xfb04;" horiz-adv-x="2289" d="M124 822l72 271h218l47 163q21 73 45.5 129t64.5 112.5t91.5 93.5t127 60t169.5 23q141 0 209 -40l-68 -260q-48 21 -102 21q-178 0 -227 -176l-35 -126h452l47 163q21 73 45.5 129t64.5 112.5t91.5 93.5t127 60t169.5 23q141 0 209 -40l-68 -260q-48 21 -102 21 q-178 0 -227 -176l-35 -126h454l152 575h324l-440 -1668h-324l217 822h-453l-216 -822h-324l217 822h-451l-216 -822h-324l217 822h-219z" />
<glyph horiz-adv-x="0" />
<glyph horiz-adv-x="682" />
<glyph horiz-adv-x="0" />
<glyph horiz-adv-x="0" />
<glyph unicode="&#xd;" horiz-adv-x="515" />
<glyph unicode=" "  horiz-adv-x="515" />
<glyph unicode="&#x09;" horiz-adv-x="515" />
<glyph unicode="&#xa0;" horiz-adv-x="515" />
<glyph unicode="!" horiz-adv-x="701" d="M58 145q0 94 67 160.5t162 66.5q76 0 126 -47t51 -123q0 -95 -67 -161t-163 -66q-75 0 -125 47.5t-51 122.5zM208 555l248 1049h358l-311 -1049h-295z" />
<glyph unicode="&#x22;" horiz-adv-x="1052" d="M315 1298q-4 131 49.5 213.5t163.5 82.5q78 0 126 -45.5t48 -110.5q0 -68 -46 -167l-188 -415h-141zM790 1298q-4 131 49.5 213.5t163.5 82.5q78 0 126 -45.5t48 -110.5q0 -68 -46 -167l-188 -415h-141z" />
<glyph unicode="#" horiz-adv-x="1669" d="M62 414l62 233h295l120 341h-282l63 234h302l135 383h256l-135 -383h350l135 383h255l-135 -383h282l-63 -234h-301l-120 -341h289l-64 -233h-308l-145 -414h-255l145 414h-350l-145 -414h-256l145 414h-275zM671 644h357l122 349h-356z" />
<glyph unicode="$" horiz-adv-x="1435" d="M81 510v17l311 55v-11q-1 -97 49.5 -172t131.5 -107l104 388h-1q-64 25 -116 52.5t-104 67t-87 83.5t-57 102.5t-22 124.5q0 119 51.5 217.5t136.5 161t191.5 97t220.5 34.5h35l54 205h195l-63 -236q158 -48 251.5 -162.5t93.5 -285.5l-308 -52q0 70 -33 125.5t-86 80.5 l-98 -369l4 -1q79 -31 144 -69.5t122 -90.5t89.5 -121.5t32.5 -148.5q0 -104 -34 -190t-92 -145t-137.5 -99.5t-170 -58.5t-189.5 -17l-17 1l-52 -195h-195l59 220q-89 23 -163 65t-131.5 103t-89 146t-30.5 185zM627 1135q0 -51 37 -84.5t96 -58.5l90 337 q-84 -4 -153.5 -56.5t-69.5 -137.5zM755 266q52 3 101.5 22.5t87.5 61t38 95.5q0 105 -135 167z" />
<glyph unicode="%" horiz-adv-x="1872" d="M164 0l1392 1604h295l-1390 -1604h-297zM268 1206q0 109 54.5 204t151.5 152.5t213 57.5q143 0 231.5 -88t88.5 -222q0 -107 -52.5 -201.5t-150 -153.5t-217.5 -59q-138 0 -228.5 86t-90.5 224zM504 1232q0 -50 30.5 -80t82.5 -30q64 0 108.5 50t44.5 112q0 50 -30 80 t-83 30q-65 0 -109 -50t-44 -112zM1015 301q0 168 121.5 291t297.5 123q142 0 230.5 -88t88.5 -222q0 -107 -52.5 -201.5t-150 -153.5t-217.5 -59q-137 0 -227.5 86t-90.5 224zM1251 327q0 -50 30 -80t82 -30q64 0 109 50t45 112q0 50 -30.5 80t-83.5 30q-65 0 -108.5 -50 t-43.5 -112z" />
<glyph unicode="&#x26;" horiz-adv-x="1521" d="M64 389q0 74 26 142.5t68.5 122t102 100.5t121 81.5t131.5 62.5l-12 22q-46 79 -70 141t-24 132q0 128 74.5 230t188.5 154.5t240 52.5q120 0 219.5 -48.5t159.5 -142t60 -214.5q0 -74 -30 -141t-81 -119t-112 -91t-130 -65l-72 -27l133 -222q95 108 149 210l249 -124 q-48 -96 -139 -208q-59 -73 -110 -124l189 -314h-346l-74 123q-226 -146 -444 -146q-93 0 -176 25.5t-148.5 75t-104 129.5t-38.5 182zM394 436q0 -84 53 -129.5t136 -45.5q114 0 253 96l-191 320q-45 -17 -84 -37.5t-79.5 -50.5t-64 -69.5t-23.5 -83.5zM716 1195 q0 -66 48 -148l27 -45l117 44q57 21 95.5 63.5t38.5 98.5q0 64 -47.5 101t-113.5 37q-69 0 -117 -41.5t-48 -109.5z" />
<glyph unicode="'" horiz-adv-x="577" d="M314 1298q-3 131 50.5 213.5t163.5 82.5q78 0 126 -45.5t48 -110.5t-46 -167l-188 -415h-141z" />
<glyph unicode="(" horiz-adv-x="982" d="M142 587q0 224 76 423t211 350t316.5 260.5t396.5 168.5l93 -202q-134 -56 -249 -124t-219.5 -160t-178 -197t-116.5 -237.5t-43 -277.5q0 -203 94.5 -388t256.5 -321l-164 -162q-216 146 -345 378t-129 489z" />
<glyph unicode=")" horiz-adv-x="984" d="M-129 -78q134 56 249 124t219.5 160t178 196.5t116.5 237t43 278.5q0 203 -94.5 388t-256.5 321l164 162q216 -146 345 -378t129 -489q0 -224 -76 -423t-211.5 -350t-317 -260.5t-396.5 -168.5z" />
<glyph unicode="*" horiz-adv-x="1066" d="M289 1314l114 173l232 -151l74 275l208 -55l-73 -275l277 15l14 -208l-278 -16l98 -259l-194 -76l-104 262l-219 -176l-130 162l214 176z" />
<glyph unicode="+" horiz-adv-x="1264" d="M106 599l79 298h400l106 397h305l-106 -397h389l-79 -298h-390l-107 -401h-305l107 401h-399z" />
<glyph unicode="," horiz-adv-x="670" d="M-56 -388l40 147q109 12 187.5 78.5t96.5 158.5q-28 -12 -63 -12q-79 0 -127 46.5t-48 123.5q0 98 68.5 157.5t161.5 59.5q102 0 158.5 -68t56.5 -173q0 -100 -41 -193t-110.5 -163.5t-169 -114.5t-210.5 -47z" />
<glyph unicode="-" horiz-adv-x="947" d="M129 507l85 316h676l-85 -316h-676z" />
<glyph unicode="." horiz-adv-x="645" d="M32 173q0 102 70 174.5t172 72.5q87 0 144 -55.5t57 -142.5q0 -102 -71 -174t-173 -72q-87 0 -143 55t-56 142z" />
<glyph unicode="/" horiz-adv-x="1213" d="M-56 -10l1164 1679h327l-1166 -1679h-325z" />
<glyph unicode="0" horiz-adv-x="1584" d="M167 621q0 144 34 287.5t103 273t165 229t230 158.5t287 59q143 0 255.5 -52t182.5 -141.5t106 -204.5t36 -246q0 -145 -34.5 -288.5t-104.5 -272t-166 -227.5t-229.5 -157.5t-284.5 -58.5q-145 0 -257 48t-182 135t-105.5 202.5t-35.5 255.5zM509 641q0 -58 6 -105.5 t24 -94t46.5 -77.5t76 -50.5t110.5 -19.5q103 0 191.5 67t143.5 170t86 218t31 218q0 347 -273 347q-103 0 -190 -67t-140 -170t-82.5 -217.5t-29.5 -218.5z" />
<glyph unicode="1" horiz-adv-x="1021" d="M190 1271l651 333h276l-428 -1604h-335l320 1197l-360 -178z" />
<glyph unicode="2" horiz-adv-x="1404" d="M-9 0q30 265 175 439.5t398 283.5l226 97q137 60 193 100q114 85 115 200q0 90 -62 145t-158 55q-49 0 -95 -16t-87.5 -50t-66.5 -95.5t-25 -142.5l-329 37q0 133 52 243.5t139 182t199.5 110.5t235.5 39q128 0 231.5 -40t167.5 -107t98 -151.5t34 -178.5 q0 -108 -33 -196.5t-96.5 -155t-139 -115t-177.5 -93.5l-287 -126q-159 -70 -206 -165h737l-80 -300h-1159z" />
<glyph unicode="3" horiz-adv-x="1407" d="M68 476q0 23 1 34l349 41l-1 -19q-3 -113 61.5 -183t178.5 -70q121 0 207 77.5t86 192.5q0 84 -62 139t-154 55q-81 0 -155 -34l-101 241l539 357h-697l79 297h1122l-91 -344l-463 -308q147 -42 237 -145t90 -251q0 -110 -37 -205t-101.5 -163t-151 -116.5t-185 -72 t-203.5 -23.5q-110 0 -209.5 35t-174.5 98t-119.5 158.5t-44.5 208.5z" />
<glyph unicode="4" horiz-adv-x="1498" d="M11 318l98 368l957 918h406l-264 -988h224l-79 -297h-224l-85 -318l-326 -1l85 318h-792zM412 615h470l162 605z" />
<glyph unicode="5" horiz-adv-x="1374" d="M65 484l337 63q-2 -24 -2 -37q0 -97 68 -161t169 -64q129 0 217.5 81.5t88.5 198.5q0 91 -62 147.5t-165 56.5q-65 0 -132 -33.5t-103 -68.5l-285 134l345 803h936l-80 -298h-663l-148 -346q135 81 296 81q176 0 289 -121.5t113 -306.5q0 -119 -35 -221t-97 -177 t-146 -128.5t-182.5 -80t-205.5 -26.5q-238 0 -396.5 142.5t-156.5 361.5z" />
<glyph unicode="6" horiz-adv-x="1468" d="M154 572q0 229 82 440t235 360q126 122 293.5 189.5t361.5 67.5q129 0 248 -27t201 -80l-159 -283q-132 87 -330 87q-91 0 -193.5 -40.5t-185.5 -109.5q-136 -113 -175 -268q68 63 168 99t194 36q214 0 348.5 -123.5t134.5 -320.5q0 -176 -90.5 -319.5t-240 -221.5 t-324.5 -78q-254 0 -406 152q-79 79 -120.5 193.5t-41.5 246.5zM485 487q0 -97 71.5 -154.5t170.5 -57.5q123 0 215 80.5t92 201.5q0 98 -70.5 154.5t-169.5 56.5q-75 0 -146 -36.5t-117 -102t-46 -142.5z" />
<glyph unicode="7" horiz-adv-x="1290" d="M49 0l997 1305h-786l80 299h1175l-80 -286l-992 -1318h-394z" />
<glyph unicode="8" horiz-adv-x="1432" d="M110 435q0 91 31.5 165t87.5 125.5t121.5 86.5t146.5 58l1 3q-88 48 -142.5 127.5t-54.5 181.5q0 127 76.5 229t210.5 159.5t299 57.5q146 0 268.5 -48.5t200 -148t77.5 -232.5q0 -147 -94.5 -251.5t-250.5 -146.5v-3q219 -113 219 -340q0 -142 -85.5 -252t-226.5 -168 t-311 -58q-108 0 -210.5 32.5t-183.5 90t-130.5 144.5t-49.5 188zM454 473q0 -54 24.5 -96.5t63 -67.5t82 -38t85.5 -13q60 0 119.5 23t105 76.5t45.5 127.5q0 44 -16.5 80.5t-43 60.5t-61 41t-69 24t-68.5 7q-42 0 -87.5 -14t-86.5 -40.5t-67 -71t-26 -99.5zM626 1144 q0 -90 70.5 -143t158.5 -53q94 0 167 61.5t73 147.5q0 90 -71 141.5t-159 51.5q-89 0 -164 -60t-75 -146z" />
<glyph unicode="9" horiz-adv-x="1473" d="M42 87l153 284q60 -39 156 -62.5t196 -23.5q185 0 342.5 121t201.5 295q-67 -62 -170 -98.5t-198 -36.5q-207 0 -345.5 124t-138.5 320q0 110 35 208.5t97 172.5t144.5 128.5t180 82.5t200.5 28q170 0 299.5 -79.5t197.5 -216.5t68 -310q0 -171 -39.5 -326.5t-119.5 -286 t-192.5 -227t-267 -150.5t-335.5 -54q-131 0 -257.5 27.5t-207.5 79.5zM580 1052q0 -98 70.5 -155t170.5 -57q117 0 213 82.5t96 197.5q0 98 -70.5 155t-173.5 57q-122 0 -214 -80t-92 -200z" />
<glyph unicode=":" horiz-adv-x="690" d="M36 173q0 102 70 174.5t172 72.5q87 0 144 -55.5t57 -142.5q0 -102 -71.5 -174t-172.5 -72q-87 0 -143 55t-56 142zM222 873q0 102 70.5 174t171.5 72q87 0 144 -55.5t57 -142.5q0 -102 -71 -174t-173 -72q-87 0 -143 55.5t-56 142.5z" />
<glyph unicode=";" horiz-adv-x="707" d="M-48 -388l40 147q109 12 187.5 78.5t96.5 158.5q-28 -12 -63 -12q-79 0 -127.5 46.5t-48.5 123.5q0 98 69 157.5t161 59.5q103 0 159.5 -68t56.5 -173q0 -100 -41 -193t-110.5 -163.5t-169 -114.5t-210.5 -47zM223 873q0 102 70.5 174t172.5 72q87 0 143.5 -55.5 t56.5 -142.5q0 -102 -71 -174t-173 -72q-87 0 -143 55.5t-56 142.5z" />
<glyph unicode="&#x3c;" horiz-adv-x="1300" d="M103 619l67 252l1198 491l-86 -324l-788 -306l-1 -5l627 -307l-76 -290z" />
<glyph unicode="=" horiz-adv-x="1303" d="M86 317l80 299h1019l-80 -299h-1019zM237 881l79 297h1019l-79 -297h-1019z" />
<glyph unicode="&#x3e;" horiz-adv-x="1303" d="M52 130l86 323l788 307l1 5l-626 306l75 291l941 -489l-66 -252z" />
<glyph unicode="?" horiz-adv-x="1236" d="M242 1087q0 158 84.5 283.5t222 192t299.5 66.5q86 0 167 -24.5t147.5 -71t106.5 -122t40 -168.5q0 -78 -22.5 -144.5t-60.5 -114.5t-85 -90t-98 -81t-97 -77.5t-85.5 -88.5t-59.5 -105h-304q0 34 4 61q10 62 41 117t73 95.5t90.5 78t95 72t84.5 69t61.5 77t23.5 88.5 q0 66 -49 99.5t-118 33.5q-103 0 -175 -79t-72 -193zM403 145q0 95 67 161t162 66q76 0 126.5 -47.5t50.5 -122.5q0 -95 -67 -161t-162 -66q-76 0 -126.5 47.5t-50.5 122.5z" />
<glyph unicode="@" horiz-adv-x="1784" d="M135 546q0 149 46 290.5t131 256t197 201t252 134t289 47.5q108 0 213.5 -28.5t195.5 -83t158.5 -128.5t108 -171.5t39.5 -205.5q0 -115 -35 -225t-97.5 -197.5t-159 -141t-210.5 -53.5q-67 0 -129.5 31t-84.5 88q-46 -51 -119 -86t-139 -35q-119 0 -204.5 92t-85.5 217 q0 122 63 239.5t174.5 193.5t239.5 76q59 0 111.5 -30t68.5 -83l33 105h236l-152 -511q-8 -27 -8 -51q0 -61 57 -61q84 0 152 69.5t100.5 160.5t32.5 173q0 112 -49.5 208t-130 158.5t-181 97.5t-205.5 35q-148 0 -287.5 -63t-241 -168t-163 -248t-61.5 -295 q0 -263 162 -418t424 -155q110 0 235 40t219 103l64 -123q-94 -75 -247 -122.5t-283 -47.5q-207 0 -372.5 89t-261 252.5t-95.5 373.5zM752 595q0 -55 32.5 -93t86.5 -38q86 0 154.5 81t68.5 169q0 54 -32.5 86.5t-86.5 32.5q-86 0 -154.5 -75.5t-68.5 -162.5z" />
<glyph unicode="A" d="M-115 0l983 1604h410l247 -1604h-340l-50 344h-688l-205 -344h-357zM627 648h465l-84 631z" />
<glyph unicode="B" horiz-adv-x="1548" d="M52 0l428 1604h531q80 0 154 -11.5t146 -40.5t125.5 -72.5t86 -112.5t32.5 -156q0 -156 -94 -261t-250 -136v-1q220 -97 220 -323q0 -107 -42.5 -193t-110.5 -140.5t-160 -90.5t-185 -51t-191 -15h-690zM462 304h334q78 0 142.5 19t110.5 67.5t46 121.5q0 44 -20 75.5 t-54.5 48t-72.5 24t-82 7.5h-307zM634 952h285q59 0 108 9t94.5 29.5t71.5 61.5t26 99q0 43 -20.5 73.5t-55.5 46.5t-73 23t-83 7h-259z" />
<glyph unicode="C" horiz-adv-x="1775" d="M163 685q0 200 79 377t210 300.5t305 195t361 71.5q138 0 253.5 -34t193.5 -88t135.5 -126.5t88 -145.5t42.5 -149l-322 -103q-7 41 -21 79t-46 86t-76.5 82t-119 58t-168.5 24q-150 0 -281 -79.5t-210 -218t-79 -301.5q0 -202 110 -311.5t321 -109.5q68 0 127.5 13.5 t103 33.5t82.5 51.5t63.5 59t48.5 65.5t35.5 61.5t25.5 55.5l309 -120q-28 -73 -71.5 -142.5t-116 -142.5t-161.5 -127.5t-215.5 -89t-270.5 -34.5q-213 0 -380 87t-261.5 248.5t-94.5 373.5z" />
<glyph unicode="D" horiz-adv-x="1706" d="M52 0l428 1604h412q204 0 358.5 -48.5t251.5 -138t145 -212t48 -275.5q0 -82 -16 -166t-54 -176.5t-95 -176t-146.5 -159.5t-200 -131.5t-263.5 -88t-330 -32.5h-538zM471 311h162q208 0 370 72.5t255 210.5t93 320q0 187 -127 283.5t-353 96.5h-138z" />
<glyph unicode="E" horiz-adv-x="1361" d="M52 0l429 1604h1045l-82 -307h-712l-89 -334h637l-82 -306h-637l-94 -350h719l-82 -307h-1052z" />
<glyph unicode="F" horiz-adv-x="1340" d="M52 0l428 1604h1054l-84 -313h-717l-93 -346h641l-83 -313h-641l-169 -632h-336z" />
<glyph unicode="G" horiz-adv-x="1803" d="M162 687q0 179 71.5 349.5t195 301.5t304.5 211t386 80q131 0 243 -32t188 -82.5t133 -116.5t87 -131t41 -129l-321 -97q-9 38 -23.5 71t-46 72t-74 67t-111 46.5t-154.5 18.5q-116 0 -222.5 -49.5t-184 -131.5t-123.5 -195t-46 -235q0 -87 25 -161t75 -132.5 t133.5 -91.5t191.5 -33q159 0 279 74.5t166 200.5h-488l71 298h843q-11 -146 -50.5 -275t-113.5 -241.5t-177.5 -193.5t-249 -127.5t-320.5 -46.5t-315.5 57t-229.5 155.5t-136 226t-47 272.5z" />
<glyph unicode="H" horiz-adv-x="1718" d="M52 0l428 1604h336l-170 -635h662l170 635h336l-428 -1604h-336l174 651h-662l-174 -651h-336z" />
<glyph unicode="I" horiz-adv-x="722" d="M52 0l428 1604h338l-428 -1604h-338z" />
<glyph unicode="J" horiz-adv-x="1287" d="M46 396q0 138 48 302l331 11q-54 -193 -54 -251q0 -73 40.5 -119t115.5 -46q87 0 149.5 54.5t85.5 140.5l299 1116h336l-309 -1156q-125 -469 -594 -469q-119 0 -221 52t-164.5 149t-62.5 216z" />
<glyph unicode="K" horiz-adv-x="1508" d="M52 0l428 1604h336l-180 -674l698 674h443l-841 -799l448 -805h-381l-407 779l-208 -779h-336z" />
<glyph unicode="L" horiz-adv-x="1232" d="M52 0l428 1604h335l-345 -1293h681l-84 -311h-1015z" />
<glyph unicode="M" horiz-adv-x="2168" d="M52 0l428 1604h429l164 -1067l705 1067h487l-429 -1604h-331l293 1102h-4l-737 -1102h-217l-161 1100h-3l-294 -1100h-330z" />
<glyph unicode="N" horiz-adv-x="1787" d="M52 0l428 1604h382l394 -1102l294 1102h332l-426 -1604h-369l-403 1119l-299 -1119h-333z" />
<glyph unicode="O" horiz-adv-x="1863" d="M162 684q0 186 74 359t200 302t305 206.5t379 77.5q162 0 299 -54.5t231 -149t146.5 -224.5t52.5 -280q0 -145 -45 -285t-130.5 -258.5t-201 -209t-266.5 -141.5t-316 -51q-154 0 -288 51.5t-231 143t-153 224.5t-56 289zM505 705q0 -188 114 -300.5t310 -112.5 q121 0 229.5 52.5t184 138t119.5 195t44 222.5q0 189 -112.5 300.5t-312.5 111.5q-125 0 -234.5 -53.5t-183 -140t-116 -195t-42.5 -218.5z" />
<glyph unicode="P" horiz-adv-x="1446" d="M52 0l428 1604h472q250 0 394 -91q187 -119 187 -364q0 -181 -96 -314.5t-257.5 -200t-365.5 -66.5h-274l-151 -568h-337zM621 871h228q155 0 247 65t92 182q0 81 -62 128q-59 47 -173 47h-219z" />
<glyph unicode="Q" horiz-adv-x="1867" d="M162 684q0 186 74 359t200 302t305 206.5t379 77.5q162 0 299 -54.5t231 -149t146.5 -224.5t52.5 -280q0 -188 -74.5 -363.5t-210.5 -308.5l118 -170l-266 -176l-111 165q-195 -92 -415 -92q-154 0 -288 51.5t-231 143t-153 224.5t-56 289zM505 705q0 -188 114 -300.5 t310 -112.5q105 0 198 38l-212 304l268 179l194 -290q129 170 129 377q0 189 -112.5 300.5t-312.5 111.5q-125 0 -234.5 -53.5t-183 -140t-116 -195t-42.5 -218.5z" />
<glyph unicode="R" horiz-adv-x="1524" d="M52 0l428 1604h495q180 0 300 -43q146 -53 218 -158.5t72 -250.5q0 -205 -119.5 -337.5t-343.5 -194.5l216 -620h-357l-190 576h-234l-154 -576h-331zM618 878h252q95 0 171.5 24t127 79.5t50.5 136.5q0 175 -253 175h-238z" />
<glyph unicode="S" horiz-adv-x="1433" d="M77 507v17l314 56v-11q-1 -136 93 -222.5t232 -86.5q44 0 88.5 10t87 30t69 57t26.5 84q0 62 -40.5 103.5t-121.5 74.5l-147 58q-391 155 -391 436q0 97 34 181t92.5 144.5t136 104t165 65t179.5 21.5q118 0 221 -31.5t181.5 -90.5t124 -152.5t45.5 -210.5l-311 -52 q0 113 -76.5 177t-202.5 64q-95 0 -171.5 -51.5t-76.5 -143.5q0 -31 14 -55.5t41 -43t49.5 -29.5t55.5 -23l153 -60q79 -31 145 -70t123.5 -92t90 -123t32.5 -150q0 -131 -52 -232t-141 -161.5t-200 -91t-237 -30.5q-96 0 -186.5 20.5t-171 63.5t-140.5 104.5t-94 149.5 q-33 85 -33 186v6z" />
<glyph unicode="T" horiz-adv-x="1374" d="M243 1287l85 317h1293l-85 -317h-479l-343 -1287h-336l343 1287h-478z" />
<glyph unicode="U" horiz-adv-x="1629" d="M185 479q0 107 36 237l237 888h337l-246 -921q-23 -88 -23 -160q0 -108 68.5 -170t177.5 -62q143 0 240.5 99.5t138.5 255.5l257 958h334l-269 -1003q-30 -110 -68.5 -198.5t-99.5 -169.5t-138.5 -135.5t-186 -86.5t-241.5 -32q-88 0 -167 16.5t-150.5 54.5t-123.5 95 t-82.5 142.5t-30.5 191.5z" />
<glyph unicode="V" horiz-adv-x="1614" d="M282 1603h345l136 -1204l737 1204h376l-1002 -1603h-384z" />
<glyph unicode="W" horiz-adv-x="2465" d="M310 1604h344l35 -1141l628 1141h353l59 -1148l611 1148h363l-891 -1604h-369l-54 1124h-3l-624 -1124h-363z" />
<glyph unicode="X" horiz-adv-x="1543" d="M-133 0l792 836l-351 768h374l222 -517l465 517h435l-765 -799l369 -805h-379l-234 565l-513 -565h-415z" />
<glyph unicode="Y" horiz-adv-x="1543" d="M314 1604h371l179 -662l543 662h396l-845 -989l-166 -615h-337l170 634z" />
<glyph unicode="Z" horiz-adv-x="1398" d="M-55 0l77 292l1040 1008h-737l80 304h1170l-77 -286l-1033 -1013h788l-81 -305h-1227z" />
<glyph unicode="[" horiz-adv-x="922" d="M-22 -258l543 2033h663l-67 -249h-389l-409 -1535h388l-66 -249h-663z" />
<glyph unicode="\" horiz-adv-x="1130" d="M358 1669h273l299 -1679h-273z" />
<glyph unicode="]" horiz-adv-x="922" d="M-138 -258l67 249h389l410 1535h-389l66 249h663l-543 -2033h-663z" />
<glyph unicode="^" horiz-adv-x="1338" d="M198 923l643 681h244l283 -681h-302l-150 425l-372 -425h-346z" />
<glyph unicode="_" horiz-adv-x="1133" d="M-246 -391l70 259h1133l-70 -259h-1133z" />
<glyph unicode="`" horiz-adv-x="605" d="M287 1659h352l114 -384h-243z" />
<glyph unicode="a" horiz-adv-x="1409" d="M84 447q0 139 50 264t134 213t195.5 139t230.5 51q237 0 348 -184l43 163h321l-235 -894q-22 -80 -27 -161q-2 -10 0 -38h-322v36q3 45 10 80l-4 1q-82 -69 -155.5 -103.5t-165.5 -34.5q-132 0 -230 66.5t-145.5 171t-47.5 230.5zM416 477q0 -99 64.5 -154.5t165.5 -55.5 q133 0 227.5 107t94.5 242q0 98 -68.5 155.5t-168.5 57.5q-89 0 -162.5 -52t-113 -132.5t-39.5 -167.5z" />
<glyph unicode="b" horiz-adv-x="1407" d="M12 0l439 1668h324l-181 -684l4 -2q72 61 146 96.5t166 35.5q133 0 231 -66t145.5 -170.5t47.5 -231.5q0 -138 -51 -262.5t-135 -212.5t-196.5 -140t-232.5 -52q-234 0 -347 183h-3l-42 -162h-315zM450 480q0 -99 67.5 -156t165.5 -57q125 0 221.5 101.5t96.5 250.5 q0 98 -62 154t-168 56q-87 0 -162 -51t-117 -131.5t-42 -166.5z" />
<glyph unicode="c" horiz-adv-x="1287" d="M88 482q0 128 52.5 245.5t139.5 203t206.5 136t248.5 50.5q217 0 356 -109t164 -270l-294 -84q-13 69 -78.5 120.5t-159.5 51.5q-131 0 -223.5 -97.5t-92.5 -236.5q0 -101 61 -163t168 -62q98 0 172 50.5t105 116.5l277 -105q-65 -156 -217 -254.5t-347 -98.5 q-154 0 -274.5 58.5t-192 174.5t-71.5 273z" />
<glyph unicode="d" horiz-adv-x="1411" d="M85 447q0 139 50.5 264t134 213t195.5 139t231 51q233 0 346 -180l193 734h324l-387 -1468q-23 -89 -26 -162q-2 -14 -1 -38h-320q-2 23 0 36q1 37 10 82l-4 2q-77 -68 -152.5 -104.5t-169.5 -36.5q-100 0 -181.5 38.5t-134 103.5t-80.5 149t-28 177zM418 477 q0 -100 64.5 -155t165.5 -55q133 0 227.5 107t94.5 242q0 98 -68.5 155.5t-168.5 57.5q-89 0 -162.5 -52t-113 -132.5t-39.5 -167.5z" />
<glyph unicode="e" horiz-adv-x="1292" d="M87 480q0 131 53 250t140 203t201.5 134t234.5 50q144 0 258.5 -55t181.5 -162t67 -250q0 -92 -33 -192h-795q0 -102 74 -158.5t170 -56.5q91 0 157.5 42.5t100.5 109.5l251 -116q-84 -151 -220.5 -227t-307.5 -76q-231 0 -382 141t-151 363zM432 669h482q1 8 1 23 q0 84 -60 126.5t-149 42.5t-168.5 -54t-105.5 -138z" />
<glyph unicode="f" horiz-adv-x="888" d="M124 822l72 271h218l47 163q21 73 45.5 129t64.5 112.5t91.5 93.5t127 60t169.5 23q141 0 209 -40l-68 -260q-48 21 -102 21q-180 0 -227 -176l-35 -126h271l-72 -271h-269l-216 -822h-324l217 822h-219z" />
<glyph unicode="g" horiz-adv-x="1413" d="M-86 -92l300 59q0 -96 66 -167t192 -71q118 0 206 76t127 224l29 112q-130 -119 -318 -119q-123 0 -221.5 61.5t-152 164.5t-53.5 225q0 134 51.5 255t135 204t190.5 131.5t216 48.5q123 0 212.5 -40.5t158.5 -137.5l42 159h318l-282 -1067q-26 -98 -61 -179t-90.5 -156 t-125 -126t-167.5 -81.5t-216 -30.5q-137 0 -246.5 40t-175.5 106t-100.5 145t-34.5 164zM418 501q0 -92 59.5 -147t160.5 -55q124 0 218.5 96t94.5 231q0 91 -61.5 147.5t-157.5 56.5q-129 0 -221.5 -97.5t-92.5 -231.5z" />
<glyph unicode="h" horiz-adv-x="1305" d="M12 0l438 1668h324l-181 -685h1q63 59 143 95.5t162 36.5q147 0 234 -89t87 -234q0 -68 -37 -213l-153 -579h-323l156 590q14 54 14 97q0 65 -40 98.5t-110 33.5q-94 0 -151.5 -61t-82.5 -154l-157 -604h-324z" />
<glyph unicode="i" horiz-adv-x="625" d="M11 0l289 1093h325l-289 -1093h-325zM359 1450q1 92 67 158q68 66 161 66q76 0 126 -47t51 -123q0 -96 -67 -162t-162 -66q-76 0 -126 47.5t-50 126.5z" />
<glyph unicode="j" horiz-adv-x="641" d="M-353 -493l66 253q52 -22 107 -22q138 0 178 148l318 1207h324l-338 -1287q-45 -172 -157.5 -259t-277.5 -87q-68 0 -128.5 13t-91.5 34zM375 1447q0 94 67.5 160.5t162.5 66.5q75 0 125.5 -47.5t50.5 -122.5q0 -95 -67.5 -161.5t-162.5 -66.5q-76 0 -126 47.5t-50 123.5 z" />
<glyph unicode="k" horiz-adv-x="1266" d="M12 0l440 1670h323l-262 -999h3l452 422h441l-604 -533l323 -560h-372l-279 525h-3l-138 -525h-324z" />
<glyph unicode="l" horiz-adv-x="625" d="M12 0l439 1668h324l-439 -1668h-324z" />
<glyph unicode="m" horiz-adv-x="1980" d="M13 0l287 1093h315l-28 -116l3 -1q71 69 151.5 104t152.5 35q95 0 171 -44t106 -129q82 76 188 124.5t219 48.5q150 0 234 -90t84 -233q0 -75 -38 -212l-151 -580h-324l156 590q14 51 14 97q0 67 -39.5 99.5t-106.5 32.5q-170 0 -227 -215l-159 -604h-322l155 589 q14 54 14 97q0 133 -142 133q-93 0 -149.5 -59.5t-81.5 -155.5l-159 -604h-323z" />
<glyph unicode="n" horiz-adv-x="1306" d="M13 0l286 1093h315l-28 -116l3 -1q63 60 145 99.5t165 39.5q144 0 233 -87t89 -236q0 -73 -37 -213l-153 -579h-324l157 590q14 54 14 97q0 66 -41 99t-109 33q-92 0 -150 -59.5t-84 -155.5l-158 -604h-323z" />
<glyph unicode="o" horiz-adv-x="1346" d="M87 483q0 165 84.5 310.5t234.5 234.5t328 89q237 0 386 -137t149 -370q0 -130 -52.5 -248t-140 -202.5t-206.5 -134t-247 -49.5q-112 0 -210 35t-170.5 99t-114 160.5t-41.5 212.5zM405 492q0 -98 59.5 -161.5t169.5 -63.5q130 0 223 99.5t93 235.5q0 101 -64 162.5 t-165 61.5q-135 0 -225.5 -100.5t-90.5 -233.5z" />
<glyph unicode="p" horiz-adv-x="1408" d="M-130 -540l430 1633h315l-30 -115l4 -1q77 64 153 100.5t169 36.5q133 0 231 -66t145 -170.5t48 -231.5q0 -139 -50.5 -264t-135 -213t-197 -139t-232.5 -51q-226 0 -341 174h-3l-182 -693h-324zM451 480q0 -99 67.5 -156t165.5 -57q125 0 221.5 101.5t96.5 250.5 q0 98 -62 154t-168 56q-87 0 -162 -51t-117 -131.5t-42 -166.5z" />
<glyph unicode="q" horiz-adv-x="1409" d="M85 447q0 139 50.5 264t134 213t195.5 139t231 51q238 0 352 -188l44 167h316l-430 -1633h-323l171 652l-2 1q-76 -65 -149.5 -99.5t-165.5 -34.5q-100 0 -181.5 38.5t-134 103.5t-80.5 149t-28 177zM418 477q0 -100 64.5 -155t165.5 -55q133 0 227.5 107t94.5 242 q0 98 -68.5 155.5t-168.5 57.5q-89 0 -162.5 -52t-113 -132.5t-39.5 -167.5z" />
<glyph unicode="r" horiz-adv-x="872" d="M12 0l288 1093h303l-42 -159h3q129 171 328 171q44 0 83 -11l-84 -319q-52 14 -98 14q-118 0 -210 -80.5t-131 -229.5l-126 -479h-314z" />
<glyph unicode="s" horiz-adv-x="1068" d="M14 334v9l285 45v-6q-1 -72 49 -114q52 -44 126 -43q55 0 96.5 27t41.5 72q0 58 -74 88l-121 47q-242 93 -242 285q0 107 62.5 194.5t162.5 134.5t213 47q77 0 152.5 -24.5t136 -68t98 -111.5t37.5 -147l-285 -31q0 61 -43 99t-100 38q-50 0 -88.5 -26t-38.5 -68 q0 -58 69 -84l112 -44q59 -23 102.5 -47t83.5 -59.5t61 -83.5t21 -108q0 -115 -67 -203t-172 -132t-226 -44q-90 0 -170 23t-143.5 66.5t-101 113t-37.5 155.5z" />
<glyph unicode="t" horiz-adv-x="928" d="M114 817l73 276h214l91 343h318l-90 -343h266l-76 -276h-263l-108 -407q-7 -28 -7 -49q0 -103 132 -103q60 0 107 13l-68 -256q-69 -30 -171 -30q-154 0 -244 69t-90 218q0 72 20 144l106 401h-210z" />
<glyph unicode="u" horiz-adv-x="1308" d="M95 301q0 68 38 214l153 578h323l-156 -589q-14 -48 -14 -97q0 -67 41 -100t109 -33q92 0 150 60t83 156l159 603h322l-233 -893q-23 -89 -27 -162v-38h-323v36q4 50 11 82h-4q-62 -60 -144.5 -100t-165.5 -40q-140 0 -231 88t-91 235z" />
<glyph unicode="v" horiz-adv-x="1262" d="M176 1093h326l79 -719l455 719h350l-732 -1093h-325z" />
<glyph unicode="w" horiz-adv-x="1827" d="M185 1093h320l19 -673l381 673h296l25 -679l383 679h334l-632 -1093h-317l-37 694l-408 -694h-313z" />
<glyph unicode="x" horiz-adv-x="1188" d="M-110 0l538 564l-256 529h363l119 -300l265 300h384l-524 -550l251 -543h-360l-122 308l-275 -308h-383z" />
<glyph unicode="y" horiz-adv-x="1256" d="M-32 -539l358 553l-147 1079h322l79 -717l442 717h359l-1063 -1632h-350z" />
<glyph unicode="z" horiz-adv-x="1105" d="M-50 0l66 250l644 571h-478l72 272h902l-65 -245l-653 -575h509l-72 -273h-925z" />
<glyph unicode="{" horiz-adv-x="919" d="M77 633l66 251q50 0 86 4t72 16t60 33t41.5 57t24.5 87l34 238q19 131 62 219.5t115.5 140.5t166 74t224.5 22h146l-66 -249h-111q-55 0 -96.5 -9t-70.5 -30t-48.5 -45t-32.5 -64.5t-20.5 -76t-15.5 -91.5l-29 -201q-17 -118 -87.5 -176.5t-196.5 -76.5l-1 -1 q167 -38 167 -192q0 -57 -25 -123l-57 -148q-54 -140 -54 -198q0 -34 15 -56t42.5 -31.5t52 -12.5t59.5 -3h104l-66 -249h-136q-59 0 -111 8.5t-99.5 29.5t-81.5 53t-54.5 81.5t-20.5 112.5q0 97 48 218l74 191q22 55 22 94q0 25 -9 43.5t-27.5 29.5t-35.5 17.5t-45.5 9 t-43 3t-41.5 0.5z" />
<glyph unicode="|" horiz-adv-x="650" d="M-16 -238l551 2063h275l-551 -2063h-275z" />
<glyph unicode="}" horiz-adv-x="918" d="M-133 -258l66 249h111q66 0 113 15t75.5 38.5t48 67.5t28.5 85t19 109l29 201q17 119 87.5 177.5t196.5 75.5l1 2q-167 38 -167 191q0 60 26 124l56 148q54 140 54 198q0 34 -14.5 56t-42.5 31.5t-52.5 12.5t-58.5 3h-105l66 249h136q59 0 111 -8.5t99.5 -29.5t81.5 -53 t54.5 -81.5t20.5 -112.5q0 -99 -48 -218l-74 -191q-21 -57 -21 -94q0 -22 8 -39t18 -27.5t30 -18t33.5 -11t39.5 -5.5t36.5 -2h35.5l-66 -251q-50 0 -86 -4t-72 -16t-60 -33t-41.5 -57t-24.5 -87l-34 -239q-19 -131 -62 -219t-115.5 -140t-166 -74t-224.5 -22h-146z" />
<glyph unicode="~" horiz-adv-x="1315" d="M131 620q139 225 341 225q65 0 133 -26t114 -57.5t96 -57.5t83 -26q46 0 83 29.5t75 78.5l173 -168q-137 -226 -341 -226q-48 0 -98.5 17.5t-92.5 42t-82 49t-80 42t-72 17.5q-46 0 -83 -29t-76 -79z" />
<glyph unicode="&#xa1;" horiz-adv-x="667" d="M-120 -512l311 1049h296l-249 -1049h-358zM231 890q-1 95 66 161t163 66q75 0 125.5 -47.5t50.5 -122.5q0 -94 -67 -160.5t-162 -66.5q-76 0 -126 47t-50 123z" />
<glyph unicode="&#xa2;" horiz-adv-x="1337" d="M103 482q0 171 88 318t237.5 232.5t321.5 84.5h12l49 187h166l-54 -208q146 -39 236.5 -136t109.5 -221l-292 -83q-9 47 -44.5 88.5t-89.5 64.5l-142 -540q80 13 140.5 60.5t86.5 102.5l277 -104q-66 -156 -218.5 -254.5t-346.5 -97.5h-12l-49 -185h-167l55 207 q-166 45 -265 170.5t-99 313.5zM420 492q0 -73 33 -127.5t93 -79.5l143 540q-115 -19 -192 -113.5t-77 -219.5z" />
<glyph unicode="&#xa3;" horiz-adv-x="1462" d="M-11 0l79 301q149 34 240 131t104 233h-243l66 261h156q-8 59 -8 110q0 264 163 422t442 158q226 0 352 -136t103 -351l-328 -33q8 86 -33.5 150t-132.5 64q-112 0 -166 -71.5t-54 -190.5q0 -52 10 -122h395l-66 -261h-313q-26 -241 -228 -351h293q197 0 227 187l312 -52 q-29 -203 -165 -326t-364 -123h-841z" />
<glyph unicode="&#xa4;" horiz-adv-x="1554" d="M182 147l173 172q-62 108 -62 235q0 123 60 236l-171 175l195 194l178 -180q111 56 229 56q126 0 228 -56l177 178l195 -193l-171 -174q63 -107 63 -236q0 -121 -62 -237l172 -172l-195 -196l-177 181q-111 -56 -230 -56q-118 0 -229 56l-178 -179zM577 553 q0 -89 58 -145.5t147 -56.5t147.5 56.5t58.5 145.5t-58.5 146t-147.5 57t-147 -57t-58 -146z" />
<glyph unicode="&#xa5;" horiz-adv-x="1601" d="M89 270l57 211h466l42 156h-467l57 211h358l-241 756h371l158 -668l524 668h396l-645 -756h348l-56 -211h-468l-42 -156h468l-56 -211h-469l-73 -270h-333l72 270h-467z" />
<glyph unicode="&#xa6;" horiz-adv-x="644" d="M-19 -238l213 800h275l-213 -800h-275zM318 1026l214 799h275l-214 -799h-275z" />
<glyph unicode="&#xa7;" horiz-adv-x="1410" d="M79 323l241 104q10 -25 24 -48.5t42.5 -53.5t64.5 -52t93.5 -37t125.5 -15q76 0 123.5 26.5t47.5 71.5q0 38 -42 63t-149 55l-127 36q-355 100 -355 312q0 113 82 192.5t245 113.5q-95 88 -95 194q0 152 143.5 248.5t365.5 96.5q202 0 345 -91t198 -232l-235 -111 q-33 77 -117.5 132t-206.5 55q-76 0 -124 -26.5t-48 -71.5q0 -37 40.5 -62t140.5 -53l127 -36q80 -23 141.5 -49.5t114.5 -64t81 -88.5t28 -113q0 -113 -81.5 -191t-246.5 -112q96 -82 96 -197q0 -152 -143.5 -248t-366.5 -96q-234 0 -384.5 101t-188.5 247zM482 836 q0 -46 43.5 -75t139.5 -58l62 -19q125 -37 194 -37q63 0 111 34.5t48 86.5q0 46 -43.5 75t-137.5 57l-63 19q-130 38 -195 38q-63 0 -111 -34.5t-48 -86.5z" />
<glyph unicode="&#xa8;" horiz-adv-x="875" d="M267 1404q0 76 56 132.5t136 56.5q65 0 105.5 -40t40.5 -102q0 -75 -55 -131.5t-137 -56.5q-63 0 -104.5 39t-41.5 102zM729 1404q0 76 56 132.5t136 56.5q65 0 105.5 -40t40.5 -102q0 -75 -55 -131.5t-137 -56.5q-63 0 -104.5 39t-41.5 102z" />
<glyph unicode="&#xa9;" horiz-adv-x="1881" d="M193 802q0 167 66 320.5t177 264t263 176t317 65.5q166 0 317.5 -64.5t262 -174t176.5 -262t66 -319.5t-67 -320.5t-179 -264.5t-265 -177t-318 -66t-316 65t-260.5 175t-174.5 262t-65 320zM337 804q0 -139 54.5 -267t145.5 -220.5t216 -147.5t261 -55t261.5 55 t217 147.5t146.5 220.5t55 267q0 140 -55 268t-146.5 220t-217 147t-261.5 55q-181 0 -337 -92.5t-248 -252t-92 -345.5zM501 801q0 214 152.5 361t374.5 147q106 0 202 -35.5t171 -112t98 -182.5l-257 -78q-18 61 -75.5 104.5t-141.5 43.5q-98 0 -165 -66.5t-67 -178.5 q0 -107 64.5 -176t167.5 -69q87 0 143.5 43.5t79.5 106.5l258 -79q-29 -107 -105.5 -184t-173.5 -112.5t-204 -35.5q-228 0 -375 143t-147 360z" />
<glyph unicode="&#xaa;" horiz-adv-x="1136" d="M124 408l53 199h814l-52 -199h-815zM315 1105q0 195 126.5 329t297.5 134q165 0 241 -127l30 113h223l-163 -621q-16 -61 -19 -112v-26h-223q-2 15 0 25q0 24 7 55l-4 1q-57 -48 -107.5 -72t-114.5 -24q-137 0 -215.5 95t-78.5 230zM546 1126q0 -69 44.5 -107.5 t115.5 -38.5q92 0 157.5 74.5t65.5 167.5q0 68 -47.5 108t-117.5 40q-93 0 -155.5 -75t-62.5 -169z" />
<glyph unicode="&#xab;" horiz-adv-x="1379" d="M88 618l580 471l149 -183l-391 -317l229 -289l-192 -154zM647 618l579 471l149 -183l-391 -317l229 -289l-192 -154z" />
<glyph unicode="&#xac;" horiz-adv-x="1466" d="M179 856l78 289h1226l-177 -664h-322l100 375h-905z" />
<glyph unicode="&#xad;" horiz-adv-x="947" d="M129 507l85 316h676l-85 -316h-676z" />
<glyph unicode="&#xae;" horiz-adv-x="1370" d="M265 1056q0 153 75 282.5t204 205t282 75.5t282.5 -75.5t205 -205t75.5 -282.5t-75.5 -282t-205 -204.5t-282.5 -75.5t-282 75.5t-204 204.5t-75 282zM371 1056q0 -191 133.5 -325.5t321.5 -134.5q124 0 229 61.5t166.5 167.5t61.5 231q0 126 -61.5 232t-166.5 167.5 t-229 61.5t-228.5 -61.5t-165.5 -167.5t-61 -232zM610 735v644h254q99 0 163.5 -53t64.5 -151q0 -135 -121 -184l133 -256h-146l-118 231h-97v-231h-133zM743 1092h112q42 0 72 19.5t30 60.5q0 43 -29.5 61.5t-73.5 18.5h-111v-160z" />
<glyph unicode="&#xb0;" horiz-adv-x="948" d="M271 1189q0 177 123 303t300 126q152 0 251 -97t99 -248q0 -178 -124 -303.5t-301 -125.5q-152 0 -250 96.5t-98 248.5zM495 1205q0 -62 39 -102t101 -40q77 0 131.5 59.5t54.5 136.5q0 60 -41 99.5t-101 39.5q-77 0 -130.5 -57.5t-53.5 -135.5z" />
<glyph unicode="&#xb1;" horiz-adv-x="1350" d="M1 0l75 284h1068l-75 -284h-1068zM196 771l79 294h404l91 339h289l-90 -339h394l-79 -294h-394l-91 -343h-290l92 343h-405z" />
<glyph unicode="&#xb2;" horiz-adv-x="970" d="M218 872l15 65q30 130 122.5 231t219.5 151l151 59q63 25 101.5 59t38.5 88q0 39 -27.5 60.5t-77.5 21.5q-70 0 -111 -54t-41 -109l-233 31q24 160 137 254.5t278 94.5q141 0 231 -80t90 -197q0 -59 -18.5 -110.5t-47.5 -87.5t-72 -67.5t-82 -51.5t-88 -40l-138 -55 q-70 -28 -84 -50h412l-57 -213h-719z" />
<glyph unicode="&#xb3;" horiz-adv-x="934" d="M261 1157l234 29q-6 -121 121 -121q57 0 96.5 30.5t39.5 87.5q0 39 -29 61t-69 22q-36 0 -79 -13l-66 164l270 175h-399l56 209h704l-53 -203l-276 -185q95 -27 141 -90t46 -132q0 -153 -118.5 -245.5t-285.5 -92.5q-95 0 -170 33t-120 103t-43 168z" />
<glyph unicode="&#xb4;" horiz-adv-x="641" d="M212 1275l331 385h390l-439 -385h-282z" />
<glyph unicode="&#xb5;" horiz-adv-x="1368" d="M-54 -336l376 1429h324l-157 -589q-13 -50 -13 -97q0 -67 41 -100t109 -33q92 0 149.5 59.5t83.5 156.5l158 603h323l-233 -893q-26 -99 -27 -162q-2 -14 -1 -38h-322q-2 23 0 36q0 30 10 82h-3q-62 -59 -140.5 -97t-158.5 -38q-29 0 -64.5 11t-47.5 23l-92 -353h-315z " />
<glyph unicode="&#xb6;" horiz-adv-x="1182" d="M245 1115q0 97 35 181.5t107 155t197 111.5t289 41h386l-428 -1604h-328l197 738q-221 5 -338 100.5t-117 276.5z" />
<glyph unicode="&#xb7;" horiz-adv-x="661" d="M138 622q0 102 70.5 174t172.5 72q87 0 144 -55.5t57 -142.5q0 -102 -71.5 -174t-172.5 -72q-87 0 -143.5 55.5t-56.5 142.5z" />
<glyph unicode="&#xb9;" horiz-adv-x="766" d="M304 1594l412 207h240l-245 -929h-275l171 651l-214 -107z" />
<glyph unicode="&#xba;" horiz-adv-x="1104" d="M123 408l52 199h807l-52 -199h-807zM318 1130q0 176 131 308.5t318 132.5q165 0 268 -95.5t103 -257.5q0 -120 -61.5 -222t-164.5 -160t-222 -58q-161 0 -266.5 95.5t-105.5 256.5zM539 1136q0 -68 41 -112t118 -44q90 0 154.5 69t64.5 163q0 71 -44.5 114t-114.5 43 q-94 0 -156.5 -70.5t-62.5 -162.5z" />
<glyph unicode="&#xbb;" horiz-adv-x="1381" d="M54 329l391 316l-229 290l192 154l375 -472l-580 -471zM613 329l390 316l-229 290l192 154l375 -472l-580 -471z" />
<glyph unicode="&#xbc;" horiz-adv-x="2209" d="M292 0l1392 1604h295l-1390 -1604h-297zM292 1397l412 207h240l-245 -930h-275l171 652l-215 -107zM1163 169l70 267l537 493h305l-145 -548h150l-56 -212h-150l-44 -169h-242l44 169h-469zM1439 381h249l80 300z" />
<glyph unicode="&#xbd;" horiz-adv-x="2214" d="M292 1397l412 207h239l-244 -930l-275 1l171 651l-215 -107zM294 0l1392 1604h295l-1390 -1604h-297zM1243 0l14 65q30 130 123 231t220 151l151 60q140 54 140 146q0 39 -27.5 60.5t-77.5 21.5q-70 0 -111 -54t-41 -109l-233 32q24 160 137 254t278 94q141 0 231 -80 t90 -197q0 -74 -26.5 -133.5t-74.5 -102t-96 -69.5t-111 -52l-138 -54q-72 -32 -84 -51h412l-57 -213h-719z" />
<glyph unicode="&#xbe;" horiz-adv-x="2262" d="M201 960l233 28q-3 -58 26 -89t95 -31q57 0 97 30.5t40 87.5q0 38 -29.5 60t-69.5 22t-79 -13l-66 164l270 176h-398l55 209h704l-53 -203l-276 -186q95 -26 141 -89t46 -132q0 -153 -118 -246t-286 -93q-147 0 -241.5 79.5t-90.5 225.5zM398 0l1392 1604h295 l-1390 -1604h-297zM1232 169l70 267l537 493h305l-145 -548h150l-56 -212h-150l-44 -169h-242l44 169h-469zM1508 381h249l80 300z" />
<glyph unicode="&#xbf;" horiz-adv-x="1216" d="M-73 -151q0 78 22.5 144.5t60.5 114.5t84.5 90t98 81.5t97 77.5t85.5 88.5t60 105.5h303q0 -35 -4 -62q-10 -62 -41 -116.5t-73 -95.5t-90.5 -78.5t-95 -71.5t-84.5 -69t-61.5 -77t-23.5 -89q0 -66 49 -99.5t119 -33.5q102 0 174 79t72 194l314 -27q0 -119 -49.5 -221.5 t-132.5 -172t-193 -108.5t-230 -39q-87 0 -168 24.5t-147 70.5t-106 121.5t-40 168.5zM427 890q0 95 67 161t162 66q75 0 125.5 -47.5t50.5 -122.5q0 -94 -67 -160.5t-162 -66.5q-75 0 -125.5 47.5t-50.5 122.5z" />
<glyph unicode="&#xc0;" d="M-115 0h357l205 344h688l50 -344h340l-247 1604h-410zM627 648l381 631l84 -631h-465zM755 2135h352l114 -384h-243z" />
<glyph unicode="&#xc1;" d="M-115 0l983 1604h410l247 -1604h-340l-50 344h-688l-205 -344h-357zM627 648h465l-84 631zM967 1751l331 385h390l-439 -385h-282z" />
<glyph unicode="&#xc2;" d="M-115 0l983 1604h410l247 -1604h-340l-50 344h-688l-205 -344h-357zM627 648h465l-84 631zM694 1748l341 357h298l155 -357h-260l-75 187l-175 -187h-284z" />
<glyph unicode="&#xc3;" d="M-115 0l983 1604h410l247 -1604h-340l-50 344h-688l-205 -344h-357zM627 648h465l-84 631zM703 1750l12 51q29 121 101.5 193t190.5 72q55 0 104 -24t89.5 -47.5t73.5 -23.5q22 0 39 7.5t28.5 24.5t16.5 27.5t13 31.5h192l-13 -52q-65 -262 -287 -262q-46 0 -88 15 t-67 33.5t-57 33.5t-60 15q-59 0 -89 -95h-199z" />
<glyph unicode="&#xc4;" d="M-115 0l983 1604h410l247 -1604h-340l-50 344h-688l-205 -344h-357zM627 648h465l-84 631zM711 1873q0 77 55 133t136 56q65 0 105.5 -40t40.5 -101q0 -76 -54.5 -132t-137.5 -56q-63 0 -104 38.5t-41 101.5zM1193 1873q0 77 55 133t136 56q65 0 105.5 -40t40.5 -101 q0 -76 -54.5 -132t-137.5 -56q-63 0 -104 38.5t-41 101.5z" />
<glyph unicode="&#xc5;" d="M-115 0l946 1544q-30 58 -30 128q0 140 101.5 242.5t249.5 102.5q118 0 192 -73.5t74 -184.5q0 -76 -32.5 -145.5t-90.5 -118.5l230 -1495h-340l-50 344h-688l-205 -344h-357zM627 648h465l-84 631zM985 1691q0 -48 28 -75.5t76 -27.5q58 0 102 46t44 105q0 49 -28 76 t-77 27q-59 0 -102 -46t-43 -105z" />
<glyph unicode="&#xc6;" horiz-adv-x="2195" d="M-160 0l1252 1604h1268l-82 -307h-706l-89 -333h631l-82 -307h-631l-93 -350h712l-82 -307h-1045l85 320h-508l-244 -320h-386zM706 628h355l180 673h-20z" />
<glyph unicode="&#xc7;" horiz-adv-x="1775" d="M163 685q0 200 79 377t210 300.5t305 195t361 71.5q138 0 253.5 -34t193.5 -88t135.5 -126.5t88 -145.5t42.5 -149l-322 -103q-7 41 -21 79t-46 86t-76.5 82t-119 58t-168.5 24q-150 0 -281 -79.5t-210 -218t-79 -301.5q0 -202 110 -311.5t321 -109.5q68 0 127.5 13.5 t103 33.5t82.5 51.5t63.5 59t48.5 65.5t35.5 61.5t25.5 55.5l309 -120q-25 -66 -63.5 -129.5t-100.5 -131t-138 -121t-182 -93.5t-226 -54q21 -53 21 -119q0 -197 -118 -298t-320 -101q-92 0 -166 22l54 207q51 -9 94 -9q100 0 153 68.5t53 176.5q0 22 -5 52 q-282 33 -454.5 222.5t-172.5 480.5z" />
<glyph unicode="&#xc8;" horiz-adv-x="1361" d="M52 0h1052l82 307h-719l94 350h637l82 306h-637l89 334h712l82 307h-1045zM687 2135h352l114 -384h-243z" />
<glyph unicode="&#xc9;" horiz-adv-x="1361" d="M52 0l429 1604h1045l-82 -307h-712l-89 -334h637l-82 -306h-637l-94 -350h719l-82 -307h-1052zM882 1751l331 385h390l-439 -385h-282z" />
<glyph unicode="&#xca;" horiz-adv-x="1361" d="M52 0l429 1604h1045l-82 -307h-712l-89 -334h637l-82 -306h-637l-94 -350h719l-82 -307h-1052zM622 1748l341 357h298l155 -357h-260l-75 187l-175 -187h-284z" />
<glyph unicode="&#xcb;" horiz-adv-x="1361" d="M52 0l429 1604h1045l-82 -307h-712l-89 -334h637l-82 -306h-637l-94 -350h719l-82 -307h-1052zM649 1863q0 77 55.5 133t136.5 56q65 0 105.5 -40t40.5 -101q0 -76 -54.5 -132t-137.5 -56q-63 0 -104.5 38.5t-41.5 101.5zM1131 1863q0 77 55.5 133t136.5 56 q65 0 105.5 -40t40.5 -101q0 -76 -54.5 -132t-137.5 -56q-63 0 -104.5 38.5t-41.5 101.5z" />
<glyph unicode="&#xcc;" horiz-adv-x="722" d="M52 0h338l428 1604h-338zM344 2135h352l114 -384h-243z" />
<glyph unicode="&#xcd;" horiz-adv-x="722" d="M52 0l428 1604h338l-428 -1604h-338zM547 1751l331 385h390l-439 -385h-282z" />
<glyph unicode="&#xce;" horiz-adv-x="722" d="M52 0l428 1604h338l-428 -1604h-338zM264 1748l341 357h298l155 -357h-260l-75 187l-175 -187h-284z" />
<glyph unicode="&#xcf;" horiz-adv-x="722" d="M52 0l428 1604h338l-428 -1604h-338zM311 1873q0 77 55 133t136 56q65 0 105.5 -40t40.5 -101q0 -76 -54.5 -132t-137.5 -56q-63 0 -104 38.5t-41 101.5zM764 1873q0 77 55 133t136 56q65 0 105.5 -40t40.5 -101q0 -76 -54.5 -132t-137.5 -56q-63 0 -104 38.5t-41 101.5z " />
<glyph unicode="&#xd0;" horiz-adv-x="1771" d="M96 657l81 304h196l172 643h412q204 0 358.5 -48.5t251.5 -138t145 -212t48 -275.5q0 -82 -16 -166t-54 -176.5t-95 -176t-146.5 -159.5t-200 -131.5t-263.5 -88t-330 -32.5h-538l175 657h-196zM536 311h162q208 0 370 72.5t255 210.5t93 320q0 187 -127 283.5t-353 96.5 h-138l-89 -333h346l-81 -304h-346z" />
<glyph unicode="&#xd1;" horiz-adv-x="1787" d="M52 0l428 1604h382l394 -1102l294 1102h332l-426 -1604h-369l-403 1119l-299 -1119h-333zM813 1750l12 51q29 121 101.5 193t190.5 72q55 0 104 -24t89.5 -47.5t73.5 -23.5q22 0 39 7.5t28.5 24.5t16.5 27.5t13 31.5h192l-13 -52q-30 -121 -100.5 -191.5t-186.5 -70.5 q-46 0 -88 15t-67 33.5t-57 33.5t-60 15q-59 0 -89 -95h-199z" />
<glyph unicode="&#xd2;" horiz-adv-x="1863" d="M162 684q0 -156 56 -289t153 -224.5t231 -143t288 -51.5q165 0 316 51t266.5 141.5t201 209t130.5 258.5t45 285q0 150 -52.5 280t-146.5 224.5t-231 149t-299 54.5q-200 0 -379 -77.5t-305 -206.5t-200 -302t-74 -359zM505 705q0 110 42.5 218.5t116 195t183 140 t234.5 53.5q200 0 312.5 -111.5t112.5 -300.5q0 -113 -44 -222.5t-119.5 -195t-184 -138t-229.5 -52.5q-196 0 -310 112.5t-114 300.5zM779 2135h352l114 -384h-243z" />
<glyph unicode="&#xd3;" horiz-adv-x="1863" d="M162 684q0 186 74 359t200 302t305 206.5t379 77.5q162 0 299 -54.5t231 -149t146.5 -224.5t52.5 -280q0 -145 -45 -285t-130.5 -258.5t-201 -209t-266.5 -141.5t-316 -51q-154 0 -288 51.5t-231 143t-153 224.5t-56 289zM505 705q0 -188 114 -300.5t310 -112.5 q121 0 229.5 52.5t184 138t119.5 195t44 222.5q0 189 -112.5 300.5t-312.5 111.5q-125 0 -234.5 -53.5t-183 -140t-116 -195t-42.5 -218.5zM989 1751l331 385h390l-439 -385h-282z" />
<glyph unicode="&#xd4;" horiz-adv-x="1863" d="M162 684q0 186 74 359t200 302t305 206.5t379 77.5q162 0 299 -54.5t231 -149t146.5 -224.5t52.5 -280q0 -145 -45 -285t-130.5 -258.5t-201 -209t-266.5 -141.5t-316 -51q-154 0 -288 51.5t-231 143t-153 224.5t-56 289zM505 705q0 -188 114 -300.5t310 -112.5 q121 0 229.5 52.5t184 138t119.5 195t44 222.5q0 189 -112.5 300.5t-312.5 111.5q-125 0 -234.5 -53.5t-183 -140t-116 -195t-42.5 -218.5zM746 1748l341 357h298l155 -357h-260l-75 187l-175 -187h-284z" />
<glyph unicode="&#xd5;" horiz-adv-x="1863" d="M162 684q0 186 74 359t200 302t305 206.5t379 77.5q162 0 299 -54.5t231 -149t146.5 -224.5t52.5 -280q0 -145 -45 -285t-130.5 -258.5t-201 -209t-266.5 -141.5t-316 -51q-154 0 -288 51.5t-231 143t-153 224.5t-56 289zM505 705q0 -188 114 -300.5t310 -112.5 q121 0 229.5 52.5t184 138t119.5 195t44 222.5q0 189 -112.5 300.5t-312.5 111.5q-125 0 -234.5 -53.5t-183 -140t-116 -195t-42.5 -218.5zM759 1750l12 51q29 121 101.5 193t190.5 72q55 0 104 -24t89.5 -47.5t73.5 -23.5q22 0 39 7.5t28.5 24.5t16.5 27.5t13 31.5h192 l-13 -52q-65 -262 -287 -262q-46 0 -88 15t-67 33.5t-57 33.5t-60 15q-59 0 -89 -95h-199z" />
<glyph unicode="&#xd6;" horiz-adv-x="1863" d="M162 684q0 186 74 359t200 302t305 206.5t379 77.5q162 0 299 -54.5t231 -149t146.5 -224.5t52.5 -280q0 -145 -45 -285t-130.5 -258.5t-201 -209t-266.5 -141.5t-316 -51q-154 0 -288 51.5t-231 143t-153 224.5t-56 289zM505 705q0 -188 114 -300.5t310 -112.5 q121 0 229.5 52.5t184 138t119.5 195t44 222.5q0 189 -112.5 300.5t-312.5 111.5q-125 0 -234.5 -53.5t-183 -140t-116 -195t-42.5 -218.5zM788 1873q0 77 55 133t136 56q65 0 105.5 -40t40.5 -101q0 -76 -54.5 -132t-137.5 -56q-63 0 -104 38.5t-41 101.5zM1270 1873 q0 77 55.5 133t135.5 56q65 0 105.5 -40t40.5 -101q0 -76 -54.5 -132t-137.5 -56q-63 0 -104 38.5t-41 101.5z" />
<glyph unicode="&#xd7;" horiz-adv-x="1361" d="M69 384l482 381l-279 379l226 165l273 -370l479 379l165 -210l-486 -384l276 -374l-226 -167l-271 368l-474 -376z" />
<glyph unicode="&#xd8;" horiz-adv-x="1862" d="M98 109l181 173q-117 176 -117 402q0 186 74 359t200 302t305 206.5t379 77.5q265 0 458 -144l182 178l157 -163l-185 -178q117 -176 117 -401q0 -145 -45 -285t-130.5 -258.5t-201 -209t-266.5 -141.5t-316 -51q-262 0 -455 143l-181 -173zM497 703q0 -51 12 -105 t28 -83l787 746q-37 28 -103 44.5t-138 16.5q-126 0 -238 -55t-187 -143t-118 -198.5t-43 -222.5zM690 344q31 -26 99 -44t137 -18q122 0 233 54t188 141t122 199t45 226q0 117 -39 187z" />
<glyph unicode="&#xd9;" horiz-adv-x="1629" d="M185 479q0 -106 30.5 -191.5t82.5 -142.5t123.5 -95t150.5 -54.5t167 -16.5q133 0 241.5 32t186 86.5t138.5 135.5t99.5 169.5t68.5 198.5l269 1003h-334l-257 -958q-42 -156 -139 -255.5t-240 -99.5q-109 0 -177.5 62t-68.5 170q0 72 23 160l246 921h-337l-237 -888 q-36 -137 -36 -237zM774 2135h352l114 -384h-243z" />
<glyph unicode="&#xda;" horiz-adv-x="1629" d="M185 479q0 100 36 237l237 888h337l-246 -921q-23 -88 -23 -160q0 -108 68.5 -170t177.5 -62q143 0 240 99.5t139 255.5l257 958h334l-269 -1003q-30 -110 -68.5 -198.5t-99.5 -169.5t-138.5 -135.5t-186 -86.5t-241.5 -32q-88 0 -167 16.5t-150.5 54.5t-123.5 95 t-82.5 142.5t-30.5 191.5zM966 1751l331 385h390l-439 -385h-282z" />
<glyph unicode="&#xdb;" horiz-adv-x="1629" d="M185 479q0 100 36 237l237 888h337l-246 -921q-23 -88 -23 -160q0 -108 68.5 -170t177.5 -62q143 0 240 99.5t139 255.5l257 958h334l-269 -1003q-30 -110 -68.5 -198.5t-99.5 -169.5t-138.5 -135.5t-186 -86.5t-241.5 -32q-88 0 -167 16.5t-150.5 54.5t-123.5 95 t-82.5 142.5t-30.5 191.5zM712 1748l341 357h298l155 -357h-260l-75 187l-175 -187h-284z" />
<glyph unicode="&#xdc;" horiz-adv-x="1629" d="M185 479q0 100 36 237l237 888h337l-246 -921q-23 -88 -23 -160q0 -108 68.5 -170t177.5 -62q143 0 240 99.5t139 255.5l257 958h334l-269 -1003q-30 -110 -68.5 -198.5t-99.5 -169.5t-138.5 -135.5t-186 -86.5t-241.5 -32q-88 0 -167 16.5t-150.5 54.5t-123.5 95 t-82.5 142.5t-30.5 191.5zM745 1873q0 77 55.5 133t136.5 56q65 0 105.5 -40t40.5 -101q0 -76 -54.5 -132t-137.5 -56q-63 0 -104.5 38.5t-41.5 101.5zM1227 1873q0 77 55.5 133t136.5 56q65 0 105.5 -40t40.5 -101q0 -76 -54.5 -132t-137.5 -56q-63 0 -104.5 38.5 t-41.5 101.5z" />
<glyph unicode="&#xdd;" horiz-adv-x="1543" d="M314 1604h371l179 -662l543 662h396l-845 -989l-166 -615h-337l170 634zM920 1751l331 385h390l-439 -385h-282z" />
<glyph unicode="&#xde;" horiz-adv-x="1438" d="M52 0l428 1604h337l-73 -273h135q252 0 394 -90q187 -119 187 -364q0 -137 -55.5 -248t-153 -183.5t-228 -111t-282.5 -38.5h-274l-79 -296h-336zM548 599h228q155 0 246.5 64.5t91.5 181.5q0 81 -61 129q-60 47 -173 47h-219z" />
<glyph unicode="&#xdf;" horiz-adv-x="1436" d="M12 0l301 1144q71 267 222.5 398t411.5 131q128 0 236.5 -51t174 -145t65.5 -210q0 -262 -274 -409l-66 -36q-40 -21 -55 -36t-15 -36q0 -20 11.5 -34t46.5 -38l47 -33q19 -13 38.5 -28t52 -47t56 -64.5t41.5 -78t18 -90.5q0 -83 -36.5 -152.5t-98 -114.5t-139.5 -69.5 t-162 -24.5q-88 0 -157.5 23t-112 59.5t-68 84.5t-33 95.5t-0.5 94.5l261 18q-1 -15 1.5 -31t10.5 -34t20.5 -31.5t35 -22.5t50.5 -9q47 0 80 27.5t33 68.5t-21.5 67t-77.5 60l-92 58q-53 33 -88.5 90.5t-35.5 123.5q0 103 56.5 182t151.5 122l42 18q83 37 116.5 85.5 t33.5 109.5q0 73 -53 111.5t-121 38.5q-220 0 -296 -287l-288 -1098h-324z" />
<glyph unicode="&#xe0;" horiz-adv-x="1410" d="M84 447q0 -126 47.5 -230.5t145.5 -171t230 -66.5q92 0 165.5 34.5t155.5 103.5l4 -1q-7 -35 -10 -80v-36h322q-2 28 0 38q0 57 27 161l235 894h-321l-43 -163q-111 184 -348 184q-119 0 -230.5 -51t-195.5 -139t-134 -213t-50 -264zM416 477q0 87 39.5 167.5t113 132.5 t162.5 52q100 0 168.5 -57.5t68.5 -155.5q0 -135 -94.5 -242t-227.5 -107q-101 0 -165.5 55.5t-64.5 154.5zM429 1659h352l114 -384h-243z" />
<glyph unicode="&#xe1;" horiz-adv-x="1410" d="M84 447q0 139 50 264t134 213t195.5 139t230.5 51q237 0 348 -184l43 163h321l-235 -894q-27 -104 -27 -161q-2 -10 0 -38h-322v36q3 45 10 80l-4 1q-82 -69 -155.5 -103.5t-165.5 -34.5q-132 0 -230 66.5t-145.5 171t-47.5 230.5zM416 477q0 -99 64.5 -154.5 t165.5 -55.5q133 0 227.5 107t94.5 242q0 98 -68.5 155.5t-168.5 57.5q-89 0 -162.5 -52t-113 -132.5t-39.5 -167.5zM627 1275l331 385h390l-439 -385h-282z" />
<glyph unicode="&#xe2;" horiz-adv-x="1410" d="M84 447q0 139 50 264t134 213t195.5 139t230.5 51q237 0 348 -184l43 163h321l-235 -894q-27 -104 -27 -161q-2 -10 0 -38h-322v36q3 45 10 80l-4 1q-82 -69 -155.5 -103.5t-165.5 -34.5q-132 0 -230 66.5t-145.5 171t-47.5 230.5zM416 477q0 -99 64.5 -154.5 t165.5 -55.5q133 0 227.5 107t94.5 242q0 98 -68.5 155.5t-168.5 57.5q-89 0 -162.5 -52t-113 -132.5t-39.5 -167.5zM443 1278l341 357h298l155 -357h-260l-75 187l-175 -187h-284z" />
<glyph unicode="&#xe3;" horiz-adv-x="1410" d="M84 447q0 139 50 264t134 213t195.5 139t230.5 51q237 0 348 -184l43 163h321l-235 -894q-27 -104 -27 -161q-2 -10 0 -38h-322v36q3 45 10 80l-4 1q-82 -69 -155.5 -103.5t-165.5 -34.5q-132 0 -230 66.5t-145.5 171t-47.5 230.5zM416 477q0 -99 64.5 -154.5 t165.5 -55.5q133 0 227.5 107t94.5 242q0 98 -68.5 155.5t-168.5 57.5q-89 0 -162.5 -52t-113 -132.5t-39.5 -167.5zM446 1280l12 51q29 121 101.5 193t190.5 72q55 0 104 -24t89.5 -47.5t73.5 -23.5q22 0 39 7.5t28.5 24.5t16.5 27.5t13 31.5h192l-13 -52 q-65 -262 -287 -262q-46 0 -88 15t-67 33.5t-57 33.5t-60 15q-59 0 -89 -95h-199z" />
<glyph unicode="&#xe4;" horiz-adv-x="1410" d="M84 447q0 139 50 264t134 213t195.5 139t230.5 51q237 0 348 -184l43 163h321l-235 -894q-27 -104 -27 -161q-2 -10 0 -38h-322v36q3 45 10 80l-4 1q-82 -69 -155.5 -103.5t-165.5 -34.5q-132 0 -230 66.5t-145.5 171t-47.5 230.5zM416 477q0 -99 64.5 -154.5 t165.5 -55.5q133 0 227.5 107t94.5 242q0 98 -68.5 155.5t-168.5 57.5q-89 0 -162.5 -52t-113 -132.5t-39.5 -167.5zM473 1404q0 76 56 132.5t136 56.5q65 0 105.5 -40t40.5 -102q0 -75 -55 -131.5t-137 -56.5q-63 0 -104.5 39t-41.5 102zM935 1404q0 76 56 132.5t136 56.5 q65 0 105.5 -40t40.5 -102q0 -75 -55 -131.5t-137 -56.5q-63 0 -104.5 39t-41.5 102z" />
<glyph unicode="&#xe5;" horiz-adv-x="1412" d="M85 447q0 139 50.5 264t134 213t195.5 139t231 51q237 0 348 -184l43 163h321l-235 -894q-27 -104 -27 -161q-2 -10 0 -38h-322q-2 23 0 36q0 28 10 80l-5 1q-81 -68 -154.5 -103t-165.5 -35q-100 0 -181.5 38.5t-134 103.5t-80.5 149t-28 177zM418 477q0 -100 64.5 -155 t165.5 -55q133 0 227.5 107t94.5 242q0 98 -68.5 155.5t-168.5 57.5q-89 0 -162.5 -52t-113 -132.5t-39.5 -167.5zM562 1492q0 140 101.5 243t249.5 103q119 0 193 -73.5t74 -185.5q0 -139 -100 -242.5t-251 -103.5q-115 0 -191 72t-76 187zM746 1511q0 -48 28 -75.5 t76 -27.5q59 0 102.5 46.5t43.5 105.5q0 48 -28 75t-76 27q-59 0 -102.5 -46t-43.5 -105z" />
<glyph unicode="&#xe6;" horiz-adv-x="1959" d="M31 267q0 73 26.5 132.5t70 99t102 68t118 42t123.5 17.5l231 14q120 7 120 108q0 50 -41.5 82.5t-116.5 32.5q-80 0 -146 -45.5t-88 -117.5l-265 80q18 61 61 119t109 108.5t164 81t212 30.5q223 0 332 -133q160 131 340 131q144 0 258.5 -55t181.5 -162t67 -250 q0 -92 -33 -192h-795q0 -102 74 -158.5t170 -56.5q90 0 157 42.5t101 109.5l251 -116q-84 -151 -220.5 -227t-307.5 -76q-138 0 -247.5 54t-176.5 151q-111 -108 -225 -155t-265 -47h-9q-149 0 -241 83.5t-92 204.5zM350 311q0 -44 32 -71.5t76 -27.5q104 0 183 62.5 t101 161.5l4 19l-190 -12q-50 -3 -93 -14.5t-78 -42t-35 -75.5zM1099 669h485q0 3 0.5 11t0.5 11q0 85 -61.5 127.5t-150.5 42.5t-168.5 -54t-105.5 -138z" />
<glyph unicode="&#xe7;" horiz-adv-x="1287" d="M88 482q0 128 52.5 245.5t139.5 203t206.5 136t248.5 50.5q217 0 356 -109t164 -270l-294 -84q-13 69 -78.5 120.5t-159.5 51.5q-131 0 -223.5 -97.5t-92.5 -236.5q0 -101 61 -163t168 -62q98 0 172 50.5t105 116.5l277 -105q-53 -128 -167.5 -219t-264.5 -121 q23 -53 23 -125q0 -197 -118 -298t-320 -101q-92 0 -166 22l54 207q51 -9 94 -9q100 0 153 68.5t53 176.5q0 23 -5 53q-197 28 -317.5 159t-120.5 340z" />
<glyph unicode="&#xe8;" horiz-adv-x="1292" d="M87 480q0 -222 151 -363t382 -141q171 0 307.5 76t220.5 227l-251 116q-34 -67 -100.5 -109.5t-157.5 -42.5q-96 0 -170 56.5t-74 158.5h795q33 100 33 192q0 143 -67 250t-181.5 162t-258.5 55q-120 0 -234.5 -50t-201.5 -134t-140 -203t-53 -250zM395 1659h352 l114 -384h-243zM432 669q26 84 105.5 138t168.5 54t149 -42.5t60 -126.5q0 -15 -1 -23h-482z" />
<glyph unicode="&#xe9;" horiz-adv-x="1292" d="M87 480q0 -222 151 -363t382 -141q171 0 307.5 76t220.5 227l-251 116q-34 -67 -100.5 -109.5t-157.5 -42.5q-96 0 -170 56.5t-74 158.5h795q33 100 33 192q0 143 -67 250t-181.5 162t-258.5 55q-120 0 -234.5 -50t-201.5 -134t-140 -203t-53 -250zM432 669 q26 84 105.5 138t168.5 54t149 -42.5t60 -126.5q0 -15 -1 -23h-482zM588 1275l331 385h390l-439 -385h-282z" />
<glyph unicode="&#xea;" horiz-adv-x="1292" d="M87 480q0 -222 151 -363t382 -141q171 0 307.5 76t220.5 227l-251 116q-34 -67 -100.5 -109.5t-157.5 -42.5q-96 0 -170 56.5t-74 158.5h795q33 100 33 192q0 143 -67 250t-181.5 162t-258.5 55q-120 0 -234.5 -50t-201.5 -134t-140 -203t-53 -250zM346 1278l341 357h298 l155 -357h-260l-75 187l-175 -187h-284zM432 669q26 84 105.5 138t168.5 54t149 -42.5t60 -126.5q0 -15 -1 -23h-482z" />
<glyph unicode="&#xeb;" horiz-adv-x="1292" d="M87 480q0 -222 151 -363t382 -141q171 0 307.5 76t220.5 227l-251 116q-34 -67 -100.5 -109.5t-157.5 -42.5q-96 0 -170 56.5t-74 158.5h795q33 100 33 192q0 143 -67 250t-181.5 162t-258.5 55q-120 0 -234.5 -50t-201.5 -134t-140 -203t-53 -250zM394 1404 q0 76 56 132.5t136 56.5q65 0 105.5 -40t40.5 -102q0 -75 -55 -131.5t-137 -56.5q-63 0 -104.5 39t-41.5 102zM432 669q26 84 105.5 138t168.5 54t149 -42.5t60 -126.5q0 -15 -1 -23h-482zM856 1404q0 76 56 132.5t136 56.5q65 0 105.5 -40t40.5 -102q0 -75 -55 -131.5 t-137 -56.5q-63 0 -104.5 39t-41.5 102z" />
<glyph unicode="&#xec;" horiz-adv-x="625" d="M11 0h325l289 1093h-325zM159 1659h352l114 -384h-243z" />
<glyph unicode="&#xed;" horiz-adv-x="625" d="M11 0l289 1093h325l-289 -1093h-325zM361 1275l331 385h390l-439 -385h-282z" />
<glyph unicode="&#xee;" horiz-adv-x="625" d="M11 0l289 1093h325l-289 -1093h-325zM88 1278l341 357h298l155 -357h-260l-75 187l-175 -187h-284z" />
<glyph unicode="&#xef;" horiz-adv-x="625" d="M11 0l289 1093h325l-289 -1093h-325zM145 1404q0 76 56 132.5t136 56.5q65 0 105.5 -40t40.5 -102q0 -75 -55 -131.5t-137 -56.5q-63 0 -104.5 39t-41.5 102zM599 1404q0 76 55.5 132.5t135.5 56.5q65 0 105.5 -40t40.5 -102q0 -75 -55 -131.5t-137 -56.5 q-62 0 -103.5 39t-41.5 102z" />
<glyph unicode="&#xf0;" horiz-adv-x="1350" d="M86 475q0 115 45 218.5t121 177t180 116.5t219 43q183 0 309 -107l4 4q-21 151 -160 292l-334 -148l-87 184l256 107q-99 63 -262 117l117 239q240 -81 417 -231l241 108l89 -186l-178 -77q215 -270 215 -631q0 -119 -26.5 -227t-81 -198.5t-131 -157t-182 -103.5 t-229.5 -37q-152 0 -273.5 57.5t-195 172t-73.5 267.5zM405 481q0 -102 68.5 -160.5t173.5 -58.5q126 0 219 88.5t93 213.5q0 104 -71 162t-178 58q-124 0 -214.5 -89.5t-90.5 -213.5z" />
<glyph unicode="&#xf1;" horiz-adv-x="1306" d="M13 0h323l158 604q26 96 84 155.5t150 59.5q68 0 109 -33t41 -99q0 -43 -14 -97l-157 -590h324l153 579q37 140 37 213q0 149 -89 236t-233 87q-83 0 -165 -39.5t-145 -99.5l-3 1l28 116h-315zM453 1280l12 51q29 121 101.5 193t190.5 72q55 0 104 -24t89.5 -47.5 t73.5 -23.5q22 0 39 7.5t28.5 24.5t16.5 27.5t13 31.5h192l-13 -52q-30 -121 -100.5 -191.5t-186.5 -70.5q-46 0 -88 15t-67 33.5t-57 33.5t-60 15q-59 0 -89 -95h-199z" />
<glyph unicode="&#xf2;" horiz-adv-x="1346" d="M87 483q0 -116 41.5 -212.5t114 -160.5t170.5 -99t210 -35q128 0 247 49.5t206.5 134t140 202.5t52.5 248q0 233 -149 370t-386 137q-178 0 -328 -89t-234.5 -234.5t-84.5 -310.5zM405 492q0 133 90.5 233.5t225.5 100.5q101 0 165 -61.5t64 -162.5q0 -136 -93 -235.5 t-223 -99.5q-110 0 -169.5 63.5t-59.5 161.5zM422 1659h352l114 -384h-243z" />
<glyph unicode="&#xf3;" horiz-adv-x="1346" d="M87 483q0 -116 41.5 -212.5t114 -160.5t170.5 -99t210 -35q128 0 247 49.5t206.5 134t140 202.5t52.5 248q0 233 -149 370t-386 137q-178 0 -328 -89t-234.5 -234.5t-84.5 -310.5zM405 492q0 133 90.5 233.5t225.5 100.5q101 0 165 -61.5t64 -162.5q0 -136 -93 -235.5 t-223 -99.5q-110 0 -169.5 63.5t-59.5 161.5zM610 1275l331 385h390l-439 -385h-282z" />
<glyph unicode="&#xf4;" horiz-adv-x="1346" d="M87 483q0 -116 41.5 -212.5t114 -160.5t170.5 -99t210 -35q128 0 247 49.5t206.5 134t140 202.5t52.5 248q0 233 -149 370t-386 137q-178 0 -328 -89t-234.5 -234.5t-84.5 -310.5zM382 1278l341 357h298l155 -357h-260l-75 187l-175 -187h-284zM405 492q0 133 90.5 233.5 t225.5 100.5q101 0 165 -61.5t64 -162.5q0 -136 -93 -235.5t-223 -99.5q-110 0 -169.5 63.5t-59.5 161.5z" />
<glyph unicode="&#xf5;" horiz-adv-x="1346" d="M87 483q0 -116 41.5 -212.5t114 -160.5t170.5 -99t210 -35q128 0 247 49.5t206.5 134t140 202.5t52.5 248q0 233 -149 370t-386 137q-178 0 -328 -89t-234.5 -234.5t-84.5 -310.5zM402 1280l12 51q29 121 101.5 193t190.5 72q55 0 104 -24t89.5 -47.5t73.5 -23.5 q22 0 39 7.5t28.5 24.5t16.5 27.5t13 31.5h192l-13 -52q-65 -262 -287 -262q-46 0 -88 15t-67 33.5t-57 33.5t-60 15q-59 0 -89 -95h-199zM405 492q0 133 90.5 233.5t225.5 100.5q101 0 165 -61.5t64 -162.5q0 -136 -93 -235.5t-223 -99.5q-110 0 -169.5 63.5t-59.5 161.5z " />
<glyph unicode="&#xf6;" horiz-adv-x="1346" d="M87 483q0 -116 41.5 -212.5t114 -160.5t170.5 -99t210 -35q128 0 247 49.5t206.5 134t140 202.5t52.5 248q0 233 -149 370t-386 137q-178 0 -328 -89t-234.5 -234.5t-84.5 -310.5zM405 492q0 133 90.5 233.5t225.5 100.5q101 0 165 -61.5t64 -162.5q0 -136 -93 -235.5 t-223 -99.5q-110 0 -169.5 63.5t-59.5 161.5zM422 1404q0 76 56 132.5t136 56.5q65 0 105.5 -40t40.5 -102q0 -75 -55 -131.5t-137 -56.5q-63 0 -104.5 39t-41.5 102zM884 1404q0 76 56 132.5t136 56.5q65 0 105.5 -40t40.5 -102q0 -75 -55 -131.5t-137 -56.5 q-63 0 -104.5 39t-41.5 102z" />
<glyph unicode="&#xf7;" horiz-adv-x="1206" d="M115 604l78 295h1019l-78 -295h-1019zM358 247q0 82 59 142t145 60q69 0 112.5 -43t43.5 -108q0 -81 -58.5 -141.5t-146.5 -60.5q-67 0 -111 42t-44 109zM610 1206q0 82 59 142t145 60q70 0 113 -43t43 -108q0 -81 -58.5 -141.5t-146.5 -60.5q-67 0 -111 42t-44 109z" />
<glyph unicode="&#xf8;" horiz-adv-x="1346" d="M33 49l143 137q-88 124 -88 297q0 123 50 239t135 203t206.5 139.5t255.5 52.5q193 0 331 -93l145 138l112 -117l-141 -135q88 -126 88 -300t-89 -320.5t-237.5 -230t-319.5 -83.5q-191 0 -332 96l-148 -140zM398 490q0 -48 12 -89l430 413q-48 21 -110 21 q-97 0 -174 -50t-117.5 -128t-40.5 -167zM515 280q49 -22 113 -22q139 0 235 102t96 243q0 50 -14 92z" />
<glyph unicode="&#xf9;" horiz-adv-x="1308" d="M95 301q0 68 38 214l153 578h323l-156 -589q-14 -48 -14 -97q0 -67 41 -100t109 -33q92 0 150 60t83 156l159 603h322l-233 -893q-23 -89 -27 -162v-38h-323v36q4 50 11 82h-4q-62 -60 -144.5 -100t-165.5 -40q-140 0 -231 88t-91 235zM499 1659h352l114 -384h-243z" />
<glyph unicode="&#xfa;" horiz-adv-x="1308" d="M95 301q0 68 38 214l153 578h323l-156 -589q-14 -48 -14 -97q0 -67 41 -100t109 -33q92 0 150 60t83 156l159 603h322l-233 -893q-23 -89 -27 -162v-38h-323v36q4 50 11 82h-4q-62 -60 -144.5 -100t-165.5 -40q-140 0 -231 88t-91 235zM689 1275l331 385h390l-439 -385 h-282z" />
<glyph unicode="&#xfb;" horiz-adv-x="1308" d="M95 301q0 68 38 214l153 578h323l-156 -589q-14 -48 -14 -97q0 -67 41 -100t109 -33q92 0 150 60t83 156l159 603h322l-233 -893q-23 -89 -27 -162v-38h-323v36q4 50 11 82h-4q-62 -60 -144.5 -100t-165.5 -40q-140 0 -231 88t-91 235zM418 1278l341 357h298l155 -357 h-260l-75 187l-175 -187h-284z" />
<glyph unicode="&#xfc;" horiz-adv-x="1308" d="M95 301q0 68 38 214l153 578h323l-156 -589q-14 -48 -14 -97q0 -67 41 -100t109 -33q92 0 150 60t83 156l159 603h322l-233 -893q-23 -89 -27 -162v-38h-323v36q4 50 11 82h-4q-62 -60 -144.5 -100t-165.5 -40q-140 0 -231 88t-91 235zM464 1404q0 76 56 132.5t136 56.5 q65 0 105.5 -40t40.5 -102q0 -75 -55 -131.5t-137 -56.5q-63 0 -104.5 39t-41.5 102zM926 1404q0 76 56 132.5t136 56.5q65 0 105.5 -40t40.5 -102q0 -75 -55 -131.5t-137 -56.5q-63 0 -104.5 39t-41.5 102z" />
<glyph unicode="&#xfd;" horiz-adv-x="1256" d="M-32 -539l358 553l-147 1079h322l79 -717l442 717h359l-1063 -1632h-350zM694 1275l331 385h390l-439 -385h-282z" />
<glyph unicode="&#xfe;" horiz-adv-x="1408" d="M-130 -540l581 2208h323l-180 -683l3 -1q73 61 147.5 95.5t166.5 34.5q133 0 231 -66t145 -170.5t48 -231.5q0 -139 -50.5 -264t-135 -213t-197 -139t-232.5 -51q-226 0 -341 174h-3l-182 -693h-324zM451 480q0 -99 67.5 -156t165.5 -57q60 0 117.5 26.5t102 72.5 t71.5 112.5t27 140.5q0 98 -62 154t-168 56q-87 0 -162 -51t-117 -131.5t-42 -166.5z" />
<glyph unicode="&#xff;" horiz-adv-x="1256" d="M-32 -539l358 553l-147 1079h322l79 -717l442 717h359l-1063 -1632h-350zM472 1404q0 76 56 132.5t136 56.5q65 0 105.5 -40t40.5 -102q0 -75 -55 -131.5t-137 -56.5q-63 0 -104.5 39t-41.5 102zM934 1404q0 76 56 132.5t136 56.5q65 0 105.5 -40t40.5 -102 q0 -75 -55 -131.5t-137 -56.5q-63 0 -104.5 39t-41.5 102z" />
<glyph unicode="&#x152;" horiz-adv-x="2581" d="M162 684q0 186 74 359t200 302t305 206.5t379 77.5q190 0 321.5 -72.5t204.5 -202.5l67 250h1033l-82 -307h-702l-89 -334h627l-82 -306h-627l-94 -350h709l-82 -307h-1040l39 137q-208 -161 -458 -161q-200 0 -359.5 87.5t-251.5 250t-92 370.5zM505 705 q0 -188 114 -300.5t310 -112.5q121 0 230 53.5t184.5 139t120 195t44.5 220.5q0 190 -113.5 301t-314.5 111q-124 0 -233.5 -53.5t-183 -140t-116 -195t-42.5 -218.5z" />
<glyph unicode="&#x153;" horiz-adv-x="2147" d="M88 483q0 123 49 238.5t133 203t205 140t258 52.5q140 0 245 -50t168 -145q81 92 191.5 143.5t233.5 51.5q221 0 364 -126t143 -341q0 -90 -32 -192h-796q0 -102 74 -158.5t170 -56.5q91 0 157.5 42.5t100.5 109.5l251 -116q-84 -151 -220.5 -227t-307.5 -76 q-135 0 -239 51t-167 145q-84 -93 -197.5 -144.5t-245.5 -51.5q-151 0 -272.5 59.5t-193.5 176.5t-72 271zM406 494q0 -97 60.5 -162t166.5 -65q133 0 225.5 95t92.5 238q0 100 -65.5 163t-161.5 63q-143 0 -230.5 -97.5t-87.5 -234.5zM1287 669h482v5q0 84 -51 135.5 t-157 51.5q-86 0 -166.5 -53t-107.5 -139z" />
<glyph unicode="&#x178;" horiz-adv-x="1543" d="M314 1604h371l179 -662l543 662h396l-845 -989l-166 -615h-337l170 634zM680 1873q0 77 55 133t136 56q65 0 105.5 -40t40.5 -101q0 -76 -54.5 -132t-137.5 -56q-63 0 -104 38.5t-41 101.5zM1162 1873q0 77 55 133t136 56q65 0 105.5 -40t40.5 -101q0 -76 -54.5 -132 t-137.5 -56q-63 0 -104 38.5t-41 101.5z" />
<glyph unicode="&#x2000;" horiz-adv-x="1068" />
<glyph unicode="&#x2001;" horiz-adv-x="2136" />
<glyph unicode="&#x2002;" horiz-adv-x="1068" />
<glyph unicode="&#x2003;" horiz-adv-x="2136" />
<glyph unicode="&#x2004;" horiz-adv-x="712" />
<glyph unicode="&#x2005;" horiz-adv-x="534" />
<glyph unicode="&#x2006;" horiz-adv-x="356" />
<glyph unicode="&#x2007;" horiz-adv-x="356" />
<glyph unicode="&#x2008;" horiz-adv-x="267" />
<glyph unicode="&#x2009;" horiz-adv-x="427" />
<glyph unicode="&#x200a;" horiz-adv-x="118" />
<glyph unicode="&#x2010;" horiz-adv-x="947" d="M129 507l85 316h676l-85 -316h-676z" />
<glyph unicode="&#x2011;" horiz-adv-x="947" d="M129 507l85 316h676l-85 -316h-676z" />
<glyph unicode="&#x2012;" horiz-adv-x="947" d="M129 507l85 316h676l-85 -316h-676z" />
<glyph unicode="&#x2013;" horiz-adv-x="1273" d="M131 511l82 308h1001l-82 -308h-1001z" />
<glyph unicode="&#x2014;" horiz-adv-x="2058" d="M131 511l82 308h1786l-82 -308h-1786z" />
<glyph unicode="&#x2018;" horiz-adv-x="661" d="M258 1102q0 100 41 193t110.5 163.5t169 114.5t210.5 47l-40 -147q-109 -12 -187.5 -78.5t-96.5 -158.5q28 12 63 12q79 0 127 -46.5t48 -123.5q0 -98 -68.5 -157.5t-161.5 -59.5q-102 0 -158.5 68t-56.5 173z" />
<glyph unicode="&#x2019;" horiz-adv-x="664" d="M253 856l40 147q109 12 187.5 78.5t96.5 158.5q-28 -12 -63 -12q-79 0 -127 46.5t-48 123.5q0 98 68.5 157.5t161.5 59.5q102 0 158.5 -68t56.5 -173q0 -100 -41 -193t-110.5 -163.5t-169 -114.5t-210.5 -47z" />
<glyph unicode="&#x201a;" horiz-adv-x="670" d="M-56 -388l40 147q109 12 187.5 78.5t96.5 158.5q-28 -12 -63 -12q-79 0 -127 46.5t-48 123.5q0 98 68.5 157.5t161.5 59.5q102 0 158.5 -68t56.5 -173q0 -100 -41 -193t-110.5 -163.5t-169 -114.5t-210.5 -47z" />
<glyph unicode="&#x201c;" horiz-adv-x="1221" d="M258 1102q0 100 41 193t110.5 163.5t169 114.5t210.5 47l-40 -147q-109 -12 -187.5 -78.5t-96.5 -158.5q28 12 63 12q79 0 127 -46.5t48 -123.5q0 -98 -68.5 -157.5t-161.5 -59.5q-102 0 -158.5 68t-56.5 173zM818 1102q0 100 41 193t110.5 163.5t169 114.5t210.5 47 l-40 -147q-109 -12 -187.5 -78.5t-96.5 -158.5q28 12 63 12q79 0 127 -46.5t48 -123.5q0 -98 -68.5 -157.5t-161.5 -59.5q-102 0 -158.5 68t-56.5 173z" />
<glyph unicode="&#x201d;" horiz-adv-x="1224" d="M253 856l40 147q109 12 187.5 78.5t96.5 158.5q-28 -12 -63 -12q-79 0 -127 46.5t-48 123.5q0 98 68.5 157.5t161.5 59.5q102 0 158.5 -68t56.5 -173q0 -100 -41 -193t-110.5 -163.5t-169 -114.5t-210.5 -47zM813 856l40 147q109 12 187.5 78.5t96.5 158.5 q-28 -12 -63 -12q-79 0 -127 46.5t-48 123.5q0 98 68.5 157.5t161.5 59.5q102 0 158.5 -68t56.5 -173q0 -100 -41 -193t-110.5 -163.5t-169 -114.5t-210.5 -47z" />
<glyph unicode="&#x201e;" horiz-adv-x="1230" d="M-56 -388l40 147q109 12 187.5 78.5t96.5 158.5q-28 -12 -63 -12q-79 0 -127 46.5t-48 123.5q0 98 68.5 157.5t161.5 59.5q102 0 158.5 -68t56.5 -173q0 -100 -41 -193t-110.5 -163.5t-169 -114.5t-210.5 -47zM504 -388l40 147q109 12 187.5 78.5t96.5 158.5 q-28 -12 -63 -12q-79 0 -127 46.5t-48 123.5q0 98 68.5 157.5t161.5 59.5q102 0 158.5 -68t56.5 -173q0 -100 -41 -193t-110.5 -163.5t-169 -114.5t-210.5 -47z" />
<glyph unicode="&#x2022;" horiz-adv-x="1004" d="M191 698q0 166 121 288t295 122q141 0 229 -87.5t88 -219.5q0 -164 -119 -287.5t-298 -123.5q-136 0 -226 85.5t-90 222.5z" />
<glyph unicode="&#x2026;" horiz-adv-x="2056" d="M35 196q0 92 65 157.5t157 65.5q93 0 157.5 -65t64.5 -158q0 -90 -64.5 -155t-157.5 -65q-91 0 -156.5 65t-65.5 155zM738 196q0 92 65 157.5t157 65.5q93 0 157 -65t64 -158q0 -91 -64.5 -155.5t-156.5 -64.5q-91 0 -156.5 65t-65.5 155zM1442 196q0 92 65 157.5 t156 65.5q93 0 157.5 -65t64.5 -158q0 -90 -64.5 -155t-157.5 -65q-91 0 -156 65t-65 155z" />
<glyph unicode="&#x202f;" horiz-adv-x="427" />
<glyph unicode="&#x2039;" horiz-adv-x="821" d="M88 618l580 471l149 -183l-391 -317l229 -289l-192 -154z" />
<glyph unicode="&#x203a;" horiz-adv-x="822" d="M54 329l390 316l-229 290l192 154l375 -472l-580 -471z" />
<glyph unicode="&#x205f;" horiz-adv-x="534" />
<glyph unicode="&#x20ac;" horiz-adv-x="1983" d="M104 538l55 206h175q5 67 16 123h-169l54 206h181q115 252 353.5 404t518.5 152q138 0 253.5 -33.5t193.5 -87.5t135.5 -126.5t88 -145.5t42.5 -149l-320 -102q-8 41 -21.5 79.5t-46 86t-77.5 82t-119.5 58t-168.5 23.5q-144 0 -271 -68t-191 -173h557l-96 -206h-552 q-16 -65 -19 -123h520l-96 -206h-398q32 -117 136.5 -183t269.5 -66q79 0 146 16.5t116 47t85.5 62.5t65 76t44 72t31.5 66l307 -118q-28 -73 -71.5 -142.5t-116 -142.5t-161.5 -127t-215 -88.5t-270 -34.5q-188 0 -341 68t-252.5 195.5t-130.5 298.5h-241z" />
<glyph unicode="&#x2122;" horiz-adv-x="2193" d="M312 1404l53 200h747l-52 -200h-261l-190 -725h-227l191 725h-261zM1017 679l243 925h300l59 -583l357 583h331l-244 -925h-219l163 619h-8l-381 -619h-147l-68 624h-7l-164 -624h-215z" />
<glyph unicode="&#x25fc;" horiz-adv-x="1095" d="M0 0v1095h1095v-1095h-1095z" />
</font>
</defs>
</svg>
