<?xml version="1.0" standalone="no"?>
<!DOCTYPE svg PUBLIC "-//W3C//DTD SVG 1.1//EN" "http://www.w3.org/Graphics/SVG/1.1/DTD/svg11.dtd" >
<svg xmlns="http://www.w3.org/2000/svg" xmlns:xlink="http://www.w3.org/1999/xlink" version="1.1">
<metadata></metadata>
<defs>
<font id="gorditamedium" horiz-adv-x="1296" >
<font-face units-per-em="2048" ascent="1638" descent="-410" />
<missing-glyph horiz-adv-x="541" />
<glyph unicode="&#xfb01;" horiz-adv-x="1404" d="M54 878v215h211v127q0 120 32 209.5t89 141.5t127.5 77t154.5 25q88 0 137 -19v-207q-26 9 -88 9q-31 0 -61 -8t-66 -30t-58.5 -72t-22.5 -122v-131h732v-1093h-245v878h-487v-878h-244v878h-211zM958 1448q0 67 47 114.5t112 47.5q67 0 114.5 -47.5t47.5 -114.5 t-47 -113.5t-115 -46.5q-65 0 -112 47t-47 113z" />
<glyph unicode="&#xfb02;" horiz-adv-x="1403" d="M55 878v215h210v127q0 120 32 209.5t89 141.5t127.5 77t154.5 25q88 0 137 -19v-207q-26 9 -88 9q-31 0 -61 -8t-66 -30t-58.5 -72t-22.5 -122v-131h487v576h244v-1669h-244v878h-487v-878h-244v878h-210z" />
<glyph unicode="&#xfb03;" horiz-adv-x="2134" d="M55 878v215h210v127q0 120 32 209.5t89 141.5t127.5 77t154.5 25q87 0 138 -19v-207q-27 9 -88 9q-24 0 -47.5 -4t-54 -18.5t-53 -38.5t-38 -68t-15.5 -103v-131h486v127q0 120 32 209.5t89 141.5t127.5 77t154.5 25q87 0 138 -19v-207q-27 9 -88 9q-24 0 -47.5 -4 t-54 -18.5t-53 -38.5t-38 -68t-15.5 -103v-131h730v-1093h-244v878h-486v-878h-245v878h-486v-878h-245v878h-210zM1688 1448q0 67 47.5 114.5t112.5 47.5q67 0 114.5 -47.5t47.5 -114.5t-47.5 -113.5t-114.5 -46.5q-66 0 -113 47t-47 113z" />
<glyph unicode="&#xfb04;" horiz-adv-x="2134" d="M55 878v215h210v127q0 120 32 209.5t89 141.5t127.5 77t154.5 25q87 0 138 -19v-207q-27 9 -88 9q-24 0 -47.5 -4t-54 -18.5t-53 -38.5t-38 -68t-15.5 -103v-131h486v127q0 120 32 209.5t89 141.5t127.5 77t154.5 25q87 0 138 -19v-207q-27 9 -88 9q-24 0 -47.5 -4 t-54 -18.5t-53 -38.5t-38 -68t-15.5 -103v-131h486v576h244v-1669h-244v878h-486v-878h-245v878h-486v-878h-245v878h-210z" />
<glyph horiz-adv-x="0" />
<glyph horiz-adv-x="682" />
<glyph horiz-adv-x="0" />
<glyph horiz-adv-x="0" />
<glyph unicode="&#xd;" horiz-adv-x="541" />
<glyph unicode=" "  horiz-adv-x="541" />
<glyph unicode="&#x09;" horiz-adv-x="541" />
<glyph unicode="&#xa0;" horiz-adv-x="541" />
<glyph unicode="!" horiz-adv-x="638" d="M158 146q0 -67 47 -113.5t113 -46.5q67 0 114 46.5t47 113.5t-47 114t-114 47q-66 0 -113 -47.5t-47 -113.5zM188 1359v245h262v-245l-20 -864h-222z" />
<glyph unicode="&#x22;" horiz-adv-x="950" d="M115 1423q0 76 42 123t109 47t108 -47t41 -123q0 -26 -7 -59l-87 -414h-112l-87 414q-7 28 -7 59zM535 1423q0 75 42.5 122.5t109.5 47.5t108 -47t41 -123q0 -26 -7 -59l-87 -414h-113l-86 414q-8 32 -8 59z" />
<glyph unicode="#" horiz-adv-x="1697" d="M80 424v198h312l85 392h-269l1 198h312l86 392h213l-86 -392h401l86 392h213l-86 -392h269v-198h-313l-85 -392h268l1 -198h-313l-92 -424h-213l93 424h-401l-93 -424h-213l92 424h-268zM603 622h405l86 392h-405z" />
<glyph unicode="$" horiz-adv-x="1312" d="M80 454l241 66q23 -118 92 -196t175 -100v473l-58 12q-192 40 -297 156.5t-105 276.5q0 118 61 221.5t165.5 170t230.5 81.5v210h164v-212q104 -13 186.5 -52.5t134 -95.5t81.5 -115t42 -121l-233 -73q-19 74 -75 137.5t-139 87.5v-459l38 -8q210 -44 321.5 -163.5 t111.5 -297.5q0 -80 -31.5 -156t-89 -139.5t-148 -107.5t-199.5 -56v-203h-164v203q-115 12 -209 56.5t-155 109t-97 139.5t-44 155zM383 1165q0 -71 54 -132t146 -79l5 -1v434q-90 -20 -147.5 -82.5t-57.5 -139.5zM746 222q94 18 154 75.5t60 140.5q0 88 -58 145t-156 82 v-443z" />
<glyph unicode="%" horiz-adv-x="1792" d="M75 1258q0 150 106 256t256 106t256 -106t106 -256t-106 -256t-256 -106t-256 106t-106 256zM253 0l1045 1604h240l-1042 -1604h-243zM281 1258q0 -64 45.5 -110t110.5 -46t110.5 46t45.5 110t-45.5 110t-110.5 46t-110.5 -46t-45.5 -110zM993 351q0 149 106 255t256 106 t256 -106t106 -255q0 -150 -106 -256t-256 -106t-256 106t-106 256zM1199 351q0 -65 45.5 -110.5t110.5 -45.5t110.5 45.5t45.5 110.5q0 64 -45.5 109.5t-110.5 45.5t-110.5 -45.5t-45.5 -109.5z" />
<glyph unicode="&#x26;" horiz-adv-x="1493" d="M99 402q0 129 78.5 232.5t239.5 204.5l-92 107q-57 66 -86.5 139.5t-29.5 133.5q0 80 32.5 154.5t89.5 130.5t139.5 89.5t177.5 33.5q178 0 311 -118.5t133 -279.5q0 -109 -59.5 -198.5t-191.5 -169.5l-101 -61l285 -330q117 140 163 278h236q-29 -104 -97 -220 t-161 -221l266 -307h-292l-133 155q-217 -174 -410 -174q-102 0 -190.5 26t-158 76t-109.5 132t-40 187zM348 435q0 -56 18 -99t45 -67t63 -39t66 -20t60 -5q124 0 267 112l-318 369q-40 -24 -70.5 -47t-63 -54.5t-50 -70t-17.5 -79.5zM446 1219q0 -43 15 -79t57 -84 l88 -101l149 90q103 63 103 174q0 78 -58.5 136.5t-146.5 58.5t-147.5 -58.5t-59.5 -136.5z" />
<glyph unicode="'" horiz-adv-x="529" d="M114 1423q0 75 42.5 122.5t109.5 47.5t108 -47t41 -123q0 -26 -7 -59l-87 -414h-113l-86 414q-8 32 -8 59z" />
<glyph unicode="(" horiz-adv-x="819" d="M101 724v60q0 335 150 597t420 415l105 -134q-210 -154 -327 -378t-117 -501v-58q0 -275 116.5 -495t327.5 -374l-105 -135q-271 153 -420.5 411t-149.5 592z" />
<glyph unicode=")" horiz-adv-x="819" d="M43 -144q211 154 327 373.5t116 495.5v58q0 277 -116.5 501.5t-326.5 377.5l105 134q270 -153 420 -415t150 -597v-60q0 -334 -149.5 -592t-420.5 -411z" />
<glyph unicode="*" horiz-adv-x="1022" d="M84 1229l54 161l283 -92v306h178v-306l283 93l56 -162l-284 -94l173 -242l-137 -101l-181 243l-177 -243l-138 101l174 242z" />
<glyph unicode="+" horiz-adv-x="1270" d="M93 637v223h428v414h228v-414h428v-223h-428v-419h-228v419h-428z" />
<glyph unicode="," horiz-adv-x="614" d="M126 150q0 71 50 116t121 45q90 0 140.5 -64t50.5 -156q0 -105 -38.5 -195t-116 -152t-181.5 -78v114q81 16 133.5 81t54.5 148q-21 -15 -60 -15q-68 0 -111 44.5t-43 111.5z" />
<glyph unicode="-" horiz-adv-x="950" d="M142 541v248h666v-248h-666z" />
<glyph unicode="." horiz-adv-x="598" d="M120 167q0 76 52.5 129t126.5 53q75 0 127 -53t52 -129q0 -73 -52 -125t-127 -52q-73 0 -126 52.5t-53 124.5z" />
<glyph unicode="/" horiz-adv-x="1105" d="M66 -10l732 1679h245l-733 -1679h-244z" />
<glyph unicode="0" horiz-adv-x="1565" d="M109 802q0 171 49 322t136.5 262t214.5 175.5t276 64.5q198 0 352.5 -109t237 -295.5t82.5 -415.5t-83.5 -416.5t-239.5 -298t-354 -110.5t-352 109.5t-236.5 295.5t-82.5 416zM370 806q0 -162 50 -296.5t145.5 -215.5t219.5 -81q123 0 218 80.5t144 213.5t49 295 q0 161 -50 295t-146.5 215.5t-219.5 81.5t-217.5 -79.5t-143.5 -212.5t-49 -296z" />
<glyph unicode="1" horiz-adv-x="947" d="M15 1309l488 295h240v-1604h-252v1333l-360 -216z" />
<glyph unicode="2" horiz-adv-x="1361" d="M102 69q-6 351 382 579l248 146q121 71 182 147t61 183q0 114 -81.5 192.5t-215.5 78.5q-98 0 -168 -43t-106 -112q-30 -58 -32 -171l-255 34q-2 70 18 142t65 141t110 122.5t161.5 86t210.5 32.5q127 0 233.5 -41.5t175 -111t106.5 -159t38 -187.5q0 -143 -79.5 -270.5 t-219.5 -209.5l-293 -171q-33 -20 -57.5 -36.5t-64 -49t-67 -74.5t-39.5 -89h834v-228h-1146z" />
<glyph unicode="3" horiz-adv-x="1376" d="M84 467l244 44q11 -130 102.5 -215.5t243.5 -85.5q81 0 153 31t121.5 99.5t49.5 162.5q0 125 -88.5 195.5t-217.5 70.5q-94 2 -155 -31l-119 186l474 453h-757v227h1085v-212l-438 -415q147 -8 257 -73t166.5 -167.5t56.5 -228.5q0 -123 -48 -224t-129.5 -166t-187 -100 t-223.5 -35q-127 0 -234.5 39t-181 105.5t-118.5 154t-56 185.5z" />
<glyph unicode="4" horiz-adv-x="1458" d="M63 354v281l764 969h309v-1022h239v-228h-239v-354h-248v354h-825zM302 582h586v742z" />
<glyph unicode="5" horiz-adv-x="1336" d="M76 434l242 52q10 -76 47 -133t89 -86.5t103 -43.5t101 -14q55 0 110 19t103 55.5t77.5 97.5t29.5 137q0 145 -94 227.5t-226 82.5q-185 0 -299 -133l-229 89l186 820h853v-227h-675l-99 -431q38 33 89 55.5t101 31t79 11t53 2.5q240 0 382 -146.5t142 -376.5 q0 -125 -48 -228.5t-129 -171t-187 -104.5t-224 -37q-77 0 -151.5 16t-146 51.5t-128 87t-97 128t-54.5 169.5z" />
<glyph unicode="6" horiz-adv-x="1403" d="M109 712q0 142 29.5 274t91 249t150 204t215 137.5t276.5 50.5q240 0 393 -88l-82 -217q-137 82 -312 82q-111 0 -206.5 -47t-160 -125.5t-103 -177.5t-46.5 -207h5q68 97 182.5 150.5t234.5 53.5t221.5 -41.5t173.5 -118.5q137 -147 137 -363q0 -161 -81.5 -287.5 t-215 -193.5t-292.5 -67q-149 0 -268 61.5t-192 165.5t-111.5 233t-38.5 272zM386 522q0 -142 96 -228t239 -86q142 0 235 85t93 224q0 142 -92 228.5t-236 86.5q-135 0 -235 -88t-100 -222z" />
<glyph unicode="7" horiz-adv-x="1260" d="M60 1376v228h1145v-208l-736 -1396h-290l736 1376h-855z" />
<glyph unicode="8" horiz-adv-x="1391" d="M113 437q0 127 78.5 235t220.5 155v1q-119 39 -192 139.5t-73 217.5q0 99 48.5 184t127 140.5t176 86.5t196.5 31q139 0 263 -51.5t205 -154.5t81 -236q0 -110 -74 -213t-190 -144v-1q142 -47 220.5 -155t78.5 -235q0 -86 -34 -161t-91.5 -128t-132.5 -91t-158 -56.5 t-168 -18.5q-110 0 -212 29t-185.5 84t-134 144t-50.5 198zM364 462q0 -110 96 -186t235 -76q142 0 237 72.5t95 189.5q0 111 -97.5 186t-235.5 75q-141 0 -235.5 -73t-94.5 -188zM397 1167q0 -104 87.5 -172.5t210.5 -68.5q131 0 214.5 68t83.5 173q0 104 -88 172.5 t-211 68.5q-131 0 -214 -67.5t-83 -173.5z" />
<glyph unicode="9" horiz-adv-x="1400" d="M94 1079q0 122 47.5 225.5t128 173.5t187.5 109.5t226 39.5q118 0 218 -41t171 -112t121 -165.5t74 -201.5t24 -220q0 -142 -28 -273t-87.5 -247t-146 -201.5t-211.5 -135.5t-275 -50q-248 0 -403 87l83 217q135 -81 315 -81q112 0 207 47t159 126t102 179.5t45 210.5h-4 q-71 -104 -185 -157.5t-241 -53.5q-146 0 -266 66t-190.5 186.5t-70.5 271.5zM351 1088q0 -142 90 -227.5t233 -85.5q136 0 237.5 87.5t101.5 221.5q0 142 -97.5 228.5t-241.5 86.5q-141 0 -232 -85.5t-91 -225.5z" />
<glyph unicode=":" horiz-adv-x="642" d="M142 167q0 76 52.5 129t126.5 53q75 0 127 -53t52 -129q0 -73 -52 -125t-127 -52q-73 0 -126 52.5t-53 124.5zM142 930q0 75 52.5 128t126.5 53q75 0 127 -52.5t52 -128.5q0 -72 -52 -124.5t-127 -52.5q-73 0 -126 52.5t-53 124.5z" />
<glyph unicode=";" horiz-adv-x="660" d="M149 150q0 -67 43 -111.5t111 -44.5q39 0 60 15q-2 -83 -54.5 -148t-133.5 -81v-114q104 16 181.5 78t116 152t38.5 195q0 92 -50.5 156t-140.5 64q-71 0 -121 -45t-50 -116zM149 930q0 75 52.5 128t126.5 53q76 0 127.5 -52.5t51.5 -128.5q0 -73 -52 -125t-127 -52 q-73 0 -126 52.5t-53 124.5z" />
<glyph unicode="&#x3c;" horiz-adv-x="1358" d="M78 587v180l1121 505v-237l-810 -357l810 -357v-241z" />
<glyph unicode="=" horiz-adv-x="1285" d="M148 350v227h989v-227h-989zM148 922v227h989v-227h-989z" />
<glyph unicode="&#x3e;" horiz-adv-x="1358" d="M159 80v241l810 357l-810 357v237l1121 -505v-180z" />
<glyph unicode="?" horiz-adv-x="1176" d="M77 1169q0 135 73 241.5t189 161.5t249 55q91 0 181 -30.5t163 -84.5t118 -136.5t45 -177.5q0 -121 -55.5 -213.5t-160.5 -168.5q-97 -70 -139 -120q-71 -84 -71 -201h-228q-15 48 -15 96q0 68 22.5 126t58 99t79 77.5t86.5 69t78.5 65.5t58 74.5t22.5 89.5q0 90 -74 147 t-167 57q-110 0 -183 -76t-73 -187q0 -27 5 -60l-257 10q-5 48 -5 86zM395 146q0 -67 47 -113.5t113 -46.5q67 0 114 46.5t47 113.5t-47 114t-114 47q-66 0 -113 -47t-47 -114z" />
<glyph unicode="@" horiz-adv-x="1776" d="M107 639q0 171 67 325.5t179.5 266t266 177t321.5 65.5q212 0 385 -89t272.5 -249t99.5 -359q0 -118 -35 -219t-93 -169t-134.5 -106.5t-158.5 -38.5q-71 0 -135.5 34.5t-93.5 92.5q-44 -59 -112 -92.5t-130 -33.5q-94 0 -172 51.5t-119.5 130t-41.5 161.5 q0 125 53.5 232t149.5 171.5t213 64.5q32 0 66.5 -9.5t72.5 -38t57 -72.5l21 113h225l-85 -511q-21 -124 71 -124q88 0 166.5 106t78.5 256q0 118 -45.5 222t-125.5 179.5t-196.5 119.5t-252.5 44q-140 0 -269 -55.5t-223 -148.5t-150.5 -223t-56.5 -273q0 -135 47 -256.5 t133 -215t217.5 -148.5t289.5 -55q106 0 219 35.5t210 106.5l72 -111q-84 -73 -229 -119.5t-272 -46.5q-239 0 -428 107.5t-292 292t-103 409.5zM707 612q1 -61 42 -110t108 -49q81 0 139 73t58 164q0 67 -39.5 109.5t-103.5 42.5q-85 0 -145.5 -71t-58.5 -159z" />
<glyph unicode="A" horiz-adv-x="1603" d="M1 0l652 1604h298l649 -1604h-263l-146 376h-785l-148 -376h-257zM495 601h609l-305 761z" />
<glyph unicode="B" horiz-adv-x="1504" d="M204 0v1604h614q232 0 374 -113.5t142 -308.5q0 -37 -10 -79.5t-34 -93t-72.5 -97.5t-115.5 -77q87 -28 149.5 -74.5t94.5 -101.5t46 -106.5t14 -103.5q0 -202 -145.5 -325.5t-423.5 -123.5h-633zM454 925h317q155 0 233 65.5t78 165.5q0 99 -72.5 160t-225.5 61h-330 v-452zM455 227h386q152 0 233 66.5t81 174.5q0 106 -82 171t-247 65h-371v-477z" />
<glyph unicode="C" horiz-adv-x="1728" d="M99 797q0 177 66.5 333t178 264t260.5 170.5t311 62.5q130 0 245 -34t196.5 -87.5t145 -124t100.5 -140.5t54 -139l-247 -85q-9 37 -25.5 78t-55.5 96t-91 97t-137 72t-188 30q-106 0 -204.5 -41.5t-175 -115.5t-122.5 -185.5t-46 -242.5q0 -130 45.5 -242t121 -186.5 t174.5 -117t206 -42.5q94 0 176 29t135 71t95 96.5t63 99t33 85.5l248 -86q-14 -52 -42 -108t-72 -117t-107.5 -114.5t-140 -97t-179 -69t-215.5 -25.5q-122 0 -239 34.5t-219.5 104t-180 166t-122.5 228.5t-45 283z" />
<glyph unicode="D" horiz-adv-x="1666" d="M204 0v1604h509q128 0 241 -27t198.5 -73.5t156 -110.5t118 -136t80.5 -151t47.5 -155.5t14.5 -149.5q0 -114 -31 -225.5t-99 -216t-165.5 -184t-241.5 -127.5t-315 -48h-513zM456 234h250q123 0 224.5 33.5t169.5 89t115.5 129.5t68.5 153t21 162q0 77 -21 155t-68 153 t-114.5 133t-169.5 93.5t-224 35.5h-252v-1137z" />
<glyph unicode="E" horiz-adv-x="1358" d="M204 0v1604h1027v-228h-775v-446h705v-228h-705v-473h783v-229h-1035z" />
<glyph unicode="F" horiz-adv-x="1314" d="M204 0v1604h1023v-233h-771v-465h711v-232h-711v-674h-252z" />
<glyph unicode="G" horiz-adv-x="1746" d="M99 799q0 176 62.5 330.5t171 263.5t260 171.5t323.5 62.5q113 0 215 -26t181.5 -72t144 -107.5t106.5 -132.5t65 -149l-247 -77q-14 55 -49 110t-91 106t-141.5 82.5t-186.5 31.5q-154 0 -281 -76.5t-199.5 -212t-72.5 -300.5q0 -164 69.5 -298.5t196 -213t285.5 -78.5 q203 0 326 101t152 259h-576v229h847v-88q0 -152 -52 -285.5t-146 -233t-236 -157t-313 -57.5q-237 0 -423.5 106.5t-288.5 292.5t-102 418z" />
<glyph unicode="H" horiz-adv-x="1706" d="M204 0v1604h252v-673h794v673h252v-1604h-252v693h-794v-693h-252z" />
<glyph unicode="I" horiz-adv-x="660" d="M204 0v1604h252v-1604h-252z" />
<glyph unicode="J" horiz-adv-x="1292" d="M72 483v171h247v-157q0 -130 78.5 -205t185.5 -75q115 0 191 76t76 192v1119h253v-1119q0 -216 -143 -359.5t-364 -143.5q-237 0 -380.5 135.5t-143.5 365.5z" />
<glyph unicode="K" horiz-adv-x="1456" d="M204 0v1604h252v-693l640 693h333l-717 -767l759 -837h-341l-674 757v-757h-252z" />
<glyph unicode="L" horiz-adv-x="1213" d="M204 0v1604h252v-1370h724v-234h-976z" />
<glyph unicode="M" horiz-adv-x="2131" d="M204 0v1604h342l519 -1241h3l509 1241h350v-1604h-250v1201h-4l-502 -1201h-214l-500 1196h-5v-1196h-248z" />
<glyph unicode="N" horiz-adv-x="1761" d="M204 0v1604h290l814 -1221v1221h249v-1604h-282l-822 1228v-1228h-249z" />
<glyph unicode="O" horiz-adv-x="1843" d="M98 798q0 172 65.5 326.5t176.5 264t263.5 174t320.5 64.5q225 0 413 -107t298 -296t110 -419q0 -174 -66 -328t-177.5 -262t-264 -171t-320.5 -63t-319 62t-261 169t-174.5 259.5t-64.5 326.5zM362 804q0 -160 73.5 -295t202 -214t283.5 -79q116 0 219.5 46.5t178 125.5 t118 187.5t43.5 228.5q0 161 -73.5 296t-202.5 213.5t-283 78.5q-155 0 -283.5 -78.5t-202 -213.5t-73.5 -296z" />
<glyph unicode="P" horiz-adv-x="1398" d="M204 0v1604h568q117 0 212.5 -28t159 -75.5t107 -112.5t63 -135.5t19.5 -147.5q0 -105 -38.5 -197t-111 -162.5t-186.5 -111t-255 -40.5h-286v-594h-252zM456 825h294q87 0 153 24.5t102.5 65.5t54 87.5t17.5 96.5q0 39 -8.5 75t-31 73t-58 63.5t-94.5 43.5t-135 17h-294 v-546z" />
<glyph unicode="Q" horiz-adv-x="1847" d="M98 798q0 172 65.5 326.5t176.5 264t263.5 174t320.5 64.5t319.5 -63t261.5 -172t175 -262t65 -325q0 -281 -165 -499l183 -156l-159 -184l-197 172q-217 -157 -490 -157q-168 0 -319 62t-261 169t-174.5 259.5t-64.5 326.5zM362 804q0 -160 73.5 -295t202.5 -214 t284 -79q161 0 296 86l-296 255l161 185l304 -268q93 148 93 330q0 161 -73.5 296t-202.5 213.5t-283 78.5q-155 0 -283.5 -78.5t-202 -213.5t-73.5 -296z" />
<glyph unicode="R" horiz-adv-x="1473" d="M204 0v1604h603q145 0 254 -41.5t171 -113t91.5 -157t29.5 -183.5q0 -157 -80.5 -275.5t-235.5 -173.5l355 -660h-278l-324 609h-334v-609h-252zM456 835h324q70 0 126 16t91 42t58 61.5t32.5 72t9.5 76.5t-7.5 75t-28.5 71.5t-55.5 62.5t-92 42.5t-133.5 16.5h-324v-536 z" />
<glyph unicode="S" horiz-adv-x="1333" d="M85 450l244 67q27 -142 120 -225t235 -83q122 0 206 63t84 162q0 94 -64.5 153t-172.5 81l-197 40q-193 39 -299.5 157.5t-106.5 279.5q0 130 71.5 241t193.5 176t264 65q105 0 193 -24.5t147.5 -64t103.5 -92.5t67.5 -105.5t34.5 -107.5l-235 -74q-23 95 -105 168 t-201 73q-116 0 -196 -69t-80 -163q0 -72 54.5 -133.5t147.5 -79.5l203 -40q212 -42 324.5 -163.5t112.5 -301.5q0 -88 -37.5 -171t-106 -149.5t-175.5 -107t-236 -40.5q-135 0 -246.5 41t-183 109t-113.5 149.5t-51 168.5z" />
<glyph unicode="T" horiz-adv-x="1351" d="M40 1371v233h1271v-233h-510v-1371h-252v1371h-509z" />
<glyph unicode="U" horiz-adv-x="1620" d="M186 611v993h252v-983q0 -186 104 -295t270 -109q174 0 272 109.5t98 285.5v992h252v-982q0 -142 -40 -259t-117 -203t-197 -133t-273 -47q-155 0 -275.5 48.5t-195 134.5t-112.5 199.5t-38 248.5z" />
<glyph unicode="V" horiz-adv-x="1584" d="M39 1604h280l478 -1314l481 1314h267l-608 -1604h-289z" />
<glyph unicode="W" horiz-adv-x="2405" d="M48 1604h269l361 -1247l385 1247h280l388 -1248l367 1248h262l-489 -1604h-286l-383 1253h-2l-387 -1253h-282z" />
<glyph unicode="X" horiz-adv-x="1500" d="M4 0l596 826l-561 778h303l410 -585l412 585h297l-558 -776l591 -828h-299l-447 630l-450 -630h-294z" />
<glyph unicode="Y" horiz-adv-x="1538" d="M40 1604h291l440 -720l442 720h288l-605 -957v-647h-254v641z" />
<glyph unicode="Z" horiz-adv-x="1361" d="M78 0v218l875 1160h-842v226h1148v-215l-876 -1163h894v-226h-1199z" />
<glyph unicode="[" horiz-adv-x="877" d="M196 -258v2034h606v-195h-377v-1643h377v-196h-606z" />
<glyph unicode="\" horiz-adv-x="1105" d="M62 1669h245l732 -1679h-244z" />
<glyph unicode="]" horiz-adv-x="877" d="M75 -62h377v1643h-377v195h606v-2034h-606v196z" />
<glyph unicode="^" horiz-adv-x="1268" d="M96 923l444 681h189l443 -681h-253l-285 448l-282 -448h-256z" />
<glyph unicode="_" horiz-adv-x="1102" d="M0 -142h1102v-219h-1102v219z" />
<glyph unicode="`" horiz-adv-x="600" d="M46 1632h298l210 -352h-211z" />
<glyph unicode="a" horiz-adv-x="1177" d="M96 303v12q0 73 29.5 132t75.5 95.5t107.5 61.5t121.5 35t121 10h135q102 0 102 92q0 70 -56 118.5t-159 48.5q-98 0 -161.5 -50t-77.5 -131l-221 50q8 77 73.5 163.5t171.5 133.5q94 42 222 42q307 0 410 -224q37 -79 37 -195v-521q0 -108 8 -176h-239q-10 45 -10 150 q-55 -91 -142.5 -130t-178.5 -39q-161 0 -265 90.5t-104 231.5zM340 325q0 -67 48.5 -108t125.5 -41q125 0 198.5 72t73.5 195v35h-236q-78 0 -144 -41t-66 -112z" />
<glyph unicode="b" horiz-adv-x="1394" d="M163 0v1668h244v-736q52 86 158 134.5t202 48.5q122 0 225.5 -49.5t170.5 -130t104.5 -180.5t37.5 -204q0 -149 -67.5 -278.5t-193.5 -209.5t-283 -80q-91 0 -199.5 49t-160.5 135v-167h-238zM403 548q0 -144 91.5 -244t236.5 -100t236.5 100t91.5 244q0 146 -91.5 246 t-236.5 100t-236.5 -100t-91.5 -246z" />
<glyph unicode="c" horiz-adv-x="1248" d="M90 549q0 154 74.5 284t206.5 206.5t292 76.5q194 0 331.5 -103t174.5 -250l-221 -72q-10 35 -30.5 68t-53.5 65t-85.5 51.5t-116.5 19.5q-137 0 -229.5 -95t-92.5 -247t92 -251t232 -99q209 0 288 208l223 -72q-19 -66 -60 -127t-103.5 -114t-154 -85t-198.5 -32 q-159 0 -289.5 74.5t-205 204.5t-74.5 289z" />
<glyph unicode="d" horiz-adv-x="1394" d="M89 548q0 105 37.5 205.5t105.5 181.5t172.5 130.5t228.5 49.5q88 0 193 -45t161 -133v731h244v-1668h-238v171q-40 -66 -114 -111t-137.5 -61t-114.5 -16q-153 0 -278 80t-192.5 209t-67.5 276zM335 548q0 -144 91.5 -244t236.5 -100t236.5 100t91.5 244 q0 146 -91.5 246t-236.5 100t-236.5 -100t-91.5 -246z" />
<glyph unicode="e" horiz-adv-x="1260" d="M90 548q0 154 70.5 284t197.5 207t282 77q250 0 392 -156t142 -409q0 -42 -4 -75h-831q3 -81 49.5 -147.5t118.5 -102.5t153 -36q105 0 182 45t108 139l206 -63q-30 -102 -106.5 -178.5t-176.5 -114.5t-210 -38q-159 0 -290.5 74t-207 204.5t-75.5 289.5zM352 659h574 q-6 114 -86.5 181t-197.5 67q-113 0 -193.5 -68t-96.5 -180z" />
<glyph unicode="f" horiz-adv-x="835" d="M55 878v215h210v127q0 120 32 209.5t89 141.5t127.5 77t154.5 25q87 0 138 -19v-207q-27 9 -88 9q-24 0 -47.5 -4t-54 -18.5t-53 -38.5t-38 -68t-15.5 -103v-131h286v-215h-286v-878h-245v878h-210z" />
<glyph unicode="g" horiz-adv-x="1386" d="M89 551q0 101 37 200t103.5 180t171 131t227.5 50q88 0 192.5 -46t164.5 -139v166h238v-1087q0 -169 -78.5 -296t-211.5 -192t-301 -65q-124 0 -235.5 38.5t-197 124.5t-107.5 206l230 65q18 -87 103.5 -151.5t196.5 -64.5q70 0 132 19t113.5 57t81.5 102t30 147v180 q-41 -66 -113 -110t-133 -59t-112 -15q-115 0 -215.5 46t-169 123t-108 178.5t-39.5 211.5zM331 554q0 -145 91 -244.5t236 -99.5q144 0 234.5 100t90.5 244q0 145 -90 242.5t-236 97.5t-236 -97.5t-90 -242.5z" />
<glyph unicode="h" d="M163 0v1668h244v-713q49 62 113 100t114.5 49.5t100.5 11.5q200 0 305 -123.5t105 -319.5v-673h-244v612q0 124 -60 198.5t-181 74.5q-116 0 -184.5 -76t-68.5 -200v-609h-244z" />
<glyph unicode="i" horiz-adv-x="570" d="M124 1448q0 67 47 114.5t113 47.5q67 0 114 -47.5t47 -114.5t-47 -113.5t-114 -46.5q-66 0 -113 46.5t-47 113.5zM163 0h244v1093h-244v-1093z" />
<glyph unicode="j" horiz-adv-x="586" d="M-58 -315v-207q78 -20 156 -20q164 0 244.5 89.5t80.5 285.5v1260h-244v-1247q0 -167 -158 -167q-26 0 -79 6zM140 1448q0 67 47.5 114.5t112.5 47.5q67 0 114.5 -47.5t47.5 -114.5t-47.5 -113.5t-114.5 -46.5q-66 0 -113 47t-47 113z" />
<glyph unicode="k" horiz-adv-x="1188" d="M163 0v1668h244v-1005h2l425 430h331l-494 -494l521 -599h-322l-456 535h-7v-535h-244z" />
<glyph unicode="l" horiz-adv-x="570" d="M163 0v1668h244v-1668h-244z" />
<glyph unicode="m" horiz-adv-x="1995" d="M163 0v1093h238v-147q49 65 112.5 106t114 53.5t100.5 12.5q235 0 337 -179q83 92 171 135.5t209 43.5q101 0 179 -34t125.5 -95t71 -140t23.5 -174v-675h-244v617q0 124 -57 197t-177 73q-112 0 -176.5 -75.5t-64.5 -200.5v-611h-243v614q0 124 -57 198.5t-177 74.5 q-112 0 -176.5 -76.5t-64.5 -201.5v-609h-244z" />
<glyph unicode="n" d="M163 0v1093h238v-147q49 66 115 106t117 52t102 12q200 0 305 -123.5t105 -319.5v-673h-244v612q0 124 -60 198.5t-181 74.5q-116 0 -184.5 -76t-68.5 -200v-609h-244z" />
<glyph unicode="o" horiz-adv-x="1331" d="M89 548q0 159 78 290t211 204.5t290 73.5q155 0 287 -73t209.5 -203t77.5 -287q0 -159 -76.5 -290.5t-209 -206.5t-290.5 -75q-156 0 -288.5 74t-210.5 204.5t-78 288.5zM338 553q0 -144 92.5 -247.5t237.5 -103.5t235.5 100.5t90.5 245.5q0 146 -91.5 246.5 t-236.5 100.5q-146 0 -237 -98.5t-91 -243.5z" />
<glyph unicode="p" horiz-adv-x="1394" d="M163 -539v1632h238v-169q33 53 81.5 92.5t100.5 59.5t98 29.5t86 9.5q122 0 225.5 -49.5t170.5 -130t104.5 -180.5t37.5 -204q0 -149 -67.5 -278.5t-193.5 -209.5t-283 -80q-49 0 -109.5 15t-132.5 57.5t-112 104.5v-699h-244zM403 548q0 -144 91.5 -244t236.5 -100 t236.5 100t91.5 244q0 146 -91.5 246t-236.5 100t-236.5 -100t-91.5 -246z" />
<glyph unicode="q" horiz-adv-x="1394" d="M89 548q0 105 37.5 205.5t105.5 181.5t172.5 130.5t228.5 49.5q54 0 116 -16.5t132.5 -60t111.5 -107.5v162h238v-1632h-244v702q-41 -63 -113.5 -106.5t-134 -58.5t-112.5 -15q-153 0 -278 80t-192.5 209t-67.5 276zM335 548q0 -144 91.5 -244t236.5 -100t236.5 100 t91.5 244q0 146 -91.5 246t-236.5 100t-236.5 -100t-91.5 -246z" />
<glyph unicode="r" horiz-adv-x="805" d="M163 0v1093h239v-168q48 86 129 132t171 46q33 0 60 -6v-250q-30 6 -69 6q-139 0 -212.5 -77.5t-73.5 -219.5v-556h-244z" />
<glyph unicode="s" horiz-adv-x="1015" d="M88 299l209 55q16 -75 73 -124.5t146 -49.5q74 0 115 35t41 93q0 45 -31 74.5t-99 45.5l-140 33q-144 34 -216.5 118t-72.5 196q0 139 111 240.5t275 101.5q82 0 150 -20.5t111 -51.5t75 -72t47 -77t21 -71l-206 -58q-14 64 -62 108.5t-136 44.5q-60 0 -105 -35t-45 -89 q0 -46 30.5 -74.5t79.5 -38.5l150 -32q147 -32 228.5 -121t81.5 -208q0 -52 -15 -100.5t-47.5 -92.5t-78.5 -76.5t-112.5 -52t-145.5 -19.5q-85 0 -157 21.5t-119.5 55t-82.5 77t-52 84.5t-21 80z" />
<glyph unicode="t" horiz-adv-x="872" d="M48 874v219h212v339h243v-339h278v-219h-278v-522q0 -72 39.5 -106.5t129.5 -34.5q36 0 99 8v-207q-74 -22 -175 -22q-170 0 -253 78.5t-83 270.5v535h-212z" />
<glyph unicode="u" d="M151 421v672h244v-612q0 -123 60 -198t181 -75q115 0 184 76t69 201v608h244v-1093h-238v147q-49 -66 -115 -106t-117 -52t-102 -12q-133 0 -227 60t-138.5 158.5t-44.5 225.5z" />
<glyph unicode="v" horiz-adv-x="1236" d="M35 1093h264l322 -809l321 809h257l-458 -1093h-244z" />
<glyph unicode="w" horiz-adv-x="1801" d="M44 1093h254l231 -771h2l247 771h246l250 -773h3l231 773h250l-352 -1093h-252l-252 768h-5l-254 -768h-249z" />
<glyph unicode="x" horiz-adv-x="1168" d="M29 0l415 553l-400 540h279l262 -362l265 362h275l-401 -536l414 -557h-280l-276 381l-275 -381h-278z" />
<glyph unicode="y" horiz-adv-x="1253" d="M33 1093h278l340 -716l315 716h264l-750 -1632h-261l301 662z" />
<glyph unicode="z" horiz-adv-x="1083" d="M88 0v202l594 679h-578v212h883v-194l-602 -687h604v-212h-901z" />
<glyph unicode="{" horiz-adv-x="922" d="M42 658v198h15q60 0 105.5 10.5t83.5 35.5t53 73.5t5 118.5l-34 225q-20 130 4 221t89.5 141.5t155.5 72.5t215 22h111v-195h-98q-45 0 -80.5 -5t-62 -13t-45.5 -23t-31.5 -30.5t-18.5 -40.5t-8.5 -46.5t-0.5 -56.5t5.5 -63t9.5 -71l24 -163q6 -26 3 -56.5t-9 -61.5 t-24.5 -61.5t-44.5 -56t-69 -45.5t-97 -29v-1q65 -11 113.5 -37.5t73.5 -59t41 -71t16 -73.5t-2 -67l-25 -165q-7 -49 -11 -80t-5.5 -68.5t3.5 -60.5t15 -48.5t28.5 -40t46 -27t66.5 -18t89 -5.5h98v-195h-111q-70 0 -128 6t-112 20.5t-92.5 38.5t-71 59t-47.5 82.5 t-21 109.5t8 140l34 225q10 70 -5 118t-53 72.5t-83 34.5t-106 10h-15z" />
<glyph unicode="|" horiz-adv-x="623" d="M196 -238v2063h231v-2063h-231z" />
<glyph unicode="}" horiz-adv-x="921" d="M77 -63h98q58 0 100 8t70.5 21t45.5 38t25 49.5t7.5 65.5t-4 76t-12.5 90l-26 165q-6 25 -3 55t9 60.5t25 61t45.5 56t69.5 45.5t97 30v1q-54 9 -97 29t-69 45.5t-45 56t-25 61.5t-9 61.5t3 56.5l25 163q7 43 10 71.5t5.5 62.5t0 56t-9 47t-19 40.5t-31.5 30.5t-45.5 23 t-62 13t-80.5 5h-98v195h111q70 0 128.5 -6.5t111.5 -21.5t92 -39.5t70.5 -60t47 -83t21 -109t-7.5 -137.5l-33 -225q-10 -70 5.5 -118.5t53 -73.5t83 -35.5t105.5 -10.5h15v-198h-15q-61 0 -106 -10t-82.5 -34.5t-53 -72.5t-5.5 -118l33 -225q14 -78 7.5 -140t-21 -109.5 t-47 -82.5t-71 -59t-92 -38.5t-111.5 -20.5t-128 -6h-111v195z" />
<glyph unicode="~" horiz-adv-x="1301" d="M134 628q112 194 299 194q63 0 130 -26t113 -57.5t98 -57.5t90 -26q88 0 159 94l141 -132q-113 -194 -300 -194q-56 0 -119 26t-110 57.5t-103 57.5t-99 26q-90 0 -159 -94z" />
<glyph unicode="&#xa1;" horiz-adv-x="604" d="M141 956q0 67 47 113.5t113 46.5q67 0 114 -46.5t47 -113.5t-47 -114t-114 -47q-65 0 -112.5 47.5t-47.5 113.5zM171 -257v-245h262v245l-20 864l-222 -1z" />
<glyph unicode="&#xa2;" horiz-adv-x="1270" d="M99 549q0 213 137.5 371.5t348.5 189.5v194h155v-192q169 -18 287 -117t151 -232l-221 -72q-19 67 -73 124t-146 74v-680q156 27 223 202l223 -72q-18 -60 -53.5 -116t-89.5 -107t-132 -86t-169 -45v-194h-155v196q-211 29 -348.5 186t-137.5 376zM349 553 q0 -127 65.5 -218.5t172.5 -120.5v670q-106 -27 -172 -115.5t-66 -215.5z" />
<glyph unicode="&#xa3;" horiz-adv-x="1403" d="M120 0v218q108 52 183.5 150t75.5 210q0 45 -12 105h-237v208h168q-64 171 -64 273t40.5 189t109 146.5t159 93t190.5 33.5q138 0 249.5 -53t176.5 -150.5t66 -223.5l-245 -42q-2 100 -68.5 168.5t-175.5 68.5q-103 0 -172.5 -67t-69.5 -170q0 -42 12 -93t22.5 -81 t35.5 -92h443v-208h-375q7 -47 7 -81q0 -226 -196 -375h422q103 0 160 69t57 157l242 -21q0 -190 -115.5 -311t-299.5 -121h-789z" />
<glyph unicode="&#xa4;" horiz-adv-x="1375" d="M103 118l177 176q-82 118 -82 261q0 136 79 258h1l-175 180l150 149l181 -184q118 69 254 69q137 0 253 -68l181 182l149 -150l-173 -177q80 -117 80 -259q0 -69 -19.5 -128t-58.5 -128l-4 -7l178 -175l-150 -151l-181 185q-140 -69 -255 -69q-116 0 -254 69l-182 -183z M425 553q0 -112 74.5 -184.5t186.5 -72.5t186.5 72.5t74.5 184.5q0 113 -74.5 185.5t-186.5 72.5t-186.5 -72.5t-74.5 -185.5z" />
<glyph unicode="&#xa5;" horiz-adv-x="1551" d="M75 1604h291l410 -710l412 710h288l-490 -801h400v-188h-485v-162h485v-187h-485v-266h-254v266h-482v187h482v162h-482v188h395z" />
<glyph unicode="&#xa6;" horiz-adv-x="618" d="M193 -238v800h232v-800h-232zM193 1026v799h232v-799h-232z" />
<glyph unicode="&#xa7;" horiz-adv-x="1365" d="M100 801q0 107 66.5 174.5t177.5 95.5q-56 37 -91 92t-35 120q0 82 41.5 149t109 108.5t148.5 64t165 22.5q117 0 214.5 -29.5t163 -79.5t107 -110t58.5 -128l-207 -73q-28 92 -110.5 152t-225.5 60q-29 0 -61.5 -6.5t-65.5 -20t-54 -38.5t-21 -58q0 -50 54.5 -82.5 t155.5 -57.5l206 -51q371 -92 371 -300q0 -108 -66 -174.5t-177 -95.5q55 -32 90.5 -89.5t35.5 -122.5q0 -68 -26 -126t-70 -98.5t-102.5 -69t-122 -42t-128.5 -13.5q-229 0 -378.5 103.5t-191.5 259.5l208 67q27 -78 86.5 -129t128 -71.5t146.5 -20.5q40 0 80 11.5 t73.5 41.5t33.5 74q0 48 -51 80t-145 55l-219 54q-75 18 -136.5 43t-117 60.5t-87 86.5t-31.5 112zM347 843q0 -51 60.5 -88t203.5 -73q164 -41 235 -41q76 0 125.5 35.5t49.5 89.5q0 50 -61 87t-204 73q-164 41 -235 41q-76 0 -125 -35t-49 -89z" />
<glyph unicode="&#xa8;" horiz-adv-x="861" d="M50 1425q0 63 44 108t108 45t109 -45t45 -108q0 -64 -45 -109t-109 -45q-63 0 -107.5 45t-44.5 109zM504 1425q0 63 44 108t109 45q64 0 108.5 -45t44.5 -108q0 -64 -45 -109t-108 -45q-64 0 -108.5 45t-44.5 109z" />
<glyph unicode="&#xa9;" horiz-adv-x="1834" d="M102 802q0 168 64.5 320.5t173.5 262.5t260 175.5t316 65.5q166 0 317 -65.5t260 -175.5t173.5 -262.5t64.5 -320.5q0 -167 -64.5 -319t-173.5 -262t-260 -175t-317 -65q-165 0 -316 65t-260 175t-173.5 262t-64.5 319zM240 802q0 -141 53 -269t142.5 -220t215 -146.5 t265.5 -54.5t266 54.5t216 146.5t143 220t53 269t-53 269.5t-143 221.5t-216 148t-266 55q-139 0 -265 -55t-215.5 -148t-142.5 -221.5t-53 -269.5zM423 804q0 137 66.5 253t184.5 184t260 68q174 0 296.5 -91.5t155.5 -222.5l-197 -64q-9 31 -27 60.5t-47.5 58t-76 45.5 t-104.5 17q-122 0 -205 -84.5t-83 -220.5q0 -135 82.5 -223.5t206.5 -88.5q185 0 258 185l198 -64q-17 -58 -53.5 -112.5t-92 -102t-137.5 -76t-177 -28.5q-215 0 -361.5 146t-146.5 361z" />
<glyph unicode="&#xaa;" horiz-adv-x="1141" d="M152 1175q0 58 16.5 115t49.5 107.5t79 89.5t108.5 61.5t133.5 22.5q60 0 125.5 -27.5t107.5 -81.5v93h191v-763h-191v98q-41 -54 -111 -82t-126 -28q-164 0 -273.5 118t-109.5 277zM162 419v173h801v-173h-801zM347 1175q0 -93 59.5 -156.5t154.5 -63.5q94 0 153.5 64 t59.5 156q0 93 -59.5 156.5t-154.5 63.5q-94 0 -153.5 -63.5t-59.5 -156.5z" />
<glyph unicode="&#xab;" horiz-adv-x="1301" d="M73 617l459 452l141 -138l-319 -314l320 -313l-142 -139zM586 617l459 452l141 -138l-319 -314l320 -313l-143 -139z" />
<glyph unicode="&#xac;" horiz-adv-x="1424" d="M101 918v225h1167v-654h-231v429h-936z" />
<glyph unicode="&#xad;" horiz-adv-x="950" d="M142 541v248h666v-248h-666z" />
<glyph unicode="&#xae;" horiz-adv-x="1329" d="M117 1077q0 149 73 275.5t199.5 200.5t274.5 74q149 0 275.5 -74t199.5 -200.5t73 -275.5t-73.5 -275t-199.5 -199.5t-275 -73.5t-275 73.5t-199 199.5t-73 275zM227 1077q0 -185 127 -314.5t310 -129.5q184 0 311.5 129.5t127.5 314.5q0 186 -127.5 316t-311.5 130 q-183 0 -310 -130t-127 -316zM453 764v629h234q110 0 164 -58.5t54 -142.5q0 -58 -27.5 -104.5t-80.5 -70.5l130 -253h-141l-114 225h-92v-225h-127zM580 1106h96q52 0 76 25.5t24 58.5q0 84 -100 84h-96v-168z" />
<glyph unicode="&#xb0;" horiz-adv-x="928" d="M97 1251q0 150 107.5 258t258.5 108q153 0 260.5 -107.5t107.5 -258.5q0 -154 -107 -261t-261 -107q-151 0 -258.5 107.5t-107.5 260.5zM296 1251q0 -70 48 -119.5t119 -49.5t119.5 49.5t48.5 119.5q0 67 -50.5 117.5t-117.5 50.5q-71 0 -119 -48.5t-48 -119.5z" />
<glyph unicode="&#xb1;" horiz-adv-x="1392" d="M144 757v223h436v364h232v-364h436v-223h-436v-369h-232v369h-436zM146 50v219h1100v-219h-1100z" />
<glyph unicode="&#xb2;" horiz-adv-x="953" d="M125 872v56q0 95 54 188.5t181 167.5l129 75q122 71 122 158q0 50 -38 87t-104 37q-63 0 -103 -43t-41 -105l-194 30q6 124 99.5 213t242.5 89q152 0 246 -89.5t94 -215.5q0 -86 -52 -164t-140 -131l-146 -87q-73 -42 -92 -84h436v-182h-694z" />
<glyph unicode="&#xb3;" horiz-adv-x="917" d="M101 1150l200 32q0 -63 43.5 -104.5t106.5 -41.5q61 0 103.5 35.5t42.5 96.5q0 54 -43 87t-98 33q-37 0 -66 -11l-90 140l247 208h-422v180h668v-171l-227 -192h4q103 -15 168 -94t65 -184q0 -140 -105 -227t-246 -87q-137 0 -240.5 83t-110.5 217z" />
<glyph unicode="&#xb4;" horiz-adv-x="583" d="M35 1280l210 352h298l-297 -352h-211z" />
<glyph unicode="&#xb5;" horiz-adv-x="1353" d="M185 -336v1429h244v-612q0 -123 60 -198t181 -75q115 0 184 76t69 201v608h244v-1093h-238v147q-123 -165 -324 -165q-46 0 -98 14.5t-85 35.5v-368h-237z" />
<glyph unicode="&#xb6;" horiz-adv-x="1108" d="M73 1172q0 118 61.5 217.5t167 157t230.5 57.5h360v-1604h-253v738h-107q-190 0 -324.5 127.5t-134.5 306.5z" />
<glyph unicode="&#xb7;" horiz-adv-x="618" d="M130 661q0 76 52.5 129t126.5 53q75 0 127 -53t52 -129q0 -73 -52 -125t-127 -52q-73 0 -126 52.5t-53 124.5z" />
<glyph unicode="&#xb9;" horiz-adv-x="711" d="M39 1618l311 187h204v-933h-211v718l-212 -126z" />
<glyph unicode="&#xba;" horiz-adv-x="1119" d="M152 1176q0 168 119.5 281.5t289.5 113.5q168 0 287 -113t119 -279q0 -169 -118.5 -284t-288.5 -115q-168 0 -288 114t-120 282zM162 419v173h795v-173h-795zM346 1179q0 -93 61 -158t154 -65q94 0 153 63.5t59 156.5t-59.5 156t-153.5 63q-95 0 -154.5 -62t-59.5 -154z " />
<glyph unicode="&#xbb;" horiz-adv-x="1301" d="M115 304l320 311l-319 316l141 138l459 -452l-458 -452zM628 304l320 311l-319 316l141 138l459 -452l-459 -452z" />
<glyph unicode="&#xbc;" horiz-adv-x="1971" d="M67 1416l311 188h205v-933h-211v718l-213 -126zM317 0l1045 1604h240l-1042 -1604h-243zM1049 190v224l418 517h258v-561h158v-180h-158v-190h-204v190h-472zM1238 370h283v350z" />
<glyph unicode="&#xbd;" horiz-adv-x="1985" d="M66 1416l311 188h205v-933h-211v718l-213 -126zM317 0l1044 1604h241l-1043 -1604h-242zM1179 0v56q0 95 54 188.5t181 167.5l129 75q122 71 122 158q0 51 -37.5 88t-103.5 37q-63 0 -103.5 -43.5t-41.5 -105.5l-194 31q6 124 99.5 212.5t242.5 88.5q152 0 246.5 -89.5 t94.5 -215.5q0 -85 -52.5 -163t-140.5 -131l-146 -88q-74 -45 -91 -83h435v-183h-694z" />
<glyph unicode="&#xbe;" horiz-adv-x="2020" d="M87 949l199 32q1 -63 44 -104.5t106 -41.5q61 0 104 35.5t43 96.5q0 54 -43.5 87t-98.5 33q-37 0 -66 -11l-90 140l248 208h-422v180h668v-171l-228 -192h4q103 -15 168.5 -94.5t65.5 -183.5q0 -140 -105.5 -227t-246.5 -87q-137 0 -240.5 83t-109.5 217zM379 0 l1044 1604h240l-1042 -1604h-242zM1110 190v224l418 517h258v-561h158v-180h-158v-190h-204v190h-472zM1299 370h283v350z" />
<glyph unicode="&#xbf;" horiz-adv-x="1153" d="M67 -96q0 -126 77 -226.5t191.5 -151.5t238.5 -51q133 0 248.5 55t189 161.5t73.5 241.5q0 15 -5 85l-258 10q6 -28 6 -60q0 -110 -73 -186t-183 -76q-93 0 -167.5 57t-74.5 147q0 48 22.5 89.5t58 74.5t79 65t87 68.5t79 77.5t58 99.5t22.5 126.5q0 42 -15 96h-228 q0 -118 -72 -201q-49 -58 -138 -121q-105 -77 -160.5 -168.5t-55.5 -212.5zM445 956q0 67 47 113.5t115 46.5q66 0 112.5 -46.5t46.5 -113.5t-47 -114t-112 -47q-67 0 -114.5 47t-47.5 114z" />
<glyph unicode="&#xc0;" horiz-adv-x="1603" d="M1 0l652 1604h298l649 -1604h-263l-146 376h-785l-148 -376h-257zM405 2103h298l210 -352h-211zM495 601h609l-305 761z" />
<glyph unicode="&#xc1;" horiz-adv-x="1603" d="M1 0l652 1604h298l649 -1604h-263l-146 376h-785l-148 -376h-257zM495 601h609l-305 761zM695 1750l210 352h298l-297 -352h-211z" />
<glyph unicode="&#xc2;" horiz-adv-x="1603" d="M1 0l652 1604h298l649 -1604h-263l-146 376h-785l-148 -376h-257zM415 1749l283 353h191l294 -353h-233l-151 189l-142 -189h-242zM495 601h609l-305 761z" />
<glyph unicode="&#xc3;" horiz-adv-x="1603" d="M1 0l652 1604h298l649 -1604h-263l-146 376h-785l-148 -376h-257zM429 1780v23q0 273 216 273q48 0 103 -24.5t104.5 -49t84.5 -24.5q65 0 75 94h155v-22q0 -272 -212 -272q-53 0 -105.5 25t-99 50t-84.5 25q-62 0 -67 -98h-170zM495 601h609l-305 761z" />
<glyph unicode="&#xc4;" horiz-adv-x="1603" d="M1 0l652 1604h298l649 -1604h-263l-146 376h-785l-148 -376h-257zM415 1893q0 63 44 108.5t109 45.5q63 0 108 -45.5t45 -108.5q0 -64 -45 -109t-108 -45q-64 0 -108.5 45t-44.5 109zM495 601h609l-305 761zM890 1893q0 63 44 108.5t108 45.5t109 -45.5t45 -108.5 q0 -64 -45 -109t-109 -45t-108 44.5t-44 109.5z" />
<glyph unicode="&#xc5;" horiz-adv-x="1602" d="M1 0l612 1505q-51 40 -80.5 98t-29.5 124q0 117 88 200t209 83q124 0 211 -83t87 -200q0 -135 -107 -221l609 -1506h-263l-146 376h-785l-148 -376h-257zM495 601h609l-305 761zM660 1727q0 -55 40.5 -95t99.5 -40t99.5 40t40.5 95q0 51 -42 91.5t-98 40.5 q-60 0 -100 -38.5t-40 -93.5z" />
<glyph unicode="&#xc6;" horiz-adv-x="2157" d="M-24 0l871 1604h1183v-228h-766v-446h696v-228h-696v-473h774v-229h-1024v376h-561l-203 -376h-274zM573 601h441v777h-23z" />
<glyph unicode="&#xc7;" horiz-adv-x="1728" d="M99 797q0 177 66.5 333t178 264t260.5 170.5t311 62.5q130 0 245 -34t196.5 -87.5t145 -124t100.5 -140.5t54 -139l-247 -85q-9 37 -25.5 78t-55.5 96t-91 97t-137 72t-188 30q-106 0 -204.5 -41.5t-175 -115.5t-122.5 -185.5t-46 -242.5q0 -130 45.5 -242t121 -186.5 t174.5 -117t206 -42.5q94 0 176 29t135 71t95 96.5t63 99t33 85.5l248 -86q-15 -58 -47 -120.5t-88.5 -130.5t-128 -123.5t-173.5 -97t-218 -54.5q46 -71 46 -162q0 -104 -55 -179t-138.5 -109.5t-183.5 -34.5q-95 0 -157 23v164q61 -16 135 -16q97 0 156 47.5t59 141.5 q0 60 -29 123q-115 9 -223 48.5t-202 110t-164 164.5t-110.5 220.5t-40.5 269.5z" />
<glyph unicode="&#xc8;" horiz-adv-x="1359" d="M204 0h1036v229h-784v473h706v228h-706v446h776v228h-1028v-1604zM397 2103h300l210 -352h-211z" />
<glyph unicode="&#xc9;" horiz-adv-x="1359" d="M204 0v1604h1028v-228h-776v-446h706v-228h-706v-473h784v-229h-1036zM597 1750l212 352h298l-297 -352h-213z" />
<glyph unicode="&#xca;" horiz-adv-x="1359" d="M204 0h1036v229h-784v473h706v228h-706v446h776v228h-1028v-1604zM337 1749l285 353h191l294 -353h-233l-151 189l-142 -189h-244z" />
<glyph unicode="&#xcb;" horiz-adv-x="1358" d="M204 0v1604h1027v-228h-775v-446h705v-228h-705v-473h783v-229h-1035zM333 1893q0 63 44 108.5t109 45.5q63 0 108 -45.5t45 -108.5q0 -64 -45 -109t-108 -45q-64 0 -108.5 45t-44.5 109zM808 1893q0 63 44 108.5t108 45.5t109 -45.5t45 -108.5q0 -64 -45 -109t-109 -45 t-108 44.5t-44 109.5z" />
<glyph unicode="&#xcc;" horiz-adv-x="660" d="M-71 2103h298l210 -352h-211zM204 0h252v1604h-252v-1604z" />
<glyph unicode="&#xcd;" horiz-adv-x="660" d="M204 0v1604h252v-1604h-252zM223 1750l212 352h298l-297 -352h-213z" />
<glyph unicode="&#xce;" horiz-adv-x="660" d="M-55 1749l285 353h191l294 -353h-233l-151 189l-142 -189h-244zM204 0h252v1604h-252v-1604z" />
<glyph unicode="&#xcf;" horiz-adv-x="660" d="M-47 1893q0 63 44 108.5t109 45.5q64 0 109 -45.5t45 -108.5q0 -64 -45.5 -109t-108.5 -45q-64 0 -108.5 45t-44.5 109zM204 0v1604h252v-1604h-252zM399 1893q0 63 44 108.5t108 45.5t109 -45.5t45 -108.5q0 -64 -45 -109t-109 -45q-63 0 -107.5 45t-44.5 109z" />
<glyph unicode="&#xd0;" horiz-adv-x="1709" d="M30 702v228h217v674h509q149 0 277.5 -36t220 -98t162 -141.5t112.5 -171t63 -181t21 -175.5q0 -114 -31 -225.5t-99 -216t-165.5 -184t-241.5 -127.5t-315 -48h-513v702h-217zM499 234h250q123 0 224.5 33.5t169.5 89t115.5 129.5t68.5 153t21 162q0 77 -21 155t-68 153 t-114.5 133t-169.5 93.5t-224 35.5h-252v-441h356v-228h-356v-468z" />
<glyph unicode="&#xd1;" horiz-adv-x="1761" d="M204 0v1604h290l814 -1221v1221h249v-1604h-282l-822 1228v-1228h-249zM511 1780v23q0 273 216 273q48 0 103 -24.5t104.5 -49t84.5 -24.5q65 0 75 94h155v-22q0 -272 -212 -272q-53 0 -105.5 25t-99 50t-84.5 25q-62 0 -67 -98h-170z" />
<glyph unicode="&#xd2;" horiz-adv-x="1843" d="M98 798q0 172 65.5 326.5t176.5 264t263.5 174t320.5 64.5q225 0 413 -107t298 -296t110 -419q0 -174 -66 -328t-177.5 -262t-264 -171t-320.5 -63t-319 62t-261 169t-174.5 259.5t-64.5 326.5zM362 804q0 -160 73.5 -295t202 -214t283.5 -79q116 0 219.5 46.5t178 125.5 t118 187.5t43.5 228.5q0 161 -73.5 296t-202.5 213.5t-283 78.5q-155 0 -283.5 -78.5t-202 -213.5t-73.5 -296zM535 2103h298l210 -352h-211z" />
<glyph unicode="&#xd3;" horiz-adv-x="1843" d="M98 798q0 172 65.5 326.5t176.5 264t263.5 174t320.5 64.5q225 0 413 -107t298 -296t110 -419q0 -174 -66 -328t-177.5 -262t-264 -171t-320.5 -63t-319 62t-261 169t-174.5 259.5t-64.5 326.5zM362 804q0 -160 73.5 -295t202 -214t283.5 -79q116 0 219.5 46.5t178 125.5 t118 187.5t43.5 228.5q0 161 -73.5 296t-202.5 213.5t-283 78.5q-155 0 -283.5 -78.5t-202 -213.5t-73.5 -296zM812 1750l210 352h298l-297 -352h-211z" />
<glyph unicode="&#xd4;" horiz-adv-x="1843" d="M98 798q0 172 65.5 326.5t176.5 264t263.5 174t320.5 64.5q225 0 413 -107t298 -296t110 -419q0 -174 -66 -328t-177.5 -262t-264 -171t-320.5 -63t-319 62t-261 169t-174.5 259.5t-64.5 326.5zM362 804q0 -160 73.5 -295t202 -214t283.5 -79q116 0 219.5 46.5t178 125.5 t118 187.5t43.5 228.5q0 161 -73.5 296t-202.5 213.5t-283 78.5q-155 0 -283.5 -78.5t-202 -213.5t-73.5 -296zM537 1749l283 353h191l294 -353h-233l-151 189l-142 -189h-242z" />
<glyph unicode="&#xd5;" horiz-adv-x="1843" d="M98 798q0 172 65.5 326.5t176.5 264t263.5 174t320.5 64.5q225 0 413 -107t298 -296t110 -419q0 -174 -66 -328t-177.5 -262t-264 -171t-320.5 -63t-319 62t-261 169t-174.5 259.5t-64.5 326.5zM362 804q0 -160 73.5 -295t202 -214t283.5 -79q116 0 219.5 46.5t178 125.5 t118 187.5t43.5 228.5q0 161 -73.5 296t-202.5 213.5t-283 78.5q-155 0 -283.5 -78.5t-202 -213.5t-73.5 -296zM554 1780v23q0 273 216 273q48 0 103 -24.5t104 -49t85 -24.5q65 0 75 94h155v-22q0 -272 -212 -272q-53 0 -105.5 25t-99 50t-84.5 25q-62 0 -67 -98h-170z" />
<glyph unicode="&#xd6;" horiz-adv-x="1843" d="M98 798q0 172 65.5 326.5t176.5 264t263.5 174t320.5 64.5q225 0 413 -107t298 -296t110 -419q0 -174 -66 -328t-177.5 -262t-264 -171t-320.5 -63t-319 62t-261 169t-174.5 259.5t-64.5 326.5zM362 804q0 -160 73.5 -295t202 -214t283.5 -79q116 0 219.5 46.5t178 125.5 t118 187.5t43.5 228.5q0 161 -73.5 296t-202.5 213.5t-283 78.5q-155 0 -283.5 -78.5t-202 -213.5t-73.5 -296zM535 1893q0 63 44 108.5t109 45.5q63 0 108 -45.5t45 -108.5q0 -64 -45 -109t-108 -45q-64 0 -108.5 45t-44.5 109zM1010 1893q0 63 44 108.5t108 45.5 t109 -45.5t45 -108.5q0 -64 -45 -109t-109 -45t-108 44.5t-44 109.5z" />
<glyph unicode="&#xd7;" horiz-adv-x="1384" d="M120 290l415 415l-415 415l157 160l415 -420l415 420l157 -160l-415 -415l415 -415l-157 -160l-415 417l-415 -417z" />
<glyph unicode="&#xd8;" horiz-adv-x="1855" d="M100 78l187 196q-183 221 -183 524q0 172 65.5 326.5t176.5 264t263.5 174t320.5 64.5q274 0 490 -158l200 211l140 -132l-200 -210q91 -108 141 -244.5t50 -288.5q0 -174 -66 -328t-177.5 -262t-264 -171t-320.5 -63q-279 0 -495 159l-188 -193zM368 804q0 -190 99 -339 l783 823q-142 104 -323 104q-155 0 -283.5 -78.5t-202 -213.5t-73.5 -296zM596 326q145 -110 331 -110q116 0 219.5 46.5t178 125.5t118 187.5t43.5 228.5q0 194 -104 347z" />
<glyph unicode="&#xd9;" horiz-adv-x="1620" d="M186 611q0 -135 38 -248.5t112.5 -199.5t195 -134.5t275.5 -48.5q153 0 273 47t197 133t117 203t40 259v982h-252v-992q0 -175 -98.5 -285t-271.5 -110q-166 0 -270 109t-104 295v983h-252v-993zM430 2103h298l210 -352h-211z" />
<glyph unicode="&#xda;" horiz-adv-x="1622" d="M186 611v993h254v-983q0 -186 104 -295t270 -109q174 0 272 109.5t98 285.5v992h252v-982q0 -142 -40 -259t-117 -203t-197 -133t-273 -47q-155 0 -276 48.5t-195.5 134.5t-113 199.5t-38.5 248.5zM684 1750l210 352h298l-297 -352h-211z" />
<glyph unicode="&#xdb;" horiz-adv-x="1622" d="M186 611q0 -135 38.5 -248.5t113 -199.5t195.5 -134.5t276 -48.5q153 0 273 47t197 133t117 203t40 259v982h-252v-992q0 -175 -98.5 -285t-271.5 -110q-166 0 -270 109t-104 295v983h-254v-993zM427 1749l283 353h191l294 -353h-233l-151 189l-142 -189h-242z" />
<glyph unicode="&#xdc;" horiz-adv-x="1620" d="M186 611v993h252v-983q0 -186 104 -295t270 -109q174 0 272 109.5t98 285.5v992h252v-982q0 -142 -40 -259t-117 -203t-197 -133t-273 -47q-155 0 -275.5 48.5t-195 134.5t-112.5 199.5t-38 248.5zM420 1893q0 63 44 108.5t109 45.5q63 0 108 -45.5t45 -108.5 q0 -64 -45 -109t-108 -45q-64 0 -108.5 45t-44.5 109zM895 1893q0 63 44 108.5t108 45.5t109 -45.5t45 -108.5q0 -64 -45 -109t-109 -45t-108 44.5t-44 109.5z" />
<glyph unicode="&#xdd;" horiz-adv-x="1539" d="M40 1604h292l440 -720l442 720h288l-605 -957v-647h-254v641zM645 1750l210 352h298l-297 -352h-211z" />
<glyph unicode="&#xde;" horiz-adv-x="1396" d="M204 0v1605h251v-286h316q117 0 212.5 -28t159 -75.5t107 -112.5t63 -136t19.5 -148q0 -105 -38.5 -196.5t-111 -162t-186.5 -111t-255 -40.5h-286v-309h-251zM455 540h294q87 0 153 24.5t102.5 65.5t54 87.5t17.5 96.5q0 39 -8.5 75t-31 73t-58 63.5t-94.5 43.5t-135 17 h-294v-546z" />
<glyph unicode="&#xdf;" horiz-adv-x="1345" d="M163 0v1121q0 136 41 242.5t113 173.5t166 101.5t205 34.5q71 0 140 -14.5t133.5 -47t113 -79.5t77.5 -116.5t29 -153.5q0 -67 -19 -123.5t-53.5 -97.5t-66 -67.5t-72.5 -51.5l-47 -29q-37 -23 -54 -44.5t-17 -53.5t21.5 -54t78.5 -46l84 -35q106 -44 172.5 -131 t66.5 -206q0 -62 -20.5 -120t-63.5 -109t-120.5 -82t-179.5 -31q-168 0 -273.5 87.5t-108.5 228.5l210 41q0 -77 50.5 -117.5t119.5 -40.5q77 0 115 40t38 92q0 93 -124 144l-80 33q-232 95 -232 283q0 95 44.5 163t109.5 110l49 32q69 45 99.5 84.5t30.5 91.5 q0 91 -68.5 145.5t-182.5 54.5q-130 0 -205.5 -94.5t-75.5 -251.5l-1 -1107h-243z" />
<glyph unicode="&#xe0;" horiz-adv-x="1177" d="M96 303v12q0 73 29.5 132t75.5 95.5t107.5 61.5t121.5 35t121 10h135q102 0 102 92q0 70 -56 118.5t-159 48.5q-98 0 -161.5 -50t-77.5 -131l-221 50q8 77 73.5 163.5t171.5 133.5q94 42 222 42q307 0 410 -224q37 -79 37 -195v-521q0 -108 8 -176h-239q-10 45 -10 150 q-55 -91 -142.5 -130t-178.5 -39q-161 0 -265 90.5t-104 231.5zM192 1632h298l210 -352h-211zM340 325q0 -67 48.5 -108t125.5 -41q125 0 198.5 72t73.5 195v35h-236q-78 0 -144 -41t-66 -112z" />
<glyph unicode="&#xe1;" horiz-adv-x="1177" d="M96 303v12q0 73 29.5 132t75.5 95.5t107.5 61.5t121.5 35t121 10h135q102 0 102 92q0 70 -56 118.5t-159 48.5q-98 0 -161.5 -50t-77.5 -131l-221 50q8 77 73.5 163.5t171.5 133.5q94 42 222 42q307 0 410 -224q37 -79 37 -195v-521q0 -108 8 -176h-239q-10 45 -10 150 q-55 -91 -142.5 -130t-178.5 -39q-161 0 -265 90.5t-104 231.5zM340 325q0 -67 48.5 -108t125.5 -41q125 0 198.5 72t73.5 195v35h-236q-78 0 -144 -41t-66 -112zM459 1280l210 352h298l-297 -352h-211z" />
<glyph unicode="&#xe2;" horiz-adv-x="1177" d="M96 303v12q0 73 29.5 132t75.5 95.5t107.5 61.5t121.5 35t121 10h135q102 0 102 92q0 70 -56 118.5t-159 48.5q-98 0 -161.5 -50t-77.5 -131l-221 50q8 77 73.5 163.5t171.5 133.5q94 42 222 42q307 0 410 -224q37 -79 37 -195v-521q0 -108 8 -176h-239q-10 45 -10 150 q-55 -91 -142.5 -130t-178.5 -39q-161 0 -265 90.5t-104 231.5zM192 1279l283 353h191l294 -353h-233l-151 189l-142 -189h-242zM340 325q0 -67 48.5 -108t125.5 -41q125 0 198.5 72t73.5 195v35h-236q-78 0 -144 -41t-66 -112z" />
<glyph unicode="&#xe3;" horiz-adv-x="1177" d="M96 303v12q0 73 29.5 132t75.5 95.5t107.5 61.5t121.5 35t121 10h135q102 0 102 92q0 70 -56 118.5t-159 48.5q-98 0 -161.5 -50t-77.5 -131l-221 50q8 77 73.5 163.5t171.5 133.5q94 42 222 42q307 0 410 -224q37 -79 37 -195v-521q0 -108 8 -176h-239q-10 45 -10 150 q-55 -91 -142.5 -130t-178.5 -39q-161 0 -265 90.5t-104 231.5zM206 1300v23q0 273 216 273q48 0 103 -24.5t104 -49t85 -24.5q65 0 75 94h155v-22q0 -272 -212 -272q-53 0 -105.5 25t-99 50t-84.5 25q-62 0 -67 -98h-170zM340 325q0 -67 48.5 -108t125.5 -41 q125 0 198.5 72t73.5 195v35h-236q-78 0 -144 -41t-66 -112z" />
<glyph unicode="&#xe4;" horiz-adv-x="1177" d="M96 303q0 -141 104 -231.5t265 -90.5q91 0 178.5 39t142.5 130q0 -105 10 -150h239q-8 68 -8 176v521q0 116 -37 195q-103 224 -410 224q-127 0 -222 -42q-106 -47 -171.5 -133.5t-73.5 -163.5l221 -50q14 81 77.5 131t161.5 50q103 0 159 -48.5t56 -118.5 q0 -92 -102 -92h-135q-61 0 -121 -10t-121.5 -35t-107.5 -61.5t-75.5 -95.5t-29.5 -132v-12zM199 1425q0 63 44 108t108 45t109 -45t45 -108q0 -64 -45 -109t-109 -45q-63 0 -107.5 45t-44.5 109zM340 325q0 71 66 112t144 41h236v-35q0 -123 -73.5 -195t-198.5 -72 q-77 0 -125.5 41t-48.5 108zM653 1425q0 63 44 108t109 45q64 0 108.5 -45t44.5 -108q0 -64 -45 -109t-108 -45q-64 0 -108.5 45t-44.5 109z" />
<glyph unicode="&#xe5;" horiz-adv-x="1178" d="M97 303v12q0 73 29.5 132t75.5 95.5t107.5 61.5t121.5 35t121 10h135q102 0 102 92q0 70 -56 118.5t-159 48.5q-98 0 -161.5 -50t-77.5 -131l-221 50q5 47 31.5 99t79 105t119.5 86q-62 76 -62 175q0 117 88 200t209 83q124 0 211.5 -82.5t87.5 -200.5q0 -98 -61 -173 q119 -57 174 -177q37 -79 37 -195v-521q0 -108 8 -176h-239q-10 45 -10 150q-55 -91 -142.5 -130t-178.5 -39q-161 0 -265 90.5t-104 231.5zM341 325q0 -67 48.5 -108t125.5 -41q125 0 198.5 72t73.5 195v35h-236q-78 0 -144 -41t-66 -112zM450 1243q0 -52 38 -89t93 -37 q56 0 93.5 37t37.5 89q0 48 -39.5 85.5t-91.5 37.5q-56 0 -93.5 -35.5t-37.5 -87.5z" />
<glyph unicode="&#xe6;" horiz-adv-x="1948" d="M96 303v12q0 73 29.5 132t75.5 95.5t107.5 61.5t121.5 35t121 10h155q90 0 90 92q0 70 -56.5 118t-159.5 49q-102 0 -169.5 -50t-80.5 -130l-217 49q7 75 77 162.5t177 135.5q92 41 219 41q253 0 360 -157q71 74 172.5 115.5t214.5 41.5q248 0 388.5 -156.5t140.5 -408.5 q0 -37 -3 -75h-837q4 -122 102.5 -204t224.5 -82q227 0 288 182l208 -61q-46 -153 -185.5 -242t-308.5 -89q-132 0 -246.5 52.5t-193.5 145.5q-170 -197 -435 -197h-6q-161 0 -267.5 90.5t-106.5 231.5zM340 325q0 -67 48.5 -108t125.5 -41q127 0 203 70.5t76 196.5v35h-243 q-78 0 -144 -41t-66 -112zM1035 659h582q-6 115 -86 181.5t-201 66.5q-116 0 -197.5 -68t-97.5 -180z" />
<glyph unicode="&#xe7;" horiz-adv-x="1248" d="M90 549q0 154 74.5 284t206.5 206.5t292 76.5q194 0 331.5 -103t174.5 -250l-221 -72q-10 35 -30.5 68t-53.5 65t-85.5 51.5t-116.5 19.5q-137 0 -229.5 -95t-92.5 -247t92 -251t232 -99q209 0 288 208l223 -72q-23 -78 -74 -148.5t-142 -128t-204 -74.5q47 -72 47 -164 q0 -104 -55 -179t-138.5 -109.5t-183.5 -34.5q-95 0 -157 23v164q61 -16 135 -16q97 0 156 47.5t59 141.5q0 61 -29 124q-216 25 -357.5 183.5t-141.5 380.5z" />
<glyph unicode="&#xe8;" horiz-adv-x="1260" d="M90 548q0 154 70.5 284t197.5 207t282 77q250 0 392 -156t142 -409q0 -42 -4 -75h-831q3 -81 49.5 -147.5t118.5 -102.5t153 -36q105 0 182 45t108 139l206 -63q-30 -102 -106.5 -178.5t-176.5 -114.5t-210 -38q-159 0 -290.5 74t-207 204.5t-75.5 289.5zM250 1632h298 l210 -352h-211zM352 659h574q-6 114 -86.5 181t-197.5 67q-113 0 -193.5 -68t-96.5 -180z" />
<glyph unicode="&#xe9;" horiz-adv-x="1260" d="M90 548q0 154 70.5 284t197.5 207t282 77q250 0 392 -156t142 -409q0 -42 -4 -75h-831q3 -81 49.5 -147.5t118.5 -102.5t153 -36q105 0 182 45t108 139l206 -63q-30 -102 -106.5 -178.5t-176.5 -114.5t-210 -38q-159 0 -290.5 74t-207 204.5t-75.5 289.5zM352 659h574 q-6 114 -86.5 181t-197.5 67q-113 0 -193.5 -68t-96.5 -180zM530 1280l210 352h298l-297 -352h-211z" />
<glyph unicode="&#xea;" horiz-adv-x="1260" d="M90 548q0 154 70.5 284t197.5 207t282 77q250 0 392 -156t142 -409q0 -42 -4 -75h-831q3 -81 49.5 -147.5t118.5 -102.5t153 -36q105 0 182 45t108 139l206 -63q-30 -102 -106.5 -178.5t-176.5 -114.5t-210 -38q-159 0 -290.5 74t-207 204.5t-75.5 289.5zM250 1279 l283 353h191l294 -353h-233l-151 189l-142 -189h-242zM352 659h574q-6 114 -86.5 181t-197.5 67q-113 0 -193.5 -68t-96.5 -180z" />
<glyph unicode="&#xeb;" horiz-adv-x="1260" d="M90 548q0 154 70.5 284t197.5 207t282 77q250 0 392 -156t142 -409q0 -42 -4 -75h-831q3 -81 49.5 -147.5t118.5 -102.5t153 -36q105 0 182 45t108 139l206 -63q-30 -102 -106.5 -178.5t-176.5 -114.5t-210 -38q-159 0 -290.5 74t-207 204.5t-75.5 289.5zM257 1425 q0 63 44 108t108 45t109 -45t45 -108q0 -64 -45 -109t-109 -45q-63 0 -107.5 45t-44.5 109zM352 659h574q-6 114 -86.5 181t-197.5 67q-113 0 -193.5 -68t-96.5 -180zM711 1425q0 63 44 108t109 45q64 0 108.5 -45t44.5 -108q0 -64 -45 -109t-108 -45q-64 0 -108.5 45 t-44.5 109z" />
<glyph unicode="&#xec;" horiz-adv-x="571" d="M-119 1624h299l210 -352h-211zM163 0h245v1093h-245v-1093z" />
<glyph unicode="&#xed;" horiz-adv-x="571" d="M163 0v1093h245v-1093h-245zM181 1280l211 352h298l-297 -352h-212z" />
<glyph unicode="&#xee;" horiz-adv-x="571" d="M-100 1279l284 353h191l295 -353h-233l-152 189l-142 -189h-243zM163 0h245v1093h-245v-1093z" />
<glyph unicode="&#xef;" horiz-adv-x="570" d="M-100 1425q0 63 44 108t108 45t109 -45t45 -108q0 -64 -45 -109t-109 -45q-63 0 -107.5 45t-44.5 109zM163 0v1093h244v-1093h-244zM354 1425q0 63 44 108t109 45q64 0 108.5 -45t44.5 -108q0 -64 -45 -109t-108 -45q-64 0 -108.5 45t-44.5 109z" />
<glyph unicode="&#xf0;" horiz-adv-x="1342" d="M91 538q0 144 70.5 263.5t191.5 187.5t265 68q87 0 181 -39t156 -99l2 1q-76 218 -221 347l-314 -141l-64 149l229 100q-115 66 -285 115l84 183q241 -62 424 -195l252 116l67 -151l-185 -82q140 -143 215.5 -331.5t75.5 -409.5q0 -175 -68.5 -319t-203 -232t-311.5 -88 q-154 0 -283 73t-203.5 201.5t-74.5 282.5zM336 531q0 -136 93 -234t233 -98q144 0 235.5 96.5t91.5 236.5q0 136 -95 229t-240 93q-143 0 -230.5 -91.5t-87.5 -231.5z" />
<glyph unicode="&#xf1;" d="M163 0v1093h238v-147q49 66 115 106t117 52t102 12q200 0 305 -123.5t105 -319.5v-673h-244v612q0 124 -60 198.5t-181 74.5q-116 0 -184.5 -76t-68.5 -200v-609h-244zM285 1300v23q0 273 216 273q48 0 103 -24.5t104.5 -49t84.5 -24.5q65 0 75 94h155v-22 q0 -272 -212 -272q-53 0 -105.5 25t-99 50t-84.5 25q-62 0 -67 -98h-170z" />
<glyph unicode="&#xf2;" horiz-adv-x="1332" d="M89 548q0 -158 78 -288.5t211 -204.5t289 -74q158 0 290 75t209 206.5t77 290.5q0 157 -78 287t-209.5 203t-286.5 73q-157 0 -290 -73.5t-211.5 -204.5t-78.5 -290zM274 1632h298l210 -352h-211zM338 553q0 145 91 243.5t237 98.5q145 0 236.5 -100.5t91.5 -246.5 q0 -145 -90.5 -245.5t-235.5 -100.5t-237.5 103.5t-92.5 247.5z" />
<glyph unicode="&#xf3;" horiz-adv-x="1332" d="M89 548q0 159 78.5 290t211.5 204.5t290 73.5q155 0 287 -73t209.5 -203t77.5 -287q0 -159 -76.5 -290.5t-209 -206.5t-290.5 -75q-156 0 -289 74t-211 204.5t-78 288.5zM339 553q0 -144 92.5 -247.5t237.5 -103.5t235 100.5t90 245.5q0 146 -91 246.5t-236 100.5 q-146 0 -237 -98.5t-91 -243.5zM550 1280l210 352h298l-297 -352h-211z" />
<glyph unicode="&#xf4;" horiz-adv-x="1332" d="M89 548q0 -158 78 -288.5t211 -204.5t289 -74q158 0 290.5 75t209 206.5t76.5 290.5q0 157 -77.5 287t-209.5 203t-287 73q-157 0 -290 -73.5t-211.5 -204.5t-78.5 -290zM282 1279l283 353h191l294 -353h-233l-151 189l-142 -189h-242zM339 553q0 145 91 243.5t237 98.5 q145 0 236 -100.5t91 -246.5q0 -145 -90 -245.5t-235 -100.5t-237.5 103.5t-92.5 247.5z" />
<glyph unicode="&#xf5;" horiz-adv-x="1332" d="M89 548q0 159 78.5 290t211.5 204.5t290 73.5q155 0 287 -73t209.5 -203t77.5 -287q0 -159 -76.5 -290.5t-209 -206.5t-290.5 -75q-156 0 -289 74t-211 204.5t-78 288.5zM297 1300v23q0 273 216 273q48 0 103 -24.5t104.5 -49t84.5 -24.5q65 0 75 94h155v-22 q0 -272 -212 -272q-53 0 -105.5 25t-99 50t-84.5 25q-62 0 -67 -98h-170zM338 553q0 -144 92.5 -247.5t237.5 -103.5t235.5 100.5t90.5 245.5q0 146 -91.5 246.5t-236.5 100.5q-146 0 -237 -98.5t-91 -243.5z" />
<glyph unicode="&#xf6;" horiz-adv-x="1331" d="M89 548q0 159 78 290t211 204.5t290 73.5q155 0 287 -73t209.5 -203t77.5 -287q0 -159 -76.5 -290.5t-209 -206.5t-290.5 -75q-156 0 -288.5 74t-210.5 204.5t-78 288.5zM285 1425q0 63 44 108t108 45t109 -45t45 -108q0 -64 -45 -109t-109 -45q-63 0 -107.5 45 t-44.5 109zM338 553q0 -144 92.5 -247.5t237.5 -103.5t235.5 100.5t90.5 245.5q0 146 -91.5 246.5t-236.5 100.5q-146 0 -237 -98.5t-91 -243.5zM739 1425q0 63 44 108t109 45q64 0 108.5 -45t44.5 -108q0 -64 -45 -109t-108 -45q-64 0 -108.5 45t-44.5 109z" />
<glyph unicode="&#xf7;" horiz-adv-x="1223" d="M114 642v227h995v-227h-995zM456 287q0 64 45.5 109.5t109.5 45.5q65 0 110 -45t45 -110t-45 -110t-110 -45q-64 0 -109.5 45.5t-45.5 109.5zM456 1225q0 64 45.5 109.5t109.5 45.5t109.5 -45.5t45.5 -109.5q0 -65 -45.5 -110.5t-109.5 -45.5t-109.5 46t-45.5 110z" />
<glyph unicode="&#xf8;" horiz-adv-x="1341" d="M92 82l118 120q-116 151 -116 346q0 158 77.5 289t209.5 205t289 74q188 0 337 -105l120 123l123 -121l-119 -120q116 -151 116 -345q0 -158 -77 -288.5t-209 -204.5t-290 -74q-186 0 -334 102l-121 -121zM342 548q0 -96 39 -173l466 472q-78 46 -176 46 q-146 0 -237.5 -99.5t-91.5 -245.5zM495 249q75 -47 175 -47q145 0 236.5 100.5t91.5 245.5q0 94 -38 172z" />
<glyph unicode="&#xf9;" d="M151 421v672h244v-612q0 -123 60 -198t181 -75q115 0 184 76t69 201v608h244v-1093h-238v147q-49 -66 -115 -106t-117 -52t-102 -12q-133 0 -227 60t-138.5 158.5t-44.5 225.5zM258 1632h298l210 -352h-211z" />
<glyph unicode="&#xfa;" d="M151 421v672h244v-612q0 -123 60 -198t181 -75q115 0 184 76t69 201v608h244v-1093h-238v147q-49 -66 -115 -106t-117 -52t-102 -12q-133 0 -227 60t-138.5 158.5t-44.5 225.5zM518 1280l210 352h298l-297 -352h-211z" />
<glyph unicode="&#xfb;" d="M151 421v672h244v-612q0 -123 60 -198t181 -75q115 0 184 76t69 201v608h244v-1093h-238v147q-49 -66 -115 -106t-117 -52t-102 -12q-133 0 -227 60t-138.5 158.5t-44.5 225.5zM258 1279l283 353h191l294 -353h-233l-151 189l-142 -189h-242z" />
<glyph unicode="&#xfc;" d="M151 421v672h244v-612q0 -123 60 -198t181 -75q115 0 184 76t69 201v608h244v-1093h-238v147q-49 -66 -115 -106t-117 -52t-102 -12q-133 0 -227 60t-138.5 158.5t-44.5 225.5zM257 1425q0 63 44 108t108 45t109 -45t45 -108q0 -64 -45 -109t-109 -45q-63 0 -107.5 45 t-44.5 109zM711 1425q0 63 44 108t109 45q64 0 108.5 -45t44.5 -108q0 -64 -45 -109t-108 -45q-64 0 -108.5 45t-44.5 109z" />
<glyph unicode="&#xfd;" horiz-adv-x="1254" d="M33 1093h279l340 -716l315 716h264l-750 -1632h-261l301 662zM518 1280l210 352h298l-297 -352h-211z" />
<glyph unicode="&#xfe;" horiz-adv-x="1358" d="M163 -449v2116h245v-718q37 58 101.5 96.5t122 52t111.5 13.5q101 0 187.5 -31.5t147 -86t104 -126.5t64 -152.5t20.5 -165.5q0 -90 -21.5 -173t-65 -155t-106 -125.5t-149.5 -84t-190 -30.5q-222 0 -327 153v-583h-244zM393 548q0 -142 90.5 -242t219.5 -100 q131 0 223 99t92 243q0 153 -90 247t-223 94q-138 0 -225 -98.5t-87 -242.5z" />
<glyph unicode="&#xff;" horiz-adv-x="1253" d="M33 1093h278l340 -716l315 716h264l-750 -1632h-261l301 662zM257 1425q0 63 44 108t108 45t109 -45t45 -108q0 -64 -45 -109t-109 -45q-63 0 -107.5 45t-44.5 109zM711 1425q0 63 44 108t109 45q64 0 108.5 -45t44.5 -108q0 -64 -45 -109t-108 -45q-64 0 -108.5 45 t-44.5 109z" />
<glyph unicode="&#x152;" horiz-adv-x="2628" d="M99 798q0 172 65.5 326.5t175.5 264t260.5 174t315.5 64.5q160 0 310.5 -68.5t245.5 -190.5h6v236h1023v-228h-776v-446h706v-228h-706v-473h784v-229h-1031v237h-5q-95 -122 -248 -189t-320 -67q-165 0 -313.5 62t-257 169t-172 259.5t-63.5 326.5zM363 803 q0 -160 72.5 -294.5t200.5 -213.5t283 -79q116 0 221 46.5t180.5 125t119.5 187t44 228.5q0 161 -75 296.5t-205 214t-285 78.5q-116 0 -219.5 -46.5t-177 -125t-116.5 -187.5t-43 -230z" />
<glyph unicode="&#x153;" horiz-adv-x="2160" d="M89 548q0 158 77.5 289t209.5 205t289 74q136 0 252.5 -57t195.5 -158q73 101 183.5 158t244.5 57q250 0 391.5 -156t141.5 -409q0 -37 -3 -75h-832q3 -81 49.5 -147.5t119 -102.5t153.5 -36q105 0 182 45t108 139l206 -63q-30 -102 -106.5 -178.5t-176.5 -114.5 t-210 -38q-139 0 -255.5 57.5t-193.5 159.5q-79 -101 -196 -158.5t-254 -57.5q-158 0 -290 74t-209 204.5t-77 288.5zM337 548q0 -144 91.5 -245t236.5 -101t236.5 100.5t91.5 245.5q0 146 -91 245.5t-237 99.5t-237 -99.5t-91 -245.5zM1252 659h575q-6 114 -87 181t-197 67 q-114 0 -194.5 -68t-96.5 -180z" />
<glyph unicode="&#x178;" horiz-adv-x="1539" d="M40 1604h292l440 -720l442 720h288l-605 -957v-647h-254v641zM391 1893q0 63 44 108t108 45t109 -45t45 -108q0 -64 -45 -109t-109 -45q-63 0 -107.5 45t-44.5 109zM845 1893q0 63 44 108t109 45q64 0 108.5 -45t44.5 -108q0 -64 -45 -109t-108 -45q-64 0 -108.5 45 t-44.5 109z" />
<glyph unicode="&#x2000;" horiz-adv-x="1051" />
<glyph unicode="&#x2001;" horiz-adv-x="2103" />
<glyph unicode="&#x2002;" horiz-adv-x="1051" />
<glyph unicode="&#x2003;" horiz-adv-x="2103" />
<glyph unicode="&#x2004;" horiz-adv-x="701" />
<glyph unicode="&#x2005;" horiz-adv-x="525" />
<glyph unicode="&#x2006;" horiz-adv-x="350" />
<glyph unicode="&#x2007;" horiz-adv-x="350" />
<glyph unicode="&#x2008;" horiz-adv-x="262" />
<glyph unicode="&#x2009;" horiz-adv-x="420" />
<glyph unicode="&#x200a;" horiz-adv-x="116" />
<glyph unicode="&#x2010;" horiz-adv-x="950" d="M142 541v248h666v-248h-666z" />
<glyph unicode="&#x2011;" horiz-adv-x="950" d="M142 541v248h666v-248h-666z" />
<glyph unicode="&#x2012;" horiz-adv-x="950" d="M142 541v248h666v-248h-666z" />
<glyph unicode="&#x2013;" horiz-adv-x="1239" d="M149 547v235h941v-235h-941z" />
<glyph unicode="&#x2014;" horiz-adv-x="2085" d="M149 547v235h1787v-235h-1787z" />
<glyph unicode="&#x2018;" horiz-adv-x="587" d="M108 1194q0 160 90.5 281t245.5 144v-114q-81 -16 -134 -81t-55 -148q23 15 61 15q68 0 110.5 -44.5t42.5 -111.5q0 -70 -49.5 -115.5t-120.5 -45.5q-90 0 -140.5 64t-50.5 156z" />
<glyph unicode="&#x2019;" horiz-adv-x="590" d="M129 1455q0 70 50 115t121 45q90 0 140 -63.5t50 -155.5q0 -161 -90 -281.5t-245 -144.5v114q81 17 133.5 82t54.5 147q-22 -15 -61 -15q-67 0 -110 44.5t-43 112.5z" />
<glyph unicode="&#x201a;" horiz-adv-x="614" d="M126 150q0 71 50 116t121 45q90 0 140.5 -64t50.5 -156q0 -105 -38.5 -195t-116 -152t-181.5 -78v114q81 16 133.5 81t54.5 148q-21 -15 -60 -15q-68 0 -111 44.5t-43 111.5z" />
<glyph unicode="&#x201c;" horiz-adv-x="1047" d="M108 1194q0 160 90.5 281t245.5 144v-114q-81 -16 -134 -81t-55 -148q23 15 61 15q68 0 110.5 -44.5t42.5 -112.5q0 -70 -49.5 -115t-120.5 -45q-90 0 -140.5 64t-50.5 156zM569 1194q0 160 90 281t245 144v-114q-81 -16 -133.5 -81t-54.5 -148q22 15 60 15 q68 0 111 -44.5t43 -112.5q0 -70 -50 -115t-121 -45q-90 0 -140 63.5t-50 156.5z" />
<glyph unicode="&#x201d;" horiz-adv-x="1051" d="M129 1455q0 70 50 115t121 45q90 0 140 -63.5t50 -155.5q0 -161 -90 -281.5t-245 -144.5v114q80 17 133 82t55 147q-22 -15 -61 -15q-67 0 -110 44.5t-43 112.5zM589 1455q0 70 50 115t121 45q90 0 140.5 -63.5t50.5 -155.5q0 -161 -90 -281.5t-246 -144.5v114 q81 17 133.5 82t54.5 147q-23 -15 -60 -15q-68 0 -111 44.5t-43 112.5z" />
<glyph unicode="&#x201e;" horiz-adv-x="1068" d="M124 152q0 71 50 116t121 45q90 0 140.5 -64t50.5 -156q0 -105 -38.5 -195t-116 -152t-181.5 -78v114q81 16 133.5 81t54.5 148q-21 -15 -60 -15q-68 0 -111 44.5t-43 111.5zM581 152q0 71 50 116t121 45q90 0 140.5 -64t50.5 -156q0 -105 -38.5 -195t-116 -152 t-181.5 -78v114q81 16 133.5 81t54.5 148q-21 -15 -60 -15q-68 0 -111 44.5t-43 111.5z" />
<glyph unicode="&#x2022;" horiz-adv-x="1007" d="M148 747q0 147 104.5 254.5t251.5 107.5q146 0 250.5 -107.5t104.5 -254.5q0 -148 -104 -252.5t-251 -104.5q-148 0 -252 104.5t-104 252.5z" />
<glyph unicode="&#x2026;" horiz-adv-x="1843" d="M120 168q0 75 52.5 128t126.5 53q75 0 127 -53t52 -128q0 -73 -52 -125t-127 -52q-74 0 -126.5 52t-52.5 125zM742 168q0 75 52.5 128t126.5 53q75 0 127 -53t52 -128q0 -73 -52 -125t-127 -52q-74 0 -126.5 52t-52.5 125zM1364 168q0 75 52.5 128t126.5 53 q75 0 127.5 -53t52.5 -128q0 -73 -52.5 -125t-127.5 -52q-74 0 -126.5 52t-52.5 125z" />
<glyph unicode="&#x202f;" horiz-adv-x="420" />
<glyph unicode="&#x2039;" horiz-adv-x="788" d="M72 617l460 452l141 -138l-320 -314l320 -313l-142 -139z" />
<glyph unicode="&#x203a;" horiz-adv-x="788" d="M115 304l320 311l-319 316l141 138l459 -452l-459 -452z" />
<glyph unicode="&#x205f;" horiz-adv-x="525" />
<glyph unicode="&#x20ac;" horiz-adv-x="1890" d="M88 548v176h151q-3 36 -3 73q0 40 5 90h-153v176h190q54 167 170 295.5t273 198.5t331 70q130 0 245 -34t196.5 -87.5t145.5 -124t101 -140.5t54 -139l-248 -85q-8 37 -25 78t-56 96t-90.5 97t-137 72t-188.5 30q-161 0 -300 -91t-199 -236h653l-57 -176h-640 q-5 -45 -5 -82q0 -38 5 -81h600l-56 -176h-497q61 -152 198.5 -241.5t296.5 -89.5q95 0 176.5 29t134.5 71t95 96.5t63 99t33 85.5l248 -86q-14 -52 -42 -108t-72 -117t-107.5 -114.5t-140 -97t-179 -69t-215.5 -25.5q-169 0 -324 65t-275.5 195.5t-171.5 306.5h-183z" />
<glyph unicode="&#x2122;" horiz-adv-x="2180" d="M79 1426v178h737v-178h-269v-747h-198v747h-270zM974 679v925h290l228 -637l217 637h301v-925h-191v730h-11l-251 -730h-132l-254 716h-11v-716h-186z" />
<glyph unicode="&#x25fc;" horiz-adv-x="1095" d="M0 0v1095h1095v-1095h-1095z" />
</font>
</defs>
</svg>
