<?xml version="1.0" standalone="no"?>
<!DOCTYPE svg PUBLIC "-//W3C//DTD SVG 1.1//EN" "http://www.w3.org/Graphics/SVG/1.1/DTD/svg11.dtd" >
<svg xmlns="http://www.w3.org/2000/svg" xmlns:xlink="http://www.w3.org/1999/xlink" version="1.1">
<metadata></metadata>
<defs>
<font id="gorditabold" horiz-adv-x="1622" >
<font-face units-per-em="2048" ascent="1638" descent="-410" />
<missing-glyph horiz-adv-x="515" />
<glyph unicode="&#xfb01;" horiz-adv-x="1517" d="M54 822v271h210v109q0 70 13 135t45 127.5t80 108t122.5 73.5t167.5 28q109 0 183 -24v-261q-37 11 -98 11q-195 0 -195 -181v-126h787v-1093h-320v822h-466v-822h-319v822h-210zM1010 1475q0 82 58 140.5t138 58.5q84 0 142.5 -58t58.5 -141q0 -82 -58.5 -140 t-142.5 -58q-80 0 -138 58t-58 140z" />
<glyph unicode="&#xfb02;" horiz-adv-x="1516" d="M54 822v271h210v109q0 70 13 135t45 127.5t80 108t122.5 73.5t167.5 28q109 0 183 -24v-261q-37 11 -98 11q-195 0 -195 -181v-126h467v575h319v-1668h-319v822h-466v-822h-319v822h-210z" />
<glyph unicode="&#xfb03;" horiz-adv-x="2306" d="M54 822v271h210v109q0 70 13 135t45 127.5t80 108t122.5 73.5t167.5 28q109 0 183 -24v-261q-37 11 -98 11q-195 0 -195 -181v-126h467v109q0 70 13 135t45 127.5t80 108t122.5 73.5t167.5 28q109 0 183 -24v-261q-37 11 -98 11q-195 0 -195 -181v-126h791v-1093h-320 v822h-470v-822h-319v822h-466v-822h-319v822h-210zM1799 1475q0 82 58 140.5t138 58.5q84 0 142.5 -58t58.5 -141q0 -82 -58.5 -140t-142.5 -58q-80 0 -138 58t-58 140z" />
<glyph unicode="&#xfb04;" horiz-adv-x="2320" d="M54 822v271h210v109q0 70 13 135t45 127.5t80 108t122.5 73.5t167.5 28q109 0 183 -24v-261q-37 11 -98 11q-195 0 -195 -181v-126h467v109q0 70 13 135t45 127.5t80 108t122.5 73.5t167.5 28q109 0 183 -24v-261q-37 11 -98 11q-195 0 -195 -181v-126h472v576h333v-1669 h-333v822h-471v-822h-319v822h-466v-822h-319v822h-210z" />
<glyph horiz-adv-x="0" />
<glyph horiz-adv-x="682" />
<glyph horiz-adv-x="0" />
<glyph horiz-adv-x="0" />
<glyph unicode="&#xd;" horiz-adv-x="515" />
<glyph unicode=" "  horiz-adv-x="515" />
<glyph unicode="&#x09;" horiz-adv-x="515" />
<glyph unicode="&#xa0;" horiz-adv-x="515" />
<glyph unicode="!" horiz-adv-x="695" d="M152 175q0 -82 58 -140t138 -58q83 0 142 58t59 140t-59 140.5t-142 58.5q-80 0 -138 -58.5t-58 -140.5zM169 1604h353l1 -323l-32 -726h-290l-31 725z" />
<glyph unicode="&#x22;" horiz-adv-x="1047" d="M101 1387q0 89 52.5 148t136.5 59t135.5 -59t51.5 -148q0 -41 -8 -76l-103 -455h-154l-102 455q-9 45 -9 76zM572 1387q0 89 52 148t136 59t135.5 -59t51.5 -148q0 -41 -8 -76l-103 -455h-153l-103 455q-8 40 -8 76z" />
<glyph unicode="#" horiz-adv-x="1728" d="M77 414v233h318l77 341h-266v234h319l86 383h256l-86 -383h350l87 383h255l-87 -383h266v-234h-319l-77 -341h266v-233h-319l-93 -414h-255l93 414h-350l-93 -414h-256l93 414h-265zM647 644h357l78 349h-356z" />
<glyph unicode="$" horiz-adv-x="1381" d="M76 480l306 71q15 -102 80 -167.5t164 -87.5v361l-71 14q-194 38 -307.5 157.5t-113.5 296.5q0 127 65.5 234.5t177 174t246.5 80.5v211h170v-213q107 -13 194.5 -53.5t143.5 -99t89.5 -125t42.5 -137.5l-296 -87q-16 74 -60 126.5t-117 74.5v-355l52 -10 q215 -41 331.5 -167t116.5 -298q0 -85 -33 -166t-94.5 -148t-157 -112.5t-212.5 -57.5v-206h-170v206q-237 20 -374.5 146t-172.5 337zM459 1150q0 -60 40.5 -104t123.5 -59l3 -1v332q-74 -16 -120.5 -63t-46.5 -105zM790 292q79 15 123 61.5t44 107.5q0 58 -45 102.5 t-122 61.5v-333z" />
<glyph unicode="%" horiz-adv-x="1820" d="M72 1258q0 150 106 256.5t257 106.5q150 0 256 -106.5t106 -256.5t-106 -256t-256 -106q-151 0 -257 106t-106 256zM247 0l1045 1604h277l-1043 -1604h-279zM308 1258q0 -52 37.5 -89t89.5 -37t89 37t37 89t-37 89t-89 37q-53 0 -90 -37t-37 -89zM1024 353 q0 150 106 256.5t256 106.5q151 0 257 -106.5t106 -256.5t-106 -256t-257 -106q-150 0 -256 106t-106 256zM1260 353q0 -52 37 -89t89 -37t89.5 37t37.5 89t-37 89t-90 37q-52 0 -89 -37t-37 -89z" />
<glyph unicode="&#x26;" horiz-adv-x="1535" d="M91 421q0 238 285 422l-60 69q-59 68 -90 144.5t-31 142.5q0 176 133 303.5t331 127.5q122 0 229.5 -56t172.5 -153.5t65 -211.5q0 -115 -52.5 -203t-169.5 -156l-97 -57l223 -254q91 128 127 253h299q-19 -103 -84 -225.5t-160 -235.5l289 -331h-391l-111 128 q-204 -151 -388 -151q-82 0 -157 16.5t-141.5 51.5t-115.5 86t-77.5 125.5t-28.5 164.5zM412 453q0 -53 21 -92t55.5 -58.5t70 -28.5t73.5 -9q90 0 190 66l-270 310q-140 -91 -140 -188zM503 1199q0 -30 12 -57.5t49 -69.5l67 -77l116 69q79 47 79 135q0 55 -46.5 99 t-113.5 44q-69 0 -116 -43.5t-47 -99.5z" />
<glyph unicode="'" horiz-adv-x="577" d="M101 1387q0 89 52.5 148t136.5 59t135.5 -59t51.5 -148q0 -37 -9 -76l-102 -455h-154l-103 455q-8 40 -8 76z" />
<glyph unicode="(" horiz-adv-x="844" d="M93 716v76q0 339 149 591t422 405l139 -186q-423 -307 -423 -811v-75q0 -504 423 -811l-139 -185q-273 152 -422 404t-149 592z" />
<glyph unicode=")" horiz-adv-x="838" d="M38 -100q419 304 419 816v75q0 512 -419 816l135 181q274 -153 423 -405t149 -591v-76q0 -340 -149 -592t-423 -404z" />
<glyph unicode="*" horiz-adv-x="1031" d="M77 1209l66 196l263 -86v285h215v-285l264 86l68 -197l-265 -87l162 -225l-168 -124l-168 227l-166 -226l-168 123l162 225z" />
<glyph unicode="+" horiz-adv-x="1270" d="M88 599v298h400v397h305v-397h389v-298h-389v-401h-305v401h-400z" />
<glyph unicode="," horiz-adv-x="658" d="M105 181q0 84 63.5 137t150.5 53q107 0 168 -74.5t61 -188.5q0 -200 -110 -333t-300 -163v152q179 59 215 228q-32 -8 -62 -8q-81 0 -133.5 56t-52.5 141z" />
<glyph unicode="-" horiz-adv-x="939" d="M132 507v316h675v-316h-675z" />
<glyph unicode="." horiz-adv-x="644" d="M100 196q0 92 65 157.5t156 65.5q93 0 157.5 -65t64.5 -158q0 -90 -64.5 -155t-157.5 -65q-91 0 -156 65t-65 155z" />
<glyph unicode="/" horiz-adv-x="1151" d="M63 -10l732 1679h297l-733 -1679h-296z" />
<glyph unicode="0" horiz-adv-x="1573" d="M100 803q0 162 43 308t125.5 262.5t217 185.5t304.5 69q134 0 246.5 -44.5t192.5 -121.5t136 -181t82.5 -223t26.5 -247q0 -129 -27 -249t-83 -226t-136.5 -185t-194.5 -125t-249 -46q-136 0 -250 45t-193.5 123t-134.5 183t-80.5 224t-25.5 248zM435 806q0 -66 12 -134 t39 -136t66.5 -120.5t100.5 -85t134 -32.5t133.5 32.5t100 85t66.5 120.5t39 136t12 134q0 84 -20 169t-59.5 162t-110 125.5t-161.5 48.5q-73 0 -134 -32.5t-100.5 -84t-66.5 -119t-39 -135.5t-12 -134z" />
<glyph unicode="1" horiz-adv-x="1011" d="M7 1285l543 319h273v-1604h-331v1208l-338 -193z" />
<glyph unicode="2" horiz-adv-x="1390" d="M97 0v97q0 375 393 610l203 121q57 34 89.5 56.5t70.5 57t55.5 74.5t17.5 87q0 89 -66 151t-172 62q-45 0 -87.5 -16t-80 -48.5t-58.5 -91.5t-17 -136l-336 46q1 115 34.5 209.5t89 158.5t130.5 107.5t158.5 63t173.5 19.5q132 0 241.5 -41.5t181 -112t111 -164.5 t39.5 -199q0 -87 -25 -162.5t-72 -136t-102 -107.5t-127 -90l-251 -153q-144 -87 -163 -158h749v-304h-1180z" />
<glyph unicode="3" horiz-adv-x="1403" d="M83 496l334 53q8 -88 53.5 -151t102 -90t115.5 -27q114 0 192.5 67.5t78.5 172.5q0 90 -77 156t-187 66q-85 0 -147 -34l-154 226l428 369h-692v300h1121v-290l-396 -328q204 -20 324 -154t120 -318q0 -149 -83.5 -273.5t-223 -194.5t-300.5 -70q-104 0 -207 34.5 t-190 97.5t-145 164t-67 224z" />
<glyph unicode="4" horiz-adv-x="1493" d="M63 318v361l719 925h395v-987h228v-298h-228v-318l-322 -1v318h-792zM384 616h471v604z" />
<glyph unicode="5" horiz-adv-x="1368" d="M79 459l320 64q17 -108 91 -173t186 -65q109 0 188 67.5t79 178.5q0 116 -76 181t-193 65q-63 0 -129.5 -32t-102.5 -81l-313 130l170 810h906v-301h-659l-69 -343q51 42 126.5 67.5t144.5 25.5q232 0 379 -142t147 -375q0 -169 -82 -297t-217.5 -193.5t-302.5 -65.5 q-88 0 -170 19.5t-153.5 59.5t-127.5 96.5t-93.5 134.5t-48.5 169z" />
<glyph unicode="6" horiz-adv-x="1423" d="M103 729q0 197 52 362t148.5 284t241 185.5t322.5 66.5q216 0 407 -86l-118 -295q-60 33 -146.5 55t-146.5 22q-92 0 -169 -37t-127.5 -97.5t-80 -136t-34.5 -155.5q69 82 161.5 122.5t193.5 40.5q150 0 270.5 -71t186.5 -190.5t66 -262.5q0 -129 -51.5 -236.5 t-136.5 -176t-191.5 -106t-219.5 -37.5q-165 0 -291 63t-202 161q-135 174 -135 525zM453 535q0 -109 82 -182.5t193 -73.5q112 0 189.5 73t77.5 180q0 111 -75.5 180t-194.5 69q-110 0 -191 -68t-81 -178z" />
<glyph unicode="7" horiz-adv-x="1295" d="M64 1303v301h1175v-286l-708 -1318h-374l701 1303h-794z" />
<glyph unicode="8" horiz-adv-x="1404" d="M103 443q0 128 80 229t204 152v3q-114 45 -183 136.5t-69 210.5q0 86 33.5 161t90 128t129.5 91t153 56t161 18q99 0 198 -30.5t182 -86t134.5 -144t51.5 -193.5q0 -119 -68.5 -210.5t-183.5 -136.5v-3q125 -52 205 -152.5t80 -228.5q0 -92 -36 -170t-95.5 -131 t-138 -90.5t-162.5 -54.5t-169 -17q-84 0 -167.5 17.5t-161.5 55t-137.5 90.5t-95 131t-35.5 169zM436 476q0 -100 79.5 -158.5t182.5 -58.5q66 0 126.5 24t101.5 75t41 118q0 100 -80.5 158.5t-184.5 58.5t-185 -58.5t-81 -158.5zM466 1152q0 -90 71 -145.5t164 -55.5 t164 55.5t71 145.5q0 89 -71 143t-164 54t-164 -53.5t-71 -143.5z" />
<glyph unicode="9" horiz-adv-x="1423" d="M92 1069q0 129 52 237t137 176.5t192 106.5t220 38q161 0 287.5 -65t202.5 -164q46 -61 77.5 -148.5t42.5 -172.5t14.5 -130t3.5 -76q0 -199 -48.5 -362.5t-141 -281.5t-233.5 -182.5t-319 -64.5q-147 0 -243 21t-177 65l115 296q99 -48 163.5 -61.5t135.5 -13.5 q95 0 171 35.5t124.5 95.5t75.5 133.5t32 155.5q-69 -82 -165 -123t-197 -41q-149 0 -269.5 71.5t-186.5 191.5t-66 263zM427 1073q0 -112 74 -183.5t192 -71.5q110 0 193.5 71t83.5 181q0 109 -81.5 184t-192.5 75t-190 -74.5t-79 -181.5z" />
<glyph unicode=":" horiz-adv-x="688" d="M122 196q0 92 65 157.5t157 65.5q93 0 157.5 -65t64.5 -158q0 -90 -65 -155t-157 -65q-91 0 -156.5 65t-65.5 155zM122 896q0 92 65.5 158t156.5 66q93 0 157.5 -65.5t64.5 -158.5q0 -90 -65 -155t-157 -65q-91 0 -156.5 65t-65.5 155z" />
<glyph unicode=";" horiz-adv-x="698" d="M126 181q0 84 63.5 137t150.5 53q107 0 168 -74.5t61 -188.5q0 -200 -110 -333t-300 -163v152q179 59 215 228q-32 -8 -62 -8q-81 0 -133.5 56t-52.5 141zM126 895q0 93 64.5 158.5t156.5 65.5q93 0 157.5 -65.5t64.5 -158.5q0 -90 -64.5 -154.5t-157.5 -64.5 q-91 0 -156 64.5t-65 154.5z" />
<glyph unicode="&#x3c;" horiz-adv-x="1298" d="M76 621v252l1070 489v-304l-708 -306v-5l708 -307v-310z" />
<glyph unicode="=" horiz-adv-x="1297" d="M139 317v299h1019v-299h-1019zM139 881v297h1019v-297h-1019z" />
<glyph unicode="&#x3e;" horiz-adv-x="1298" d="M152 130v308l708 306v5l-708 307v306l1070 -489v-252z" />
<glyph unicode="?" horiz-adv-x="1205" d="M72 1158q0 143 76 252t196 164t261 55q97 0 189 -29.5t166 -83.5t119 -139t45 -186q0 -228 -223 -392q-80 -59 -130 -119t-59 -138h-304q-4 40 -4 61q0 60 21.5 112t55.5 90.5t75 74t82 68t75 65.5t55.5 74.5t21.5 87.5q0 77 -54.5 117.5t-133.5 40.5q-96 0 -154 -65 t-58 -162q0 -37 8 -75l-318 26q-8 53 -8 101zM371 175q0 -82 58 -140t138 -58q84 0 142.5 58t58.5 140t-58.5 140.5t-142.5 58.5q-80 0 -138 -58.5t-58 -140.5z" />
<glyph unicode="@" horiz-adv-x="1774" d="M100 640q0 171 67.5 326t180.5 266.5t267.5 177t322.5 65.5q213 0 387 -89.5t274.5 -250t100.5 -359.5q0 -118 -35 -219.5t-94 -169.5t-136.5 -106.5t-161.5 -38.5q-73 0 -138 33t-92 86q-40 -54 -110 -88t-132 -34q-93 0 -171 53t-119.5 132.5t-41.5 163.5 q0 124 53.5 231.5t150 173t214.5 65.5q56 0 111.5 -30t78.5 -83l19 104h237l-86 -511q-3 -25 -2 -50t17.5 -43.5t47.5 -18.5q84 0 159.5 101.5t75.5 248.5q0 115 -44 216.5t-122 175.5t-191.5 117t-246.5 43q-184 0 -342 -92.5t-251 -251t-93 -343.5q0 -134 45.5 -253 t129.5 -209.5t212.5 -143.5t284.5 -53q104 0 220.5 37.5t207.5 104.5l80 -123q-83 -74 -230.5 -122t-277.5 -48q-180 0 -335.5 63t-262.5 171.5t-168 257.5t-61 317zM715 613q2 -58 39.5 -103t97.5 -45q78 0 135 69t57 157q0 63 -37.5 102.5t-98.5 39.5q-81 0 -138 -67.5 t-55 -152.5z" />
<glyph unicode="A" d="M-2 0l613 1604h399l615 -1604h-343l-128 344h-690l-127 -344h-339zM574 651h467l-234 631z" />
<glyph unicode="B" horiz-adv-x="1523" d="M187 0v1604h665q99 0 189 -26.5t163 -77t116.5 -133.5t43.5 -187q0 -226 -225 -343v-3q149 -57 221.5 -147.5t72.5 -243.5q0 -95 -32.5 -171t-87 -126t-128.5 -83.5t-154.5 -48t-168.5 -14.5h-675zM510 308h348q49 0 90 8t79 26.5t60 55t22 88.5q0 179 -262 179h-337 v-357zM510 953h274q49 0 90.5 7.5t80.5 25.5t61.5 54.5t22.5 87.5q0 48 -20 82.5t-55 53t-74 26.5t-84 8h-296v-345z" />
<glyph unicode="C" horiz-adv-x="1729" d="M89 800q0 176 68 331.5t181.5 263.5t266 170.5t317.5 62.5q130 0 244.5 -33.5t196.5 -86.5t146.5 -122.5t102 -138.5t55.5 -138l-315 -109q-8 33 -27.5 71t-56.5 80.5t-84.5 76t-117 55.5t-148.5 22q-137 0 -249.5 -68t-174.5 -182.5t-62 -250.5q0 -138 61 -253t173 -184 t252 -69q78 0 147.5 22t117.5 56t86 78t59.5 85t31.5 79l317 -109q-15 -63 -51 -131t-101.5 -140.5t-149 -129.5t-204.5 -94t-257 -37q-164 0 -314 60t-263 165.5t-180.5 261.5t-67.5 336z" />
<glyph unicode="D" horiz-adv-x="1675" d="M187 0v1604h491q421 0 663 -212t242 -587q0 -178 -63 -327t-179.5 -254.5t-288 -164.5t-381.5 -59h-484zM518 314h163q255 0 408.5 129t153.5 362q0 116 -42.5 209t-118 153t-176.5 92t-220 32h-168v-977z" />
<glyph unicode="E" horiz-adv-x="1358" d="M187 0v1604h1049v-311h-721v-327h646v-311h-646v-345h727v-310h-1055z" />
<glyph unicode="F" horiz-adv-x="1330" d="M187 0v1604h1057v-316h-726v-340h650v-316h-650v-632h-331z" />
<glyph unicode="G" horiz-adv-x="1756" d="M89 801q0 228 113 419t304.5 300t416.5 109q145 0 271 -40.5t215 -109.5t149 -155.5t86 -184.5l-323 -98q-28 110 -137.5 190.5t-264.5 80.5q-134 0 -247 -66t-180 -183.5t-67 -259.5q0 -139 62 -255.5t176.5 -186.5t256.5 -70q160 0 272 75t142 196h-489v301h835v-125 q0 -146 -41.5 -271t-113.5 -214t-169 -152.5t-208 -94t-229 -30.5q-182 0 -338 65t-263.5 176.5t-168 262.5t-60.5 321z" />
<glyph unicode="H" horiz-adv-x="1708" d="M187 0v1604h331v-634h672v634h331v-1604h-331v649h-672v-649h-331z" />
<glyph unicode="I" horiz-adv-x="706" d="M187 0v1604h332v-1604h-332z" />
<glyph unicode="J" horiz-adv-x="1312" d="M63 501v181h323v-165q0 -59 18.5 -103.5t49.5 -69t67 -36.5t75 -12q91 0 151 55t60 155v1098h331v-1102q0 -242 -146 -382.5t-383 -140.5q-154 0 -278.5 65.5t-196 185t-71.5 271.5z" />
<glyph unicode="K" horiz-adv-x="1508" d="M187 0v1604h330v-698l549 698h415l-612 -767l652 -837h-427l-577 761v-761h-330z" />
<glyph unicode="L" horiz-adv-x="1236" d="M187 0v1604h330v-1288h686v-316h-1016z" />
<glyph unicode="M" horiz-adv-x="2159" d="M187 0v1604h448l442 -1067l435 1067h460v-1604h-327v1094h-3l-455 -1094h-221l-451 1086h-3v-1086h-325z" />
<glyph unicode="N" horiz-adv-x="1777" d="M187 0v1604h386l689 -1085v1085h328v-1604h-376l-699 1103v-1103h-328z" />
<glyph unicode="O" horiz-adv-x="1842" d="M88 800q0 170 66.5 324t178.5 264.5t267 175.5t325 65t323.5 -64t264.5 -173t176 -261.5t65 -322.5q0 -171 -66.5 -325.5t-178.5 -265.5t-266.5 -176t-324.5 -65q-137 0 -263.5 41t-228.5 116.5t-178.5 176t-118 227t-41.5 263.5zM428 803q0 -137 65 -253t179 -184.5 t250 -68.5q135 0 249 68.5t179 185t65 252.5q0 137 -65 252.5t-178.5 183t-249.5 67.5t-250 -67.5t-179 -183t-65 -252.5z" />
<glyph unicode="P" horiz-adv-x="1417" d="M187 0v1604h595q122 0 226 -33t182 -96.5t122 -162.5t44 -223q0 -129 -44 -230t-123.5 -164.5t-185.5 -96t-233 -32.5h-251v-566h-332zM519 874h236q51 0 97 12t84.5 35.5t61.5 65t23 95.5q0 74 -39.5 122.5t-97.5 67.5t-131 19h-234v-417z" />
<glyph unicode="Q" horiz-adv-x="1843" d="M88 800q0 170 66.5 324t178.5 264.5t267 175.5t325 65q228 0 418 -108.5t300 -297t110 -415.5q0 -266 -152 -478l157 -136l-203 -235l-174 157q-210 -139 -464 -139q-171 0 -324 64t-264 173.5t-176 262t-65 323.5zM427 803q0 -136 66 -253.5t180 -186.5t248 -69 q108 0 207 47l-253 221l203 238l273 -248q65 115 65 251t-66 252.5t-180 184.5t-249 68q-204 0 -349 -148.5t-145 -356.5z" />
<glyph unicode="R" horiz-adv-x="1497" d="M187 0v1604h633q118 0 220 -32t179.5 -94t122 -160t44.5 -222q0 -172 -80.5 -287t-219.5 -172l340 -637h-362l-304 576h-241v-576h-332zM518 883h276q105 0 180.5 51t75.5 155q0 56 -22 96.5t-60 62.5t-81.5 32t-94.5 10h-274v-407z" />
<glyph unicode="S" horiz-adv-x="1397" d="M73 473l310 73q19 -128 113.5 -200t230.5 -72q111 0 176 52t65 129q0 60 -49 106t-133 62l-227 45q-197 39 -312 160t-115 301q0 105 45.5 198.5t122 159t181 104t218.5 38.5q133 0 241.5 -37t177 -99.5t109 -136.5t51.5 -154l-301 -89q-21 99 -91.5 158.5t-189.5 59.5 q-100 0 -167 -53t-67 -124q0 -61 41 -105.5t125 -60.5l223 -41q217 -40 335.5 -168.5t118.5 -303.5q0 -94 -39.5 -182.5t-112 -159.5t-186.5 -114t-251 -43q-280 0 -441.5 131.5t-201.5 365.5z" />
<glyph unicode="T" horiz-adv-x="1379" d="M43 1283v321h1293v-321h-481v-1283h-331v1283h-481z" />
<glyph unicode="U" horiz-adv-x="1629" d="M171 635v968h332l-1 -960q0 -170 87 -258.5t225 -88.5q150 0 233 92t83 247v968h329l-1 -956q0 -314 -164 -491.5t-482 -177.5q-163 0 -287 47.5t-201 135.5t-115 207t-38 267z" />
<glyph unicode="V" horiz-adv-x="1605" d="M31 1604h359l415 -1218l417 1218h353l-581 -1604h-384z" />
<glyph unicode="W" horiz-adv-x="2439" d="M39 1604h354l306 -1140l345 1140h354l347 -1148l316 1148h341l-474 -1604h-359l-349 1163h-3l-351 -1163h-357z" />
<glyph unicode="X" horiz-adv-x="1547" d="M-3 0l578 825l-544 779h388l356 -521l357 521h387l-549 -776l578 -828h-387l-390 577l-399 -577h-375z" />
<glyph unicode="Y" horiz-adv-x="1563" d="M28 1604h384l370 -642l375 642h379l-587 -955v-649h-332v634z" />
<glyph unicode="Z" horiz-adv-x="1402" d="M84 0v292l798 1005h-765v307h1177v-286l-796 -1010h813l1 -308h-1228z" />
<glyph unicode="[" horiz-adv-x="918" d="M183 -258v2033h662v-249h-388v-1535h388v-249h-662z" />
<glyph unicode="\" horiz-adv-x="1151" d="M59 1669h297l732 -1679h-296z" />
<glyph unicode="]" horiz-adv-x="918" d="M73 -9h389v1535h-389v249h662v-2033h-662v249z" />
<glyph unicode="^" horiz-adv-x="1335" d="M82 923l465 681h244l462 -681h-324l-262 425l-260 -425h-325z" />
<glyph unicode="_" horiz-adv-x="1133" d="M0 -132h1133v-259h-1133v259z" />
<glyph unicode="`" horiz-adv-x="635" d="M21 1659h367l219 -384h-262z" />
<glyph unicode="a" horiz-adv-x="1210" d="M85 305v9q0 75 30 134.5t78 96.5t113 61t129 33.5t132 9.5h107q43 0 64.5 20t21.5 55q0 57 -45 96.5t-128 39.5q-73 0 -125.5 -40t-70.5 -109l-280 63q18 112 93 192t177.5 116.5t220.5 36.5q138 0 243 -48t167 -149t62 -244v-502q0 -101 9 -176h-298q-7 42 -7 136l-3 1 q-112 -158 -326 -158q-149 0 -256.5 90t-107.5 236zM408 323q0 -55 38.5 -83t94.5 -28q100 0 158.5 62t58.5 149v25h-191q-58 0 -108.5 -33t-50.5 -92z" />
<glyph unicode="b" horiz-adv-x="1404" d="M148 0v1668h319v-705h4q38 49 87 82t97.5 46.5t82 18.5t65.5 5q117 0 216.5 -49.5t165 -130t102 -181.5t36.5 -206q0 -106 -38.5 -208t-106 -182.5t-168 -129.5t-216.5 -49q-34 0 -69 5t-83 19t-95 47t-84 81h-4v-131h-311zM459 548q0 -122 78 -200.5t192 -78.5t192 78 t78 201q0 122 -78.5 200t-192.5 78t-191.5 -78t-77.5 -200z" />
<glyph unicode="c" horiz-adv-x="1279" d="M81 545q0 159 78.5 291t215.5 207.5t302 75.5q88 0 172.5 -24t158 -69t127.5 -117.5t74 -162.5l-291 -88q-21 68 -85.5 117.5t-160.5 49.5q-111 0 -186.5 -75t-75.5 -201q0 -122 73 -200t190 -78q98 0 162 49t90 120l291 -88q-33 -121 -119.5 -208t-196 -127.5 t-230.5 -40.5q-169 0 -304 74t-210 204t-75 291z" />
<glyph unicode="d" horiz-adv-x="1404" d="M81 548q0 83 24 165t71 154t109.5 128t146 88t175.5 32q31 0 63.5 -4.5t79.5 -18t95.5 -45.5t87.5 -79h4v700h319v-1668h-310v139h-4q-109 -160 -340 -160q-115 0 -214.5 47.5t-165.5 126.5t-103.5 181.5t-37.5 213.5zM405 548q0 -122 78 -200.5t192 -78.5 q115 0 193 78.5t78 200.5t-78 200t-192 78t-192.5 -78t-78.5 -200z" />
<glyph unicode="e" horiz-adv-x="1284" d="M80 548q0 155 79 287.5t212 208.5t288 76q244 0 395 -152t151 -395q0 -77 -5 -115h-794q15 -99 90.5 -157t178.5 -58q73 0 139.5 40.5t92.5 105.5l263 -90q-53 -153 -188 -238t-302 -85q-165 0 -301.5 71.5t-217.5 203t-81 297.5zM414 670h470q-2 32 -16.5 63.5t-41 61 t-72.5 48t-103 18.5q-97 0 -162 -63t-75 -128z" />
<glyph unicode="f" horiz-adv-x="903" d="M54 822v271h210v109q0 70 13 135t45 127.5t80 108t122.5 73.5t167.5 28q109 0 183 -24v-261q-37 11 -98 11q-195 0 -195 -181v-126h283v-271h-282v-822h-319v822h-210z" />
<glyph unicode="g" horiz-adv-x="1396" d="M82 552q0 105 37 204.5t102.5 178.5t164 127t213.5 48q32 0 66 -5t81 -19t95.5 -46t87.5 -79h4v132h315v-1037q0 -147 -45 -263t-125.5 -189.5t-189.5 -112t-240 -38.5q-117 0 -217.5 33t-170 89t-114.5 125.5t-59 146.5l295 85q16 -84 81.5 -142.5t171.5 -58.5 q59 0 111 17t93.5 51t65.5 90.5t24 130.5v125h-4q-112 -146 -315 -146q-154 0 -275.5 74t-187 200t-65.5 279zM406 552q0 -121 76 -197.5t189 -76.5t190 77t77 198q0 119 -76.5 196t-189.5 77q-112 0 -189 -77.5t-77 -196.5z" />
<glyph unicode="h" horiz-adv-x="1309" d="M148 0v1668h318v-703h2q33 46 77.5 78t88.5 46.5t77 20t60 5.5q100 0 178.5 -36t126 -97.5t72 -138t24.5 -163.5v-680h-319v607q0 94 -47.5 153.5t-141.5 59.5q-97 0 -147.5 -61.5t-50.5 -148.5v-610h-318z" />
<glyph unicode="i" horiz-adv-x="616" d="M109 1475q0 82 58 140.5t138 58.5q84 0 142.5 -58t58.5 -141q0 -82 -58.5 -140t-142.5 -58q-80 0 -138 58t-58 140zM148 0h320v1093h-320v-1093z" />
<glyph unicode="j" horiz-adv-x="632" d="M-91 -250v-264q66 -26 194 -26q176 0 278.5 109t102.5 286v1238h-320v-1207q0 -72 -40 -110t-110 -38q-53 0 -105 12zM125 1475q0 82 58 140.5t138 58.5q84 0 142.5 -58t58.5 -141q0 -82 -58.5 -140t-142.5 -58q-80 0 -138 58t-58 140z" />
<glyph unicode="k" horiz-adv-x="1268" d="M148 0v1670h319v-1006l379 429h407l-439 -503l452 -590h-404l-387 518h-8v-518h-319z" />
<glyph unicode="l" horiz-adv-x="616" d="M148 0v1669h320v-1669h-320z" />
<glyph unicode="m" horiz-adv-x="1988" d="M148 0v1093h313v-143h3q46 80 134.5 124t185.5 44q103 0 188.5 -44t130.5 -130q80 90 164.5 132t199.5 42q98 0 172.5 -32.5t120.5 -92t68.5 -137.5t22.5 -173v-683h-319v611q0 96 -42.5 152t-135.5 56q-95 0 -145.5 -56.5t-50.5 -151.5v-611h-318v607q0 96 -42.5 154 t-135.5 58q-96 0 -146 -57.5t-50 -154.5v-607h-318z" />
<glyph unicode="n" horiz-adv-x="1309" d="M148 0v1093h316v-142h3q29 51 76 87t96 51t81.5 20.5t55.5 5.5q101 0 178.5 -36t124 -97.5t70 -138t23.5 -163.5v-680h-319v607q0 96 -47.5 154t-142.5 58q-96 0 -146.5 -61t-50.5 -151v-607h-318z" />
<glyph unicode="o" horiz-adv-x="1354" d="M80 544q0 160 80.5 292.5t218 207.5t300.5 75t299.5 -73.5t216 -204.5t79.5 -291q0 -161 -80.5 -293.5t-218 -206.5t-300.5 -74q-164 0 -300 73t-215.5 203.5t-79.5 291.5zM407 548q0 -122 78 -200.5t192 -78.5t192 78t78 201q0 122 -78.5 200.5t-192.5 78.5 t-191.5 -78.5t-77.5 -200.5z" />
<glyph unicode="p" horiz-adv-x="1404" d="M148 -540v1633h316v-135h4q118 157 335 157q117 0 216.5 -49.5t165 -130t102 -181.5t36.5 -206q0 -106 -38.5 -208t-106 -182.5t-168 -129.5t-216.5 -49q-207 0 -323 142h-4v-661h-319zM459 548q0 -122 78 -200.5t192 -78.5t192 78t78 201q0 122 -78.5 200t-192.5 78 t-191.5 -78t-77.5 -200z" />
<glyph unicode="q" horiz-adv-x="1404" d="M81 548q0 83 24 165t71 154t109.5 128t146 88t175.5 32q31 0 64.5 -4.5t81.5 -18t96.5 -45.5t87.5 -79h4v125h315v-1633h-318v664h-4q-106 -145 -332 -145q-115 0 -214.5 47.5t-165.5 126.5t-103.5 181.5t-37.5 213.5zM405 548q0 -122 78 -200.5t192 -78.5 q115 0 193 78.5t78 200.5t-78 200t-192 78t-192.5 -78t-78.5 -200z" />
<glyph unicode="r" horiz-adv-x="867" d="M148 0v1093h303v-159h3q43 89 117.5 130t165.5 41q44 0 86 -11v-313q-42 8 -102 8q-118 0 -189 -80.5t-71 -229.5v-479h-313z" />
<glyph unicode="s" horiz-adv-x="1060" d="M77 312l281 60q6 -60 54 -104.5t123 -44.5q62 0 95 29.5t33 64.5q0 70 -107 94l-137 31q-157 35 -236.5 117.5t-79.5 201.5q0 149 120 254t298 105q84 0 156 -21t120.5 -54t84.5 -75.5t54 -83.5t23 -80l-278 -60q-11 59 -51.5 94t-106.5 35q-53 0 -87 -27t-34 -65 q0 -63 86 -80l152 -31q161 -32 247 -121t86 -213q0 -69 -27.5 -133t-80 -115.5t-137 -82.5t-189.5 -31q-93 0 -171.5 23.5t-129 60t-87.5 82.5t-54 88.5t-20 81.5z" />
<glyph unicode="t" horiz-adv-x="937" d="M44 817v276h217v343h314v-343h270v-276h-270v-415q0 -66 38 -103t117 -37q36 0 112 8v-260q-79 -25 -190 -25q-396 0 -396 401v431h-212z" />
<glyph unicode="u" horiz-adv-x="1309" d="M137 407v686h319v-609q0 -96 47 -153t143 -57t146 59.5t50 150.5v609h319v-1093h-315v136h-3q-108 -158 -305 -158q-99 0 -177 35t-126 95.5t-73 136.5t-25 162z" />
<glyph unicode="v" horiz-adv-x="1272" d="M29 1093h338l269 -729l271 729h339l-449 -1093h-325z" />
<glyph unicode="w" horiz-adv-x="1829" d="M37 1093h327l198 -678h1l204 678h295l205 -684h1l206 684h320l-343 -1093h-315l-222 698h-2l-226 -698h-310z" />
<glyph unicode="x" horiz-adv-x="1177" d="M23 0l392 550l-381 543h360l196 -308l203 308h351l-385 -535l396 -558h-358l-210 322l-210 -322h-354z" />
<glyph unicode="y" horiz-adv-x="1251" d="M27 1093h351l274 -625l244 625h329l-664 -1632h-341l267 655z" />
<glyph unicode="z" horiz-adv-x="1107" d="M88 0v248l511 573h-495v272h906v-243l-517 -577h520v-273h-925z" />
<glyph unicode="{" horiz-adv-x="926" d="M41 633v251h32q114 0 169 42.5t39 154.5l-32 218q-11 93 -7 164t30.5 124t64 89t95 58t122 31.5t145.5 9.5h152v-249h-120q-111 0 -158.5 -30.5t-50 -98t14.5 -174.5l27 -181q3 -32 3 -65.5t-14.5 -67.5t-38 -63t-68.5 -52t-106 -34v-2q61 -11 106 -34.5t68.5 -52.5 t38 -63.5t14 -68t-2.5 -64.5l-27 -181q-17 -108 -14 -175t50 -97.5t158 -30.5h120v-249h-152q-69 0 -125.5 6.5t-109 22t-90 40t-69 61.5t-45.5 86.5t-19.5 114t8.5 144.5l32 219q16 112 -39 154.5t-169 42.5h-32z" />
<glyph unicode="|" horiz-adv-x="641" d="M183 -238v2063h275v-2063h-275z" />
<glyph unicode="}" horiz-adv-x="926" d="M75 -9h121q111 0 158 30.5t50 97.5t-14 175l-27 181q-2 31 -2.5 64.5t14 68t38 63.5t68.5 52.5t105 34.5v2q-51 9 -90.5 27t-64 40t-41.5 49t-22.5 55t-8 56.5t3.5 54.5l27 181q17 107 14.5 174.5t-50 98t-158.5 30.5h-121v249h153q81 0 145.5 -9.5t121.5 -31.5t94.5 -58 t64 -89t30.5 -124t-7 -164l-31 -218q-16 -112 38.5 -154.5t168.5 -42.5h32v-251h-32q-114 0 -168.5 -42.5t-38.5 -154.5l31 -219q14 -80 8 -144.5t-20 -114t-45 -86.5t-68.5 -61.5t-90 -40t-108.5 -22t-125 -6.5h-153v249z" />
<glyph unicode="~" horiz-adv-x="1311" d="M107 620q132 225 333 225q65 0 134 -26t116 -57.5t98 -57.5t84 -26q46 0 82 29.5t73 78.5l178 -167q-132 -227 -334 -227q-58 0 -123 26t-112.5 58t-102 58t-93.5 26q-46 0 -82 -29t-73 -79z" />
<glyph unicode="&#xa1;" horiz-adv-x="662" d="M129 921q0 82 58.5 140t142.5 58q80 0 138 -58t58 -140t-58 -140.5t-138 -58.5q-84 0 -142.5 58t-58.5 141zM156 -186v-322h352v324l-31 724h-290z" />
<glyph unicode="&#xa2;" horiz-adv-x="1303" d="M91 545q0 216 140 373t357 190v196h167v-192q80 -8 153.5 -35t137 -71t109 -110.5t64.5 -148.5l-289 -88q-17 55 -63 99t-116 60v-541q134 27 185 162l290 -88q-30 -108 -103 -189t-166.5 -124t-201.5 -55v-192h-167v194q-222 29 -359.5 183.5t-137.5 376.5zM419 549 q0 -97 46 -168t127 -97v528q-79 -26 -126 -94.5t-47 -168.5z" />
<glyph unicode="&#xa3;" horiz-adv-x="1451" d="M123 0v289q48 22 89 49.5t79 64.5t60 84t22 98q0 38 -8 80h-239v261h149q-42 116 -42 208q0 141 74.5 253t194 170.5t258.5 58.5q223 0 364 -123t160 -344l-328 -53q-8 45 -21 79.5t-35 65t-56.5 47t-80.5 16.5q-80 0 -132.5 -48t-52.5 -127q0 -77 52 -203h415v-261h-329 q2 -24 2 -35q0 -86 -36 -171t-100 -140h305q35 0 61.5 12.5t42.5 29.5t29 47t18.5 53t13.5 60l324 -29q-12 -109 -44 -196t-88 -155t-142.5 -104.5t-198.5 -36.5h-780z" />
<glyph unicode="&#xa4;" horiz-adv-x="1385" d="M91 147l173 172q-62 108 -62 235q0 123 60 236l-171 175l195 194l178 -180q111 56 229 56q126 0 228 -56l177 178l195 -193l-171 -174q63 -107 63 -236q0 -121 -62 -237l172 -172l-195 -196l-177 181q-111 -56 -230 -56q-118 0 -229 56l-178 -179zM486 553 q0 -89 58 -145.5t147 -56.5t147.5 56.5t58.5 145.5t-58.5 146t-147.5 57t-147 -57t-58 -146z" />
<glyph unicode="&#xa5;" horiz-adv-x="1591" d="M71 1604h384l340 -632l345 632h379l-455 -756h367v-211h-469v-121h469v-211h-469v-305h-332v305h-469v211h469v121h-469v211h360z" />
<glyph unicode="&#xa6;" horiz-adv-x="637" d="M181 -238v800h275v-800h-275zM181 1026v799h275v-799h-275z" />
<glyph unicode="&#xa7;" horiz-adv-x="1363" d="M93 787q0 197 205 274q-48 38 -73.5 94.5t-25.5 116.5q0 162 131 260t348 98q210 0 350.5 -82.5t193.5 -221.5l-237 -111q-31 73 -109 118.5t-198 45.5q-69 0 -112 -27.5t-43 -64.5q0 -36 31 -62t126 -49l206 -49q184 -44 286 -122t102 -190q0 -194 -204 -271 q45 -35 71.5 -92t26.5 -117q0 -162 -127.5 -261t-345.5 -99q-237 0 -386.5 92.5t-187.5 235.5l241 104q10 -24 24 -46t41 -47.5t61.5 -44t87 -31t114.5 -12.5q72 0 113 27t41 67q0 37 -40 62.5t-155 53.5l-170 41q-182 43 -284 122t-102 188zM389 840q0 -79 218 -132 q10 -3 14 -4q9 -2 36.5 -9t40 -10t37 -8t40.5 -7.5t37 -4.5t39 -2q51 0 88.5 27t37.5 77q0 78 -218 131q-10 3 -14 4q-7 2 -36 9t-40 10t-36.5 8t-41 7.5t-36.5 4.5t-39 2q-52 0 -89.5 -26t-37.5 -77z" />
<glyph unicode="&#xa8;" horiz-adv-x="902" d="M26 1441q0 73 50.5 125.5t125.5 52.5q74 0 126 -52.5t52 -125.5q0 -74 -52 -125.5t-126 -51.5t-125 51.5t-51 125.5zM514 1441q0 73 50.5 125.5t125.5 52.5q74 0 126 -52.5t52 -125.5q0 -74 -52 -125.5t-126 -51.5t-125 51.5t-51 125.5z" />
<glyph unicode="&#xa9;" horiz-adv-x="1831" d="M93 802q0 167 66 320.5t177 264t263 176t317 65.5q166 0 317.5 -64.5t262 -174t176.5 -262t66 -319.5t-67 -320.5t-179 -264.5t-265 -177t-318 -66t-316 65t-260.5 175t-174.5 262t-65 320zM237 804q0 -139 54.5 -267t145.5 -220.5t216 -147.5t261 -55t261.5 55 t217 147.5t146.5 220.5t55 267q0 140 -55 268t-146.5 220t-217 147t-261.5 55q-181 0 -337 -92.5t-248 -252t-92 -345.5zM401 801q0 214 152.5 361t374.5 147q106 0 202 -35.5t171 -112t98 -182.5l-257 -78q-18 61 -75.5 104.5t-141.5 43.5q-98 0 -165 -66.5t-67 -178.5 q0 -107 64.5 -176t167.5 -69q87 0 143.5 43.5t79.5 106.5l258 -79q-29 -107 -105.5 -184t-173.5 -112.5t-204 -35.5q-228 0 -375 143t-147 360z" />
<glyph unicode="&#xaa;" horiz-adv-x="1128" d="M140 1175q0 98 45 188t130.5 149t191.5 59q145 0 229 -103h3v87h221v-762h-221v88h-3q-74 -103 -233 -103q-106 0 -190.5 57t-128.5 147t-44 193zM150 408h810v199h-810v-199zM366 1175q0 -85 54.5 -139.5t133.5 -54.5q80 0 134.5 54.5t54.5 139.5t-54.5 139.5 t-133.5 54.5t-134 -54.5t-55 -139.5z" />
<glyph unicode="&#xab;" horiz-adv-x="1380" d="M58 617l478 472l173 -170l-306 -301l307 -303l-175 -169zM623 617l478 472l173 -170l-307 -301l307 -303l-175 -169z" />
<glyph unicode="&#xac;" horiz-adv-x="1471" d="M100 854v291h1226v-664h-311v373h-915z" />
<glyph unicode="&#xad;" horiz-adv-x="939" d="M132 507v316h675v-316h-675z" />
<glyph unicode="&#xae;" horiz-adv-x="1336" d="M106 1056q0 153 75 282.5t204 205t282 75.5t282.5 -75.5t205 -205t75.5 -282.5t-75.5 -282t-205 -204.5t-282.5 -75.5t-282 75.5t-204 204.5t-75 282zM212 1056q0 -191 133.5 -325.5t321.5 -134.5q124 0 229 61.5t166.5 167.5t61.5 231q0 126 -61.5 232t-166.5 167.5 t-229 61.5t-228.5 -61.5t-165.5 -167.5t-61 -232zM451 735v644h254q99 0 163.5 -53t64.5 -151q0 -135 -121 -184l133 -256h-146l-118 231h-97v-231h-133zM584 1092h112q42 0 72 19.5t30 60.5q0 43 -29.5 61.5t-73.5 18.5h-111v-160z" />
<glyph unicode="&#xb0;" horiz-adv-x="944" d="M85 1232q0 158 113.5 272t272.5 114q161 0 274.5 -114t113.5 -272q0 -162 -113 -275t-275 -113q-159 0 -272.5 113.5t-113.5 274.5zM308 1232q0 -69 47 -117t116 -48t116.5 48t47.5 117q0 65 -49.5 114t-114.5 49q-70 0 -116.5 -47t-46.5 -116z" />
<glyph unicode="&#xb1;" horiz-adv-x="1349" d="M131 771v294h405v339h289v-339h394v-294h-394v-343h-289v343h-405zM141 0v284h1068v-284h-1068z" />
<glyph unicode="&#xb2;" horiz-adv-x="960" d="M116 872v73q0 62 19.5 120.5t75.5 124t144 115.5l127 72q103 58 103 135q0 39 -29 66.5t-83 27.5t-85.5 -36.5t-31.5 -103.5l-235 36q6 139 103.5 230.5t252.5 91.5q157 0 255.5 -89.5t98.5 -219.5q0 -90 -50.5 -168t-139.5 -129l-152 -88q-32 -19 -61 -44h408v-214h-720 z" />
<glyph unicode="&#xb3;" horiz-adv-x="939" d="M98 1164l233 37q1 -61 36.5 -98t94.5 -37q52 0 90.5 27t38.5 77q0 46 -38.5 70.5t-87.5 24.5q-37 0 -71 -15l-104 164l229 177h-408v210h714v-192l-213 -165q96 -26 159.5 -104t63.5 -173q0 -142 -109 -228t-260 -86q-155 0 -258 83.5t-110 227.5z" />
<glyph unicode="&#xb4;" horiz-adv-x="624" d="M18 1275l219 384h367l-324 -384h-262z" />
<glyph unicode="&#xb5;" horiz-adv-x="1364" d="M170 -336v1429h319v-609q0 -96 47 -153t143 -57t146 59.5t50 150.5v609h319v-1093h-315v136h-3q-104 -153 -275 -153q-23 0 -63 10.5t-58 23.5v-353h-310z" />
<glyph unicode="&#xb6;" horiz-adv-x="1156" d="M69 1172q0 118 61.5 217.5t167 157t230.5 57.5h425v-1604h-318v738h-107q-190 0 -324.5 127.5t-134.5 306.5z" />
<glyph unicode="&#xb7;" horiz-adv-x="661" d="M108 644q0 92 65.5 158t156.5 66q93 0 157.5 -65.5t64.5 -158.5q0 -90 -65 -155t-157 -65q-91 0 -156.5 65t-65.5 155z" />
<glyph unicode="&#xb9;" horiz-adv-x="768" d="M31 1598l352 203h239v-929h-271v653l-214 -121z" />
<glyph unicode="&#xba;" horiz-adv-x="1108" d="M140 1172q0 168 121.5 283t293.5 115q173 0 293 -113t120 -281q0 -169 -121.5 -283.5t-294.5 -114.5t-292.5 112.5t-119.5 281.5zM149 408v199h809v-199h-809zM366 1175q0 -85 54 -139.5t134 -54.5q79 0 133 54t54 140q0 84 -54.5 138.5t-133.5 54.5t-133 -54.5 t-54 -138.5z" />
<glyph unicode="&#xbb;" horiz-adv-x="1380" d="M106 315l307 301l-306 303l173 170l478 -472l-477 -471zM671 315l306 301l-306 303l173 170l478 -472l-477 -471z" />
<glyph unicode="&#xbc;" horiz-adv-x="2021" d="M61 1401l352 203h239v-930h-271v654l-214 -121zM313 0l1044 1604h277l-1042 -1604h-279zM1071 168v264l411 497h298v-548h153v-213h-153v-168h-239v167zM1291 381h250v303z" />
<glyph unicode="&#xbd;" horiz-adv-x="2029" d="M62 1401l353 203h239v-930l-271 1v653l-214 -121zM314 0l1045 1604h277l-1043 -1604h-279zM1205 0v73q0 97 55 191.5t184 168.5l126 72q104 59 104 135q0 39 -29 66.5t-83 27.5t-85.5 -36.5t-31.5 -103.5l-235 36q6 139 103 230.5t253 91.5t255 -89.5t99 -219.5 q0 -90 -50 -167t-140 -129l-152 -89q-37 -22 -61 -44h408v-214h-720z" />
<glyph unicode="&#xbe;" horiz-adv-x="2102" d="M85 967l233 36q0 -60 35.5 -97t94.5 -37q52 0 91 26.5t39 76.5q0 46 -39 71t-88 25q-33 0 -71 -15l-103 163l228 177h-407v211h714v-192l-214 -166q96 -25 159.5 -103t63.5 -173q0 -142 -109 -228.5t-260 -86.5q-156 0 -258 83.5t-109 228.5zM409 0l1044 1604h277 l-1042 -1604h-279zM1168 168v264l411 497h297v-548h153v-213h-153v-168h-238v168h-470zM1387 381h251v303z" />
<glyph unicode="&#xbf;" horiz-adv-x="1182" d="M66 -95q0 -101 45 -186t119 -139t166 -83.5t189 -29.5q141 0 261 55t196 164t76 252q0 52 -9 101l-317 26q8 -40 8 -75q0 -96 -58.5 -161.5t-153.5 -65.5q-79 0 -133.5 40.5t-54.5 117.5q0 62 40 117t96.5 99.5t113 91.5t96.5 114.5t40 148.5q0 29 -5 62h-303 q-10 -78 -59.5 -138t-129.5 -119q-223 -164 -223 -392zM422 921q0 82 58.5 140t142.5 58q80 0 138 -58t58 -140t-58 -140.5t-138 -58.5q-84 0 -142.5 58t-58.5 141z" />
<glyph unicode="&#xc0;" d="M-2 0h339l127 344h690l128 -344h343l-615 1604h-399zM359 2135h367l219 -384h-262zM574 651l233 631l234 -631h-467z" />
<glyph unicode="&#xc1;" d="M-2 0l613 1604h399l615 -1604h-343l-128 344h-690l-127 -344h-339zM574 651h467l-234 631zM682 1751l219 384h367l-324 -384h-262z" />
<glyph unicode="&#xc2;" d="M-2 0h339l127 344h690l128 -344h343l-615 1604h-399zM409 1748l247 357h300l247 -357h-271l-126 187l-124 -187h-273zM574 651l233 631l234 -631h-467z" />
<glyph unicode="&#xc3;" d="M-2 0l613 1604h399l615 -1604h-343l-128 344h-690l-127 -344h-339zM433 1801q-5 119 53.5 192t178.5 73q54 0 109.5 -24t102.5 -47.5t80 -23.5q18 0 31 6.5t19.5 13.5t11.5 22.5t6.5 23t3.5 25.5h182l2 -52q5 -118 -52.5 -190t-175.5 -72q-46 0 -92 15t-76 33.5t-66 33.5 t-64 15q-59 0 -64 -95h-188zM574 651h467l-234 631z" />
<glyph unicode="&#xc4;" d="M-2 0l613 1604h399l615 -1604h-343l-128 344h-690l-127 -344h-339zM380 1911q0 73 51 125.5t126 52.5q74 0 126 -52.5t52 -125.5q0 -74 -52 -126t-126 -52t-125.5 52t-51.5 126zM574 651h467l-234 631zM889 1911q0 73 50.5 125.5t125.5 52.5q74 0 126 -52.5t52 -125.5 q0 -74 -52 -126t-126 -52q-73 0 -124.5 52t-51.5 126z" />
<glyph unicode="&#xc5;" d="M-2 0l575 1504q-82 87 -82 204q0 125 94 213t223 88q131 0 224.5 -88t93.5 -213q0 -116 -79 -201l578 -1507h-343l-127 340h-693l-125 -340h-339zM574 651h467l-234 631zM676 1708q0 -51 38 -88.5t94 -37.5t94 37.5t38 88.5q0 47 -39.5 85t-92.5 38q-58 0 -95 -35.5 t-37 -87.5z" />
<glyph unicode="&#xc6;" horiz-adv-x="2158" d="M-27 0l814 1604h1249v-311h-710v-327h635v-311h-635v-345h716v-310h-1044v320h-509l-158 -320h-358zM643 628h355v667h-20z" />
<glyph unicode="&#xc7;" horiz-adv-x="1729" d="M89 800q0 176 68 331.5t181.5 263.5t266 170.5t317.5 62.5q130 0 244.5 -33.5t196.5 -86.5t146.5 -122.5t102 -138.5t55.5 -138l-315 -109q-8 33 -27.5 71t-56.5 80.5t-84.5 76t-117 55.5t-148.5 22q-137 0 -249.5 -68t-174.5 -182.5t-62 -250.5q0 -138 61 -253t173 -184 t252 -69q78 0 147.5 22t117.5 56t86 78t59.5 85t31.5 79l317 -109q-14 -57 -45.5 -119.5t-87.5 -130t-128 -123.5t-174.5 -98t-218.5 -55q38 -87 38 -190q0 -172 -104.5 -250t-282.5 -78q-90 0 -149 18v216q57 -10 107 -10q88 0 132 52t44 142q0 54 -20 103q-144 21 -271 89 t-222 171.5t-150.5 247t-55.5 306.5z" />
<glyph unicode="&#xc8;" horiz-adv-x="1366" d="M187 0h1063v310h-727v345h646v311h-646v327h721v311h-1057v-1604zM335 2135h368l219 -384h-262z" />
<glyph unicode="&#xc9;" horiz-adv-x="1366" d="M187 0h1063v310h-727v345h646v311h-646v327h721v311h-1057v-1604zM509 1751l219 384h368l-325 -384h-262z" />
<glyph unicode="&#xca;" horiz-adv-x="1366" d="M187 0h1063v310h-727v345h646v311h-646v327h721v311h-1057v-1604zM319 1748l252 357h300l247 -357h-271l-126 187l-124 -187h-278z" />
<glyph unicode="&#xcb;" horiz-adv-x="1358" d="M187 0v1604h1049v-311h-721v-327h646v-311h-646v-345h727v-310h-1055zM278 1911q0 73 50.5 125.5t125.5 52.5q74 0 126 -52.5t52 -125.5q0 -74 -52 -126t-126 -52q-73 0 -124.5 52t-51.5 126zM786 1911q0 73 51 125.5t126 52.5q74 0 126 -52.5t52 -125.5 q0 -74 -52.5 -126t-125.5 -52q-74 0 -125.5 52t-51.5 126z" />
<glyph unicode="&#xcc;" horiz-adv-x="706" d="M-103 2135h367l219 -384h-262zM187 0h332v1604h-332v-1604z" />
<glyph unicode="&#xcd;" horiz-adv-x="706" d="M187 0v1604h332v-1604h-332zM221 1751l220 384h367l-324 -384h-263z" />
<glyph unicode="&#xce;" horiz-adv-x="706" d="M-47 1748l252 357h300l247 -357h-271l-126 187l-124 -187h-278zM187 0h332v1604h-332v-1604z" />
<glyph unicode="&#xcf;" horiz-adv-x="706" d="M-63 1911q0 73 51 125.5t126 52.5q74 0 126 -52.5t52 -125.5q0 -74 -52.5 -126t-125.5 -52q-74 0 -125.5 52t-51.5 126zM187 0v1604h332v-1604h-332zM416 1911q0 73 51 125.5t126 52.5q74 0 126 -52.5t52 -125.5q0 -74 -52 -126t-126 -52t-125.5 52t-51.5 126z" />
<glyph unicode="&#xd0;" horiz-adv-x="1718" d="M35 655v307h195v642h491q421 0 663 -212t242 -587q0 -178 -63 -327t-179.5 -254.5t-288 -164.5t-381.5 -59h-484v655h-195zM561 314h163q255 0 408.5 129t153.5 362q0 116 -42.5 209t-118 153t-176.5 92t-220 32h-168v-329h342v-307h-342v-341z" />
<glyph unicode="&#xd1;" horiz-adv-x="1785" d="M187 0v1604h394l689 -1085v1085h328v-1604h-376l-699 1103v-1103h-336zM502 1801q-5 119 53.5 192t178.5 73q54 0 109.5 -24t102.5 -47.5t80 -23.5q18 0 31 6.5t19.5 13.5t11.5 22.5t6.5 23t3.5 25.5h182l2 -52q5 -118 -52.5 -190t-175.5 -72q-46 0 -92 15t-76 33.5 t-66 33.5t-64 15q-59 0 -64 -95h-188z" />
<glyph unicode="&#xd2;" horiz-adv-x="1842" d="M88 800q0 -137 41.5 -263.5t118 -227t178.5 -176t228.5 -116.5t263.5 -41q170 0 324.5 65t266.5 176t178.5 265.5t66.5 325.5q0 170 -65 322.5t-176 261.5t-264.5 173t-323.5 64t-325 -65t-267 -175.5t-178.5 -264.5t-66.5 -324zM428 803q0 137 65 252.5t179 183 t250 67.5t249.5 -67.5t178.5 -183t65 -252.5q0 -136 -65 -252.5t-179 -185t-249 -68.5q-136 0 -250 68.5t-179 184.5t-65 253zM479 2135h367l219 -384h-262z" />
<glyph unicode="&#xd3;" horiz-adv-x="1842" d="M88 800q0 170 66.5 324t178.5 264.5t267 175.5t325 65t323.5 -64t264.5 -173t176 -261.5t65 -322.5q0 -171 -66.5 -325.5t-178.5 -265.5t-266.5 -176t-324.5 -65q-137 0 -263.5 41t-228.5 116.5t-178.5 176t-118 227t-41.5 263.5zM428 803q0 -137 65 -253t179 -184.5 t250 -68.5q135 0 249 68.5t179 185t65 252.5q0 137 -65 252.5t-178.5 183t-249.5 67.5t-250 -67.5t-179 -183t-65 -252.5zM781 1751l219 384h367l-324 -384h-262z" />
<glyph unicode="&#xd4;" horiz-adv-x="1842" d="M88 800q0 -137 41.5 -263.5t118 -227t178.5 -176t228.5 -116.5t263.5 -41q170 0 324.5 65t266.5 176t178.5 265.5t66.5 325.5q0 170 -65 322.5t-176 261.5t-264.5 173t-323.5 64t-325 -65t-267 -175.5t-178.5 -264.5t-66.5 -324zM428 803q0 137 65 252.5t179 183 t250 67.5t249.5 -67.5t178.5 -183t65 -252.5q0 -136 -65 -252.5t-179 -185t-249 -68.5q-136 0 -250 68.5t-179 184.5t-65 253zM531 1748l247 357h300l247 -357h-271l-126 187l-124 -187h-273z" />
<glyph unicode="&#xd5;" horiz-adv-x="1842" d="M88 800q0 170 66.5 324t178.5 264.5t267 175.5t325 65t323.5 -64t264.5 -173t176 -261.5t65 -322.5q0 -171 -66.5 -325.5t-178.5 -265.5t-266.5 -176t-324.5 -65q-137 0 -263.5 41t-228.5 116.5t-178.5 176t-118 227t-41.5 263.5zM428 803q0 -137 65 -253t179 -184.5 t250 -68.5q135 0 249 68.5t179 185t65 252.5q0 137 -65 252.5t-178.5 183t-249.5 67.5t-250 -67.5t-179 -183t-65 -252.5zM532 1801q-5 119 53.5 192t178.5 73q54 0 109.5 -24t102.5 -47.5t80 -23.5q18 0 31 6.5t19.5 13.5t11.5 22.5t6.5 23t3.5 25.5h182l2 -52 q5 -118 -52.5 -190t-175.5 -72q-46 0 -92 15t-76 33.5t-66 33.5t-64 15q-59 0 -64 -95h-188z" />
<glyph unicode="&#xd6;" horiz-adv-x="1842" d="M88 800q0 170 66.5 324t178.5 264.5t267 175.5t325 65t323.5 -64t264.5 -173t176 -261.5t65 -322.5q0 -171 -66.5 -325.5t-178.5 -265.5t-266.5 -176t-324.5 -65q-137 0 -263.5 41t-228.5 116.5t-178.5 176t-118 227t-41.5 263.5zM428 803q0 -137 65 -253t179 -184.5 t250 -68.5q135 0 249 68.5t179 185t65 252.5q0 137 -65 252.5t-178.5 183t-249.5 67.5t-250 -67.5t-179 -183t-65 -252.5zM493 1911q0 73 50.5 125.5t125.5 52.5q74 0 126 -52.5t52 -125.5q0 -74 -52 -126t-126 -52q-73 0 -124.5 52t-51.5 126zM1001 1911q0 73 50.5 125.5 t125.5 52.5q74 0 126 -52.5t52 -125.5q0 -74 -52 -126t-126 -52q-73 0 -124.5 52t-51.5 126z" />
<glyph unicode="&#xd7;" horiz-adv-x="1364" d="M107 365l381 380l-381 381l196 194l378 -379l381 379l195 -194l-380 -381l380 -380l-195 -194l-381 379l-378 -379z" />
<glyph unicode="&#xd8;" horiz-adv-x="1848" d="M91 800q0 170 66.5 324t178.5 264.5t267 175.5t325 65q267 0 481 -149l181 190l165 -155l-180 -189q181 -224 181 -518q0 -171 -66 -325.5t-178 -265.5t-267 -176t-325 -65q-268 0 -481 150l-181 -186l-165 154l179 188q-181 224 -181 518zM427 803q0 -150 79 -276 l677 710q-117 71 -258 71q-135 0 -250 -68t-181.5 -184t-66.5 -253zM663 370q118 -74 262 -74q135 0 249.5 68.5t180.5 185.5t66 253q0 153 -80 278z" />
<glyph unicode="&#xd9;" horiz-adv-x="1629" d="M171 635q0 -148 38 -267t115 -207t201 -135.5t287 -47.5q318 0 482 177.5t164 491.5l1 956h-329v-968q0 -155 -83 -247t-233 -92q-138 0 -225 88.5t-87 258.5l1 960h-332v-968zM372 2135h367l219 -384h-262z" />
<glyph unicode="&#xda;" horiz-adv-x="1629" d="M171 635v968h332l-1 -960q0 -170 87 -258.5t225 -88.5q150 0 233 92t83 247v968h329l-1 -956q0 -314 -164 -491.5t-482 -177.5q-163 0 -287 47.5t-201 135.5t-115 207t-38 267zM680 1751l219 384h367l-324 -384h-262z" />
<glyph unicode="&#xdb;" horiz-adv-x="1629" d="M171 635q0 -148 38 -267t115 -207t201 -135.5t287 -47.5q318 0 482 177.5t164 491.5l1 956h-329v-968q0 -155 -83 -247t-233 -92q-138 0 -225 88.5t-87 258.5l1 960h-332v-968zM416 1748l250 357h300l247 -357h-271l-126 187l-124 -187h-276z" />
<glyph unicode="&#xdc;" horiz-adv-x="1629" d="M171 635v968h332l-1 -960q0 -170 87 -258.5t225 -88.5q150 0 233 92t83 247v968h329l-1 -956q0 -314 -164 -491.5t-482 -177.5q-163 0 -287 47.5t-201 135.5t-115 207t-38 267zM385 1911q0 73 50.5 125.5t125.5 52.5q74 0 126 -52.5t52 -125.5q0 -74 -52 -126t-126 -52 q-73 0 -124.5 52t-51.5 126zM893 1911q0 73 50.5 125.5t125.5 52.5q74 0 126 -52.5t52 -125.5q0 -74 -52 -126t-126 -52q-73 0 -124.5 52t-51.5 126z" />
<glyph unicode="&#xdd;" horiz-adv-x="1568" d="M28 1604h389l370 -642l375 642h379l-587 -955v-649h-332v634zM660 1751l219 384h367l-324 -384h-262z" />
<glyph unicode="&#xde;" horiz-adv-x="1416" d="M187 0v1604h331v-273h264q164 0 292.5 -56.5t205.5 -174.5t77 -282q0 -129 -44 -230t-123.5 -164t-185.5 -95.5t-234 -32.5h-252v-296h-331zM519 602h236q110 0 188 52t78 156q0 56 -22 98t-60.5 65.5t-84.5 34.5t-100 11h-235v-417z" />
<glyph unicode="&#xdf;" horiz-adv-x="1424" d="M148 0v1114q0 260 149.5 409.5t404.5 149.5q78 0 154.5 -18t145.5 -55t122 -89t84.5 -126t31.5 -159q0 -57 -11.5 -105t-28 -79t-45 -59.5t-50.5 -44.5t-56 -37l-55 -34q-31 -19 -42 -35t-11 -37q0 -22 14 -36t58 -31l61 -24q137 -54 208 -140.5t71 -221.5 q0 -116 -58.5 -200.5t-151.5 -125t-208 -40.5q-89 0 -163 29.5t-120.5 77t-72 103t-26.5 111.5l255 44q3 -43 36 -79.5t90 -36.5q52 0 85.5 30.5t33.5 76.5q0 78 -125 126l-76 29q-234 91 -234 279q0 46 13 87t26.5 64.5t40.5 48.5t34.5 30t29.5 20l68 45q93 60 93 153 q0 48 -22 83t-57.5 52.5t-69.5 25.5t-68 8q-120 0 -179.5 -83t-59.5 -212v-1088h-319z" />
<glyph unicode="&#xe0;" horiz-adv-x="1210" d="M85 305v9q0 75 30 134.5t78 96.5t113 61t129 33.5t132 9.5h107q43 0 64.5 20t21.5 55q0 57 -45 96.5t-128 39.5q-73 0 -125.5 -40t-70.5 -109l-280 63q18 112 93 192t177.5 116.5t220.5 36.5q138 0 243 -48t167 -149t62 -244v-502q0 -101 9 -176h-298q-7 42 -7 136l-3 1 q-112 -158 -326 -158q-149 0 -256.5 90t-107.5 236zM162 1659h367l219 -384h-262zM408 323q0 -55 38.5 -83t94.5 -28q100 0 158.5 62t58.5 149v25h-191q-58 0 -108.5 -33t-50.5 -92z" />
<glyph unicode="&#xe1;" horiz-adv-x="1210" d="M85 305q0 -146 107.5 -236t256.5 -90q214 0 326 158l3 -1q0 -94 7 -136h298q-9 75 -9 176v502q0 143 -62 244t-167 149t-243 48q-118 0 -220.5 -36.5t-177.5 -116.5t-93 -192l280 -63q18 69 70.5 109t125.5 40q83 0 128 -39.5t45 -96.5q0 -35 -21.5 -55t-64.5 -20h-107 q-68 0 -132 -9.5t-129 -33.5t-113 -61t-78 -96.5t-30 -134.5v-9zM408 323q0 59 50.5 92t108.5 33h191v-25q0 -87 -58.5 -149t-158.5 -62q-56 0 -94.5 28t-38.5 83zM465 1275l219 384h367l-324 -384h-262z" />
<glyph unicode="&#xe2;" horiz-adv-x="1210" d="M85 305v9q0 75 30 134.5t78 96.5t113 61t129 33.5t132 9.5h107q43 0 64.5 20t21.5 55q0 57 -45 96.5t-128 39.5q-73 0 -125.5 -40t-70.5 -109l-280 63q18 112 93 192t177.5 116.5t220.5 36.5q138 0 243 -48t167 -149t62 -244v-502q0 -101 9 -176h-298q-7 42 -7 136l-3 1 q-112 -158 -326 -158q-149 0 -256.5 90t-107.5 236zM208 1278l247 357h300l247 -357h-271l-126 187l-124 -187h-273zM408 323q0 -55 38.5 -83t94.5 -28q100 0 158.5 62t58.5 149v25h-191q-58 0 -108.5 -33t-50.5 -92z" />
<glyph unicode="&#xe3;" horiz-adv-x="1210" d="M85 305q0 -146 107.5 -236t256.5 -90q214 0 326 158l3 -1q0 -94 7 -136h298q-9 75 -9 176v502q0 143 -62 244t-167 149t-243 48q-118 0 -220.5 -36.5t-177.5 -116.5t-93 -192l280 -63q18 69 70.5 109t125.5 40q83 0 128 -39.5t45 -96.5q0 -35 -21.5 -55t-64.5 -20h-107 q-68 0 -132 -9.5t-129 -33.5t-113 -61t-78 -96.5t-30 -134.5v-9zM194 1331q-5 119 53.5 192t178.5 73q54 0 109.5 -24t102.5 -47.5t80 -23.5q18 0 31 6.5t19.5 13.5t11.5 22.5t6.5 23t3.5 25.5h182l2 -52q5 -118 -52.5 -190t-175.5 -72q-46 0 -92 15t-76 33.5t-66 33.5 t-64 15q-59 0 -64 -95h-188zM408 323q0 59 50.5 92t108.5 33h191v-25q0 -87 -58.5 -149t-158.5 -62q-56 0 -94.5 28t-38.5 83z" />
<glyph unicode="&#xe4;" horiz-adv-x="1210" d="M85 305q0 -146 107.5 -236t256.5 -90q214 0 326 158l3 -1q0 -94 7 -136h298q-9 75 -9 176v502q0 143 -62 244t-167 149t-243 48q-118 0 -220.5 -36.5t-177.5 -116.5t-93 -192l280 -63q18 69 70.5 109t125.5 40q83 0 128 -39.5t45 -96.5q0 -35 -21.5 -55t-64.5 -20h-107 q-68 0 -132 -9.5t-129 -33.5t-113 -61t-78 -96.5t-30 -134.5v-9zM181 1441q0 73 50.5 125.5t125.5 52.5q74 0 126 -52.5t52 -125.5q0 -74 -52 -125.5t-126 -51.5t-125 51.5t-51 125.5zM408 323q0 59 50.5 92t108.5 33h191v-25q0 -87 -58.5 -149t-158.5 -62q-56 0 -94.5 28 t-38.5 83zM669 1441q0 73 50.5 125.5t125.5 52.5q74 0 126 -52.5t52 -125.5q0 -74 -52 -125.5t-126 -51.5t-125 51.5t-51 125.5z" />
<glyph unicode="&#xe5;" horiz-adv-x="1210" d="M85 305v9q0 75 30 134.5t78 96.5t113 61t129 33.5t132 9.5h107q43 0 64.5 20t21.5 55q0 57 -45 96.5t-128 39.5q-73 0 -125.5 -40t-70.5 -109l-280 63q31 194 223 287q-49 74 -49 163q0 125 94 213t223 88q131 0 224.5 -88t93.5 -213q0 -91 -51 -166q97 -53 151 -149 t54 -231v-502q0 -101 9 -176h-298q-7 42 -7 136l-3 1q-112 -158 -326 -158q-149 0 -256.5 90t-107.5 236zM408 323q0 -55 38.5 -83t94.5 -28q100 0 158.5 62t58.5 149v25h-191q-58 0 -108.5 -33t-50.5 -92zM493 1224q0 -43 31 -73.5t78 -30.5q46 0 77.5 30.5t31.5 73.5 q0 39 -32.5 70t-76.5 31q-47 0 -78 -29t-31 -72z" />
<glyph unicode="&#xe6;" horiz-adv-x="1945" d="M85 305v9q0 75 30 134.5t78 96.5t113 61t129 33.5t132 9.5h107q43 0 64.5 20t21.5 55q0 57 -45 96.5t-128 39.5q-73 0 -125.5 -40t-70.5 -109l-280 63q18 112 93 192t177.5 116.5t220.5 36.5q232 0 354 -131q159 132 364 132q241 0 393.5 -150.5t152.5 -391.5 q0 -72 -6 -120h-794q15 -99 90.5 -157t178.5 -58q72 0 139 40.5t94 105.5l263 -90q-54 -153 -188.5 -238t-302.5 -85q-136 0 -252 49.5t-197 140.5q-171 -187 -431 -187h-11q-149 0 -256.5 90t-107.5 236zM408 323q0 -55 38.5 -83t94.5 -28q100 0 158.5 62t58.5 149v25h-191 q-58 0 -108.5 -33t-50.5 -92zM1074 670h470q-2 32 -16 63.5t-40.5 61t-72.5 48t-103 18.5q-97 0 -162 -62.5t-76 -128.5z" />
<glyph unicode="&#xe7;" horiz-adv-x="1279" d="M81 545q0 159 78.5 291t215.5 207.5t302 75.5q88 0 172.5 -24t158 -69t127.5 -117.5t74 -162.5l-291 -88q-21 68 -85.5 117.5t-160.5 49.5q-111 0 -186.5 -75t-75.5 -201q0 -122 73 -200t190 -78q98 0 162 49t90 120l291 -88q-42 -152 -161 -246.5t-275 -120.5 q39 -89 39 -192q0 -172 -104.5 -250t-282.5 -78q-90 0 -149 18v216q57 -10 107 -10q88 0 132 52t44 142q0 53 -20 104q-208 38 -336.5 191.5t-128.5 366.5z" />
<glyph unicode="&#xe8;" horiz-adv-x="1284" d="M80 548q0 -166 81 -297.5t217.5 -203t301.5 -71.5q167 0 302 85t188 238l-263 90q-26 -65 -92.5 -105.5t-139.5 -40.5q-103 0 -178.5 58t-90.5 157h794q5 38 5 115q0 243 -151 395t-395 152q-155 0 -288 -76t-212 -208.5t-79 -287.5zM216 1659h367l219 -384h-262z M414 670q10 65 75 128t162 63q57 0 103 -18.5t72.5 -48t41 -61t16.5 -63.5h-470z" />
<glyph unicode="&#xe9;" horiz-adv-x="1284" d="M80 548q0 -166 81 -297.5t217.5 -203t301.5 -71.5q167 0 302 85t188 238l-263 90q-26 -65 -92.5 -105.5t-139.5 -40.5q-103 0 -178.5 58t-90.5 157h794q5 38 5 115q0 243 -151 395t-395 152q-155 0 -288 -76t-212 -208.5t-79 -287.5zM414 670q10 65 75 128t162 63 q57 0 103 -18.5t72.5 -48t41 -61t16.5 -63.5h-470zM520 1275l219 384h367l-324 -384h-262z" />
<glyph unicode="&#xea;" horiz-adv-x="1284" d="M80 548q0 -166 81 -297.5t217.5 -203t301.5 -71.5q167 0 302 85t188 238l-263 90q-26 -65 -92.5 -105.5t-139.5 -40.5q-103 0 -178.5 58t-90.5 157h794q5 38 5 115q0 243 -151 395t-395 152q-155 0 -288 -76t-212 -208.5t-79 -287.5zM262 1278l247 357h300l247 -357h-271 l-126 187l-124 -187h-273zM414 670q10 65 75 128t162 63q57 0 103 -18.5t72.5 -48t41 -61t16.5 -63.5h-470z" />
<glyph unicode="&#xeb;" horiz-adv-x="1284" d="M80 548q0 -166 81 -297.5t217.5 -203t301.5 -71.5q167 0 302 85t188 238l-263 90q-26 -65 -92.5 -105.5t-139.5 -40.5q-103 0 -178.5 58t-90.5 157h794q5 38 5 115q0 243 -151 395t-395 152q-155 0 -288 -76t-212 -208.5t-79 -287.5zM235 1441q0 73 50.5 125.5 t125.5 52.5q74 0 126 -52.5t52 -125.5q0 -74 -52 -125.5t-126 -51.5t-125 51.5t-51 125.5zM414 670q10 65 75 128t162 63q57 0 103 -18.5t72.5 -48t41 -61t16.5 -63.5h-470zM723 1441q0 73 50.5 125.5t125.5 52.5q74 0 126 -52.5t52 -125.5q0 -74 -52 -125.5t-126 -51.5 t-125 51.5t-51 125.5z" />
<glyph unicode="&#xec;" horiz-adv-x="616" d="M-145 1659h367l219 -384h-262zM148 0h320v1093h-320v-1093z" />
<glyph unicode="&#xed;" horiz-adv-x="616" d="M148 0v1093h320v-1093h-320zM175 1275l219 384h367l-324 -384h-262z" />
<glyph unicode="&#xee;" horiz-adv-x="616" d="M-91 1278l250 357h300l247 -357h-271l-126 187l-124 -187h-276zM148 0h320v1093h-320v-1093z" />
<glyph unicode="&#xef;" horiz-adv-x="616" d="M-109 1441q0 73 51 125.5t126 52.5q74 0 126 -52.5t52 -125.5q0 -74 -52.5 -125.5t-125.5 -51.5q-74 0 -125.5 51.5t-51.5 125.5zM148 0v1093h320v-1093h-320zM369 1441q0 73 51 125.5t126 52.5q74 0 126 -52.5t52 -125.5q0 -74 -52 -125.5t-126 -51.5t-125.5 51.5 t-51.5 125.5z" />
<glyph unicode="&#xf0;" horiz-adv-x="1348" d="M82 522q0 93 29 174.5t80 142.5t119 105t148 66.5t165 22.5q57 0 127 -19t112 -60l4 4q-42 141 -140 245l-301 -122l-82 186l199 81q-106 54 -255 97l93 244q275 -67 471 -214l253 103l84 -188l-173 -70q234 -277 234 -678q0 -189 -65.5 -338t-199.5 -238.5t-318 -89.5 q-163 0 -296 69t-210.5 194.5t-77.5 282.5zM404 526q0 -112 76.5 -186.5t182.5 -74.5q118 0 192.5 73.5t74.5 185.5q0 110 -75 185t-192 75q-113 0 -186 -73t-73 -185z" />
<glyph unicode="&#xf1;" horiz-adv-x="1312" d="M148 0v1093h319v-142h3q29 51 76 87t96 51t81.5 20.5t55.5 5.5q101 0 178.5 -36t124 -97.5t70 -138t23.5 -163.5v-680h-319v607q0 96 -47.5 154t-142.5 58q-96 0 -146.5 -61t-50.5 -151v-607h-321zM271 1331q-5 119 53.5 192t178.5 73q54 0 109.5 -24t102.5 -47.5 t80 -23.5q18 0 31 6.5t19.5 13.5t11.5 22.5t6.5 23t3.5 25.5h182l2 -52q5 -118 -52.5 -190t-175.5 -72q-46 0 -92 15t-76 33.5t-66 33.5t-64 15q-59 0 -64 -95h-188z" />
<glyph unicode="&#xf2;" horiz-adv-x="1354" d="M80 544q0 -161 79.5 -291.5t215.5 -203.5t300 -73q163 0 300.5 74t218 206.5t80.5 293.5q0 160 -79.5 291t-216 204.5t-299.5 73.5t-300.5 -75t-218 -207.5t-80.5 -292.5zM235 1659h367l219 -384h-262zM407 548q0 122 77.5 200.5t191.5 78.5t192.5 -78.5t78.5 -200.5 q0 -123 -78 -201t-192 -78t-192 78.5t-78 200.5z" />
<glyph unicode="&#xf3;" horiz-adv-x="1354" d="M80 544q0 160 80.5 292.5t218 207.5t300.5 75t299.5 -73.5t216 -204.5t79.5 -291q0 -161 -80.5 -293.5t-218 -206.5t-300.5 -74q-164 0 -300 73t-215.5 203.5t-79.5 291.5zM407 548q0 -122 78 -200.5t192 -78.5t192 78t78 201q0 122 -78.5 200.5t-192.5 78.5 t-191.5 -78.5t-77.5 -200.5zM537 1275l219 384h367l-324 -384h-262z" />
<glyph unicode="&#xf4;" horiz-adv-x="1354" d="M80 544q0 -161 79.5 -291.5t215.5 -203.5t300 -73q163 0 300.5 74t218 206.5t80.5 293.5q0 160 -79.5 291t-216 204.5t-299.5 73.5t-300.5 -75t-218 -207.5t-80.5 -292.5zM284 1278l247 357h300l247 -357h-271l-126 187l-124 -187h-273zM407 548q0 122 77.5 200.5 t191.5 78.5t192.5 -78.5t78.5 -200.5q0 -123 -78 -201t-192 -78t-192 78.5t-78 200.5z" />
<glyph unicode="&#xf5;" horiz-adv-x="1354" d="M80 544q0 160 80.5 292.5t218 207.5t300.5 75t299.5 -73.5t216 -204.5t79.5 -291q0 -161 -80.5 -293.5t-218 -206.5t-300.5 -74q-164 0 -300 73t-215.5 203.5t-79.5 291.5zM286 1331q-5 119 53.5 192t178.5 73q54 0 109.5 -24t102.5 -47.5t80 -23.5q18 0 31 6.5 t19.5 13.5t11.5 22.5t6.5 23t3.5 25.5h182l2 -52q5 -118 -52.5 -190t-175.5 -72q-46 0 -92 15t-76 33.5t-66 33.5t-64 15q-59 0 -64 -95h-188zM407 548q0 -122 78 -200.5t192 -78.5t192 78t78 201q0 122 -78.5 200.5t-192.5 78.5t-191.5 -78.5t-77.5 -200.5z" />
<glyph unicode="&#xf6;" horiz-adv-x="1354" d="M80 544q0 160 80.5 292.5t218 207.5t300.5 75t299.5 -73.5t216 -204.5t79.5 -291q0 -161 -80.5 -293.5t-218 -206.5t-300.5 -74q-164 0 -300 73t-215.5 203.5t-79.5 291.5zM258 1441q0 73 50.5 125.5t125.5 52.5q74 0 126 -52.5t52 -125.5q0 -74 -52 -125.5t-126 -51.5 t-125 51.5t-51 125.5zM407 548q0 -122 78 -200.5t192 -78.5t192 78t78 201q0 122 -78.5 200.5t-192.5 78.5t-191.5 -78.5t-77.5 -200.5zM746 1441q0 73 50.5 125.5t125.5 52.5q74 0 126 -52.5t52 -125.5q0 -74 -52 -125.5t-126 -51.5t-125 51.5t-51 125.5z" />
<glyph unicode="&#xf7;" horiz-adv-x="1213" d="M97 604v295h1019v-295h-1019zM432 272q0 72 51 124t124 52t123.5 -52.5t50.5 -123.5t-50.5 -123t-123.5 -52t-124 51.5t-51 123.5zM432 1229q0 72 51 123.5t124 51.5q72 0 123 -52t51 -123q0 -72 -51 -123t-123 -51q-73 0 -124 50.5t-51 123.5z" />
<glyph unicode="&#xf8;" horiz-adv-x="1358" d="M80 68l125 124q-123 152 -123 352q0 160 81 292.5t218.5 207.5t300.5 75q194 0 347 -104l128 128l117 -115l-124 -123q126 -152 126 -355q0 -161 -80.5 -293.5t-218 -206.5t-300.5 -74q-196 0 -351 105l-130 -128zM407 548q0 -72 27 -129l379 377q-61 33 -134 33 q-115 0 -193.5 -79t-78.5 -202zM541 302q61 -35 139 -35q114 0 192.5 79t78.5 202q0 73 -28 132z" />
<glyph unicode="&#xf9;" horiz-adv-x="1310" d="M137 407v686h319v-609q0 -96 47 -153t143 -57t146 59.5t50 150.5v609h319v-1093h-315v136h-3q-108 -158 -305 -158q-99 0 -177 35t-126 95.5t-73 136.5t-25 162zM207 1659h367l219 -384h-262z" />
<glyph unicode="&#xfa;" horiz-adv-x="1312" d="M137 407v686h319v-609q0 -96 47 -153t143 -57t146 59.5t50 150.5v609h319v-1093h-315v136h-3q-108 -158 -305 -158q-99 0 -177 35t-126 95.5t-73 136.5t-25 162zM523 1275l219 384h367l-324 -384h-262z" />
<glyph unicode="&#xfb;" horiz-adv-x="1310" d="M137 407v686h319v-609q0 -96 47 -153t143 -57t146 59.5t50 150.5v609h319v-1093h-315v136h-3q-108 -158 -305 -158q-99 0 -177 35t-126 95.5t-73 136.5t-25 162zM252 1278l248 357h300l247 -357h-271l-126 187l-124 -187h-274z" />
<glyph unicode="&#xfc;" horiz-adv-x="1309" d="M137 407v686h319v-609q0 -96 47 -153t143 -57t146 59.5t50 150.5v609h319v-1093h-315v136h-3q-108 -158 -305 -158q-99 0 -177 35t-126 95.5t-73 136.5t-25 162zM229 1441q0 73 50.5 125.5t125.5 52.5q74 0 126 -52.5t52 -125.5q0 -74 -52 -125.5t-126 -51.5t-125 51.5 t-51 125.5zM717 1441q0 73 50.5 125.5t125.5 52.5q74 0 126 -52.5t52 -125.5q0 -74 -52 -125.5t-126 -51.5t-125 51.5t-51 125.5z" />
<glyph unicode="&#xfd;" horiz-adv-x="1252" d="M27 1093h352l274 -625l244 625h329l-664 -1632h-341l267 655zM526 1275l219 384h367l-324 -384h-262z" />
<glyph unicode="&#xfe;" horiz-adv-x="1404" d="M148 -540v2208h319v-707h4q119 154 332 154q117 0 216.5 -49.5t165 -130t102 -181.5t36.5 -206q0 -106 -38.5 -208t-106 -182.5t-168 -129.5t-216.5 -49q-207 0 -323 142h-4v-661h-319zM459 548q0 -122 78 -200.5t192 -78.5t192 78t78 201q0 122 -78.5 200t-192.5 78 t-191.5 -78t-77.5 -200z" />
<glyph unicode="&#xff;" horiz-adv-x="1251" d="M27 1093h351l274 -625l244 625h329l-664 -1632h-341l267 655zM221 1441q0 73 50.5 125.5t125.5 52.5q74 0 126 -52.5t52 -125.5q0 -74 -52 -125.5t-126 -51.5t-125 51.5t-51 125.5zM709 1441q0 73 50.5 125.5t125.5 52.5q74 0 126 -52.5t52 -125.5q0 -74 -52 -125.5 t-126 -51.5t-125 51.5t-51 125.5z" />
<glyph unicode="&#x152;" horiz-adv-x="2586" d="M88 797q0 170 66.5 324t179 265t267.5 176.5t325 65.5q277 0 489 -192v168h1049v-311h-725v-327h650v-311h-650v-345h731v-310h-1055v171q-98 -89 -226.5 -140t-273.5 -51q-171 0 -324 63t-263.5 171.5t-175 260t-64.5 322.5zM428 803q0 -136 66 -252t180 -184t249 -68 t249 68t180 184t66 252q0 137 -66 253t-180 184t-249 68t-249 -68t-180 -184t-66 -253z" />
<glyph unicode="&#x153;" horiz-adv-x="2153" d="M80 544q0 160 80.5 292.5t218 207.5t300.5 75q127 0 239 -45.5t194 -128.5q81 82 188 128.5t228 46.5q244 0 395 -152t151 -395q0 -67 -5 -115h-795q14 -91 85.5 -153t183.5 -62q72 0 139.5 40.5t93.5 105.5l263 -90q-50 -143 -181 -233t-310 -90q-268 0 -439 174 q-84 -83 -196 -128.5t-238 -45.5q-164 0 -300 73t-215.5 203.5t-79.5 291.5zM407 548q0 -122 78 -200.5t192 -78.5t192 78t78 201q0 122 -78.5 200.5t-192.5 78.5t-191.5 -78.5t-77.5 -200.5zM1282 670h470q-2 32 -16 63.5t-40.5 61t-72.5 48t-103 18.5q-97 0 -162 -62.5 t-76 -128.5z" />
<glyph unicode="&#x178;" horiz-adv-x="1563" d="M28 1604h384l370 -642l375 642h379l-587 -955v-649h-332v634zM333 1911q0 73 51 125.5t126 52.5q74 0 126 -52.5t52 -125.5q0 -74 -52 -126t-126 -52t-125.5 52t-51.5 126zM842 1911q0 73 50.5 125.5t125.5 52.5q74 0 126 -52.5t52 -125.5q0 -74 -52 -126t-126 -52 q-73 0 -124.5 52t-51.5 126z" />
<glyph unicode="&#x2000;" horiz-adv-x="1067" />
<glyph unicode="&#x2001;" horiz-adv-x="2135" />
<glyph unicode="&#x2002;" horiz-adv-x="1067" />
<glyph unicode="&#x2003;" horiz-adv-x="2135" />
<glyph unicode="&#x2004;" horiz-adv-x="711" />
<glyph unicode="&#x2005;" horiz-adv-x="533" />
<glyph unicode="&#x2006;" horiz-adv-x="355" />
<glyph unicode="&#x2007;" horiz-adv-x="355" />
<glyph unicode="&#x2008;" horiz-adv-x="266" />
<glyph unicode="&#x2009;" horiz-adv-x="427" />
<glyph unicode="&#x200a;" horiz-adv-x="118" />
<glyph unicode="&#x2010;" horiz-adv-x="939" d="M132 507v316h675v-316h-675z" />
<glyph unicode="&#x2011;" horiz-adv-x="939" d="M132 507v316h675v-316h-675z" />
<glyph unicode="&#x2012;" horiz-adv-x="939" d="M132 507v316h675v-316h-675z" />
<glyph unicode="&#x2013;" horiz-adv-x="1265" d="M132 511v308h1001v-308h-1001z" />
<glyph unicode="&#x2014;" horiz-adv-x="2050" d="M132 511v308h1786v-308h-1786z" />
<glyph unicode="&#x2018;" horiz-adv-x="641" d="M94 1124q0 200 110 333t300 163v-152q-179 -59 -215 -228q32 8 62 8q81 0 133.5 -56t52.5 -141q0 -84 -63.5 -137t-150.5 -53q-107 0 -168 74.5t-61 188.5z" />
<glyph unicode="&#x2019;" horiz-adv-x="644" d="M115 1425q0 84 63.5 137t150.5 53q107 0 168 -74.5t61 -188.5q0 -200 -110 -333t-300 -163v152q179 59 215 228q-32 -8 -62 -8q-81 0 -133.5 56t-52.5 141z" />
<glyph unicode="&#x201a;" horiz-adv-x="658" d="M105 181q0 84 63.5 137t150.5 53q107 0 168 -74.5t61 -188.5q0 -200 -110 -333t-300 -163v152q179 59 215 228q-32 -8 -62 -8q-81 0 -133.5 56t-52.5 141z" />
<glyph unicode="&#x201c;" horiz-adv-x="1201" d="M94 1124q0 200 110 333t300 163v-152q-179 -59 -215 -228q32 8 62 8q81 0 133.5 -56t52.5 -141q0 -84 -63.5 -137t-150.5 -53q-107 0 -168 74.5t-61 188.5zM654 1124q0 200 110 333t300 163v-152q-179 -59 -215 -228q32 8 62 8q81 0 133.5 -56t52.5 -141 q0 -84 -63.5 -137t-150.5 -53q-107 0 -168 74.5t-61 188.5z" />
<glyph unicode="&#x201d;" horiz-adv-x="1204" d="M115 1425q0 84 63.5 137t150.5 53q107 0 168 -74.5t61 -188.5q0 -200 -110 -333t-300 -163v152q179 59 215 228q-32 -8 -62 -8q-81 0 -133.5 56t-52.5 141zM675 1425q0 84 63.5 137t150.5 53q107 0 168 -74.5t61 -188.5q0 -200 -110 -333t-300 -163v152q179 59 215 228 q-32 -8 -62 -8q-81 0 -133.5 56t-52.5 141z" />
<glyph unicode="&#x201e;" horiz-adv-x="1218" d="M105 181q0 84 63.5 137t150.5 53q107 0 168 -74.5t61 -188.5q0 -200 -110 -333t-300 -163v152q179 59 215 228q-32 -8 -62 -8q-81 0 -133.5 56t-52.5 141zM665 181q0 84 63.5 137t150.5 53q107 0 168 -74.5t61 -188.5q0 -200 -110 -333t-300 -163v152q179 59 215 228 q-32 -8 -62 -8q-81 0 -133.5 56t-52.5 141z" />
<glyph unicode="&#x2022;" horiz-adv-x="987" d="M138 747q0 147 104.5 254.5t251.5 107.5q146 0 250.5 -107.5t104.5 -254.5q0 -148 -104 -252.5t-251 -104.5q-148 0 -252 104.5t-104 252.5z" />
<glyph unicode="&#x2026;" horiz-adv-x="2052" d="M101 196q0 92 65 157.5t157 65.5q93 0 157.5 -65t64.5 -158q0 -90 -64.5 -155t-157.5 -65q-91 0 -156.5 65t-65.5 155zM804 196q0 92 65 157.5t157 65.5q93 0 157 -65t64 -158q0 -91 -64.5 -155.5t-156.5 -64.5q-91 0 -156.5 65t-65.5 155zM1508 196q0 92 65 157.5 t156 65.5q93 0 157.5 -65t64.5 -158q0 -90 -64.5 -155t-157.5 -65q-91 0 -156 65t-65 155z" />
<glyph unicode="&#x202f;" horiz-adv-x="427" />
<glyph unicode="&#x2039;" horiz-adv-x="816" d="M58 617l478 472l173 -170l-306 -301l307 -303l-175 -169z" />
<glyph unicode="&#x203a;" horiz-adv-x="815" d="M106 315l306 301l-306 303l173 170l478 -472l-477 -471z" />
<glyph unicode="&#x205f;" horiz-adv-x="533" />
<glyph unicode="&#x20ac;" horiz-adv-x="1904" d="M81 538v206h160q-2 36 -2 56q0 34 3 67h-161v206h203q85 249 303 402t485 153q129 0 243.5 -33t196.5 -86t147 -122.5t102.5 -138.5t55.5 -138l-314 -108q-8 33 -28 70.5t-57 79.5t-84.5 75t-117 55t-148.5 22q-132 0 -240.5 -62.5t-173.5 -168.5h559l-67 -206h-562 q-4 -28 -4 -63q0 -30 3 -60h530l-65 -206h-397q63 -108 172 -171t245 -63q97 0 179 31.5t134.5 80.5t84.5 100t45 100l316 -108q-15 -63 -51 -130.5t-101.5 -139.5t-149.5 -128.5t-204.5 -93t-256.5 -36.5q-270 0 -487 151.5t-298 406.5h-198z" />
<glyph unicode="&#x2122;" horiz-adv-x="2179" d="M76 1402v202h747v-202h-262v-723h-222v723h-263zM971 679v925h310l213 -583l202 583h321v-925h-217v619h-7l-225 -619h-150l-227 612h-7v-612h-213z" />
<glyph unicode="&#x25fc;" horiz-adv-x="1095" d="M0 0v1095h1095v-1095h-1095z" />
</font>
</defs>
</svg>
