<?xml version="1.0" encoding="UTF-8"?> <svg xmlns="http://www.w3.org/2000/svg" xmlns:xlink="http://www.w3.org/1999/xlink" width="35px" height="56px" viewBox="0 0 35 56" version="1.1"><!-- Generator: Sketch 64 (93537) - https://sketch.com --><title>Path</title><desc>Created with Sketch.</desc><g id="Page-1" stroke="none" stroke-width="1" fill="none" fill-rule="evenodd"><g id="desktop-wallet" transform="translate(-268.000000, -180.000000)" fill="#15CD72" fill-rule="nonzero"><path d="M269.180463,228.854493 L280.779534,234.621149 C281.718342,235.087353 282.829971,234.646949 283.263138,233.637139 C283.695748,232.62673 283.28711,231.430918 282.34886,230.964113 L282.34886,230.964713 L274.614287,227.118676 C285.287373,224.209248 292.664039,219.384601 297.680863,213.980949 C303.580747,207.633487 306.180866,200.558219 307.288592,195.102366 C308.397991,189.638713 308.042314,185.767475 308.030049,185.618674 C307.925242,184.512263 307.007619,183.705855 305.979613,183.817456 C305.533066,183.866057 305.13948,184.080259 304.845685,184.396462 C304.462134,184.809266 304.247501,185.398472 304.306037,186.024278 C304.306595,186.024878 304.306595,186.024878 304.307152,186.038078 C304.332239,186.325481 304.583108,189.879315 303.53559,194.703362 C302.485285,199.533409 300.16391,205.610268 295.034473,211.132121 C290.51214,215.995168 283.777141,220.476612 273.610253,223.236639 L277.059982,215.023159 C277.485902,214.009749 277.067787,212.815737 276.125634,212.357933 C275.395326,212.00333 274.565228,212.194131 274.030598,212.770137 C273.875617,212.936939 273.745165,213.136141 273.64872,213.364743 L268.260052,226.197067 C267.837477,227.205077 268.248345,228.391288 269.180463,228.854493 Z" id="Path" transform="translate(288.093873, 209.307138) scale(-1, 1) rotate(-62.000000) translate(-288.093873, -209.307138) "></path></g></g></svg> 