<svg id="Layer_1" data-name="Layer 1" xmlns="http://www.w3.org/2000/svg" viewBox="0 0 100 100"><defs><style>.cls-1{fill:#19b6ff;}.cls-2,.cls-5{fill:#fff;}.cls-3,.cls-6{fill:#a5cbff;}.cls-4{fill:none;}.cls-4,.cls-5,.cls-6{stroke:#124ab3;stroke-linejoin:round;stroke-width:2.5px;}</style></defs><title>All icons</title><circle class="cls-1" cx="49.52" cy="49.41" r="48.53"/><path class="cls-2" d="M22.72,73.45l4.77-23,23,23-23,4.78A4,4,0,0,1,22.72,73.45Z"/><path class="cls-3" d="M25.24,68.15l8.1,8.21s-6.09,2.12-6.69,1.79-4.51-1.68-3.42-4.67S25.24,68.15,25.24,68.15Z"/><path class="cls-4" d="M22.72,73.45l4.77-23,23,23-23,4.78A4,4,0,0,1,22.72,73.45Z"/><rect class="cls-5" x="34.72" y="32.32" width="32.84" height="34.93" transform="translate(50.18 -21.58) rotate(45)"/><path class="cls-6" d="M56.47,28.29h22a5.18,5.18,0,0,1,5.18,5.18v5.2a0,0,0,0,1,0,0H51.29a0,0,0,0,1,0,0v-5.2a5.18,5.18,0,0,1,5.18-5.18Z" transform="translate(43.43 -37.89) rotate(45)"/><line class="cls-5" x1="24.37" y1="66.4" x2="34.16" y2="76.2"/><line class="cls-4" x1="34.45" y1="57.41" x2="59.69" y2="32.17"/><line class="cls-4" x1="68.32" y1="41.68" x2="43.67" y2="66.33"/></svg>