<?xml version="1.0" encoding="UTF-8"?>
<svg width="16px" height="16px" viewBox="0 0 16 16" version="1.1" xmlns="http://www.w3.org/2000/svg" xmlns:xlink="http://www.w3.org/1999/xlink">
    <!-- Generator: Sketch 64 (93537) - https://sketch.com -->
    <title>Icon/Close</title>
    <desc>Created with Sketch.</desc>
    <g id="Page-1" stroke="none" stroke-width="1" fill="none" fill-rule="evenodd">
        <g id="Mobile-menu" transform="translate(-331.000000, -30.000000)">
            <g id="Icon/Close" transform="translate(323.000000, 22.000000)">
                <polygon id="24pt-Bounding-Box" opacity="0" fill-rule="nonzero" points="0 0 32 0 32 32 0 32"></polygon>
                <path d="M17.88,16 L23.6133333,10.28 L23.6133334,10.2799999 C24.1361628,9.75717057 24.1361628,8.90949324 23.6133332,8.38666657 C23.0905039,7.86383724 22.2428266,7.86383724 21.7199999,8.38666676 L15.9999999,14.1200001 L10.2799999,8.38666676 L10.28,8.38666685 C9.75717067,7.86383752 8.90949333,7.86383752 8.38666667,8.38666667 C7.86383733,8.909496 7.86383733,9.75717333 8.38666648,10.28 C8.38666648,10.28 8.38666648,10.28 8.38666648,10.28 L14.1199998,16 L8.38666648,21.72 L8.38666651,21.72 C7.86383718,22.23856 7.86037585,23.0827733 8.37893535,23.6056 C8.38150181,23.6081876 8.38407886,23.6107646 8.38666645,23.6133311 L8.3866664,23.613331 C8.9052264,24.1361604 9.74943974,24.1396217 10.2722664,23.6210622 C10.274854,23.6184958 10.277431,23.6159187 10.2799975,23.6133311 L15.9999975,17.8799978 L21.7199975,23.6133311 L21.7199975,23.6133311 C22.2385575,24.1361604 23.0827708,24.1396217 23.6055975,23.6210623 C23.608185,23.6184958 23.6107621,23.6159188 23.6133285,23.6133312 L23.6133286,23.6133311 C24.1361579,23.0947711 24.1396193,22.2505578 23.6210596,21.7277311 C23.6184931,21.7251435 23.6159161,21.7225665 23.6133285,21.72 L17.88,16 Z" id="Fill" fill="#5E96FF" fill-rule="evenodd"></path>
            </g>
        </g>
    </g>
</svg>