<svg id="Layer_1" data-name="Layer 1" xmlns="http://www.w3.org/2000/svg" viewBox="0 0 100 100"><defs><style>.cls-1{fill:#19b6ff;}.cls-2,.cls-3{fill:#fff;}.cls-2,.cls-4{stroke:#124ab3;stroke-linejoin:round;stroke-width:2.5px;}.cls-4{fill:none;}</style></defs><title>All icons</title><circle class="cls-1" cx="50.18" cy="50.22" r="48.53"/><circle class="cls-2" cx="50.15" cy="50.22" r="31.09"/><circle class="cls-3" cx="50.38" cy="50.22" r="25.88"/><path class="cls-4" d="M73.13,29.2a31.1,31.1,0,0,1-45.85.11"/><path class="cls-4" d="M73.13,72.38a31.08,31.08,0,0,0-45.85-.11"/><path class="cls-4" d="M47.7,19.39A40.44,40.44,0,0,0,33.06,50.27,40.43,40.43,0,0,0,47.54,81"/><path class="cls-4" d="M52.69,19.39A40.47,40.47,0,0,1,67.32,50.27,40.4,40.4,0,0,1,52.84,81"/><line class="cls-4" x1="18.68" y1="50.22" x2="81.25" y2="50.22"/><line class="cls-4" x1="50.16" y1="19.43" x2="50.16" y2="80.44"/></svg>