<?xml version="1.0" encoding="UTF-8"?>
<svg width="32px" height="32px" viewBox="0 0 32 32" version="1.1" xmlns="http://www.w3.org/2000/svg" xmlns:xlink="http://www.w3.org/1999/xlink">
    <title>Group 12</title>
    <g id="Page-1" stroke="none" stroke-width="1" fill="none" fill-rule="evenodd">
        <g id="Group-12">
            <g id="Payments-Copy-5" fill="#19B6FF" fill-rule="nonzero">
                <circle id="Oval" cx="16" cy="16" r="16"></circle>
            </g>
            <g id="Fantom_heroimage" transform="translate(4.000000, 4.000000)">
                <g id="Group-13" transform="translate(0.182857, 0.000000)">
                    <path d="M23.2627301,11.8375949 C23.2627301,13.3296375 22.9766398,14.7548538 22.4565036,16.0615074 C20.7769163,20.2804927 16.6555529,23.2627301 11.8375949,23.2627301 C5.5275944,23.2627301 0.412459754,18.1475955 0.412459754,11.8375949 C0.412459754,9.46387682 1.13646225,7.25891811 2.37567368,5.43212831 C2.99928281,4.5125743 3.75346491,3.68879434 4.6114279,2.98788847 C6.58049297,1.37789907 9.09617839,0.412459754 11.8375949,0.412459754 C15.5737065,0.412459754 18.8909991,2.20568245 20.9755474,4.97851041 C22.4118501,6.88875605 23.2627301,9.26370598 23.2627301,11.8375949 Z" id="Path" fill="#FFFFFF" fill-rule="nonzero"></path>
                    <path d="M15.4445255,4.96589841 L15.4165337,5.26463352 L15.7287498,5.68273961 L15.177527,6.00085711 L13.6007589,6.36543085 L13.3442188,7.05981307 L12.7966872,7.37577698 L12.6508838,7.05981307 L12.832369,6.74015728 L12.0732072,6.32574308 L12.200862,5.6655108 L12.4832407,5.16156837 L12.413415,4.96651373 L12.1479545,4.85821841 L11.931095,4.0423116 L11.2485261,3.86663936 L10.2257493,3.94601491 L9.88707947,4.3296634 L8.5646983,4.96651373 L7.86921008,5.81810876 L7.73355758,6.54479498 L7.98517605,6.78230631 L8.26078748,6.74015728 L8.4601136,6.36543085 L8.79539983,6.25129005 L9.28417947,5.95901574 L10.5275069,6.71246814 L10.5693408,6.92198266 L10.6533161,7.37577698 L11.0162866,8.16061041 L11.0581204,8.56702552 L10.541349,8.93375286 L10.0664115,9.05958464 L9.53149151,9.00359104 L9.2281959,9.26140774 L9.02856217,9.55152845 L8.66959059,9.66782286 L7.24477794,9.60444548 L6.51145468,9.95548231 L6.53237162,10.6034083 L6.08234983,11.2531802 L6.00852534,11.7349713 L6.53237162,12.0075556 L6.86765784,12.7200896 L6.98977585,13.6642894 L7.62528167,13.8519603 L8.26078748,13.935643 L8.64867365,14.3586716 L9.38199692,14.7650868 L9.96859401,15.7797401 L10.4373795,16.0769369 L11.5429013,16.4085913 L11.7046999,17.1208177 L11.1002619,17.6610636 L10.0664115,18.0674788 L9.73112523,18.308682 L9.66222238,19.3722528 L9.26572335,19.8408147 L9.18636202,20.5022776 L9.10269427,21.0354474 L8.55793105,20.6757962 L8.11067769,20.0410995 L6.84058886,18.1539304 L5.71907182,17.3734042 L6.23891927,16.2726069 L5.71907182,16.0172514 L6.04297677,15.3191773 L6.35457764,14.9835233 L6.35457764,14.2568371 L5.8058156,14.0710122 L5.55450473,14.2709894 L5.2330606,14.2011512 L3.81286198,13.0415913 L3.2588707,12.8834555 L2.81653897,12.3847433 L2.81653897,11.4626948 L2.06229877,10.4984972 L2.28531025,8.74608199 L3.17735616,7.22933217 L3.10999132,6.55863955 L3.47296172,6.11161369 L3.91314024,5.64705137 L3.81286198,5.22494575 L3.81286198,4.85821841 L3.23549295,4.85821841 L2.61413683,5.68858509 L2.39666219,5.54429388 C3.01955632,4.62562959 3.77287371,3.80264667 4.629853,3.10241897 L4.70798392,3.24024938 L5.08356601,3.02335108 L5.38686162,2.65662374 L5.78397585,2.61908956 L6.01529259,2.85629324 L5.85041789,3.46637739 L6.57420549,3.5266782 L8.36229615,2.71630923 L9.59147391,2.65662374 L10.1669973,2.8141442 L10.3598638,2.78645506 L10.6671582,2.55725047 L11.7846765,2.65662374 L12.0732072,2.92613141 L12.2177801,3.17748732 L13.5029415,3.19163954 L13.824078,3.3506983 L14.6149228,3.20548412 L15.4725173,3.66666221 L15.4725173,3.91801811 L16.0034384,4.45149563 L16.0034384,4.67239348 L15.4445255,4.96589841 Z" id="Path" stroke="#1969FF" stroke-width="0.600000024" fill="#1969FF" stroke-linecap="round" stroke-linejoin="round"></path>
                    <path d="M23.2627301,11.940892 C23.2627301,13.4258228 22.9760053,14.8442459 22.4547154,16.1446714 L21.9951532,15.8482982 L21.6587376,16.2534744 L20.9859064,16.3264183 L20.1522748,17.4328374 L19.4303701,18.7332629 L18.3729758,18.6685941 L17.1597192,19.1381326 L17.1807066,17.8334162 L17.7063174,16.54004 L17.99582,16.0741793 L17.6019977,15.6791172 L16.5708376,15.8482982 L15.3094335,15.5746051 L15.2890633,14.9812457 L14.9310431,14.0602514 L15.1205469,12.96364 L16.5498502,12.0254824 L17.7273048,11.0569827 L17.6019977,10.146409 L18.2396441,9.6738056 L18.7365515,8.86375974 L18.2396441,8.57719414 L18.1266825,7.93357087 L17.790267,7.36994078 L17.4961348,7.075713 L18.2396441,6.45109194 L19.3461119,6.28405637 L19.7711066,6.56326628 L20.4618388,6.16697824 L20.4183209,5.97910154 L20.1522748,5.57392536 L20.4393082,5.28735976 L20.7899212,5.28735976 L20.9704745,5.11450094 C22.4099629,7.01564149 23.2627301,9.37927133 23.2627301,11.940892 Z" id="Path" stroke="#1969FF" stroke-width="0.600000024" fill="#1969FF" stroke-linecap="round" stroke-linejoin="round"></path>
                    <ellipse id="Oval" stroke="#1969FF" stroke-width="0.600000024" stroke-linecap="round" stroke-linejoin="round" cx="11.8375949" cy="11.8788409" rx="11.8375949" ry="11.8788409"></ellipse>
                </g>
            </g>
        </g>
    </g>
</svg>