<?xml version="1.0" encoding="UTF-8"?>
<svg width="114px" height="27px" viewBox="0 0 114 27" version="1.1" xmlns="http://www.w3.org/2000/svg" xmlns:xlink="http://www.w3.org/1999/xlink">
    <!-- Generator: sketchtool 63.1 (101010) - https://sketch.com -->
    <title>40D36F17-C32A-4C32-8BF7-6674A9DF3001</title>
    <desc>Created with sketchtool.</desc>
    <g id="Page-1" stroke="none" stroke-width="1" fill="none" fill-rule="evenodd">
        <g id="Intro-to-Fantom" transform="translate(-95.000000, -36.000000)" fill="#1969FF" fill-rule="nonzero">
            <g id="Fantom-Logo-blue" transform="translate(55.000000, 30.000000)">
                <path d="M47.4058287,31.9473728 L47.4058287,17.333919 L51.4567505,17.333919 L51.4567505,14.6582162 L47.4058287,14.6582162 L47.4058287,12.7371988 C47.4058287,10.5646196 48.3556211,9.47832999 50.2552059,9.47832999 C50.8044835,9.47832999 51.3880909,9.56980701 52.0060281,9.75276104 L52.0060281,9.75276104 L52.0060281,6.90553882 C51.2507715,6.67684627 50.4154119,6.5625 49.4999493,6.5625 C47.7376839,6.5625 46.3702117,7.06562361 45.3975328,8.07187082 C44.4248538,9.07811803 43.9385143,10.5417503 43.9385143,12.4627677 L43.9385143,12.4627677 L43.9385143,14.6582162 L40.6085193,14.6582162 L40.6085193,17.333919 L43.9385143,17.333919 L43.9385143,31.9473728 L47.4058287,31.9473728 Z M61.4810655,32.1875 C62.8084862,32.1875 63.9699793,31.9130689 64.9655449,31.3642068 C65.9611104,30.8153447 66.7106454,30.0263554 67.2141498,28.997239 L67.2141498,28.997239 L67.2141498,31.9473728 L70.6471344,31.9473728 L70.6471344,14.6582162 L67.2141498,14.6582162 L67.2141498,17.4711345 C66.6877588,16.4420181 65.9325022,15.6473115 64.94838,15.0870147 C63.9642577,14.526718 62.8084862,14.2465696 61.4810655,14.2465696 C59.9934389,14.2465696 58.6660182,14.6239123 57.4988034,15.3785977 C56.3315887,16.1332831 55.4218477,17.1967035 54.7695807,18.5688588 C54.1173136,19.9410141 53.7911801,21.5189926 53.7911801,23.3027945 C53.7911801,25.0865964 54.111592,26.647423 54.7524157,27.9852744 C55.3932395,29.3231258 56.2915372,30.3579596 57.4473086,31.0897758 C58.6030801,31.8215919 59.9476657,32.1875 61.4810655,32.1875 Z M62.3049818,29.4431894 C60.7258089,29.4431894 59.4956561,28.9057619 58.6145234,27.830907 C57.7333907,26.756052 57.2928243,25.2466812 57.2928243,23.3027945 C57.2928243,21.3360386 57.7333907,19.7980812 58.6145234,18.6889224 C59.4956561,17.5797635 60.7143656,17.0251841 62.270652,17.0251841 C63.8498249,17.0251841 65.0685344,17.5626116 65.9267806,18.6374665 C66.7850267,19.7123215 67.2141498,21.2445616 67.2141498,23.2341867 C67.2141498,25.2009427 66.7850267,26.7274654 65.9267806,27.813755 C65.0685344,28.9000446 63.8612682,29.4431894 62.3049818,29.4431894 Z M79.1609361,31.9473728 L79.1609361,22.1021586 C79.1609361,20.5699186 79.6015025,19.3464134 80.4826352,18.4316432 C81.3637679,17.516873 82.5367043,17.059488 84.0014444,17.059488 C85.283092,17.059488 86.2157194,17.4025268 86.7993268,18.0886044 C87.3829342,18.7746821 87.6747379,19.8724063 87.6747379,21.3817771 L87.6747379,21.3817771 L87.6747379,31.9473728 L91.1420523,31.9473728 L91.1420523,21.1759538 C91.1420523,16.5563643 89.0708183,14.2465696 84.9283502,14.2465696 C83.6009295,14.2465696 82.4165498,14.5381526 81.3752112,15.1213186 C80.3338725,15.7044846 79.5385644,16.5449297 78.9892869,17.6426539 L78.9892869,17.6426539 L78.6803183,14.6582162 L75.4533128,14.6582162 C75.6364053,16.0989793 75.7279515,17.7226963 75.7279515,19.5293675 L75.7279515,19.5293675 L75.7279515,31.9473728 L79.1609361,31.9473728 Z M102.74554,32.1875 C103.706776,32.1875 104.565022,32.0617191 105.320279,31.8101573 L105.320279,31.8101573 L105.320279,28.997239 C104.702341,29.180193 104.095847,29.27167 103.500797,29.27167 C102.585334,29.27167 101.870129,29.0258255 101.355181,28.5341365 C100.840234,28.0424476 100.58276,27.2020025 100.58276,26.0128012 L100.58276,26.0128012 L100.58276,17.333919 L105.354608,17.333919 L105.354608,14.6582162 L100.58276,14.6582162 L100.58276,9.13529116 L97.1154455,10.335927 L97.1154455,14.6582162 L93.7511206,14.6582162 L93.7511206,17.333919 L97.1154455,17.333919 L97.1154455,26.2872323 C97.1154455,28.2082497 97.6075066,29.671882 98.5916289,30.6781292 C99.5757511,31.6843764 100.960388,32.1875 102.74554,32.1875 Z M115.996861,32.1875 C117.66758,32.1875 119.143763,31.8215919 120.425411,31.0897758 C121.707058,30.3579596 122.696902,29.3174085 123.394942,27.9681225 C124.092983,26.6188365 124.442003,25.0408579 124.442003,23.2341867 C124.442003,21.4275156 124.092983,19.8438197 123.394942,18.4830991 C122.696902,17.1223784 121.707058,16.07611 120.425411,15.3442938 C119.143763,14.6124777 117.66758,14.2465696 115.996861,14.2465696 C114.303255,14.2465696 112.815628,14.6124777 111.533981,15.3442938 C110.252333,16.07611 109.262489,17.1223784 108.564449,18.4830991 C107.866409,19.8438197 107.517389,21.4275156 107.517389,23.2341867 C107.517389,25.0408579 107.866409,26.6188365 108.564449,27.9681225 C109.262489,29.3174085 110.252333,30.3579596 111.533981,31.0897758 C112.815628,31.8215919 114.303255,32.1875 115.996861,32.1875 Z M115.962531,29.4431894 C114.383358,29.4431894 113.164648,28.9171966 112.306402,27.8652108 C111.448156,26.8132251 111.019033,25.2695504 111.019033,23.2341867 C111.019033,21.2445616 111.453878,19.7123215 112.323567,18.6374665 C113.193257,17.5626116 114.417688,17.0251841 115.996861,17.0251841 C117.553147,17.0251841 118.760413,17.5626116 119.618659,18.6374665 C120.476906,19.7123215 120.906029,21.2445616 120.906029,23.2341867 C120.906029,25.2695504 120.482627,26.8132251 119.635824,27.8652108 C118.789021,28.9171966 117.56459,29.4431894 115.962531,29.4431894 Z M131.925909,31.9473728 L131.925909,22.1707664 C131.925909,20.5927878 132.314981,19.3464134 133.093124,18.4316432 C133.871267,17.516873 134.924049,17.059488 136.25147,17.059488 C137.395798,17.059488 138.225436,17.4025268 138.740384,18.0886044 C139.255331,18.7746821 139.512805,19.8609717 139.512805,21.3474732 L139.512805,21.3474732 L139.512805,31.9473728 L142.980119,31.9473728 L142.980119,22.1707664 C142.980119,20.5927878 143.363469,19.3464134 144.130169,18.4316432 C144.896869,17.516873 145.94393,17.059488 147.27135,17.059488 C148.415678,17.059488 149.245316,17.4025268 149.760264,18.0886044 C150.275212,18.7746821 150.532686,19.8609717 150.532686,21.3474732 L150.532686,21.3474732 L150.532686,31.9473728 L154,31.9473728 L154,21.1759538 C154,16.5563643 152.077529,14.2465696 148.232586,14.2465696 C146.950938,14.2465696 145.800888,14.5438699 144.782436,15.1384705 C143.763984,15.7330712 142.991563,16.5449297 142.465172,17.5740462 C141.641256,15.3557285 139.890433,14.2465696 137.212705,14.2465696 C135.953944,14.2465696 134.855389,14.5324353 133.91704,15.1041667 C132.978691,15.675898 132.257764,16.4877566 131.75426,17.5397423 L131.75426,17.5397423 L131.445291,14.6582162 L128.218286,14.6582162 C128.401378,16.0989793 128.492925,17.7226963 128.492925,19.5293675 L128.492925,19.5293675 L128.492925,31.9473728 L131.925909,31.9473728 Z" id="fantom"></path>
            </g>
        </g>
    </g>
</svg>