<svg id="Component_1_1" data-name="Component 1 – 1" xmlns="http://www.w3.org/2000/svg" width="308.074" height="80.337" viewBox="0 0 308.074 80.337">
  <g id="Page-1" transform="translate(80.337 14.059)">
    <g id="Intro-to-Fantom" transform="translate(0 0)">
      <g id="Fantom-Logo-blue" transform="translate(0)">
        <path id="fantom" d="M54.26,57.546V28.2H62.4V22.822H54.26V18.964q0-6.545,5.723-6.545a12.4,12.4,0,0,1,3.516.551h0V7.251a17.319,17.319,0,0,0-5.033-.689q-5.309,0-8.239,3.031T47.3,18.413h0v4.409H40.609V28.2H47.3v29.35Zm28.269.482a14.265,14.265,0,0,0,7-1.654,10.638,10.638,0,0,0,4.516-4.754h0v5.925h6.895V22.822H94.044v5.65a11.307,11.307,0,0,0-4.551-4.788A13.837,13.837,0,0,0,82.529,22a14.406,14.406,0,0,0-8,2.274,15.177,15.177,0,0,0-5.481,6.407,21.9,21.9,0,0,0-1.965,9.508,21.545,21.545,0,0,0,1.931,9.4,14.314,14.314,0,0,0,13.514,8.44Zm1.655-5.512a9.052,9.052,0,0,1-7.412-3.238q-2.655-3.238-2.655-9.094,0-5.925,2.655-9.267a8.858,8.858,0,0,1,7.343-3.341,8.854,8.854,0,0,1,7.343,3.238q2.586,3.238,2.586,9.232,0,5.925-2.586,9.2A8.74,8.74,0,0,1,84.184,52.516Zm33.854,5.029V37.773a10.178,10.178,0,0,1,2.655-7.372,9.359,9.359,0,0,1,7.067-2.756q3.861,0,5.619,2.067t1.758,6.614h0v21.22H142.1V35.912Q142.1,22,129.621,22a14.353,14.353,0,0,0-7.136,1.757,11.612,11.612,0,0,0-4.792,5.064h0l-.621-5.994h-6.481a78.192,78.192,0,0,1,.552,9.783h0V57.546Zm47.368.482a16.33,16.33,0,0,0,5.171-.758h0v-5.65a12.832,12.832,0,0,1-3.654.551,5.986,5.986,0,0,1-4.309-1.481q-1.551-1.481-1.551-5.064h0V28.2h9.584V22.822h-9.584V11.73L154.1,14.141v8.681h-6.757V28.2H154.1V46.178q0,5.787,2.965,8.819T165.405,58.028Zm26.614,0a17.62,17.62,0,0,0,8.894-2.2,14.966,14.966,0,0,0,5.964-6.27,20.42,20.42,0,0,0,2.1-9.508,20.631,20.631,0,0,0-2.1-9.542,14.92,14.92,0,0,0-5.964-6.3,19.183,19.183,0,0,0-17.858,0,14.92,14.92,0,0,0-5.964,6.3,20.631,20.631,0,0,0-2.1,9.542,20.42,20.42,0,0,0,2.1,9.508,14.966,14.966,0,0,0,5.964,6.27A17.761,17.761,0,0,0,192.02,58.028Zm-.069-5.512a8.937,8.937,0,0,1-7.343-3.169q-2.586-3.169-2.586-9.3,0-5.994,2.62-9.232a8.953,8.953,0,0,1,7.378-3.238,8.778,8.778,0,0,1,7.274,3.238q2.586,3.238,2.586,9.232,0,6.132-2.551,9.3A8.916,8.916,0,0,1,191.951,52.516Zm32.061,5.029V37.91a11.217,11.217,0,0,1,2.344-7.51,7.9,7.9,0,0,1,6.343-2.756q3.447,0,5,2.067t1.551,6.545h0V57.546h6.964V37.91a11.328,11.328,0,0,1,2.31-7.51,7.8,7.8,0,0,1,6.309-2.756q3.447,0,5,2.067t1.551,6.545h0V57.546h6.964V35.912Q268.346,22,256.762,22a13.487,13.487,0,0,0-6.929,1.791,11.78,11.78,0,0,0-4.654,4.892Q242.7,22,234.63,22a12.469,12.469,0,0,0-6.619,1.722,11.269,11.269,0,0,0-4.344,4.892h0l-.621-5.787h-6.481a78.189,78.189,0,0,1,.552,9.783h0V57.546Z" transform="translate(-40.609 -6.562)" fill="#1969ff"/>
      </g>
    </g>
  </g>
  <g id="Page-1-2" data-name="Page-1">
    <g id="Intro-to-Fantom-2" data-name="Intro-to-Fantom" transform="translate(0)">
      <g id="Fantom-Logo-blue-2" data-name="Fantom-Logo-blue">
        <path id="Combined-Shape" d="M28.2.77a8.058,8.058,0,0,1,6.873,0h0L54.993,11.24a3.357,3.357,0,0,1,1.937,2.489h.019V66.358A3.273,3.273,0,0,1,54.993,69.1h0L35.077,79.567a8.058,8.058,0,0,1-6.873,0h0L8.288,69.1a3.241,3.241,0,0,1-1.914-2.739c0-.09,0-.166,0-.232v-52.4A3.232,3.232,0,0,1,8.288,11.24h0ZM53.813,43.091l-18.736,9.85a8.058,8.058,0,0,1-6.873,0h0l-18.7-9.828V66.254l18.7,9.777a9.154,9.154,0,0,0,3.008,1.158l.429.027a7.9,7.9,0,0,0,3.3-1.095h0l18.873-9.954ZM3.135,65.214a9.661,9.661,0,0,0,.7,4.275,5.454,5.454,0,0,0,2.03,2.085l.061.041c.233.156.49.32.8.513l.368.225,1.131.679L6.608,75.7,5.342,74.94l-.213-.13c-.366-.225-.67-.418-.953-.608C1.151,72.172.023,69.958,0,65.354v-.14ZM30.069,28.986a2.852,2.852,0,0,0-.4.171h0L9.752,39.627h0l-.06.033-.017.01.031.018.045.025,19.916,10.47a2.853,2.853,0,0,0,.4.171Zm3.143,0V50.352a2.853,2.853,0,0,0,.4-.171h0l19.916-10.47h0l.06-.033.017-.01-.031-.018-.045-.025L33.613,29.156A2.852,2.852,0,0,0,33.212,28.986Zm20.6-11.522L35.949,26.855l17.865,9.391Zm-44.306.022V36.224l17.823-9.369ZM33.613,3.529a4.969,4.969,0,0,0-3.945,0h0L9.752,14h0l-.06.033-.017.01.031.018.045.025,19.916,10.47a4.969,4.969,0,0,0,3.945,0h0l19.916-10.47h0l.06-.033.017-.01-.031-.018L53.529,14ZM56.757,4.677l1.266.761.213.13c.366.225.67.418.953.608,3.025,2.03,4.154,4.244,4.176,8.848v.14H60.23a9.661,9.661,0,0,0-.7-4.275A5.454,5.454,0,0,0,57.5,8.8l-.061-.041c-.233-.156-.49-.32-.8-.513l-.368-.225-1.131-.679Z" transform="translate(0 0)" fill="#1969ff"/>
      </g>
    </g>
  </g>
</svg>
