<?xml version="1.0" encoding="UTF-8"?>
<svg width="153px" height="28px" viewBox="0 0 153 28" version="1.1" xmlns="http://www.w3.org/2000/svg" xmlns:xlink="http://www.w3.org/1999/xlink">
    <!-- Generator: Sketch 64 (93537) - https://sketch.com -->
    <title>Fantom blog Logo blue</title>
    <desc>Created with Sketch.</desc>
    <g id="Page-1" stroke="none" stroke-width="1" fill="none" fill-rule="evenodd">
        <g id="blog" transform="translate(-55.000000, -35.000000)">
            <g id="Fantom-blog-Logo-blue" transform="translate(55.000000, 35.000000)">
                <g>
                    <path d="M2.1417223,4.6200825 C2.17423205,4.29696731 2.38130593,3.99480792 2.78479336,3.78236346 L2.78479336,3.78236346 L9.47663774,0.258969319 C10.1324381,-0.0863231065 11.1303,-0.0863231065 11.7861004,0.258969319 L11.7861004,0.258969319 L18.4779448,3.78236346 C18.8730728,3.99040654 19.0900059,4.30044698 19.1287439,4.62048716 L19.1350599,4.6200825 L19.1350599,22.3303988 C19.1264027,22.6793179 18.9074482,23.0259769 18.4779448,23.2521193 L18.4779448,23.2521193 L11.7861004,26.7755134 C11.1303,27.1208059 10.1324381,27.1208059 9.47663774,26.7755134 L9.47663774,26.7755134 L2.78479336,23.2521193 C2.357131,23.0269462 2.15188912,22.6778979 2.1417223,22.3303988 L2.1417223,22.3303988 L2.1417223,4.6200825 Z M18.081,14.5 L11.7861004,17.8153534 C11.1303,18.1606459 10.1324381,18.1606459 9.47663774,17.8153534 L9.47663774,17.8153534 L3.195,14.507 L3.195,22.295 L9.47663774,25.5854569 C9.80094111,25.7581716 10.1364982,25.9270131 10.4667575,25.9725335 L10.6313691,25.984464 C11.0064894,25.9857167 11.3706619,25.7958307 11.7399737,25.6160824 L11.7399737,25.6160824 L18.081,22.267 L18.081,14.5 Z M1.05330605,21.9453919 C1.05330605,22.6239527 1.13241636,23.069942 1.28948964,23.3841403 C1.41967991,23.6445638 1.61502102,23.8435841 1.97170105,24.0857488 L1.99206344,24.0995031 C2.07033856,24.1521097 2.15656784,24.2072279 2.26153045,24.271994 L2.3853091,24.3475672 L2.76540263,24.5762265 L2.220246,25.4746673 L1.79482459,25.2185349 L1.72331816,25.1747718 C1.60031014,25.0990819 1.49835848,25.0340542 1.40326073,24.9701415 C0.386713112,24.2869466 0.00759393617,23.5420856 0.000113207412,21.9925933 L-1.08862468e-13,21.9453919 L1.05330605,21.9453919 Z M10.1037343,9.7539924 C10.055325,9.770601 10.0099518,9.7898015 9.9685624,9.8115939 L9.9685624,9.8115939 L3.27671801,13.334988 C3.26969571,13.3386854 3.26299876,13.3423472 3.25662389,13.3459616 L3.25662389,13.3459616 L3.2509589,13.3492384 L3.26146548,13.3552347 L3.27671801,13.3634887 L9.9685624,16.8868829 C10.0099518,16.9086753 10.055325,16.9278758 10.1037343,16.9444844 Z M11.1590039,9.7539924 L11.1590039,16.9444844 C11.2074131,16.9278758 11.2527863,16.9086753 11.2941757,16.8868829 L11.2941757,16.8868829 L17.9860201,13.3634887 C17.9930424,13.3597913 17.9997394,13.3561296 18.0061142,13.3525152 L18.0061142,13.3525152 L18.0117792,13.3492384 L17.9860201,13.334988 L11.2941757,9.8115939 C11.2527863,9.7898015 11.2074131,9.770601 11.1590039,9.7539924 Z M18.081,5.876 L12.078,9.037 L18.081,12.198 L18.081,5.876 Z M3.195,5.883 L3.195,12.19 L9.184,9.037 L3.195,5.883 Z M11.2941757,1.1874399 C10.9461776,1.0042117 10.3165605,1.0042117 9.9685624,1.1874399 L9.9685624,1.1874399 L3.27671801,4.71083404 C3.26969571,4.71453143 3.26299876,4.71819319 3.25662389,4.72180757 L3.25662389,4.72180757 L3.2509589,4.72508438 L3.26146548,4.73108067 L3.27671801,4.73933471 L9.9685624,8.26272885 C10.3165605,8.44595705 10.9461776,8.44595705 11.2941757,8.26272885 L11.2941757,8.26272885 L17.9860201,4.73933471 C17.9930424,4.73563732 17.9997394,4.73197556 18.0061142,4.72836118 L18.0061142,4.72836118 L18.0117792,4.72508438 L17.9860201,4.71083404 Z M19.0705803,1.57381575 L19.4960017,1.82994813 L19.5675081,1.87371119 C19.6905161,1.94940113 19.7924678,2.01442879 19.8875656,2.07834149 C20.9041132,2.76153641 21.2832323,3.50639742 21.2907131,5.05588976 L21.2908263,5.10309113 L20.2375202,5.10309113 C20.2375202,4.4245303 20.1584099,3.97854102 20.0013366,3.66434266 C19.8711464,3.40391919 19.6758053,3.20489891 19.3191252,2.96273418 L19.2987628,2.94897996 C19.2204877,2.89637331 19.1342584,2.84125515 19.0292958,2.77648902 L18.9055172,2.70091578 L18.5254237,2.4722565 L19.0705803,1.57381575 Z" id="Combined-Shape" fill="#1969FF" fill-rule="nonzero"></path>
                    <path d="M31.9910934,21.5920175 L31.9910934,11.7153384 L34.7247956,11.7153384 L34.7247956,9.90693233 L31.9910934,9.90693233 L31.9910934,8.60858953 C31.9910934,7.14022565 32.6320462,6.40604372 33.9139518,6.40604372 C34.2846233,6.40604372 34.6784617,6.46786956 35.0954671,6.59152126 L35.0954671,6.59152126 L35.0954671,4.66719176 C34.5857938,4.51262714 34.0220643,4.43534483 33.4042785,4.43534483 C32.2150408,4.43534483 31.2922233,4.77538699 30.6358258,5.45547131 C29.9794284,6.13555563 29.6512297,7.12476919 29.6512297,8.42311199 L29.6512297,8.42311199 L29.6512297,9.90693233 L27.4040338,9.90693233 L27.4040338,11.7153384 L29.6512297,11.7153384 L29.6512297,21.5920175 L31.9910934,21.5920175 Z M41.4895502,21.7543103 C42.3853396,21.7543103 43.1691554,21.5688328 43.8409974,21.1978777 C44.5128395,20.8269226 45.0186516,20.2936747 45.3584338,19.5981339 L45.3584338,19.5981339 L45.3584338,21.5920175 L47.6751306,21.5920175 L47.6751306,9.90693233 L45.3584338,9.90693233 L45.3584338,11.8080771 C45.003207,11.1125364 44.4935337,10.5754243 43.829414,10.196741 C43.1652942,9.81805767 42.3853396,9.62871601 41.4895502,9.62871601 C40.4856483,9.62871601 39.5898589,9.88374763 38.802182,10.3938109 C38.0145051,10.9038741 37.4005804,11.6225996 36.960408,12.5499873 C36.5202356,13.477375 36.3001494,14.5438709 36.3001494,15.7494749 C36.3001494,16.9550789 36.5163745,18.0099825 36.9488245,18.9141855 C37.3812746,19.8183885 37.9874769,20.5177934 38.7674315,21.0124002 C39.5473861,21.507007 40.454759,21.7543103 41.4895502,21.7543103 Z M42.0455574,19.8995349 C40.9798769,19.8995349 40.1497273,19.5363081 39.5551084,18.8098544 C38.9604896,18.0834007 38.6631802,17.0632742 38.6631802,15.7494749 C38.6631802,14.4202192 38.9604896,13.3807721 39.5551084,12.6311337 C40.1497273,11.8814953 40.9721546,11.5066761 42.0223905,11.5066761 C43.088071,11.5066761 43.9104984,11.869903 44.4896725,12.5963567 C45.0688467,13.3228104 45.3584338,14.3583933 45.3584338,15.7031055 C45.3584338,17.0323612 45.0688467,18.0640801 44.4896725,18.798262 C43.9104984,19.532444 43.0957933,19.8995349 42.0455574,19.8995349 Z M53.4205386,21.5920175 L53.4205386,14.9380107 C53.4205386,13.9024277 53.717848,13.075507 54.3124669,12.4572485 C54.9070857,11.8389901 55.6986238,11.5298608 56.6870811,11.5298608 C57.5519812,11.5298608 58.1813505,11.7617078 58.5751889,12.2254016 C58.9690274,12.6890955 59.1659466,13.4310056 59.1659466,14.4511321 L59.1659466,14.4511321 L59.1659466,21.5920175 L61.5058104,21.5920175 L61.5058104,14.312024 C61.5058104,11.1898187 60.10807,9.62871601 57.3125892,9.62871601 C56.4167998,9.62871601 55.6175394,9.8257859 54.914808,10.2199257 C54.2120767,10.6140655 53.6753753,11.1820904 53.3047038,11.9240006 L53.3047038,11.9240006 L53.0962011,9.90693233 L50.9185061,9.90693233 C51.0420633,10.8806894 51.1038418,11.9780982 51.1038418,13.1991587 L51.1038418,13.1991587 L51.1038418,21.5920175 L53.4205386,21.5920175 Z M69.3362455,21.7543103 C69.9849206,21.7543103 70.5640947,21.6692998 71.073768,21.4992787 L71.073768,21.4992787 L71.073768,19.5981339 C70.6567626,19.7217856 70.2474795,19.7836115 69.8459187,19.7836115 C69.2281329,19.7836115 68.7454878,19.6174545 68.3979833,19.2851406 C68.0504787,18.9528266 67.8767265,18.3848017 67.8767265,17.5810656 L67.8767265,17.5810656 L67.8767265,11.7153384 L71.096935,11.7153384 L71.096935,9.90693233 L67.8767265,9.90693233 L67.8767265,6.17419679 L65.5368627,6.98566103 L65.5368627,9.90693233 L63.2664999,9.90693233 L63.2664999,11.7153384 L65.5368627,11.7153384 L65.5368627,17.7665432 C65.5368627,19.064886 65.8689226,20.0540995 66.5330424,20.7341839 C67.1971621,21.4142682 68.1315631,21.7543103 69.3362455,21.7543103 Z M78.278695,21.7543103 C79.4061541,21.7543103 80.4023337,21.507007 81.2672338,21.0124002 C82.132134,20.5177934 82.8001149,19.8145244 83.2711766,18.9025931 C83.7422382,17.9906619 83.9777691,16.924166 83.9777691,15.7031055 C83.9777691,14.482045 83.7422382,13.4116851 83.2711766,12.4920256 C82.8001149,11.5723661 82.132134,10.865233 81.2672338,10.3706262 C80.4023337,9.8760194 79.4061541,9.62871601 78.278695,9.62871601 C77.1357913,9.62871601 76.1318893,9.8760194 75.2669892,10.3706262 C74.4020891,10.865233 73.7341082,11.5723661 73.2630465,12.4920256 C72.7919848,13.4116851 72.556454,14.482045 72.556454,15.7031055 C72.556454,16.924166 72.7919848,17.9906619 73.2630465,18.9025931 C73.7341082,19.8145244 74.4020891,20.5177934 75.2669892,21.0124002 C76.1318893,21.507007 77.1357913,21.7543103 78.278695,21.7543103 Z M78.255528,19.8995349 C77.1898475,19.8995349 76.3674202,19.5440363 75.788246,18.8330391 C75.2090718,18.1220418 74.9194847,17.0787306 74.9194847,15.7031055 C74.9194847,14.3583933 75.2129329,13.3228104 75.7998295,12.5963567 C76.386726,11.869903 77.2130145,11.5066761 78.278695,11.5066761 C79.3289309,11.5066761 80.1436359,11.869903 80.7228101,12.5963567 C81.3019843,13.3228104 81.5915714,14.3583933 81.5915714,15.7031055 C81.5915714,17.0787306 81.3058455,18.1220418 80.7343936,18.8330391 C80.1629417,19.5440363 79.3366532,19.8995349 78.255528,19.8995349 Z M89.028168,21.5920175 L89.028168,14.98438 C89.028168,13.9178842 89.290727,13.075507 89.8158449,12.4572485 C90.3409629,11.8389901 91.0514166,11.5298608 91.947206,11.5298608 C92.7194382,11.5298608 93.2793066,11.7617078 93.6268111,12.2254016 C93.9743157,12.6890955 94.1480679,13.4232774 94.1480679,14.4279474 L94.1480679,14.4279474 L94.1480679,21.5920175 L96.4879317,21.5920175 L96.4879317,14.98438 C96.4879317,13.9178842 96.7466295,13.075507 97.2640251,12.4572485 C97.7814207,11.8389901 98.4880132,11.5298608 99.3838026,11.5298608 C100.156035,11.5298608 100.715903,11.7617078 101.063408,12.2254016 C101.410912,12.6890955 101.584665,13.4232774 101.584665,14.4279474 L101.584665,14.4279474 L101.584665,21.5920175 L103.924528,21.5920175 L103.924528,14.312024 C103.924528,11.1898187 102.627178,9.62871601 100.032478,9.62871601 C99.1675776,9.62871601 98.3914842,9.82965002 97.7041975,10.231518 C97.0169108,10.633386 96.495654,11.1820904 96.1404271,11.8776312 C95.5844199,10.3783544 94.4029046,9.62871601 92.5958811,9.62871601 C91.7464256,9.62871601 91.0050826,9.82192179 90.3718522,10.2083333 C89.7386217,10.5947449 89.2521154,11.1434493 88.9123332,11.8544465 L88.9123332,11.8544465 L88.7038305,9.90693233 L86.5261355,9.90693233 C86.6496927,10.8806894 86.7114713,11.9780982 86.7114713,13.1991587 L86.7114713,13.1991587 L86.7114713,21.5920175 L89.028168,21.5920175 Z" id="fantom" fill="#1969FF" fill-rule="nonzero"></path>
                    <path d="M116.480151,22.2068966 C118.204528,22.2068966 119.536302,21.8206897 120.475472,21.0482759 C121.414642,20.2758621 121.884226,19.1713103 121.884226,17.7346207 C121.884226,16.6995862 121.622491,15.8383448 121.099019,15.1508966 C120.575547,14.4634483 119.844226,13.9961379 118.905057,13.7489655 C119.721057,13.44 120.356151,12.9688276 120.81034,12.3354483 C121.264528,11.702069 121.491623,10.9373793 121.491623,10.0413793 C121.491623,8.65103448 121.037434,7.58124138 120.129057,6.832 C119.220679,6.08275862 117.927396,5.70813793 116.249208,5.70813793 L116.249208,5.70813793 L109.898264,5.70813793 L109.898264,22.2068966 L116.480151,22.2068966 Z M116.041358,13.1928276 L111.307019,13.1928276 L111.307019,6.93627586 L116.041358,6.93627586 C118.720302,6.93627586 120.059774,7.96358621 120.059774,10.0182069 C120.059774,11.0532414 119.721057,11.8411034 119.043623,12.3817931 C118.366189,12.9224828 117.365434,13.1928276 116.041358,13.1928276 L116.041358,13.1928276 Z M116.387774,20.9787586 L111.307019,20.9787586 L111.307019,14.4673103 L116.387774,14.4673103 C119.082113,14.4673103 120.429283,15.5718621 120.429283,17.7809655 C120.429283,18.8623448 120.102113,19.6656552 119.447774,20.1908966 C118.793434,20.7161379 117.773434,20.9787586 116.387774,20.9787586 L116.387774,20.9787586 Z M126.467903,22.2068966 L126.467903,5.152 L125.082243,5.152 L125.082243,22.2068966 L126.467903,22.2068966 Z M134.72358,22.3691034 C135.770523,22.3691034 136.694296,22.121931 137.4949,21.6275862 C138.295504,21.1332414 138.915202,20.4303448 139.353995,19.5188966 C139.792787,18.6074483 140.012183,17.5492414 140.012183,16.3442759 C140.012183,15.1393103 139.792787,14.0811034 139.353995,13.1696552 C138.915202,12.2582069 138.295504,11.5553103 137.4949,11.0609655 C136.694296,10.5666207 135.770523,10.3194483 134.72358,10.3194483 C133.66124,10.3194483 132.725919,10.5666207 131.917617,11.0609655 C131.109315,11.5553103 130.485768,12.2582069 130.046976,13.1696552 C129.608183,14.0811034 129.388787,15.1393103 129.388787,16.3442759 C129.388787,17.5492414 129.608183,18.6074483 130.046976,19.5188966 C130.485768,20.4303448 131.109315,21.1332414 131.917617,21.6275862 C132.725919,22.121931 133.66124,22.3691034 134.72358,22.3691034 Z M134.700485,21.1177931 C133.468787,21.1177931 132.521919,20.7084138 131.859881,19.8896552 C131.197844,19.0708966 130.866825,17.8891034 130.866825,16.3442759 C130.866825,14.8303448 131.205542,13.6524138 131.882976,12.8104828 C132.56041,11.9685517 133.507278,11.5475862 134.72358,11.5475862 C135.924485,11.5475862 136.863655,11.9685517 137.541089,12.8104828 C138.218523,13.6524138 138.55724,14.8303448 138.55724,16.3442759 C138.55724,17.8736552 138.222372,19.0515862 137.552636,19.878069 C136.8829,20.7045517 135.932183,21.1177931 134.700485,21.1177931 Z M147.875256,27.3743448 C149.49186,27.3743448 150.71586,26.9417931 151.547256,26.0766897 C152.378652,25.2115862 152.79435,23.9371034 152.79435,22.2532414 L152.79435,22.2532414 L152.79435,10.5975172 L151.385596,10.5975172 L151.385596,12.6830345 C151.031482,11.9106207 150.51186,11.3235862 149.826728,10.921931 C149.141596,10.5202759 148.314049,10.3194483 147.344086,10.3194483 C146.327935,10.3194483 145.427256,10.5588966 144.642049,11.0377931 C143.856841,11.5166897 143.244841,12.1925517 142.806049,13.0653793 C142.367256,13.9382069 142.14786,14.9462069 142.14786,16.0893793 C142.14786,17.2171034 142.367256,18.2173793 142.806049,19.0902069 C143.244841,19.9630345 143.856841,20.6427586 144.642049,21.1293793 C145.427256,21.616 146.327935,21.8593103 147.344086,21.8593103 C148.314049,21.8593103 149.145445,21.6468966 149.838275,21.222069 C150.531105,20.7972414 151.054577,20.1908966 151.40869,19.4030345 L151.40869,19.4030345 L151.40869,22.3922759 C151.40869,23.6126897 151.112313,24.5395862 150.519558,25.1729655 C149.926803,25.8063448 149.053067,26.1230345 147.89835,26.1230345 C147.08235,26.1230345 146.358728,26.0303448 145.727482,25.8449655 C145.096237,25.6595862 144.403407,25.3428966 143.648992,24.8948966 L143.648992,24.8948966 L143.37186,26.1230345 C144.649747,26.9572414 146.150879,27.3743448 147.875256,27.3743448 Z M147.528841,20.5848276 C146.312539,20.5848276 145.357973,20.1870345 144.665143,19.3914483 C143.972313,18.5958621 143.625898,17.4951724 143.625898,16.0893793 C143.625898,14.6835862 143.972313,13.5751724 144.665143,12.7641379 C145.357973,11.9531034 146.312539,11.5475862 147.528841,11.5475862 C148.729747,11.5475862 149.672765,11.9531034 150.357898,12.7641379 C151.04303,13.5751724 151.385596,14.6835862 151.385596,16.0893793 C151.385596,17.4797241 151.04303,18.5765517 150.357898,19.3798621 C149.672765,20.1831724 148.729747,20.5848276 147.528841,20.5848276 Z" id="Blog" fill="#115FFB" fill-rule="nonzero"></path>
                </g>
            </g>
        </g>
    </g>
</svg>