<?xml version="1.0" encoding="utf-8"?>
<!-- Generator: Adobe Illustrator 22.0.0, SVG Export Plug-In . SVG Version: 6.00 Build 0)  -->
<svg version="1.1" id="Layer_1" xmlns="http://www.w3.org/2000/svg" xmlns:xlink="http://www.w3.org/1999/xlink" x="0px" y="0px"
	 viewBox="0 0 768.6 582.3" style="enable-background:new 0 0 768.6 582.3;" xml:space="preserve">
<style type="text/css">
	.st0{fill:none;stroke:#FFFFFF;stroke-miterlimit:10;}
	.st1{fill:#19B6FF;}
	.st2{fill:none;stroke:#124AB3;stroke-miterlimit:10;}
	.st3{fill:#124AB3;}
	.st4{fill:none;stroke:#A5CBFF;stroke-width:2;stroke-miterlimit:10;}
	.st5{fill:#15CD72;}
	.st6{fill:#F9F9F9;}
	.st7{fill:none;stroke:#A5CBFF;stroke-width:2;stroke-linejoin:round;stroke-miterlimit:10;}
	.st8{fill:none;stroke:#FFFFFF;stroke-width:2;stroke-linecap:round;stroke-linejoin:round;stroke-miterlimit:10;}
	.st9{fill:none;stroke:#FFFFFF;stroke-width:2;stroke-linecap:round;stroke-miterlimit:10;}
	.st10{opacity:0.39;fill:#19B6FF;}
	.st11{fill:none;stroke:#19B6FF;stroke-width:2;stroke-miterlimit:10;}
	.st12{fill:none;stroke:#A5CBFF;stroke-miterlimit:10;}
	.st13{fill:#FFFFFF;stroke:#124AB3;stroke-miterlimit:10;}
	.st14{fill:none;stroke:#1969FF;stroke-miterlimit:10;}
	.st15{fill:#A5CBFF;}
</style>
<g>
	<path class="st0" d="M66.9,318.7l0.2,0.6c0,6.8,5.6,12.2,12.3,12.2L163,331c6.8,0,12.2-5.6,12.2-12.3l0-1.8
		c0-6.8,5.4-12.3,12.2-12.3l75.8-0.2"/>
	<path class="st0" d="M474.3,401h32.3c5,0,9,4,9,9v24.7c0,5,4,9,9,9H603"/>
	<path class="st0" d="M127.7,434l-0.2-35c0-6.8,5.4-12.3,12.2-12.3l184.1-1"/>
	
		<rect x="558.9" y="91.1" transform="matrix(1 -5.504029e-03 5.504029e-03 1 -0.639 3.2245)" class="st1" width="53.2" height="53.2"/>
	
		<rect x="580.6" y="252.8" transform="matrix(1 -5.504029e-03 5.504029e-03 1 -1.4902 3.3076)" class="st2" width="39.3" height="39.3"/>
	
		<rect x="582.6" y="361.8" transform="matrix(1 -5.504029e-03 5.504029e-03 1 -2.0139 3.2437)" class="st3" width="11.4" height="11.4"/>
	
		<rect x="200" y="348.1" transform="matrix(1 -5.504029e-03 5.504029e-03 1 -1.9519 1.1451)" class="st3" width="14.1" height="14.1"/>
	
		<rect x="447.4" y="69.8" transform="matrix(1 -5.504029e-03 5.504029e-03 1 -0.4339 2.5205)" class="st2" width="20.6" height="20.6"/>
	<path class="st4" d="M149,218.7L149,218.7c-5.8,0-10.5,4.8-10.5,10.6l0,0c0,5.8,4.8,10.5,10.6,10.5c5.8,0,10.5-4.8,10.5-10.6
		C159.6,223.4,154.9,218.7,149,218.7z"/>
	
		<rect x="178.6" y="422.1" transform="matrix(1 -5.504029e-03 5.504029e-03 1 -2.4008 1.0702)" class="st2" width="29.2" height="29.2"/>
	<circle class="st5" cx="620.3" cy="487.9" r="71.6"/>
	<circle class="st6" cx="74.6" cy="325" r="24.6"/>
	<circle class="st6" cx="127.4" cy="434.1" r="11.3"/>
	<g>
		<g>
			<polygon class="st3" points="365.9,375.4 257.5,310.8 256.3,451 366.4,516.6 496.3,445.8 497.3,314.1 			"/>
			<polygon class="st3" points="367.8,385.5 257.3,319.8 369.5,268.3 498.3,325.9 			"/>
		</g>
		<g>
			<g>
				<line class="st4" x1="262.1" y1="169.1" x2="261.5" y2="296.2"/>
				<polygon class="st7" points="368,231.9 262.1,169.1 370.4,122.4 495,173.9 				"/>
				<line class="st4" x1="495" y1="173.4" x2="494" y2="317"/>
			</g>
			<g>
				<polyline class="st8" points="276.5,177.5 370.5,136.5 479.6,181 				"/>
				<line class="st9" x1="480" y1="181.1" x2="479.9" y2="296.5"/>
				<line class="st9" x1="276.5" y1="177.4" x2="275.8" y2="289.6"/>
				<polygon class="st10" points="389.9,208.3 334.9,181.5 390.7,155.8 445.7,182.6 				"/>
				<g>
					<polygon class="st6" points="366.1,504.3 495.5,437 497.5,303.7 349.6,370.6 					"/>
					<polygon class="st11" points="379.3,487.5 482.7,432.3 483.9,327.5 379.8,376.2 					"/>
					<polygon class="st1" points="366.1,504.5 256.3,439 256.6,297.5 367.2,362.9 					"/>
				</g>
				<g>
					<path class="st1" d="M368.8,248.2l123.9,55.5L367.2,361l-106.3-63.3L368.8,248.2 M368.8,246l-112.2,51.5l110.5,65.8l130.5-59.6
						L368.8,246L368.8,246z"/>
				</g>
				<line class="st9" x1="368.1" y1="231.8" x2="366.6" y2="361.1"/>
			</g>
		</g>
	</g>
	<path class="st0" d="M585.4,128.7l0.4,91.1c0,6.8-5.4,12.3-12.2,12.3l-78.3,0.5"/>
	<polygon class="st10" points="259.9,298.2 277,289.7 276.5,307.5 	"/>
	<polygon class="st10" points="495.8,304 479.2,310.6 478.8,296.1 	"/>
	<path class="st12" d="M183.9,74.5l0.9,156.9c0,6.8,5.6,12.2,12.3,12.2l65.2,0"/>
	<line class="st13" x1="214.1" y1="361.8" x2="55" y2="361.8"/>
	<line class="st13" x1="688.1" y1="372.7" x2="582.8" y2="372.7"/>
	<polygon class="st10" points="289.2,300 290,220.8 350.9,252.1 350.1,331.3 	"/>
	<polygon class="st5" points="467.1,304.9 466.8,256.4 427.6,275.1 427.3,323.4 	"/>
	<circle class="st14" cx="620.3" cy="487.9" r="64.7"/>
	<rect x="206.8" y="201.5" class="st3" width="19.1" height="19.1"/>
	<rect x="649.9" y="159.2" class="st3" width="19.1" height="19.1"/>
	<path class="st0" d="M477.6,348.3h75.7c5,0,9-4,9-9v-14.7c0-5,4-9,9-9H668c5,0,9-4,9-9V275"/>
	<circle class="st14" cx="74.6" cy="325" r="21"/>
	<polygon class="st15" points="459.7,359.2 459.9,433.1 471.8,426.2 472.5,350.7 	"/>
	<g>
		<path class="st15" d="M211.1,122l-50.1,0.3c-3.9,0-7-3.1-7-7l-0.3-50.1c0-3.9,3.1-7,7-7l50.1-0.3c3.9,0,7,3.1,7,7l0.3,50.1
			C218.1,118.8,214.9,121.9,211.1,122z"/>
		<path class="st14" d="M207.8,118.7l-43.6,0.2c-3.9,0-7-3.1-7-7l-0.2-43.6c0-3.9,3.1-7,7-7l43.6-0.2c3.9,0,7,3.1,7,7l0.2,43.6
			C214.8,115.5,211.7,118.7,207.8,118.7z"/>
	</g>
	
		<rect x="667.8" y="246.6" transform="matrix(0.7032 -0.711 0.711 0.7032 11.8101 574.7822)" class="st15" width="53.2" height="53.2"/>
	<line class="st0" x1="572.3" y1="128.8" x2="598" y2="128.8"/>
	<path class="st0" d="M669.3,471.3"/>
	<path class="st0" d="M594.6,471.3"/>
	
		<rect x="672.5" y="251.3" transform="matrix(0.7032 -0.711 0.711 0.7032 11.8101 574.7822)" class="st15" width="43.8" height="43.8"/>
</g>
</svg>
