<svg id="Layer_1" data-name="Layer 1" xmlns="http://www.w3.org/2000/svg" viewBox="0 0 100 100"><defs><style>.cls-1{fill:#19b6ff;}.cls-2,.cls-3{fill:#fff;}.cls-2,.cls-5{stroke:#124ab3;stroke-linejoin:round;stroke-width:2.5px;}.cls-4{fill:#124ab3;}.cls-5{fill:none;stroke-linecap:round;}</style></defs><title>All icons</title><circle class="cls-1" cx="50.38" cy="49.73" r="48.53"/><path class="cls-2" d="M71.38,25.08H30.69a8.12,8.12,0,0,0-8,8.22V60.5a8.12,8.12,0,0,0,8,8.22H58.74v11.7l9.88-11.7h2.76a8.12,8.12,0,0,0,8-8.22V33.3A8.12,8.12,0,0,0,71.38,25.08Z"/><rect class="cls-3" x="28.38" y="29.98" width="45.63" height="33.36" rx="5.7" ry="5.7"/><ellipse class="cls-4" cx="35.92" cy="47.64" rx="2.54" ry="2.46"/><line class="cls-5" x1="46.65" y1="47.7" x2="69.45" y2="47.7"/><ellipse class="cls-4" cx="35.92" cy="57.64" rx="2.54" ry="2.46"/><line class="cls-5" x1="46.65" y1="57.7" x2="69.45" y2="57.7"/><ellipse class="cls-4" cx="35.92" cy="37.73" rx="2.54" ry="2.46"/><line class="cls-5" x1="46.65" y1="37.79" x2="69.45" y2="37.79"/></svg>