<?xml version="1.0" encoding="UTF-8"?>
<svg width="32px" height="32px" viewBox="0 0 32 32" version="1.1" xmlns="http://www.w3.org/2000/svg" xmlns:xlink="http://www.w3.org/1999/xlink">
    <!-- Generator: Sketch 64 (93537) - https://sketch.com -->
    <title>Payments Copy 5</title>
    <desc>Created with Sketch.</desc>
    <g id="Page-1" stroke="none" stroke-width="1" fill="none" fill-rule="evenodd">
        <g id="technology-menu" transform="translate(-51.000000, -254.000000)">
            <g id="Payments-Copy-5" transform="translate(51.000000, 254.000000)">
                <circle id="Oval" fill="#19B6FF" fill-rule="nonzero" cx="16.0064646" cy="15.9709091" r="15.6864646"></circle>
                <path d="M27.7979798,16.1616162 C27.7979798,10.6276114 23.3118697,6.14141414 17.7779727,6.14141414 C17.4952654,6.14141414 17.2125581,6.14141414 16.9334293,6.17720058 L13.87017,6.17720058 L12.1596117,7.86632035 C9.40665997,9.73042141 7.75757576,12.8386632 7.75757576,16.1634055 C7.75757576,19.4881478 9.40665997,22.5963896 12.1596117,24.4604906 L13.7484985,26.1818182 L17.9640586,26.1818182 C23.4251497,26.0803785 27.7989216,21.6237556 27.7979798,16.1616162 L27.7979798,16.1616162 Z" id="Path" fill="#1969FF" fill-rule="nonzero"></path>
                <path d="M27.7979798,16.1616162 C27.7979798,10.6276114 23.3118697,6.14141414 17.7779727,6.14141414 C17.4952654,6.14141414 17.2125581,6.14141414 16.9334293,6.17720058 L13.87017,6.17720058 L12.1596117,7.86632035 C9.40665997,9.73042141 7.75757576,12.8386632 7.75757576,16.1634055 C7.75757576,19.4881478 9.40665997,22.5963896 12.1596117,24.4604906 L13.7484985,26.1818182 L17.9640586,26.1818182 C23.4251497,26.0803785 27.7989216,21.6237556 27.7979798,16.1616162 L27.7979798,16.1616162 Z" id="Path" stroke="#124AB3" stroke-width="0.896969709" stroke-linejoin="round"></path>
                <circle id="Oval" stroke="#124AB3" stroke-width="0.896969709" fill="#FFFFFF" fill-rule="nonzero" stroke-linejoin="round" cx="14.2222222" cy="16.1616162" r="10.020202"></circle>
                <path d="M13.9636364,22.3030303 L14.5131313,15.4181818 L16.7757576,15.4181818 L16.8888889,14.1575758 L14.610101,14.1575758 L14.6909091,13.2363636 C14.7771044,12.2020202 15.2619529,11.6848485 16.1454545,11.6848485 C16.3717172,11.6848485 16.630303,11.7279461 16.9212121,11.8141414 L16.9212121,11.8141414 L17.0343434,10.4727273 C16.6787879,10.3649832 16.2909091,10.3111111 15.8707071,10.3111111 C15.0626263,10.3111111 14.413468,10.5481481 13.9232323,11.0222222 C13.4329966,11.4962963 13.1501684,12.1858586 13.0747475,13.0909091 L13.0747475,13.0909091 L12.9939394,14.1575758 L11.4262626,14.1575758 L11.3131313,15.4181818 L12.8969697,15.4181818 L12.3474747,22.3030303 L13.9636364,22.3030303 Z" id="f" fill="#1969FF" fill-rule="nonzero"></path>
            </g>
        </g>
    </g>
</svg>