<svg id="Layer_1" data-name="Layer 1" xmlns="http://www.w3.org/2000/svg" viewBox="0 0 100 100"><defs><style>.cls-1{fill:#19b6ff;}.cls-2{fill:#a5cbff;}.cls-3{fill:#fff;}.cls-4{fill:none;stroke:#124ab3;stroke-linejoin:round;stroke-width:2.5px;}</style></defs><title>All icons</title><circle class="cls-1" cx="50.28" cy="50.38" r="48.53"/><polygon class="cls-1" points="50.79 39.61 27.96 49.8 50.79 60 73.62 49.8 50.79 39.61"/><polyline class="cls-2" points="28.07 30.41 27.96 71.07 50.79 81.26 73.62 71.07 73.62 29.95"/><polygon class="cls-2" points="50.79 19.5 27.96 29.69 50.79 39.89 73.62 29.69 50.79 19.5"/><polygon class="cls-3" points="50.4 39.7 50.4 81.26 27.96 71.07 27.96 29.69 50.4 39.7"/><polygon class="cls-4" points="50.91 19.94 28.41 29.99 50.91 40.04 73.41 29.99 50.91 19.94"/><polygon class="cls-4" points="50.91 39.76 28.41 49.81 50.91 59.86 73.41 49.81 50.91 39.76"/><polyline class="cls-4" points="28.51 30.7 28.41 70.77 50.91 80.82 73.41 70.77 73.41 30.24"/></svg>