<?xml version="1.0" encoding="UTF-8"?>
<svg width="18px" height="18px" viewBox="0 0 18 18" version="1.1" xmlns="http://www.w3.org/2000/svg" xmlns:xlink="http://www.w3.org/1999/xlink">
    <!-- Generator: sketchtool 64 (101010) - https://sketch.com -->
    <title>F3345194-BF5B-403C-9A7D-AF98A9B40AE9</title>
    <desc>Created with sketchtool.</desc>
    <defs>
        <path d="M18.3333333,18.3333333 L15,18.3333333 L15,12.5008333 C15,10.9008333 14.2941667,10.0083333 13.0283333,10.0083333 C11.6508333,10.0083333 10.8333333,10.9383333 10.8333333,12.5008333 L10.8333333,18.3333333 L7.5,18.3333333 L7.5,7.5 L10.8333333,7.5 L10.8333333,8.71833333 C10.8333333,8.71833333 11.8791667,6.88333333 14.2358333,6.88333333 C16.5933333,6.88333333 18.3333333,8.32166667 18.3333333,11.2983333 L18.3333333,18.3333333 L18.3333333,18.3333333 Z M3.70166667,5.7675 C2.5775,5.7675 1.66666667,4.84916667 1.66666667,3.71666667 C1.66666667,2.585 2.5775,1.66666667 3.70166667,1.66666667 C4.825,1.66666667 5.7358339,2.585 5.7358339,3.71666667 C5.73666667,4.84916667 4.825,5.7675 3.70166667,5.7675 L3.70166667,5.7675 Z M1.66666667,18.3333333 L5.83333333,18.3333333 L5.83333333,7.5 L1.66666667,7.5 L1.66666667,18.3333333 Z" id="path-1"></path>
    </defs>
    <g id="Page-1" stroke="none" stroke-width="1" fill="none" fill-rule="evenodd">
        <g id="blog-page" transform="translate(-70.000000, -695.000000)">
            <g id="Icon/--Brand/LinkedIn" transform="translate(69.000000, 694.000000)">
                <mask id="mask-2" fill="white">
                    <use xlink:href="#path-1"></use>
                </mask>
                <use id="Fill" fill="#E6E6E6" xlink:href="#path-1"></use>
            </g>
        </g>
    </g>
</svg>