<?xml version="1.0" encoding="UTF-8"?>
<svg width="32px" height="40px" viewBox="0 0 32 40" version="1.1" xmlns="http://www.w3.org/2000/svg" xmlns:xlink="http://www.w3.org/1999/xlink">
    <!-- Generator: sketchtool 63.1 (101010) - https://sketch.com -->
    <title>0BD70EF1-5C23-4399-A320-03526B258B8E</title>
    <desc>Created with sketchtool.</desc>
    <g id="Page-1" stroke="none" stroke-width="1" fill="none" fill-rule="evenodd">
        <g id="Intro-to-Fantom" transform="translate(-55.000000, -30.000000)" fill="#1969FF" fill-rule="nonzero">
            <g id="Fantom-Logo-blue" transform="translate(55.000000, 30.000000)">
                <path d="M14.0429044,0.383168891 C15.0146986,-0.127722964 16.4933749,-0.127722964 17.4651691,0.383168891 L17.4651691,0.383168891 L27.3814425,5.5963541 C27.9666949,5.90403313 28.2881299,6.36248957 28.3457473,6.83578988 L28.355185,6.83583635 L28.355185,33.0398757 C28.3424656,33.555961 28.018007,34.0689911 27.3814425,34.4036459 L27.3814425,34.4036459 L17.4651691,39.6168311 C16.4933749,40.127723 15.0146986,40.127723 14.0429044,39.6168311 L14.0429044,39.6168311 L4.12663097,34.4036459 C3.49290182,34.0704817 3.18876525,33.5540326 3.1736996,33.0398757 C3.17238769,32.995103 3.17209224,32.9570058 3.173034,32.9245842 L3.1736996,6.83583635 C3.22234854,6.35706669 3.52918747,5.91044222 4.12663097,5.5963541 L4.12663097,5.5963541 Z M26.794,21.455 L17.4651691,26.3594515 C16.4933749,26.8703434 15.0146986,26.8703434 14.0429044,26.3594515 L14.0429044,26.3594515 L4.734,21.466 L4.734,32.988 L14.0429044,37.8560331 C14.5334834,38.1169044 15.0414407,38.3718035 15.5406846,38.4327189 L15.7540367,38.4464008 C16.3099067,38.4482542 16.8495538,38.1673006 17.3968165,37.9013465 L17.3968165,37.9013465 L26.794,32.945 L26.794,21.455 Z M1.56083587,32.4702227 C1.56083587,33.4742157 1.67806506,34.1340978 1.91082325,34.5989832 C2.103745,34.9843036 2.39321017,35.2787724 2.92175454,35.6370774 L2.95192844,35.657428 C3.06792,35.7352644 3.19569839,35.8168167 3.35123666,35.9126442 L3.53465738,36.0244617 L4.09789693,36.3627841 L3.29005952,37.6921097 L2.65965111,37.3131383 L2.5536897,37.2483869 C2.37141092,37.1363967 2.22033441,37.0401823 2.07941432,36.9456176 C0.573048733,35.9347679 0.0112530332,34.8326777 0.000167755791,32.5400614 L-1.61648472e-13,32.4702227 L1.56083587,32.4702227 Z M14.9716862,14.4320913 C14.9001304,14.4566277 14.8330568,14.484982 14.7718603,14.5171542 L14.7718603,14.5171542 L4.85558686,19.7303395 L4.85558686,19.7303395 L4.8258105,19.7465758 L4.81741586,19.7514241 L4.83298498,19.7602962 L4.85558686,19.7725088 L14.7718603,24.985694 C14.8330568,25.0178663 14.9001304,25.0462206 14.9716862,25.070757 Z M16.5363873,14.4320913 L16.5363873,25.070757 C16.6079431,25.0462206 16.6750166,25.0178663 16.7362132,24.985694 L16.7362132,24.985694 L26.6524866,19.7725088 L26.6524866,19.7725088 L26.682263,19.7562725 L26.6906576,19.7514241 L26.6750885,19.7425521 L26.6524866,19.7303395 L16.7362132,14.5171542 C16.6750166,14.484982 16.6079431,14.4566277 16.5363873,14.4320913 Z M26.794,8.695 L17.899,13.371 L26.794,18.047 L26.794,8.695 Z M4.734,8.706 L4.734,18.036 L13.608,13.371 L4.734,8.706 Z M16.7362132,1.75692638 C16.220534,1.48582343 15.2875394,1.48582343 14.7718603,1.75692638 L14.7718603,1.75692638 L4.85558686,6.97011159 L4.85558686,6.97011159 L4.8258105,6.98634794 L4.81741586,6.99119627 L4.83298498,7.00006833 L4.85558686,7.01228095 L14.7718603,12.2254662 C15.2875394,12.4965691 16.220534,12.4965691 16.7362132,12.2254662 L16.7362132,12.2254662 L26.6524866,7.01228095 L26.6524866,7.01228095 L26.682263,6.9960446 L26.6906576,6.99119627 L26.6750885,6.98232421 L26.6524866,6.97011159 Z M28.2596362,2.32860494 L28.8900446,2.70757631 L28.996006,2.77232778 C29.1782848,2.884318 29.3293613,2.98053239 29.4702814,3.0750971 C30.976647,4.08594673 31.5384427,5.188037 31.549528,7.48065321 L31.5496957,7.55049197 L29.9888599,7.55049197 C29.9888599,6.54649891 29.8716307,5.88661681 29.6388725,5.42173149 C29.4459507,5.03641105 29.1564856,4.74194226 28.6279412,4.3836373 L28.5977673,4.36328667 C28.4817757,4.28545031 28.3539973,4.20389792 28.1984591,4.10807049 L28.0150384,3.99625294 L27.4517988,3.65793054 L28.2596362,2.32860494 Z" id="Combined-Shape"></path>
            </g>
        </g>
    </g>
</svg>