<svg id="Layer_1" data-name="Layer 1" xmlns="http://www.w3.org/2000/svg" viewBox="0 0 100 100"><defs><style>.cls-1{fill:#19b6ff;}.cls-2{fill:none;}.cls-2,.cls-3{stroke:#124ab3;stroke-linejoin:round;stroke-width:2.5px;}.cls-3{fill:#fff;}</style></defs><title>All icons</title><circle class="cls-1" cx="50.54" cy="49.98" r="48.53"/><path class="cls-2" d="M26.23,36h0A13.49,13.49,0,0,1,39.72,22.49H63.59A12.76,12.76,0,0,1,76.35,35.25v1.54A12.76,12.76,0,0,1,63.59,49.55H38.37A12.76,12.76,0,0,0,25.61,62.31h0A12.76,12.76,0,0,0,38.37,75.07H62.55a14,14,0,0,0,14-14h0"/><circle class="cls-3" cx="27.3" cy="34.26" r="7.62"/><circle class="cls-3" cx="76.35" cy="36.43" r="5.38"/><circle class="cls-3" cx="76.35" cy="65.02" r="7.17"/><circle class="cls-3" cx="51.21" cy="22.64" r="5.38"/><circle class="cls-3" cx="51.21" cy="49.7" r="5.38"/><circle class="cls-3" cx="51.21" cy="75.53" r="5.38"/><circle class="cls-3" cx="24.53" cy="62.31" r="5.38"/></svg>