<svg id="Layer_1" data-name="Layer 1" xmlns="http://www.w3.org/2000/svg" viewBox="0 0 100 100"><defs><style>.cls-1{fill:#19b6ff;}.cls-2{fill:#a5cbff;}.cls-2,.cls-3{stroke:#124ab3;stroke-linejoin:round;stroke-width:2.5px;}.cls-3{fill:#fff;}</style></defs><title>All icons</title><circle class="cls-1" cx="49.94" cy="50.38" r="48.53"/><path class="cls-2" d="M79,68.34H65.86c-2.31,0-3.65-2.52-3.07-5.32l.07-.34c1.22-5.83,5.39-9.56,9.57-9.56h0c4.17,0,8.34,3.73,9.56,9.56l.07.34C82.65,65.82,81.3,68.34,79,68.34Z"/><path class="cls-3" d="M72.58,55.41h0a8,8,0,0,1-7.9-6.32l-1-5.07c-1.08-5.78,2.76-11.6,8.85-11.6h0c6.08,0,9.92,5.82,8.84,11.6l-1,5.07A8,8,0,0,1,72.58,55.41Z"/><path class="cls-2" d="M35.84,68.34H22.71c-2.31,0-3.65-2.52-3.07-5.32l.07-.34c1.22-5.83,5.39-9.56,9.57-9.56h0c4.17,0,8.34,3.73,9.56,9.56l.07.34C39.49,65.82,38.15,68.34,35.84,68.34Z"/><path class="cls-3" d="M29.42,55.41h0a8,8,0,0,1-7.89-6.32l-1-5.07c-1.08-5.78,2.76-11.6,8.84-11.6h0c6.09,0,9.93,5.82,8.85,11.6l-1,5.07A8,8,0,0,1,29.42,55.41Z"/><path class="cls-2" d="M60.1,75h-18c-3.16,0-5-3.47-4.2-7.3l.1-.47c1.67-8,7.38-13.12,13.11-13.12h0c5.73,0,11.45,5.13,13.12,13.12l.1.47C65.11,71.55,63.27,75,60.1,75Z"/><path class="cls-3" d="M51.3,57.27h0a11,11,0,0,1-10.84-8.66l-1.3-7C37.68,33.73,43,25.74,51.3,25.74h0c8.34,0,13.62,8,12.13,15.91l-1.3,7A11,11,0,0,1,51.3,57.27Z"/></svg>