<?xml version="1.0" encoding="UTF-8"?>
<svg width="20px" height="16px" viewBox="0 0 20 16" version="1.1" xmlns="http://www.w3.org/2000/svg" xmlns:xlink="http://www.w3.org/1999/xlink">
    <!-- Generator: sketchtool 64 (101010) - https://sketch.com -->
    <title>3564C104-23A7-4F5D-B8A3-5FAE51940D92</title>
    <desc>Created with sketchtool.</desc>
    <defs>
        <path d="M8.29,20.002 C15.837,20.002 19.965,13.84565 19.965,8.5075 C19.965,8.33225 19.965,8.15799 19.953,7.98471 C20.756,7.41367 21.449,6.7048 22,5.89354 C21.252,6.22041 20.457,6.43504 19.644,6.52955 C20.5,6.02448 21.141,5.23094 21.448,4.29464 C20.642,4.76525 19.761,5.09704 18.842,5.27525 C17.288,3.64878 14.689,3.57002 13.036,5.1 C11.971,6.08651 11.518,7.55742 11.849,8.96039 C8.55,8.79696 5.476,7.26304 3.392,4.73966 C2.303,6.58567 2.86,8.94661 4.663,10.132 C4.01,10.11329 3.371,9.94001 2.8,9.62693 L2.8,9.67812 C2.801,11.60094 4.178,13.25694 6.092,13.63795 C5.488,13.8004 4.854,13.82403 4.24,13.70687 C4.777,15.35303 6.318,16.48033 8.073,16.51282 C6.62,17.63717 4.825,18.24758 2.977,18.24562 C2.651,18.24463 2.325,18.22592 2,18.18753 C3.877,19.37292 6.06,20.002 8.29,19.99909" id="path-1"></path>
    </defs>
    <g id="Page-1" stroke="none" stroke-width="1" fill="none" fill-rule="evenodd">
        <g id="blog-page" transform="translate(-69.000000, -632.000000)">
            <g id="Icon/--Brand/Twitter" transform="translate(67.000000, 628.000000)">
                <mask id="mask-2" fill="white">
                    <use xlink:href="#path-1"></use>
                </mask>
                <use id="Fill" fill="#E6E6E6" xlink:href="#path-1"></use>
            </g>
        </g>
    </g>
</svg>